<svg width="25" height="24" viewBox="0 0 25 24" fill="none" xmlns="http://www.w3.org/2000/svg">
<path id="Vector" d="M7.88734 0.0839251C6.61054 0.144165 5.73862 0.347925 4.97638 0.647445C4.1875 0.954885 3.51886 1.36745 2.85358 2.03513C2.1883 2.70281 1.77862 3.37193 1.47334 4.16201C1.1779 4.92593 0.977738 5.79857 0.921338 7.07609C0.864938 8.35361 0.852458 8.76425 0.858698 12.023C0.864938 15.2817 0.879338 15.6902 0.941258 16.9703C1.00222 18.2469 1.20526 19.1186 1.50478 19.881C1.8127 20.6699 2.22478 21.3383 2.8927 22.0038C3.56062 22.6694 4.22926 23.0781 5.02126 23.3838C5.78446 23.6788 6.65734 23.8799 7.93462 23.9358C9.2119 23.9918 9.62302 24.0047 12.8808 23.9985C16.1385 23.9922 16.5487 23.9778 17.8286 23.9171C19.1085 23.8564 19.9757 23.6519 20.7384 23.3538C21.5273 23.0452 22.1961 22.6338 22.8612 21.9657C23.5262 21.2975 23.9357 20.6279 24.2407 19.8374C24.5364 19.0742 24.7373 18.2013 24.7927 16.925C24.8486 15.6441 24.8618 15.2351 24.8556 11.9769C24.8493 8.71865 24.8347 8.31017 24.774 7.03049C24.7133 5.75081 24.51 4.88177 24.2107 4.11881C23.9023 3.32993 23.4907 2.66201 22.823 1.99601C22.1553 1.33001 21.4853 0.920805 20.6949 0.616485C19.9313 0.321045 19.0589 0.119685 17.7816 0.0644851C16.5043 0.00928514 16.0932 -0.00487487 12.8342 0.00136513C9.57526 0.00760513 9.16726 0.0215251 7.88734 0.0839251ZM8.0275 21.777C6.8575 21.7262 6.22222 21.5318 5.79886 21.369C5.23822 21.153 4.83886 20.8919 4.41694 20.4741C3.99502 20.0562 3.73582 19.6554 3.51694 19.096C3.35254 18.6726 3.15454 18.0381 3.09982 16.8681C3.0403 15.6035 3.02782 15.2238 3.02086 12.0201C3.0139 8.81633 3.02614 8.43713 3.08158 7.17209C3.1315 6.00305 3.3271 5.36705 3.48958 4.94393C3.70558 4.38257 3.96574 3.98393 4.38454 3.56225C4.80334 3.14057 5.20294 2.88089 5.76286 2.66201C6.18574 2.49689 6.8203 2.30057 7.98982 2.24489C9.25534 2.18489 9.63454 2.17289 12.8378 2.16593C16.0411 2.15897 16.4213 2.17097 17.6873 2.22664C18.8563 2.27753 19.4925 2.4712 19.9152 2.63464C20.4761 2.85065 20.8752 3.11009 21.2969 3.52961C21.7185 3.94913 21.9785 4.34729 22.1973 4.90841C22.3627 5.33009 22.559 5.96441 22.6142 7.13465C22.6745 8.40017 22.6881 8.7796 22.6939 11.9826C22.6997 15.1857 22.6884 15.5661 22.6329 16.8306C22.5818 18.0006 22.3879 18.6362 22.2249 19.06C22.0089 19.6204 21.7485 20.02 21.3295 20.4414C20.9105 20.8629 20.5113 21.1226 19.9512 21.3414C19.5288 21.5063 18.8935 21.7031 17.7249 21.7588C16.4594 21.8183 16.0802 21.8308 12.8757 21.8378C9.67126 21.8447 9.29326 21.8318 8.02774 21.777M17.8101 5.58641C17.8106 5.87123 17.8955 6.14952 18.0542 6.38607C18.2128 6.62262 18.4381 6.80681 18.7014 6.91535C18.9647 7.02389 19.2543 7.05189 19.5336 6.99583C19.8128 6.93976 20.0692 6.80214 20.2702 6.60037C20.4713 6.3986 20.6079 6.14174 20.663 5.86228C20.718 5.58283 20.689 5.29333 20.5795 5.03039C20.47 4.76746 20.2849 4.5429 20.0478 4.38512C19.8107 4.22735 19.5321 4.14344 19.2473 4.14401C18.8654 4.14477 18.4995 4.29715 18.23 4.56764C17.9605 4.83813 17.8095 5.20458 17.8101 5.58641ZM6.69574 12.0119C6.70246 15.4151 9.4663 18.1677 12.8688 18.1612C16.2713 18.1547 19.0257 15.3911 19.0193 11.9879C19.0128 8.58473 16.2482 5.83145 12.8453 5.83817C9.4423 5.84489 6.68926 8.60921 6.69574 12.0119ZM8.85718 12.0076C8.85561 11.2165 9.08868 10.4426 9.52692 9.78395C9.96515 9.12527 10.5889 8.61134 11.3192 8.30714C12.0495 8.00294 12.8536 7.92213 13.6299 8.07494C14.4061 8.22774 15.1196 8.6073 15.6801 9.16561C16.2407 9.72393 16.623 10.4359 16.7789 11.2115C16.9348 11.9872 16.8572 12.7916 16.5559 13.5231C16.2546 14.2547 15.7431 14.8804 15.0862 15.3212C14.4292 15.7621 13.6563 15.9982 12.8652 15.9998C12.3399 16.0009 11.8195 15.8985 11.3337 15.6984C10.848 15.4984 10.4064 15.2046 10.0342 14.8339C9.66204 14.4632 9.36653 14.0228 9.16457 13.5378C8.96261 13.0529 8.85815 12.5329 8.85718 12.0076Z" fill="#E6E6E6"/>
</svg>
