<svg width="23" height="18" viewBox="0 0 23 18" fill="none" xmlns="http://www.w3.org/2000/svg">
<path id="Vector" d="M20.6731 2.33867L22.4286 0.659334V0.291748H16.3474L12.0134 11.0791L7.08267 0.291748H0.706339V0.659334L2.75692 3.12792C2.95676 3.31033 3.06126 3.57708 3.03467 3.84567V13.5467C3.09792 13.896 2.98426 14.2553 2.73859 14.5092L0.428589 17.3087V17.6717H6.97817V17.3042L4.66817 14.5092C4.41792 14.2544 4.29967 13.9015 4.35009 13.5467V5.15558L10.0994 17.6763H10.7677L15.7113 5.15558V15.1298C15.7113 15.3929 15.7113 15.447 15.5389 15.6193L13.7606 17.3399V17.7084H22.3883V17.3408L20.6741 15.6624C20.5238 15.5487 20.4459 15.358 20.4779 15.1729V2.82817C20.4459 2.64208 20.5229 2.45142 20.6731 2.33867Z" fill="#E6E6E6"/>
</svg>
