<svg width="24" height="24" viewBox="0 0 24 24" fill="none" xmlns="http://www.w3.org/2000/svg">
<path id="Vector" d="M21.3237 9.3468C20.565 9.3468 19.8973 9.66041 19.4065 10.1511C17.6007 8.90165 15.1676 8.09736 12.4715 8.01136L13.8726 1.69842L18.3342 2.69999C18.3342 3.79262 19.2245 4.68291 20.3171 4.68291C21.43 4.68291 22.3253 3.76733 22.3253 2.67471C22.3253 1.58208 21.4351 0.666504 20.3171 0.666504C19.5381 0.666504 18.8654 1.13694 18.5315 1.77936L13.6045 0.686737C13.3567 0.620978 13.1139 0.798024 13.0482 1.04589L11.5104 8.0063C8.83443 8.1176 6.42661 8.92189 4.61568 10.1713C4.12502 9.66041 3.43201 9.3468 2.67324 9.3468C-0.139251 9.3468 -1.05989 13.1204 1.51487 14.4103C1.42381 14.8099 1.38335 15.2348 1.38335 15.6598C1.38335 19.8987 6.15851 23.3333 12.0213 23.3333C17.9093 23.3333 22.6844 19.8987 22.6844 15.6598C22.6844 15.2348 22.6389 14.7897 22.5276 14.3901C25.0518 13.0951 24.1211 9.3468 21.3237 9.3468ZM5.59703 14.6784C5.59703 13.5655 6.48731 12.6701 7.60523 12.6701C8.69785 12.6701 9.58814 13.5605 9.58814 14.6784C9.58814 15.771 8.69785 16.6613 7.60523 16.6613C6.49237 16.6664 5.59703 15.771 5.59703 14.6784ZM16.4373 19.408C14.5959 21.2493 9.40097 21.2493 7.5597 19.408C7.35736 19.231 7.35736 18.9174 7.5597 18.715C7.73675 18.538 8.05037 18.538 8.22742 18.715C9.63366 20.1567 14.2976 20.182 15.7645 18.715C15.9416 18.538 16.2552 18.538 16.4322 18.715C16.6396 18.9174 16.6396 19.231 16.4373 19.408ZM16.3968 16.6664C15.3042 16.6664 14.4139 15.7761 14.4139 14.6835C14.4139 13.5706 15.3042 12.6752 16.3968 12.6752C17.5096 12.6752 18.405 13.5655 18.405 14.6835C18.3999 15.771 17.5096 16.6664 16.3968 16.6664Z" fill="#E6E6E6"/>
</svg>
