<svg width="23" height="16" viewBox="0 0 23 16" fill="none" xmlns="http://www.w3.org/2000/svg">
<g id="Group">
<path id="Vector" d="M21.8017 2.66024C21.5571 1.68198 20.7828 0.907524 19.8452 0.662959C18.0925 0.173828 11.1632 0.173828 11.1632 0.173828C11.1632 0.173828 4.19306 0.173828 2.44034 0.662959C1.50284 0.907524 0.728386 1.68198 0.483815 2.66024C-0.00531006 4.3722 -0.00531006 8.04067 -0.00531006 8.04067C-0.00531006 8.04067 -0.00531006 11.6684 0.483815 13.4211C0.728386 14.3994 1.50284 15.1331 2.44034 15.3777C4.19306 15.826 11.1632 15.826 11.1632 15.826C11.1632 15.826 18.0925 15.826 19.8452 15.3777C20.7828 15.1331 21.5571 14.3994 21.8017 13.4211C22.2909 11.6684 22.2909 8.04067 22.2909 8.04067C22.2909 8.04067 22.2909 4.3722 21.8017 2.66024ZM8.88056 11.3423V4.73905L14.6686 8.04067L8.88056 11.3423Z" fill="#E6E6E6"/>
</g>
</svg>
