<svg width="24" height="24" viewBox="0 0 24 24" fill="none" xmlns="http://www.w3.org/2000/svg">
<g id="calc">
<path id="Vector" d="M7.5 18V18.5H8H9.5H10V18V16.5H11.5H12V16V14.5V14H11.5H10V12.5V12H9.5H8H7.5V12.5V14H6H5.5V14.5V16V16.5H6H7.5V18ZM12.5 17.75H13H18H18.5V17.25V15.75V15.25V14.75V13.25V12.75H18H13H12.5V13.25V14.75V15.25V15.75V17.25V17.75ZM13.7464 11.3036L14.1 11.6571L14.4536 11.3036L15.5 10.2571L16.5464 11.3036L16.9 11.6571L17.2536 11.3036L18.3036 10.2536L18.651 9.90615L18.3097 9.5527L17.251 8.45615L18.3036 7.40356L18.6571 7.05L18.3036 6.69645L17.2536 5.64645L16.9 5.29289L16.5464 5.64645L15.5 6.69289L14.4536 5.64645L14.1 5.29289L13.7464 5.64645L12.6964 6.69645L12.3429 7.05L12.6964 7.40356L13.749 8.45615L12.6903 9.5527L12.349 9.90615L12.6964 10.2536L13.7464 11.3036ZM5.75 9.2V9.7H6.25H11.25H11.75V9.2V7.7V7.2H11.25H6.25H5.75V7.7V9.2ZM3.5 19.0006V19V5C3.5 4.58379 3.64249 4.23962 3.94156 3.94055C4.24061 3.6415 4.58424 3.4995 4.99939 3.5H5H19C19.4162 3.5 19.7604 3.64249 20.0594 3.94156C20.3585 4.24061 20.5005 4.58424 20.5 4.99939V5V19C20.5 19.4162 20.3575 19.7604 20.0584 20.0594C19.7594 20.3585 19.4158 20.5005 19.0006 20.5H19H5C4.58379 20.5 4.23962 20.3575 3.94056 20.0584C3.6415 19.7594 3.4995 19.4158 3.5 19.0006Z" fill="#F5F5F7" stroke="#F5F5F7"/>
</g>
</svg>
