<svg width="24" height="24" viewBox="0 0 24 24" fill="none" xmlns="http://www.w3.org/2000/svg">
<rect x="0.000976562" width="24" height="24" rx="4" fill="#413C48"/>
<path d="M21.7683 4.39082C21.7683 4.99514 21.5173 5.59713 21.0199 6.02713L8.89638 16.2006L7.79932 15.1035L8.16656 14.6665L17.9728 2.97998C18.7932 2.02934 20.2483 1.97588 21.1361 2.86376C21.3523 3.07992 21.5127 3.32862 21.6173 3.59591C21.7172 3.85159 21.7683 4.12121 21.7683 4.39082Z" fill="#6600FF"/>
<path d="M21.6167 3.59592C21.5772 4.14677 21.3285 4.68601 20.8729 5.07882L9.23984 14.8385C8.96325 15.071 8.55417 15.0547 8.2985 14.799L8.16602 14.6665L17.9722 2.97998C18.7927 2.02934 20.2477 1.97588 21.1356 2.86376C21.3518 3.07992 21.5121 3.32862 21.6167 3.59592Z" fill="#9E68FF"/>
<path d="M16.2714 10.2437C16.204 10.2437 16.1389 10.2158 16.0924 10.16C16.0088 10.0624 16.0227 9.91598 16.1203 9.83231L16.4411 9.56269C16.5387 9.47901 16.6851 9.49296 16.7688 9.59058C16.8525 9.6882 16.8385 9.83463 16.7409 9.9183L16.4202 10.1879C16.376 10.2251 16.3226 10.2414 16.2714 10.2414V10.2437ZM22.0008 4.39113C22.0008 5.08842 21.6987 5.74852 21.171 6.20408L17.3824 9.38372C17.2848 9.46739 17.1384 9.45345 17.0547 9.35583C16.971 9.2582 16.985 9.11177 17.0826 9.0281L20.8689 5.85079C21.2896 5.48587 21.5336 4.95361 21.5336 4.39345C21.5336 3.87746 21.3337 3.394 20.9688 3.03141C20.5853 2.6479 20.0716 2.44801 19.5347 2.46893C18.9932 2.48985 18.5004 2.72461 18.1448 3.13601L8.11546 15.0899L8.91037 15.8848L15.4812 10.3715C15.5811 10.2879 15.7275 10.3018 15.8089 10.3994C15.8926 10.4971 15.8786 10.6435 15.781 10.7272L9.05215 16.3752L4.66155 20.7658L4.69874 20.803C4.88004 20.9843 4.88004 21.2795 4.69874 21.4608L4.29664 21.8629C4.20832 21.9512 4.0921 22 3.96891 22C3.84573 22 3.72719 21.9512 3.64119 21.8629L2.14202 20.3637C2.05369 20.2754 2.00488 20.1592 2.00488 20.036C2.00488 19.9105 2.05369 19.7942 2.14202 19.7059L2.54412 19.3038C2.72077 19.1272 3.02525 19.1272 3.2019 19.3038L3.23908 19.341L7.62736 14.9527L17.7938 2.83152C18.2285 2.32715 18.8584 2.02499 19.5208 2.00175C20.1762 1.97618 20.8317 2.23186 21.3012 2.70136C21.7521 3.15228 22.0008 3.75427 22.0008 4.39345V4.39113ZM6.15608 18.6112L6.7418 18.0255L5.97478 17.2584L5.38906 17.8442L6.15608 18.6112ZM5.05901 18.1719L4.47329 18.7576L5.2403 19.5246L5.82603 18.9389L5.05901 18.1719ZM7.06953 17.6977L7.65525 17.112L6.88823 16.345L6.30251 16.9307L7.06953 17.6977ZM7.98297 16.7843L8.56637 16.2009L7.79936 15.4339L7.21596 16.0173L7.98297 16.7843ZM4.36637 21.1307L4.16648 20.9308L3.06941 19.8338L2.86952 19.6339L2.46742 20.036L3.96659 21.5351L4.36869 21.133L4.36637 21.1307ZM4.32918 20.4357L4.9149 19.85L4.14788 19.083L3.56216 19.6687L4.32918 20.4357Z" fill="#171120"/>
<path d="M4.69508 21.4604L4.29298 21.8626C4.20698 21.9509 4.08844 21.9997 3.96525 21.9997C3.84206 21.9997 3.72352 21.9509 3.6352 21.8626L2.13835 20.3634C2.05003 20.2774 2.00122 20.1612 2.00122 20.0357C2.00122 19.9101 2.05003 19.7939 2.13835 19.7079L2.54046 19.3058C2.7171 19.1292 3.02159 19.1292 3.19823 19.3058L4.69508 20.8027C4.87638 20.984 4.87638 21.2792 4.69508 21.4604Z" fill="#6600FF"/>
</svg>
