<svg width="24" height="24" viewBox="0 0 24 24" fill="none" xmlns="http://www.w3.org/2000/svg">
<rect x="0.000976562" width="24" height="24" rx="4" fill="#413C48"/>
<path d="M18.9176 18.9121C15.1001 22.7283 8.90823 22.7283 5.09072 18.9121C3.96642 17.7882 3.17265 16.4572 2.71176 15.0425C1.60375 11.6544 2.39751 7.78242 5.09072 5.09016C8.90823 1.27398 15.1001 1.27398 18.9176 5.09016C19.5181 5.69051 20.0233 6.34903 20.4353 7.04943C22.6396 10.7958 22.1345 15.6963 18.9176 18.9121Z" fill="#6600FF"/>
<path d="M18.0563 17.0017C14.2388 20.8179 8.04929 20.8179 4.22945 17.0017C3.62889 16.4014 3.12377 15.7429 2.71176 15.0425C1.60375 11.6544 2.39751 7.78242 5.09072 5.09016C8.90823 1.27398 15.1001 1.27398 18.9176 5.09016C19.5181 5.69051 20.0233 6.34903 20.4353 7.04943C21.5433 10.4375 20.7495 14.3095 18.0563 17.0017Z" fill="#9E68FF"/>
<path d="M19.0844 4.92496C15.1807 1.02501 8.8306 1.02501 4.92696 4.92496C1.02565 8.82722 1.02565 15.1751 4.92696 19.0774C6.87529 21.025 9.44047 22 12.0057 22C14.5708 22 17.1058 21.0366 19.0494 19.1099C19.1402 19.0192 19.1402 18.8726 19.0494 18.7819C18.9587 18.6911 18.812 18.6888 18.7212 18.7819C16.5285 20.9552 13.528 21.8394 10.6742 21.4439C10.744 21.2531 10.8138 21.0646 10.8907 20.8784C11.2026 20.8319 11.5145 20.79 11.8194 20.7597C11.9475 20.7481 12.0406 20.6341 12.0289 20.5061C12.0173 20.3781 11.9056 20.2874 11.7752 20.2967C11.5517 20.32 11.326 20.3502 11.1002 20.3805C11.2515 20.0361 11.4144 19.694 11.5867 19.3613C11.8986 19.345 12.2128 19.3357 12.5224 19.3357C12.6504 19.3357 12.7552 19.2309 12.7552 19.103C12.7552 18.975 12.6504 18.8703 12.5224 18.8703C12.2966 18.8703 12.0708 18.8796 11.8427 18.8889C12.0266 18.5608 12.2198 18.242 12.4223 17.9279C12.7319 17.9418 13.0438 17.9628 13.3534 17.9907C13.3604 17.9907 13.3674 17.9907 13.3744 17.9907C13.4931 17.9907 13.5955 17.8999 13.6072 17.7789C13.6188 17.651 13.5257 17.5369 13.3977 17.5253C13.1719 17.5044 12.9461 17.4904 12.7226 17.4788C12.9344 17.1716 13.1556 16.8714 13.3883 16.5806C13.6979 16.6248 14.0075 16.676 14.3078 16.7318C14.3218 16.7341 14.3381 16.7365 14.352 16.7365C14.4614 16.7365 14.5592 16.6597 14.5802 16.548C14.6034 16.4223 14.522 16.299 14.3963 16.2757C14.1774 16.2339 13.9517 16.199 13.7282 16.164C13.968 15.8802 14.2147 15.6033 14.4707 15.3333C14.7734 15.4055 15.076 15.4846 15.3716 15.5707C15.3925 15.5777 15.4158 15.58 15.4368 15.58C15.5369 15.58 15.63 15.5148 15.6602 15.4124C15.6975 15.2891 15.6253 15.1588 15.5019 15.1239C15.2878 15.0611 15.0667 15.0052 14.8478 14.9494C15.1132 14.6888 15.3856 14.4351 15.6672 14.1931C15.9628 14.2932 16.2561 14.4026 16.5401 14.5143C16.5681 14.5259 16.5983 14.5305 16.6262 14.5305C16.7194 14.5305 16.8055 14.4747 16.8427 14.3839C16.8916 14.2653 16.8311 14.1303 16.7124 14.0814C16.5052 14 16.291 13.9232 16.0769 13.8464C16.3655 13.6114 16.6612 13.3857 16.9661 13.1693C17.2501 13.2973 17.5317 13.4322 17.8064 13.5718C17.8413 13.5881 17.8762 13.5974 17.9112 13.5974C17.995 13.5974 18.0764 13.5509 18.1183 13.4718C18.1765 13.3578 18.1323 13.2182 18.0159 13.1576C17.8157 13.0553 17.6109 12.9599 17.406 12.8645C17.7156 12.6574 18.0345 12.4572 18.3581 12.2711C18.6281 12.4247 18.8958 12.5852 19.1565 12.7504C19.1961 12.776 19.238 12.7877 19.2822 12.7877C19.359 12.7877 19.4335 12.7504 19.4777 12.6806C19.5476 12.5713 19.515 12.4293 19.4056 12.3595C19.217 12.2385 19.0192 12.1245 18.826 12.0105C19.1565 11.8313 19.4917 11.6638 19.8362 11.5055C20.0923 11.6847 20.346 11.8685 20.5904 12.0593C20.6323 12.0919 20.6835 12.1082 20.7324 12.1082C20.8022 12.1082 20.8697 12.078 20.9163 12.0175C20.9954 11.9151 20.9768 11.7708 20.8744 11.6917C20.6952 11.5544 20.5113 11.4218 20.3274 11.2891C20.6998 11.1309 21.0816 10.9889 21.4656 10.8563C21.7287 13.0227 21.2608 15.2752 20.0131 17.1949C19.9433 17.3019 19.9736 17.4462 20.0806 17.516C20.1877 17.5858 20.332 17.5556 20.4019 17.4485C22.9577 13.516 22.4014 8.25015 19.0797 4.92961L19.0844 4.92496ZM5.2575 5.25305C7.41067 3.10064 10.346 2.19546 13.1556 2.53519C13.0229 2.92147 12.8809 3.30541 12.7226 3.68005C12.5899 3.49622 12.4572 3.31239 12.3199 3.13322C12.2408 3.03083 12.0941 3.01222 11.994 3.09133C11.8916 3.17045 11.873 3.31704 11.9521 3.4171C12.143 3.66376 12.3292 3.91739 12.5061 4.17103C12.3478 4.51309 12.1802 4.85049 12.001 5.18092C11.8869 4.98546 11.7729 4.78999 11.6518 4.60151C11.582 4.49215 11.4377 4.4619 11.3306 4.52938C11.2212 4.59919 11.1909 4.74113 11.2584 4.85049C11.4237 5.11111 11.5843 5.38104 11.738 5.64863C11.5494 5.97208 11.3516 6.28854 11.1444 6.60035C11.049 6.39558 10.9535 6.19081 10.8511 5.99069C10.7929 5.87667 10.6532 5.83013 10.5368 5.88831C10.4228 5.94648 10.3762 6.0861 10.4344 6.20244C10.5741 6.47702 10.7091 6.75858 10.8371 7.04247C10.6206 7.34497 10.3949 7.64282 10.1597 7.93135C10.0829 7.71728 10.0061 7.5032 9.92465 7.2961C9.87809 7.17743 9.74075 7.11693 9.62204 7.16579C9.50332 7.21233 9.44513 7.34962 9.49168 7.4683C9.60574 7.75451 9.71282 8.0477 9.81291 8.3409C9.5685 8.62245 9.3171 8.89471 9.05639 9.15998C9.00053 8.94124 8.94466 8.72019 8.88181 8.50611C8.84457 8.38278 8.71654 8.31065 8.59317 8.34788C8.4698 8.38511 8.39997 8.51309 8.43488 8.63642C8.52101 8.93194 8.60015 9.23444 8.67232 9.53694C8.40462 9.7929 8.12529 10.0419 7.84131 10.2792C7.80639 10.0558 7.77147 9.83013 7.72958 9.6114C7.70397 9.48575 7.58293 9.40198 7.45723 9.42757C7.33153 9.45084 7.24773 9.57417 7.27334 9.69983C7.33153 10 7.38041 10.3095 7.42464 10.619C7.13134 10.8493 6.83339 11.0704 6.52613 11.2845C6.51216 11.0588 6.50052 10.833 6.47957 10.6097C6.46793 10.4817 6.3562 10.3886 6.22585 10.4002C6.09782 10.4119 6.00471 10.5259 6.01635 10.6539C6.04661 10.9634 6.06523 11.2752 6.0792 11.5846C5.76495 11.7871 5.44372 11.9825 5.11784 12.164C5.12715 11.936 5.13646 11.7103 5.13646 11.4846C5.13646 11.3566 5.03171 11.2519 4.90368 11.2519C4.77566 11.2519 4.67091 11.3566 4.67091 11.4846C4.67091 11.7941 4.65927 12.1082 4.6453 12.42C4.31243 12.5922 3.97026 12.7551 3.62575 12.9063C3.65601 12.6806 3.6886 12.4549 3.70955 12.2315C3.72119 12.1035 3.62808 11.9895 3.50005 11.9779C3.37202 11.9686 3.25796 12.0593 3.24632 12.1873C3.21606 12.4945 3.17416 12.8063 3.12761 13.1158C2.93906 13.1902 2.75051 13.2624 2.55731 13.3322C2.15694 10.4677 3.05545 7.45433 5.25517 5.25538L5.2575 5.25305ZM20.1528 10.854C20.1854 10.6329 20.218 10.4095 20.2575 10.1908C20.2808 10.0652 20.197 9.94415 20.069 9.92088C19.9433 9.89994 19.8223 9.98138 19.799 10.1094C19.7408 10.4305 19.6919 10.7539 19.65 11.0774C19.2962 11.2403 18.9517 11.4124 18.6095 11.5963C18.6211 11.3706 18.6304 11.1449 18.6491 10.9238C18.6584 10.7958 18.5629 10.6841 18.4349 10.6725C18.3092 10.6632 18.1952 10.7586 18.1835 10.8866C18.1579 11.2077 18.1393 11.5381 18.13 11.8662C17.7971 12.0593 17.4712 12.2641 17.15 12.4782C17.1384 12.2548 17.1267 12.0314 17.1244 11.8057C17.1244 11.6777 17.0173 11.5777 16.8916 11.5777H16.887C16.7589 11.5777 16.6565 11.6847 16.6588 11.815C16.6635 12.1431 16.6775 12.4712 16.6984 12.7923C16.3865 13.0157 16.0816 13.2484 15.7836 13.4904C15.751 13.2693 15.7184 13.0483 15.6928 12.8226C15.6788 12.6946 15.5648 12.6038 15.4344 12.6178C15.3064 12.6318 15.2156 12.7481 15.2296 12.8761C15.2668 13.2019 15.3111 13.5253 15.3623 13.8441C15.0736 14.0954 14.792 14.3537 14.5196 14.6236C14.4661 14.4049 14.4126 14.1885 14.366 13.9697C14.3404 13.8441 14.217 13.7627 14.0913 13.7906C13.9656 13.8162 13.8842 13.9395 13.9121 14.0652C13.9796 14.3816 14.0541 14.7004 14.1356 15.0145C13.8702 15.2914 13.6165 15.5777 13.3697 15.8709C13.2952 15.6591 13.2207 15.4474 13.1556 15.2333C13.1183 15.1099 12.988 15.0425 12.8646 15.0797C12.7412 15.1169 12.6737 15.2472 12.711 15.3706C12.8064 15.68 12.9135 15.9895 13.0229 16.2944C12.7855 16.5945 12.5573 16.904 12.3385 17.2205C12.2454 17.0157 12.15 16.8109 12.0662 16.6062C12.0173 16.4875 11.88 16.4316 11.7612 16.4805C11.6425 16.5294 11.5867 16.6667 11.6355 16.7853C11.7612 17.0855 11.8939 17.3834 12.0336 17.6766C11.8241 18 11.6239 18.3281 11.4354 18.6655C11.3236 18.47 11.2119 18.2769 11.1071 18.0791C11.0466 17.9651 10.9046 17.9209 10.7929 17.9837C10.6788 18.0442 10.6369 18.1838 10.6975 18.2978C10.8488 18.5841 11.0117 18.8679 11.177 19.1472C10.9977 19.4916 10.8301 19.8429 10.6742 20.2013C10.5438 20.0175 10.4158 19.8336 10.2924 19.6451C10.2226 19.5381 10.0783 19.5079 9.9712 19.5777C9.86412 19.6475 9.83386 19.7917 9.9037 19.8988C10.0853 20.1734 10.2715 20.4433 10.4624 20.7039C10.3739 20.925 10.2901 21.146 10.211 21.3717C8.39531 21.0273 6.66114 20.1547 5.25983 18.7563C3.85852 17.3554 2.98562 15.6219 2.63878 13.8069C2.86457 13.7277 3.08804 13.6417 3.30917 13.5532C3.56988 13.744 3.8399 13.9302 4.11458 14.1117C4.15415 14.1373 4.19837 14.1513 4.2426 14.1513C4.31942 14.1513 4.39158 14.114 4.43813 14.0465C4.50797 13.9395 4.48003 13.7952 4.37063 13.7254C4.18208 13.6021 3.99586 13.4741 3.8143 13.3438C4.17277 13.1879 4.52426 13.0204 4.86877 12.8412C5.1481 13.0064 5.43208 13.1693 5.7184 13.3205C5.75331 13.3391 5.79056 13.3485 5.8278 13.3485C5.9116 13.3485 5.99074 13.3042 6.03264 13.2251C6.09317 13.1111 6.04894 12.9715 5.93721 12.911C5.73935 12.8063 5.54614 12.6946 5.35061 12.5829C5.68814 12.3944 6.01635 12.1943 6.33991 11.9849C6.6332 12.1245 6.93116 12.2571 7.23144 12.3828C7.2617 12.3944 7.29196 12.4014 7.31989 12.4014C7.41067 12.4014 7.4968 12.3479 7.53404 12.2571C7.58293 12.1385 7.52706 12.0012 7.40835 11.9523C7.20118 11.8662 6.99866 11.7731 6.79382 11.68C7.11039 11.4613 7.41766 11.2333 7.72026 10.9959C8.0252 11.1076 8.33479 11.2123 8.64438 11.3077C8.66766 11.3147 8.69094 11.317 8.71421 11.317C8.81431 11.317 8.90509 11.2519 8.93768 11.1542C8.97492 11.0308 8.90742 10.9005 8.78405 10.8633C8.56989 10.7981 8.35807 10.7237 8.14624 10.6492C8.43954 10.4026 8.72585 10.1466 9.00286 9.88365C9.3171 9.9651 9.636 10.0419 9.95258 10.107C9.96887 10.1094 9.98517 10.1117 10.0015 10.1117C10.1085 10.1117 10.2063 10.0372 10.2296 9.92786C10.2552 9.80221 10.176 9.67888 10.0503 9.65329C9.83154 9.60675 9.61273 9.55323 9.39625 9.49971C9.66394 9.22746 9.92465 8.9459 10.176 8.65736C10.4949 8.70855 10.8185 8.75509 11.1444 8.78999C11.1537 8.78999 11.163 8.78999 11.17 8.78999C11.2864 8.78999 11.3888 8.70157 11.4004 8.5829C11.4144 8.45492 11.3236 8.3409 11.1956 8.32461C10.9721 8.29901 10.751 8.26643 10.5275 8.23386C10.7696 7.93601 11.0024 7.63118 11.2259 7.31937C11.5494 7.34031 11.8753 7.35428 12.2035 7.35893H12.2082C12.3339 7.35893 12.4386 7.25654 12.4409 7.13089C12.4409 7.00291 12.3409 6.89587 12.2128 6.89354C11.987 6.88889 11.7636 6.87725 11.5401 6.86795C11.7543 6.54916 11.9591 6.22339 12.1523 5.88831C12.4805 5.87667 12.8087 5.86038 13.1323 5.83479C13.2603 5.82315 13.3558 5.71146 13.3464 5.58348C13.3371 5.4555 13.2231 5.36242 13.095 5.3694C12.8739 5.38802 12.6481 5.39732 12.4223 5.40896C12.6062 5.06923 12.7808 4.72251 12.9414 4.36882C13.265 4.32693 13.5909 4.27574 13.9098 4.2199C14.0355 4.19663 14.1193 4.07563 14.0983 3.94997C14.075 3.82432 13.954 3.74055 13.8283 3.76149C13.6095 3.80105 13.386 3.83362 13.1649 3.8662C13.3371 3.45666 13.4954 3.03781 13.6374 2.61431C15.5182 2.93543 17.3199 3.81734 18.7678 5.26469C20.197 6.69343 21.0862 8.49913 21.4121 10.3956C20.9885 10.5375 20.5741 10.6934 20.1644 10.8656L20.1528 10.854ZM19.8618 17.8185C19.9642 17.8953 19.9829 18.0419 19.906 18.1443C19.8199 18.256 19.7291 18.37 19.636 18.4793C19.5895 18.5329 19.5243 18.5608 19.4591 18.5608C19.4056 18.5608 19.352 18.5422 19.3078 18.5049C19.2101 18.4212 19.1984 18.2746 19.2799 18.1768C19.3683 18.0721 19.4545 17.9674 19.5359 17.8604C19.6128 17.758 19.7594 17.7394 19.8618 17.8162V17.8185Z" fill="#171120"/>
</svg>
