<svg width="24" height="24" viewBox="0 0 24 24" fill="none" xmlns="http://www.w3.org/2000/svg">
<rect x="0.000976562" width="24" height="24" rx="4" fill="#413C48"/>
<path d="M18.9092 18.9114C15.0928 22.7254 8.90904 22.7254 5.09504 18.9114C4.07178 17.8882 3.3206 16.6905 2.84618 15.416C1.55547 11.9439 2.30431 7.88805 5.09504 5.09732C8.90904 1.28332 15.0928 1.28332 18.9092 5.09732C19.4161 5.6043 19.8557 6.15314 20.2278 6.73222C22.6557 10.5113 22.2162 15.6021 18.9092 18.9114Z" fill="#6600FF"/>
<path d="M17.9789 17.0509C14.1649 20.8649 7.9788 20.8649 4.1648 17.0509C3.65782 16.544 3.21828 15.9951 2.84618 15.416C1.55547 11.9439 2.30431 7.88805 5.09504 5.09732C8.90904 1.28332 15.0928 1.28332 18.9092 5.09732C19.4161 5.6043 19.8557 6.15314 20.2278 6.73222C21.5185 10.202 20.7696 14.2602 17.9789 17.0509Z" fill="#9E68FF"/>
<path d="M21.8032 10.0231C21.4357 8.18821 20.559 6.49749 19.2683 5.13468C19.1799 5.04166 19.0334 5.037 18.9404 5.12538C18.8473 5.21375 18.8427 5.36026 18.9311 5.45329C19.9799 6.56028 20.7381 7.89518 21.159 9.34868C19.7404 8.07425 16.0799 5.24398 11.4054 5.11608C11.9007 4.01141 13.1077 3.23233 14.8519 2.9021C15.7543 3.18582 16.6055 3.59513 17.3776 4.12537C17.4845 4.19746 17.6287 4.17188 17.7008 4.0649C17.7729 3.95792 17.7473 3.81373 17.6404 3.74164C16.8148 3.17419 15.9031 2.73465 14.9357 2.4393C14.931 2.4393 14.924 2.43697 14.9194 2.43465C13.217 1.91604 11.4031 1.86022 9.67282 2.27418C8.30536 2.59977 7.04488 3.19977 5.93091 4.05327C5.57742 4.32304 5.24253 4.6184 4.9309 4.93003C3.8867 5.97423 3.10297 7.19982 2.60529 8.57426C1.62621 11.2603 1.84481 14.2418 3.20297 16.7534V16.7604C3.66112 17.6069 4.24252 18.3837 4.9309 19.0721C6.7472 20.8884 9.15886 21.9256 11.7217 21.9953C11.8194 21.9977 11.9147 22 12.0101 22C14.6799 22 17.1799 20.9674 19.0776 19.0674C19.1125 19.0325 19.1473 18.9976 19.1799 18.9628C21.4753 16.5999 22.4544 13.2557 21.8032 10.0208V10.0231ZM13.8891 2.66256C12.3705 3.12535 11.3286 3.97653 10.9007 5.11375C10.2565 5.12305 9.59374 5.18584 8.91932 5.31143C9.17513 4.43002 9.49839 3.56024 9.88677 2.70674C11.2054 2.40674 12.5682 2.39511 13.8891 2.66256ZM6.33091 4.33932C7.23558 3.66722 8.23326 3.16954 9.31235 2.85326C8.94722 3.6928 8.6449 4.54863 8.40536 5.41608C7.72395 5.57422 7.05418 5.79283 6.40068 6.0719C6.47743 5.49515 6.46347 4.92538 6.33091 4.33932ZM5.25881 5.26259C5.46811 5.05328 5.6937 4.85561 5.92393 4.66258C6.01928 5.2091 6.00068 5.74632 5.89835 6.29748C5.02857 6.71377 4.19601 7.23471 3.4146 7.85099C3.87507 6.89517 4.49136 6.02539 5.25648 5.26026L5.25881 5.26259ZM3.02157 8.79286C3.86809 8.02774 4.79136 7.3882 5.76347 6.88586C5.53788 7.7068 5.16346 8.58123 4.72857 9.59055C4.50299 10.1138 4.27042 10.6557 4.03554 11.2441C3.31692 13.0418 3.11692 14.4511 3.09134 15.3906C2.28901 13.2836 2.25645 10.9417 3.0239 8.79286H3.02157ZM3.62623 16.5651C3.56344 16.2581 3.26344 14.4255 4.46578 11.4162C4.70066 10.8324 4.9309 10.2929 5.15416 9.77195C5.64951 8.62077 6.0844 7.60448 6.30301 6.62074C6.94255 6.32772 7.6007 6.09516 8.2728 5.92539C7.91931 7.36261 7.73326 8.83007 7.72395 10.3185C7.6914 15.465 9.8077 19.4139 11.2589 21.5116C8.99374 21.3372 6.87743 20.3674 5.25881 18.7488C4.60764 18.0976 4.06112 17.3651 3.62856 16.5651H3.62623ZM11.8449 21.5349C10.4333 19.5767 8.15419 15.5929 8.18908 10.3208C8.19838 8.79286 8.39838 7.28354 8.78211 5.81143C9.45886 5.6719 10.1193 5.60213 10.7635 5.58352C10.4449 7.08354 11.1752 8.81147 12.8473 10.4836C15.8729 13.5092 18.1729 17.7023 18.7287 18.7604C16.8869 20.5953 14.4473 21.5744 11.8449 21.5349ZM19.0636 18.4023C18.3845 17.1302 16.1217 13.1022 13.1729 10.1557C11.5775 8.5603 10.8984 6.94168 11.2426 5.57887C16.6357 5.65794 20.6799 9.49752 21.3567 10.1836C21.9311 13.1418 21.0753 16.1813 19.0636 18.4046V18.4023ZM18.0311 4.6184C17.9311 4.537 17.9171 4.39049 18.0008 4.29048C18.0845 4.19048 18.2287 4.17653 18.3287 4.26025C18.438 4.35095 18.5473 4.44397 18.6543 4.537C18.7497 4.62305 18.759 4.76956 18.6729 4.86491C18.6264 4.91607 18.5636 4.94398 18.4985 4.94398C18.4427 4.94398 18.3892 4.92538 18.345 4.88584C18.2427 4.79514 18.138 4.70677 18.0334 4.6184H18.0311Z" fill="#171120"/>
</svg>
