<svg width="24" height="24" viewBox="0 0 24 24" fill="none" xmlns="http://www.w3.org/2000/svg">
<rect x="0.000976562" width="24" height="24" rx="4" fill="#413C48"/>
<path d="M7.38402 11.8559C6.95842 12.3005 6.58165 12.7522 6.23512 13.2342C5.59555 14.1188 5.07459 15.0782 4.68154 16.0797C4.64665 16.1687 4.5606 16.2272 4.46525 16.2272H4.45362C4.35594 16.2225 4.26989 16.1546 4.24198 16.0587C4.03267 15.3356 3.96987 14.6008 4.05592 13.8731C4.135 13.1851 4.34664 12.5205 4.68387 11.898C4.93737 11.43 5.38856 11.1165 5.91882 11.0416C6.46304 10.962 6.9933 11.1399 7.3817 11.5283C7.47007 11.6196 7.4724 11.7647 7.38402 11.8559Z" fill="#171120"/>
<path d="M19.9489 10.1198C19.8698 10.8078 19.6582 11.4723 19.321 12.0948C19.0674 12.5628 18.6163 12.8764 18.086 12.9513C18.0023 12.9653 17.9185 12.97 17.8348 12.97C17.3813 12.97 16.951 12.7921 16.6231 12.4645C16.5347 12.3733 16.5324 12.2282 16.6208 12.1369C17.0464 11.6923 17.4232 11.2407 17.7697 10.7586C18.4093 9.87407 18.9302 8.91464 19.3233 7.91309C19.3605 7.82183 19.4465 7.75865 19.5512 7.76567C19.6489 7.77035 19.7349 7.83821 19.7628 7.93415C19.9722 8.65724 20.0349 9.39202 19.9489 10.1198Z" fill="#171120"/>
<path d="M12.2707 16.4822C11.7986 16.908 11.273 17.341 10.6915 17.7692C9.53565 18.6186 8.43326 19.2434 7.48669 19.7044L4.28418 16.4798C4.33767 16.3277 4.39581 16.1662 4.46326 15.9954C4.50977 15.8761 4.55861 15.7544 4.61443 15.628C4.93305 14.8769 5.39355 14.0017 6.04475 13.0961C6.42849 12.5625 6.82619 12.0992 7.21458 11.6944C7.29366 11.6101 7.37273 11.5306 7.45181 11.4533C8.21464 10.6998 9.43797 10.7069 10.1938 11.4674L12.3498 13.6366C12.58 13.8683 12.7382 14.1421 12.8289 14.4323C13.0521 15.1436 12.8614 15.951 12.2707 16.4822Z" fill="#171120"/>
<path d="M12.8306 14.4323C12.7283 14.7552 12.5423 15.0547 12.2725 15.2981C11.8003 15.724 11.2747 16.1569 10.6933 16.5851C10.1514 16.9829 9.61883 17.3316 9.11182 17.6382C8.19316 18.1904 7.021 18.0477 6.26514 17.2871L4.61621 15.628C4.93483 14.8769 5.39533 14.0017 6.04653 13.0961C6.43027 12.5625 6.82797 12.0992 7.21636 11.6944C7.29544 11.6101 7.37451 11.5306 7.45359 11.4533C8.21642 10.6998 9.43975 10.7069 10.1956 11.4674L12.3515 13.6366C12.5818 13.8683 12.7399 14.1421 12.8306 14.4323Z" fill="#9E68FF"/>
<path d="M19.7201 7.5127C19.6666 7.66481 19.6085 7.82627 19.541 7.9971C19.4852 8.13984 19.4248 8.28727 19.3596 8.43937C19.0387 9.17415 18.5898 10.0213 17.9596 10.8964C17.5758 11.43 17.1781 11.8933 16.7897 12.2981C16.7106 12.3824 16.6316 12.462 16.5525 12.5392C15.7897 13.2927 14.5663 13.2857 13.8105 12.5251L11.6545 10.3559C11.4382 10.1383 11.2847 9.8832 11.194 9.61175C10.9429 8.89101 11.1266 8.0556 11.7336 7.51036C12.2057 7.08447 12.7313 6.65156 13.3128 6.22332C14.4687 5.37388 15.571 4.74908 16.5176 4.28809L19.7201 7.5127Z" fill="#171120"/>
<path d="M19.358 8.43932C19.037 9.1741 18.5882 10.0212 17.9579 10.8964C17.5741 11.4299 17.1765 11.8933 16.7881 12.2981C16.709 12.3823 16.6299 12.4619 16.5508 12.5391C15.788 13.2926 14.5647 13.2856 13.8088 12.5251L11.6529 10.3558C11.4366 10.1382 11.2831 9.88315 11.1924 9.6117C11.297 9.30983 11.4761 9.02902 11.7319 8.79969C12.2041 8.3738 12.7297 7.94089 13.3111 7.51265C13.853 7.11484 14.3856 6.76617 14.8926 6.45962C15.8113 5.90737 16.9834 6.05011 17.7393 6.81063L19.358 8.43932Z" fill="#9E68FF"/>
<path d="M6.05103 19.868L5.41146 20.5139C5.36727 20.5584 5.30913 20.5818 5.24633 20.5818C5.18354 20.5818 5.12539 20.5584 5.08121 20.5139L3.48111 18.9016C3.39041 18.8103 3.39041 18.6629 3.48111 18.5716L4.12069 17.9258C4.16487 17.8813 4.22302 17.8579 4.28581 17.8579C4.34861 17.8579 4.40675 17.8813 4.45094 17.9258L6.05103 19.5381C6.14173 19.6293 6.14173 19.7768 6.05103 19.868Z" fill="#171120"/>
<path d="M20.5237 5.42077L19.8841 6.06662C19.8399 6.11109 19.7818 6.13449 19.719 6.13449C19.6562 6.13449 19.5981 6.11109 19.5539 6.06662L17.9538 4.45432C17.8631 4.36305 17.8631 4.21563 17.9538 4.12437L18.5933 3.47851C18.6375 3.43405 18.6957 3.41064 18.7585 3.41064C18.8213 3.41064 18.8794 3.43405 18.9236 3.47851L20.5237 5.09082C20.6144 5.18208 20.6144 5.3295 20.5237 5.42077Z" fill="#171120"/>
<path d="M12.5126 13.4704L10.359 11.3035C9.51478 10.4541 8.13796 10.4471 7.28907 11.2872C6.76811 11.802 6.28669 12.3636 5.85876 12.958C5.10523 13.9993 4.50752 15.1413 4.08191 16.3534L2.20506 18.2395C1.93295 18.5133 1.93295 18.9602 2.20506 19.234L4.75172 21.7941C4.88428 21.9275 5.05871 22 5.24477 22C5.43083 22 5.60758 21.9275 5.73782 21.7941L7.62165 19.8986C8.74497 19.351 9.82178 18.6982 10.8288 17.9587C11.38 17.5539 11.9173 17.1163 12.4266 16.6576C12.8778 16.2528 13.1359 15.6935 13.1522 15.0851C13.1685 14.4743 12.9429 13.901 12.5126 13.4704ZM5.4099 21.4641C5.36571 21.5086 5.30524 21.5296 5.24709 21.5296C5.1843 21.5296 5.12383 21.5086 5.07964 21.4641L2.53531 18.9017C2.44461 18.8105 2.44461 18.6631 2.53531 18.5718L4.28425 16.8121L7.15883 19.7044L5.4099 21.4641ZM12.1173 16.3089C11.6196 16.7559 11.0939 17.1841 10.5544 17.5796C9.60549 18.2769 8.58915 18.8971 7.53327 19.4189L4.55171 16.4189C4.96103 15.2817 5.52851 14.2122 6.2332 13.2341C6.64718 12.6608 7.11232 12.1179 7.61467 11.6218C8.28216 10.9595 9.36594 10.9666 10.0311 11.6335L12.1847 13.8004C12.5219 14.142 12.701 14.5913 12.6871 15.071C12.6731 15.5508 12.4708 15.9907 12.1173 16.3089ZM21.7969 4.75836L19.2502 2.19832C18.9874 1.93389 18.5269 1.93389 18.2641 2.19832L16.3803 4.09378C15.257 4.64135 14.1802 5.29423 13.1731 6.0337C12.6219 6.43853 12.0847 6.87612 11.5754 7.33478C11.1242 7.73961 10.866 8.29889 10.8497 8.9073C10.8335 9.51806 11.0591 10.0914 11.4893 10.522L13.6429 12.6889C14.0685 13.1171 14.6267 13.33 15.1872 13.33C15.7477 13.33 16.2919 13.1218 16.7129 12.7052C17.2338 12.1904 17.7153 11.6288 18.1432 11.0344C18.8967 9.9931 19.4944 8.85114 19.92 7.63899L21.7969 5.75289C22.069 5.4791 22.069 5.03215 21.7969 4.75836ZM17.7688 10.7583C17.3548 11.3316 16.8896 11.8745 16.3873 12.3706C15.7198 13.0328 14.636 13.0258 13.9709 12.3589L11.8172 10.192C11.48 9.85035 11.3009 9.40106 11.3149 8.92134C11.3288 8.44163 11.5312 8.0017 11.8847 7.68345C12.3824 7.23649 12.908 6.80826 13.4476 6.41279C14.3965 5.71545 15.4128 5.09533 16.4687 4.57349L19.4502 7.57346C19.0409 8.71074 18.4734 9.78015 17.7688 10.7583ZM21.4666 5.4206L19.7177 7.18033L16.8431 4.288L18.5921 2.52827C18.6362 2.48381 18.6967 2.46275 18.7549 2.46275C18.8176 2.46275 18.8781 2.48381 18.9223 2.52827L21.4666 5.09065C21.5573 5.18191 21.5573 5.32934 21.4666 5.4206ZM15.8175 16.0703C15.757 16.0703 15.6989 16.0469 15.6524 16.0024L15.0128 15.3589C14.9221 15.2676 14.9221 15.1202 15.0128 15.0289C15.1035 14.9377 15.25 14.9377 15.3407 15.0289L15.9803 15.6724C16.071 15.7637 16.071 15.9111 15.9803 16.0024C15.9338 16.0492 15.8756 16.0703 15.8152 16.0703H15.8175ZM16.778 14.6428C16.7478 14.6428 16.7152 14.6358 16.6873 14.6241L15.8547 14.2661C15.7361 14.2146 15.6826 14.0789 15.7314 13.9595C15.7803 13.8402 15.9198 13.784 16.0361 13.8355L16.8687 14.1935C16.9873 14.245 17.0408 14.3807 16.992 14.5001C16.9548 14.589 16.8687 14.6428 16.778 14.6428ZM14.3965 17.0391C14.3058 17.0391 14.2197 16.9852 14.1825 16.8963L13.8267 16.0586C13.7755 15.9392 13.8313 15.8012 13.9499 15.752C14.0662 15.7005 14.2058 15.7567 14.2546 15.876L14.6104 16.7138C14.6616 16.8331 14.6058 16.9712 14.4872 17.0203C14.4569 17.0344 14.4267 17.0391 14.3965 17.0391ZM8.76823 8.98219C8.70776 8.98219 8.64962 8.95879 8.6031 8.91432L7.96353 8.27081C7.87283 8.17954 7.87283 8.03212 7.96353 7.94086C8.05423 7.84959 8.20076 7.84959 8.29146 7.94086L8.93103 8.58437C9.02173 8.67564 9.02173 8.82306 8.93103 8.91432C8.88452 8.96113 8.82637 8.98219 8.7659 8.98219H8.76823ZM9.90318 8.20762C9.81248 8.20762 9.72643 8.1538 9.68921 8.06488L9.33338 7.22713C9.28221 7.10779 9.33803 6.96973 9.45664 6.92058C9.57293 6.8691 9.71015 6.92526 9.76131 7.04461L10.1171 7.88235C10.1683 8.0017 10.1125 8.13976 9.99388 8.1889C9.96365 8.20294 9.93341 8.20762 9.90318 8.20762ZM7.99842 10.1241C7.96818 10.1241 7.93562 10.1171 7.90771 10.1054L7.07511 9.74739C6.9565 9.69591 6.90301 9.56018 6.95185 9.44084C7.00301 9.3215 7.14023 9.26533 7.25651 9.31682L8.08912 9.67485C8.20773 9.72633 8.26122 9.86205 8.21238 9.9814C8.17517 10.0703 8.08912 10.1241 7.99842 10.1241Z" fill="#171120"/>
</svg>
