<svg width="24" height="24" viewBox="0 0 24 24" fill="none" xmlns="http://www.w3.org/2000/svg">
<rect x="0.000976562" width="24" height="24" rx="4" fill="#413C48"/>
<path d="M21.6322 5.90614L20.9419 5.21584L18.0944 2.36836C17.9125 2.18646 17.6187 2.18646 17.4368 2.36836L8.21334 11.5894C8.11306 11.6897 8.06175 11.8273 8.06875 11.9672L8.218 14.4976C8.22733 14.6282 8.18302 14.7518 8.09906 14.8474C8.08974 14.8567 8.08274 14.866 8.07341 14.8754L9.12285 15.9271H9.12518C9.22546 15.8268 9.36072 15.7732 9.50298 15.7825L12.0333 15.9318C12.1732 15.9388 12.3108 15.8875 12.4111 15.7872L17.6187 10.5773L17.8822 10.3138L18.5095 9.68879L18.773 9.42293L21.6322 6.56379C21.8141 6.38189 21.8141 6.08804 21.6322 5.90614ZM13.8173 14.0498L13.6541 12.8977L13.3603 10.8385C13.3439 10.7359 13.2646 10.6566 13.162 10.6403L9.95074 10.1832L10.7623 9.36929L14.1462 9.85437L14.4657 12.0862L14.6312 13.2382L13.8173 14.0498Z" fill="#6600FF"/>
<path d="M20.9413 5.547C20.9203 5.60763 20.8853 5.6636 20.8363 5.71258L14.8778 11.6734L14.465 12.0862L14.1455 9.85437L10.7617 9.36929L9.95012 10.1832L13.1614 10.6403C13.264 10.6566 13.3433 10.7359 13.3596 10.8385L13.6535 12.8977L13.2407 13.3105L11.6152 14.936C11.515 15.0363 11.3774 15.0876 11.2374 15.0806L8.70712 14.9313C8.63249 14.9267 8.56019 14.9383 8.49256 14.9663C8.43193 14.992 8.37829 15.0269 8.32932 15.0759L8.10077 14.8474C8.18473 14.7518 8.22904 14.6282 8.21971 14.4976L8.07046 11.9672C8.06346 11.8273 8.11477 11.6897 8.21505 11.5894L17.4361 2.36836C17.618 2.18646 17.9119 2.18646 18.0938 2.36836L20.9413 5.21584C20.9832 5.32079 20.9832 5.43972 20.9413 5.547Z" fill="#9E68FF"/>
<path d="M18.5098 9.6889H18.5075C18.4166 9.59562 18.2696 9.59562 18.1787 9.6889L17.8825 9.98741C17.7916 10.0784 17.7916 10.2229 17.8825 10.3139H17.8848C17.9291 10.3605 17.9898 10.3839 18.0481 10.3839C18.1064 10.3839 18.167 10.3605 18.2137 10.3139L18.5098 10.0154C18.6008 9.92444 18.6008 9.77985 18.5098 9.6889ZM21.7981 5.74067L18.2603 2.20289C17.9875 1.93237 17.5444 1.93237 17.2715 2.20289L8.04808 11.424C7.9035 11.5709 7.82654 11.7715 7.83586 11.9813L7.98512 14.514C7.98978 14.5863 7.9618 14.6586 7.90816 14.7122L3.61478 19.0056L3.58447 18.9776C3.31161 18.7048 2.86851 18.7048 2.59566 18.9776L2.2062 19.3671C2.07327 19.4977 2.00098 19.6749 2.00098 19.8615C2.00098 20.048 2.07327 20.2229 2.2062 20.3559L3.6451 21.7948C3.78036 21.9324 3.95993 22 4.1395 22C4.31907 22 4.49864 21.9324 4.63391 21.7948L5.02336 21.4053C5.15629 21.2724 5.22859 21.0975 5.22859 20.9109C5.22859 20.7243 5.15629 20.5471 5.02336 20.4165L4.99538 20.3862L9.28876 16.0928C9.34239 16.0392 9.41469 16.0112 9.48932 16.0159L12.022 16.1651C12.2272 16.1721 12.4301 16.0975 12.577 15.9529L17.619 10.9086C17.7099 10.8176 17.7099 10.6684 17.619 10.5774C17.528 10.4865 17.3788 10.4865 17.2878 10.5774L15.042 12.8256L14.8788 11.6735L14.5849 9.61427C14.5686 9.51166 14.4893 9.43237 14.3867 9.41605L11.1754 8.95895L17.6027 2.53405C17.6913 2.4431 17.8405 2.4431 17.9291 2.53405L21.4669 6.07183C21.5579 6.16045 21.5579 6.3097 21.4669 6.39832L18.7734 9.09188C18.6824 9.18284 18.6824 9.33209 18.7734 9.42304C18.8643 9.51399 19.0136 9.51399 19.1045 9.42304L21.7981 6.72948C22.0686 6.45662 22.0686 6.01353 21.7981 5.74067ZM13.4072 14.4627L12.2458 15.6217C12.1945 15.6754 12.1222 15.7034 12.0476 15.6987L9.51963 15.5494C9.39137 15.5424 9.26777 15.5728 9.15583 15.6264L8.49351 14.9664L8.37458 14.8475C8.43055 14.7332 8.45853 14.6096 8.45154 14.4837L8.30228 11.9557C8.29762 11.8811 8.3256 11.8064 8.37924 11.7551L9.53829 10.5938L12.9222 11.0788L13.2416 13.3106L13.4072 14.4627ZM4.69454 21.0765L4.30508 21.466C4.21413 21.5569 4.06488 21.5569 3.97392 21.466L2.53503 20.0271C2.49072 19.9827 2.46739 19.9244 2.46739 19.8615C2.46739 19.7985 2.49072 19.7402 2.53503 19.6959L2.92448 19.3064C2.97113 19.2598 3.03176 19.2388 3.09006 19.2388C3.14836 19.2388 3.209 19.2598 3.25564 19.3064L4.69454 20.7453C4.73885 20.7896 4.76217 20.8479 4.76217 20.9109C4.76217 20.9739 4.73885 21.0322 4.69454 21.0765ZM4.66422 20.055L3.94594 19.3368L4.48932 18.791L5.20993 19.5117L4.66422 20.055ZM5.53876 19.1828L4.81814 18.4622L5.36385 17.9165L6.08447 18.6371L5.53876 19.1828ZM6.41329 18.3083L5.69267 17.5877L6.23838 17.042L6.959 17.7626L6.41329 18.3083ZM7.28782 17.4338L6.56721 16.7132L7.09193 16.1908L7.81021 16.909L7.28782 17.4338ZM8.14137 16.5802L7.42075 15.8596L8.07374 15.2066L8.79435 15.9272L8.14137 16.5802ZM14.1465 9.85448L14.466 12.0863L14.6316 13.2383L13.8177 14.0499L13.6544 12.8979L13.3606 10.8386C13.3443 10.736 13.265 10.6567 13.1624 10.6404L9.95107 10.1833L10.7626 9.3694L14.1465 9.85448Z" fill="#171120"/>
<path d="M5.22859 20.9109C5.22859 21.0975 5.15629 21.2724 5.02336 21.4053L4.63391 21.7948C4.49864 21.9323 4.31907 22 4.1395 22C3.95993 22 3.78036 21.9323 3.6451 21.7948L2.2062 20.3559C2.07327 20.2229 2.00098 20.048 2.00098 19.8615C2.00098 19.6749 2.07327 19.4976 2.2062 19.367L2.59566 18.9776C2.86851 18.7047 3.31161 18.7047 3.58447 18.9776L5.02336 20.4165C5.15629 20.5471 5.22859 20.7243 5.22859 20.9109Z" fill="#6600FF"/>
</svg>
