<svg xmlns="http://www.w3.org/2000/svg" width="18" height="22" viewBox="0 0 18 22" fill="none">
  <path d="M4.94464 11.3806C5.28287 11.4698 5.60275 11.6035 5.90165 11.787H12.1052C12.4015 11.6035 12.724 11.4698 13.0596 11.3806C13.1304 10.8352 13.1723 10.2689 13.1907 9.68945H4.81616C4.83189 10.2689 4.87647 10.8352 4.94464 11.3806Z" fill="#9E68FF"/>
  <path d="M14.1345 11.2679C14.811 11.2941 15.4534 11.5012 16.004 11.8762C16.4497 12.1803 16.7984 12.5762 17.037 13.0246C17.5299 12.0046 17.8315 10.8772 17.8996 9.68945H14.2394C14.2237 10.2296 14.1896 10.7566 14.1345 11.2679Z" fill="#9E68FF"/>
  <path d="M4.06339 5.75867C3.30303 5.32081 2.5951 4.78593 1.95797 4.14879C1.89504 4.08587 1.83736 4.0177 1.77705 3.95215C0.812175 5.28672 0.206504 6.8966 0.104248 8.6402H3.76449C3.78809 7.62812 3.89559 6.66062 4.06339 5.75867Z" fill="#9E68FF"/>
  <path d="M1.9973 11.8762C2.54791 11.5012 3.19291 11.2941 3.86937 11.2679C3.81431 10.7566 3.7776 10.2296 3.76187 9.68945H0.104248C0.175041 10.8772 0.476565 12.0046 0.96687 13.0246C1.20547 12.5762 1.55681 12.1803 1.9973 11.8762Z" fill="#9E68FF"/>
  <path d="M14.2392 8.64081H17.8994C17.7998 6.89984 17.1941 5.28996 16.2318 3.95801C16.1715 4.02093 16.1112 4.08648 16.0483 4.14941C15.4112 4.78654 14.7032 5.32142 13.9429 5.75929C14.1081 6.66124 14.2129 7.62874 14.2392 8.64081Z" fill="#9E68FF"/>
  <path d="M5.25928 5.20024C6.4208 5.73512 7.6872 6.01829 9.00342 6.01829C10.3196 6.01829 11.586 5.73512 12.7423 5.20024C12.5693 4.48445 12.3543 3.8211 12.1026 3.22591C11.3239 1.41152 10.2121 0.25 9.00342 0.25C7.78684 0.25 6.66989 1.41939 5.89641 3.24951C5.64733 3.83683 5.43233 4.49232 5.25928 5.20024Z" fill="#9E68FF"/>
  <path d="M12.9573 6.25098C11.725 6.78323 10.3852 7.0664 9.00342 7.0664C7.61903 7.0664 6.28183 6.78323 5.04952 6.25098C4.92104 7.00872 4.83976 7.81104 4.81616 8.63957H13.1907C13.1645 7.81104 13.0858 7.00872 12.9573 6.25098Z" fill="#9E68FF"/>
  <path d="M13.6992 4.678C14.2734 4.32142 14.8135 3.89666 15.3038 3.40636C15.3641 3.34605 15.4218 3.27788 15.4795 3.21495C15.5057 3.18611 15.5319 3.15989 15.5582 3.13105C14.5435 2.02983 13.2561 1.18556 11.8062 0.703125C12.3646 1.36386 12.8497 2.21861 13.2351 3.22282C13.4134 3.67904 13.5681 4.16672 13.6992 4.678Z" fill="#9E68FF"/>
  <path d="M2.70007 3.40636C3.19037 3.89666 3.72787 4.32142 4.30208 4.678C4.43318 4.17721 4.58525 3.70002 4.75568 3.25166C5.14372 2.23434 5.63403 1.37172 6.19775 0.703125C4.74519 1.18556 3.45781 2.03245 2.44312 3.13367C2.48244 3.17563 2.51915 3.21758 2.5611 3.25953C2.60568 3.30672 2.65287 3.35916 2.70007 3.40636Z" fill="#9E68FF"/>
  <path d="M16.3527 14.5104C16.3449 14.4763 16.3422 14.4422 16.3422 14.4081C16.3422 13.7526 16.004 13.1469 15.4115 12.7432C14.9946 12.46 14.5016 12.3105 13.9851 12.3105C13.4686 12.3105 12.9704 12.46 12.5535 12.7432C12.467 12.8035 12.3647 12.8349 12.2572 12.8349H5.74694C5.64207 12.8349 5.53719 12.8035 5.45066 12.7432C5.03115 12.46 4.53823 12.3105 4.0217 12.3105C3.50518 12.3105 3.00701 12.46 2.59012 12.7432C2.00018 13.1469 1.66194 13.7526 1.66194 14.4081C1.66194 14.4422 1.65932 14.4763 1.65146 14.5104L0.75475 18.9939C0.618408 19.673 0.791457 20.3704 1.23195 20.9053C1.67243 21.4428 2.32005 21.7496 3.01487 21.7496C4.10823 21.7496 5.05737 20.9709 5.27237 19.8959L5.34316 19.5498C5.39036 19.3033 5.60798 19.1276 5.85707 19.1276C6.22938 19.1276 6.55188 18.8628 6.62792 18.4984C6.67774 18.2545 6.89274 18.0788 7.14182 18.0788H10.865C11.1141 18.0788 11.3291 18.2545 11.3789 18.4984C11.4523 18.8628 11.7774 19.1276 12.1497 19.1276C12.3988 19.1276 12.6138 19.3033 12.6637 19.5471L12.7344 19.8959C12.9468 20.9709 13.8986 21.7496 14.9919 21.7496C15.6841 21.7496 16.3344 21.4428 16.7749 20.9053C17.2127 20.3704 17.3858 19.673 17.2521 18.9939L16.3527 14.5104ZM3.75951 15.4569C3.46847 15.4569 3.23512 15.2209 3.23512 14.9325C3.23512 14.6415 3.46847 14.4081 3.75951 14.4081C4.04792 14.4081 4.2839 14.6415 4.2839 14.9325C4.2839 15.2209 4.04792 15.4569 3.75951 15.4569ZM5.85707 16.5057C5.56603 16.5057 5.33268 16.2697 5.33268 15.9813C5.33268 15.6902 5.56603 15.4569 5.85707 15.4569C6.14548 15.4569 6.38146 15.6902 6.38146 15.9813C6.38146 16.2697 6.14548 16.5057 5.85707 16.5057ZM12.1497 16.5057C11.8587 16.5057 11.6254 16.2697 11.6254 15.9813C11.6254 15.6902 11.8587 15.4569 12.1497 15.4569C12.4382 15.4569 12.6741 15.6902 12.6741 15.9813C12.6741 16.2697 12.4382 16.5057 12.1497 16.5057ZM14.2473 15.4569C13.9563 15.4569 13.7229 15.2209 13.7229 14.9325C13.7229 14.6415 13.9563 14.4081 14.2473 14.4081C14.5357 14.4081 14.7717 14.6415 14.7717 14.9325C14.7717 15.2209 14.5357 15.4569 14.2473 15.4569Z" fill="#6600FF"/>
</svg>