<svg width="24" height="24" viewBox="0 0 24 24" fill="none" xmlns="http://www.w3.org/2000/svg">
<rect x="0.000976562" width="24" height="24" rx="4" fill="#413C48"/>
<path d="M20.2299 6.73467C20.1996 6.68583 20.1671 6.63699 20.1345 6.58816C20.081 6.50443 20.0252 6.42304 19.9671 6.34397C19.6555 5.90443 19.302 5.48583 18.9089 5.09281C18.4787 4.66257 18.0206 4.28118 17.5369 3.95095C17.4345 3.87885 17.3299 3.80909 17.2252 3.74397C17.1741 3.71141 17.1206 3.67885 17.0671 3.6463C16.9322 3.5649 16.795 3.48583 16.6578 3.41141C16.5996 3.37885 16.5415 3.34862 16.4834 3.31839C16.4764 3.31374 16.4694 3.31141 16.4601 3.30676C16.3485 3.24862 16.2369 3.19513 16.1229 3.14164C15.9764 3.0742 15.8276 3.00909 15.6764 2.94862C15.6159 2.92304 15.5531 2.89746 15.4903 2.8742C15.4438 2.8556 15.3973 2.83932 15.3508 2.82304C15.2787 2.79513 15.2066 2.76955 15.1345 2.7463C15.0183 2.70676 14.8996 2.66955 14.781 2.63467C14.7066 2.61141 14.6299 2.59048 14.5555 2.56955C14.4834 2.55095 14.4136 2.53234 14.3438 2.51606C14.2555 2.49513 14.1671 2.4742 14.0787 2.45327C14.0089 2.43932 13.9369 2.42537 13.8671 2.41141C13.7903 2.39513 13.7136 2.38118 13.6345 2.36955C13.5601 2.3556 13.4834 2.34397 13.4089 2.33234C13.2276 2.30676 13.0438 2.28583 12.8624 2.26955C12.8089 2.2649 12.7578 2.26025 12.7043 2.25792C12.5531 2.2463 12.402 2.23932 12.2531 2.23467C12.0113 2.23002 11.7717 2.23234 11.5322 2.24397C11.4555 2.2463 11.3764 2.25095 11.2996 2.25792C11.2485 2.26025 11.1996 2.2649 11.1485 2.26955C11.0996 2.2742 11.0508 2.27885 11.0043 2.2835C10.8671 2.29746 10.7299 2.31374 10.595 2.33234C10.5183 2.34397 10.4438 2.3556 10.3671 2.36955C10.2903 2.38118 10.2136 2.39513 10.1369 2.41141C10.0648 2.42537 9.995 2.43932 9.92523 2.45327C9.83453 2.4742 9.74616 2.49513 9.66011 2.51606C9.58802 2.53234 9.51825 2.55095 9.44848 2.56955C9.37174 2.59048 9.29732 2.61141 9.22058 2.63467C9.10197 2.66955 8.98569 2.70676 8.86941 2.7463C8.79267 2.77188 8.71825 2.79746 8.64383 2.82537C8.59732 2.84164 8.55081 2.86025 8.50662 2.87653C8.44616 2.89978 8.38569 2.92304 8.32523 2.94862C8.05314 3.05792 7.78337 3.18118 7.52058 3.31839C7.46244 3.34862 7.4043 3.37885 7.34616 3.41141C7.20662 3.48583 7.07174 3.5649 6.93686 3.6463C6.86941 3.68583 6.80197 3.72769 6.73686 3.77188C6.59965 3.85792 6.46476 3.94862 6.33221 4.04397C6.27639 4.0835 6.22058 4.12537 6.16476 4.16723C5.79267 4.44397 5.43453 4.75327 5.095 5.09281C4.75546 5.43234 4.44616 5.79048 4.16942 6.16257C4.12755 6.21839 4.08569 6.2742 4.04616 6.33002C3.95081 6.46257 3.86011 6.59746 3.77407 6.73467C3.72988 6.79978 3.68802 6.86723 3.64848 6.93467C3.56476 7.06955 3.48802 7.20443 3.4136 7.34397C3.38104 7.40211 3.35081 7.46025 3.32058 7.51839C3.18337 7.78118 3.06011 8.05095 2.95081 8.32304C2.92523 8.3835 2.90197 8.44397 2.87872 8.50444C2.86011 8.54862 2.84383 8.59513 2.82755 8.64164C2.79965 8.71606 2.77407 8.79048 2.74848 8.86723C2.70895 8.9835 2.67174 9.10211 2.63686 9.21839C2.6136 9.29513 2.59267 9.36955 2.57174 9.4463C2.55314 9.51606 2.53453 9.58583 2.51825 9.65792C2.495 9.7463 2.47407 9.83467 2.45546 9.92304C2.44151 9.99281 2.42755 10.0626 2.4136 10.1347C2.39732 10.2114 2.38337 10.2882 2.37174 10.3649C2.35779 10.4416 2.34616 10.5161 2.33453 10.5928C2.31593 10.73 2.29732 10.8649 2.28569 11.0021C2.28104 11.0486 2.27639 11.0975 2.27174 11.1463C2.26709 11.1975 2.26244 11.2463 2.26011 11.2975C2.25314 11.3742 2.24848 11.4533 2.24616 11.53C2.22988 11.8323 2.22988 12.1323 2.24383 12.4323C2.24616 12.4975 2.25081 12.5626 2.25314 12.6254C2.25779 12.6789 2.26011 12.73 2.26476 12.7835C2.27174 12.8509 2.27639 12.9184 2.28337 12.9835C2.31825 13.337 2.37407 13.6905 2.44848 14.0393C2.46011 14.0951 2.47174 14.1509 2.48569 14.2068C2.5229 14.3742 2.56709 14.5416 2.61593 14.7091C2.63453 14.7742 2.65314 14.8393 2.67407 14.9044C2.69732 14.9812 2.7229 15.0579 2.74848 15.1323C2.77407 15.2091 2.79965 15.2835 2.82755 15.3579C2.83221 15.3765 2.83918 15.3928 2.84616 15.4114C2.84616 15.4137 2.84848 15.4137 2.84848 15.4161C4.23453 19.1254 7.80895 21.7672 12.002 21.7672C17.3973 21.7672 21.7694 17.3951 21.7694 11.9998C21.7694 10.0602 21.2043 8.25327 20.2299 6.73467ZM20.5601 7.81374C20.809 8.32071 21.0113 8.84862 21.1671 9.39281L20.8229 9.59048L20.4601 9.80211L18.1345 8.45792V5.7742L18.8462 5.36257C19.5462 6.08816 20.1229 6.91606 20.5601 7.81374ZM9.67639 2.75327C10.4206 2.5649 11.1996 2.4649 12.002 2.4649C12.8043 2.4649 13.5717 2.56257 14.3276 2.75327V3.5742L12.002 4.91839L9.67639 3.5742V2.75327ZM5.16244 5.3649L5.86941 5.7742V8.45792L3.54383 9.80211L2.83221 9.39048C3.26942 7.85792 4.08104 6.48118 5.16244 5.3649ZM3.50197 16.3114C3.22523 15.7719 3.00197 15.2021 2.83221 14.6091L3.54383 14.1998L5.86941 15.5416V18.2254L5.72058 18.3114L5.16244 18.6347C4.49965 17.9509 3.93686 17.1672 3.50197 16.3114ZM14.3276 21.2463C13.5834 21.4347 12.8043 21.5347 12.002 21.5347C11.1996 21.5347 10.4206 21.4347 9.67639 21.2463V20.4254L10.595 19.8951L12.002 19.0835L13.0717 19.6998L14.3276 20.4254V21.2463ZM18.8415 18.6347L18.1345 18.2254V15.5416L19.7624 14.6021L20.4601 14.1998L21.1717 14.6091C20.7345 16.1416 19.9229 17.5184 18.8415 18.6347Z" fill="#6600FF"/>
<path d="M20.8229 9.59048L20.4601 9.80211L18.1345 8.45792V5.7742L18.8462 5.36257C19.5462 6.08816 20.1229 6.91606 20.5601 7.81374C20.4717 7.44862 20.3624 7.08816 20.2299 6.73467C20.2299 6.73234 20.2276 6.73002 20.2276 6.72769C20.1973 6.68118 20.1671 6.63467 20.1345 6.58816C20.081 6.50444 20.0252 6.42304 19.9671 6.34397C19.6555 5.90444 19.302 5.48583 18.909 5.09281C18.4787 4.66257 18.0206 4.28118 17.5369 3.95095C17.4345 3.87885 17.3299 3.80909 17.2252 3.74397C17.1741 3.71141 17.1206 3.67885 17.0671 3.6463C16.9322 3.5649 16.795 3.48583 16.6578 3.41141C16.5996 3.37885 16.5415 3.34862 16.4834 3.31839C16.4764 3.31374 16.4694 3.31141 16.4601 3.30676C16.3485 3.24862 16.2369 3.19513 16.1229 3.14164C15.9764 3.0742 15.8276 3.00909 15.6764 2.94862C15.6159 2.92304 15.5531 2.89746 15.4903 2.8742C15.4438 2.8556 15.3973 2.83932 15.3508 2.82304C15.2787 2.79513 15.2066 2.76955 15.1345 2.7463C15.0183 2.70676 14.8996 2.66955 14.781 2.63467C14.7066 2.61141 14.6299 2.59048 14.5555 2.56955C14.4834 2.55095 14.4136 2.53234 14.3438 2.51606C14.2555 2.49513 14.1671 2.4742 14.0787 2.45327C14.009 2.43932 13.9369 2.42537 13.8671 2.41141C13.7903 2.39513 13.7136 2.38118 13.6345 2.36955C13.5601 2.3556 13.4834 2.34397 13.4089 2.33234C13.2276 2.30676 13.0438 2.28583 12.8624 2.26955C12.809 2.2649 12.7578 2.26025 12.7043 2.25792C12.5531 2.2463 12.402 2.23932 12.2531 2.23467C12.0113 2.23002 11.7717 2.23234 11.5322 2.24397C11.4555 2.2463 11.3764 2.25095 11.2996 2.25792C11.2485 2.26025 11.1996 2.2649 11.1485 2.26955C11.0996 2.2742 11.0508 2.27885 11.0043 2.2835C10.8671 2.29746 10.7299 2.31374 10.595 2.33234C10.5183 2.34397 10.4438 2.3556 10.3671 2.36955C10.2903 2.38118 10.2136 2.39513 10.1369 2.41141C10.0648 2.42537 9.995 2.43932 9.92523 2.45327C9.83453 2.4742 9.74616 2.49513 9.66011 2.51606C9.58802 2.53234 9.51825 2.55095 9.44849 2.56955C9.37174 2.59048 9.29732 2.61141 9.22058 2.63467C9.10197 2.66955 8.98569 2.70676 8.86942 2.7463C8.79267 2.77188 8.71825 2.79746 8.64383 2.82537C8.59732 2.84164 8.55081 2.86025 8.50663 2.87653C8.44616 2.89978 8.38569 2.92304 8.32523 2.94862C8.05314 3.05792 7.78337 3.18118 7.52058 3.31839C7.46244 3.34862 7.4043 3.37885 7.34616 3.41141C7.20662 3.48583 7.07174 3.5649 6.93686 3.6463C6.86942 3.68583 6.80197 3.72769 6.73686 3.77188C6.59965 3.85792 6.46476 3.94862 6.33221 4.04397C6.27639 4.08351 6.22058 4.12537 6.16476 4.16723C5.79267 4.44397 5.43453 4.75327 5.095 5.09281C4.75546 5.43234 4.44616 5.79048 4.16942 6.16257C4.12755 6.21839 4.08569 6.2742 4.04616 6.33002C3.95081 6.46257 3.86011 6.59746 3.77407 6.73467C3.72988 6.79978 3.68802 6.86723 3.64848 6.93467C3.56476 7.06955 3.48802 7.20443 3.4136 7.34397C3.38104 7.40211 3.35081 7.46025 3.32058 7.51839C3.18337 7.78118 3.06011 8.05095 2.95081 8.32304C2.92523 8.3835 2.90197 8.44397 2.87872 8.50444C2.86011 8.54862 2.84383 8.59513 2.82755 8.64164C2.79965 8.71606 2.77407 8.79048 2.74848 8.86723C2.70895 8.9835 2.67174 9.10211 2.63686 9.21839C2.6136 9.29513 2.59267 9.36955 2.57174 9.4463C2.55314 9.51606 2.53453 9.58583 2.51825 9.65792C2.495 9.7463 2.47407 9.83467 2.45546 9.92304C2.44151 9.99281 2.42755 10.0626 2.4136 10.1347C2.39732 10.2114 2.38337 10.2882 2.37174 10.3649C2.35779 10.4416 2.34616 10.5161 2.33453 10.5928C2.31593 10.73 2.29732 10.8649 2.28569 11.0021C2.28104 11.0486 2.27639 11.0975 2.27174 11.1463C2.26709 11.1975 2.26244 11.2463 2.26011 11.2975C2.25314 11.3742 2.24848 11.4533 2.24616 11.53C2.22988 11.8323 2.22988 12.1323 2.24383 12.4323C2.24616 12.4975 2.25081 12.5626 2.25314 12.6254C2.25779 12.6789 2.26011 12.73 2.26476 12.7835C2.27174 12.8509 2.27639 12.9184 2.28337 12.9835C2.31825 13.337 2.37407 13.6905 2.44848 14.0393C2.46011 14.0951 2.47174 14.1509 2.48569 14.2068C2.5229 14.3742 2.56709 14.5416 2.61593 14.7091C2.63453 14.7742 2.65314 14.8393 2.67407 14.9044C2.69732 14.9812 2.7229 15.0579 2.74848 15.1323C2.77407 15.2091 2.79965 15.2835 2.82755 15.3579C2.83221 15.3765 2.83918 15.3928 2.84616 15.4114C2.84616 15.4137 2.84848 15.4137 2.84848 15.4161C3.04616 15.723 3.26476 16.023 3.50197 16.3114C3.22523 15.7719 3.00197 15.2021 2.83221 14.6091L3.54383 14.1998L5.86942 15.5416V18.2254L5.72058 18.3114C5.86709 18.4091 6.01593 18.5021 6.16942 18.5905C7.29732 19.2463 8.52988 19.6556 9.78802 19.823C10.0555 19.8579 10.3252 19.8812 10.595 19.8951L12.002 19.0835L13.0717 19.6998C13.2927 19.6556 13.5113 19.6021 13.7276 19.5393C15.1555 19.1393 16.5113 18.4044 17.6694 17.3416C17.7741 17.2463 17.8787 17.1463 17.9787 17.0463C18.0322 16.9928 18.0834 16.9393 18.1345 16.8858V15.5416L19.7624 14.6021C19.888 14.3602 19.9996 14.1161 20.102 13.8672C20.5973 12.6696 20.8415 11.3951 20.8392 10.1207C20.8392 9.94397 20.8345 9.76723 20.8229 9.59048ZM9.67639 2.75327C10.4206 2.5649 11.1996 2.4649 12.002 2.4649C12.8043 2.4649 13.5717 2.56257 14.3276 2.75327V3.5742L12.002 4.91839L9.67639 3.5742V2.75327ZM5.16244 5.3649L5.86942 5.7742V8.45792L3.54383 9.80211L2.83221 9.39048C3.26942 7.85792 4.08104 6.48118 5.16244 5.3649Z" fill="#9E68FF"/>
<path d="M17.8638 3.89767C17.7591 3.82326 17.6126 3.84651 17.5382 3.94884C17.5382 3.94884 17.5382 3.95116 17.5359 3.95116C17.4638 4.05581 17.487 4.2 17.5893 4.27442C17.9103 4.50698 18.2126 4.75814 18.501 5.02558L17.7847 5.43721C17.7126 5.47907 17.6684 5.55581 17.6684 5.63953V8.45814L14.5591 10.2535L12.2335 8.91163V5.32093L14.6754 3.91163C14.7475 3.86977 14.7917 3.79302 14.7917 3.7093V2.8814C15.1382 2.98837 15.4824 3.11395 15.8173 3.26047C15.9359 3.31163 16.0684 3.25814 16.1219 3.14186H16.1242C16.1754 3.02093 16.1219 2.88372 16.0033 2.83256C14.7382 2.2814 13.3917 2 12.001 2C6.48702 2 2.00098 6.48605 2.00098 12C2.00098 17.514 6.48702 22 12.001 22C17.5149 22 22.001 17.514 22.001 12C22.001 8.80465 20.4545 5.77442 17.8638 3.89767ZM9.32656 3.91163L11.7684 5.32093V8.91163L9.44284 10.2535L6.33353 8.45814V5.63953C6.33353 5.55581 6.28935 5.47907 6.21726 5.43721L5.50563 5.02791C6.54981 4.05349 7.8126 3.31163 9.21028 2.88372V3.7093C9.21028 3.79302 9.25447 3.86977 9.32656 3.91163ZM11.7684 15.0884V18.6791L9.78702 19.8233L9.32656 20.0884C9.25447 20.1302 9.21028 20.207 9.21028 20.2907V21.1163C7.8126 20.6884 6.54981 19.9465 5.50563 18.9721L6.16842 18.5907L6.21726 18.5628C6.28935 18.5209 6.33353 18.4442 6.33353 18.3605V15.5419L9.44284 13.7465L11.7684 15.0884ZM5.86842 5.77442V8.45814L3.54284 9.80233L2.83121 9.3907C3.26842 7.85814 4.08005 6.4814 5.16144 5.36512L5.86842 5.77442ZM3.42656 10.2721C3.46144 10.293 3.5033 10.3023 3.54284 10.3023C3.58237 10.3023 3.62423 10.293 3.65912 10.2721L6.10098 8.86047L9.21028 10.6581V13.3419L6.10098 15.1395L3.65912 13.7279C3.58702 13.6884 3.49865 13.6884 3.42656 13.7279L2.7126 14.1419C2.55214 13.4535 2.46609 12.7372 2.46609 12C2.46609 11.2628 2.55214 10.5465 2.7126 9.85814L3.42656 10.2721ZM3.54284 14.2L5.86842 15.5419V18.2256L5.71958 18.3116L5.16144 18.6349C4.49865 17.9512 3.93586 17.1674 3.50098 16.3116C3.22423 15.7721 3.00098 15.2023 2.83121 14.6093L3.54284 14.2ZM9.6754 20.4256L10.594 19.8953L12.001 19.0837L13.0707 19.7L14.3266 20.4256V21.2465C13.5824 21.4349 12.8033 21.5349 12.001 21.5349C11.1987 21.5349 10.4196 21.4349 9.6754 21.2465V20.4256ZM18.1335 15.5419L19.7614 14.6023L20.4591 14.2L21.1707 14.6093C20.7335 16.1419 19.9219 17.5186 18.8405 18.6349L18.1335 18.2256V15.5419ZM18.1335 5.77442L18.8452 5.36279C19.5452 6.08837 20.1219 6.91628 20.5591 7.81395C20.808 8.32093 21.0103 8.84884 21.1661 9.39302L20.8219 9.5907L20.4591 9.80233L18.1335 8.45814V5.77442ZM14.7917 10.6581L17.901 8.86047L20.3428 10.2721C20.3777 10.293 20.4196 10.3023 20.4591 10.3023C20.4987 10.3023 20.5405 10.293 20.5754 10.2721L20.8382 10.1209L21.287 9.86047C21.4498 10.5558 21.5359 11.2721 21.5359 12C21.5359 12.7279 21.4498 13.4535 21.2894 14.1419L20.5754 13.7279C20.5033 13.6884 20.4149 13.6884 20.3428 13.7279L20.101 13.8674L17.901 15.1395L14.7917 13.3419V10.6581ZM17.6684 15.5419V18.3605C17.6684 18.4442 17.7126 18.5209 17.7847 18.5628L18.4963 18.9721C17.4521 19.9465 16.1893 20.6884 14.7917 21.1163V20.2907C14.7917 20.207 14.7475 20.1302 14.6754 20.0884L13.7266 19.5395L12.2335 18.6791V15.0884L14.5591 13.7465L17.6684 15.5419ZM14.3266 10.6581V13.3419L12.001 14.686L9.6754 13.3419V10.6581L12.001 9.31395L14.3266 10.6581ZM14.3266 3.57442L12.001 4.9186L9.6754 3.57442V2.75349C10.4196 2.56512 11.1987 2.46512 12.001 2.46512C12.8033 2.46512 13.5707 2.56279 14.3266 2.75349V3.57442ZM17.1475 3.42558C17.0242 3.35116 16.8987 3.27907 16.7731 3.21163C16.6591 3.15116 16.5173 3.19302 16.4591 3.30698C16.3987 3.42093 16.4405 3.56279 16.5545 3.62093C16.6754 3.68372 16.7917 3.75116 16.9056 3.82093C16.9428 3.84419 16.9847 3.85581 17.0266 3.85581C17.1056 3.85581 17.1824 3.81628 17.2242 3.74419C17.2917 3.63488 17.2568 3.4907 17.1475 3.42558Z" fill="#171120"/>
<path d="M5.86842 5.77442V8.45814L3.54284 9.80233L2.83121 9.3907C3.26842 7.85814 4.08005 6.4814 5.16144 5.36512L5.86842 5.77442Z" fill="#171120"/>
<path d="M14.3266 3.57442L12.001 4.9186L9.6754 3.57442V2.75349C10.4196 2.56512 11.1987 2.46512 12.001 2.46512C12.8033 2.46512 13.5707 2.56279 14.3266 2.75349V3.57442Z" fill="#171120"/>
<path d="M18.1335 5.77442L18.8452 5.36279C19.5452 6.08837 20.1219 6.91628 20.5591 7.81395C20.808 8.32093 21.0103 8.84884 21.1661 9.39302L20.8219 9.5907L20.4591 9.80233L18.1335 8.45814V5.77442Z" fill="#171120"/>
<path d="M18.1335 15.5419L19.7614 14.6023L20.4591 14.2L21.1707 14.6093C20.7335 16.1419 19.9219 17.5186 18.8405 18.6349L18.1335 18.2256V15.5419Z" fill="#171120"/>
<path d="M9.6754 20.4256L10.594 19.8953L12.001 19.0837L13.0707 19.7L14.3266 20.4256V21.2465C13.5824 21.4349 12.8033 21.5349 12.001 21.5349C11.1987 21.5349 10.4196 21.4349 9.6754 21.2465V20.4256Z" fill="#171120"/>
<path d="M3.54284 14.2L5.86842 15.5419V18.2256L5.71958 18.3116L5.16144 18.6349C4.49865 17.9512 3.93586 17.1674 3.50098 16.3116C3.22423 15.7721 3.00098 15.2023 2.83121 14.6093L3.54284 14.2Z" fill="#171120"/>
<path d="M14.7916 10.5235V13.4769C14.7916 13.5607 14.7474 13.6374 14.6753 13.6793L12.1172 15.156C12.0823 15.1769 12.0404 15.1862 12.0009 15.1862C11.9614 15.1862 11.9195 15.1769 11.8846 15.156L9.32648 13.6793C9.25439 13.6374 9.21021 13.5607 9.21021 13.4769V10.5235C9.21021 10.4397 9.25439 10.363 9.32648 10.3211L11.8846 8.84438C11.9567 8.80252 12.0451 8.80252 12.1172 8.84438L14.6753 10.3211C14.7474 10.363 14.7916 10.4397 14.7916 10.5235Z" fill="#201A29"/>
</svg>
