<svg width="24" height="24" viewBox="0 0 24 24" fill="none" xmlns="http://www.w3.org/2000/svg">
<rect x="0.000976562" width="24" height="24" rx="4" fill="#413C48"/>
<path d="M15.0474 16.9832C15.0474 17.5388 12.3986 17.9899 9.13344 17.9899C5.86832 17.9899 3.21948 17.5388 3.21948 16.9832C3.21948 16.6651 4.08692 16.3826 5.43809 16.1974C6.44972 16.0573 7.73576 15.9766 9.13344 15.9766C12.3986 15.9766 15.0474 16.4277 15.0474 16.9832Z" fill="#9E68FF"/>
<path d="M15.0474 16.9834V20.7561C15.0474 21.3116 12.3986 21.7627 9.13344 21.7627C5.86832 21.7627 3.21948 21.3116 3.21948 20.7561V16.9834C3.21948 17.539 5.86832 17.9901 9.13344 17.9901C11.3241 17.9901 13.2358 17.7883 14.2567 17.4867C14.759 17.3372 15.0474 17.1662 15.0474 16.9834Z" fill="#171120"/>
<path d="M14.2567 17.4867V19.633C14.2567 20.1886 11.6079 20.6397 8.34274 20.6397C6.15204 20.6397 4.24041 20.4379 3.21948 20.1364V16.9834C3.21948 17.539 5.86832 17.9901 9.13344 17.9901C11.3241 17.9901 13.2358 17.7883 14.2567 17.4867Z" fill="#9E68FF"/>
<path d="M21.4612 3.59513L18.7775 9.85123L17.3403 9.19595L20.2659 2.55046C20.3193 2.43175 20.2659 2.2893 20.1496 2.23706C20.0333 2.18246 19.8938 2.23706 19.8426 2.35578L15.7868 11.5678C15.5612 12.083 15.0193 12.3845 14.4682 12.3038L4.88213 10.8532C3.98213 10.7155 3.06817 11.0858 2.50073 11.8527C2.16352 12.3109 2.00073 12.8784 2.00073 13.4506V15.661C2.00073 16.4611 2.36817 17.209 2.98678 17.6933V20.7561C2.98678 21.9859 8.88213 22.0002 9.13329 22.0002C9.38446 22.0002 15.2798 21.9859 15.2798 20.7561V20.1625C15.2798 20.0319 15.1752 19.9251 15.0472 19.9251C14.9193 19.9251 14.8147 20.0319 14.8147 20.1625L14.8193 20.7347C14.6752 21.0196 12.6542 21.5253 9.13329 21.5253C5.61236 21.5253 3.59143 21.0173 3.4519 20.7561V17.5129C4.84725 18.2157 8.92632 18.2252 9.13329 18.2252C9.34027 18.2252 13.4193 18.2157 14.8147 17.5129V18.0257C14.8147 18.1563 14.9193 18.2631 15.0472 18.2631C15.1752 18.2631 15.2798 18.1563 15.2798 18.0257V17.9118C15.7449 17.6458 16.117 17.2327 16.3356 16.7294L21.8891 3.78744C21.9403 3.66635 21.8891 3.52627 21.7705 3.47404C21.6519 3.42181 21.5147 3.47404 21.4635 3.59513H21.4612ZM2.46585 15.661V13.3912C2.46585 12.781 2.72399 12.2041 3.17748 11.8076C3.62864 11.4111 4.22632 11.233 4.81469 11.3233L5.20771 11.3826V15.9958C4.00306 16.1738 2.9891 16.473 2.9891 16.9834C2.9891 16.9882 2.9891 16.9929 2.9891 16.9953V17.0547C2.65655 16.6748 2.46817 16.1809 2.46817 15.661H2.46585ZM9.13329 17.7527C5.64492 17.7527 3.62864 17.2565 3.45887 16.9906C3.65887 16.7033 5.6705 16.2142 9.13329 16.2142C12.5961 16.2142 14.631 16.7104 14.8077 16.9739C14.6124 17.2588 12.6031 17.7503 9.13329 17.7503V17.7527ZM15.9077 16.5395C15.7682 16.8623 15.5496 17.1401 15.2775 17.3491V17.0024C15.2775 17.0024 15.2775 16.9906 15.2775 16.9834C15.2775 15.7536 9.38213 15.7393 9.13097 15.7393C8.99841 15.7393 7.2612 15.7441 5.66818 15.934V11.4538L14.3984 12.7739C15.1542 12.8879 15.8984 12.47 16.21 11.7625L17.1496 9.63043L18.5914 10.2881L15.91 16.5395H15.9077ZM15.2775 18.8804V19.3078C15.2775 19.4384 15.1728 19.5452 15.0449 19.5452C14.917 19.5452 14.8124 19.4384 14.8124 19.3078V18.8804C14.8124 18.7499 14.917 18.643 15.0449 18.643C15.1728 18.643 15.2775 18.7499 15.2775 18.8804Z" fill="#171120"/>
<path d="M21.9827 3.56901L19.1106 10.262C19.085 10.3213 19.0385 10.3664 18.9804 10.3878C18.9525 10.3997 18.9246 10.4044 18.8967 10.4044C18.8641 10.4044 18.8315 10.3973 18.8013 10.3831L16.9385 9.53308C16.8827 9.50697 16.8385 9.45948 16.8176 9.4025C16.7943 9.34314 16.7967 9.27666 16.8222 9.21968L19.9385 2.13972C19.9664 2.07324 20.0246 2.02575 20.092 2.00676C20.1618 1.99014 20.2339 2.00438 20.2897 2.04712L21.9083 3.2841C21.9943 3.35058 22.0246 3.46929 21.9827 3.56901Z" fill="#9E68FF"/>
</svg>
