<svg width="24" height="24" viewBox="0 0 24 24" fill="none" xmlns="http://www.w3.org/2000/svg">
<rect x="0.000976562" width="24.0009" height="24" rx="4" fill="#413C48"/>
<path d="M5.71894 15.1201L2.37207 16.5089L7.49207 21.6289L8.88081 18.282L5.71894 15.1201Z" fill="#9E68FF"/>
<path d="M9.76776 18.646L8.37964 21.9997H15.6234L14.2353 18.646H9.76776Z" fill="#9E68FF"/>
<path d="M15.1211 18.282L16.5098 21.6289L21.6298 16.5089L18.283 15.1201L15.1211 18.282Z" fill="#9E68FF"/>
<path d="M18.6482 9.76605V14.2335L22.0019 15.6217V8.37793L18.6482 9.76605Z" fill="#9E68FF"/>
<path d="M18.283 8.87984L21.6298 7.49109L16.5098 2.37109L15.1211 5.71797L18.283 8.87984Z" fill="#9E68FF"/>
<path d="M9.64363 6.31641L6.31738 9.64265V14.3576L9.64363 17.6839H14.3586L17.6849 14.3576V9.64265L14.3586 6.31641H9.64363Z" fill="#9E68FF"/>
<path d="M14.2353 5.35375L15.6234 2H8.37964L9.76776 5.35375H14.2353Z" fill="#9E68FF"/>
<path d="M8.88081 5.71797L7.49207 2.37109L2.37207 7.49109L5.71894 8.87984L8.88081 5.71797Z" fill="#9E68FF"/>
<path d="M5.35472 9.76605L2.00098 8.37793V15.6217L5.35472 14.2335V9.76605Z" fill="#9E68FF"/>
</svg>
