<svg width="24" height="24" viewBox="0 0 24 24" fill="none" xmlns="http://www.w3.org/2000/svg">
<rect x="0.000976562" width="24" height="24" rx="4" fill="#413C48"/>
<path d="M21.7242 2.27707C21.6266 2.26993 21.5004 2.26278 21.3505 2.25564C19.2508 2.1628 12.2828 2.21993 7.12408 7.58339C2.7319 12.1494 2.22721 17.8842 2.2415 20.5481C2.24388 21.0646 2.26292 21.4646 2.28197 21.7193C3.8603 21.8241 10.9711 22.1169 16.4179 16.8772C16.5869 16.7153 16.7488 16.5511 16.9059 16.3868C16.994 16.294 17.0821 16.2011 17.1654 16.1083C17.3725 15.8821 17.5677 15.656 17.7558 15.425C17.8391 15.3251 17.9177 15.2251 17.9938 15.1251C22.0956 9.85923 21.8099 3.59353 21.7242 2.27707ZM8.21915 20.9813L3.01995 15.7821C3.18183 15.0799 3.38894 14.3776 3.63652 13.692L9.50942 19.5649L10.3093 20.3648C9.62369 20.6123 8.9238 20.8194 8.21915 20.9813ZM20.3625 10.302L19.9221 9.86161L13.6993 3.63876C14.3777 3.39594 15.0776 3.18883 15.7918 3.02219L20.6077 7.83812L20.9791 8.20949C20.8124 8.92366 20.6053 9.62355 20.3625 10.302Z" fill="#6600FF"/>
<path d="M21.3505 2.25564C21.3505 2.4818 21.3481 2.72938 21.3386 2.99838C21.3005 4.13869 21.1576 5.64322 20.7458 7.30486C20.7029 7.48103 20.6577 7.65957 20.6077 7.83812L15.7918 3.02219C15.0776 3.18883 14.3777 3.39594 13.6993 3.63876L19.9221 9.86161C19.8578 10.0187 19.7912 10.1782 19.7221 10.3353C18.9246 12.1565 17.7439 14.0181 16.0084 15.6869C14.1087 17.5128 12.0067 18.6674 10.0093 19.3911C9.84033 19.4506 9.67368 19.5101 9.50942 19.5649L3.63652 13.692C3.38894 14.3776 3.18183 15.0799 3.01995 15.7821L7.37166 20.1338C7.18121 20.1743 6.99315 20.2124 6.80746 20.2433C5.66002 20.4505 4.62208 20.5338 3.77936 20.56C3.53416 20.5671 3.30324 20.5695 3.09375 20.5695C2.86521 20.5695 2.6581 20.5647 2.47718 20.5576C2.39385 20.5552 2.3153 20.5528 2.2415 20.5481C2.22721 17.8842 2.7319 12.1494 7.12408 7.58339C12.2828 2.21993 19.2508 2.1628 21.3505 2.25564Z" fill="#9E68FF"/>
<path d="M21.9621 2.26257C21.955 2.14116 21.8598 2.04593 21.7384 2.03879C20.3909 1.95309 18.2675 1.96737 15.8131 2.52681C14.9108 2.72916 14.0253 2.99579 13.1825 3.32193C10.7805 4.24321 8.68322 5.62157 6.95253 7.41891C5.37897 9.05676 4.15535 10.9922 3.31976 13.1728C2.98886 14.0322 2.72223 14.9178 2.52464 15.8033C1.96283 18.2625 1.9533 20.386 2.04377 21.7358C2.05329 21.8548 2.14613 21.9476 2.26516 21.9571C2.64129 21.981 3.07694 22 3.56258 22C4.82429 22 6.42404 21.881 8.19758 21.4787C9.08316 21.2787 9.96874 21.0121 10.8281 20.6812C13.0087 19.8456 14.9442 18.6219 16.582 17.0484C16.6939 16.9413 16.8034 16.8341 16.9105 16.7246C17.001 16.6294 16.9986 16.4794 16.9058 16.3866C16.8105 16.2961 16.6606 16.2985 16.5677 16.3913C16.4654 16.4961 16.3606 16.6032 16.2535 16.7056C14.6966 18.2006 12.8611 19.3671 10.7972 20.1789L7.47864 16.8603L8.8332 15.5058L9.29741 15.9724C9.34502 16.0176 9.40454 16.0414 9.46643 16.0414C9.52833 16.0414 9.58784 16.0176 9.63545 15.9724C9.7283 15.8771 9.7283 15.7272 9.63545 15.6343L9.16886 15.1701L10.0997 14.2393L10.5663 14.7035C10.6115 14.7487 10.6734 14.7725 10.7329 14.7725C10.7924 14.7725 10.8567 14.7487 10.9019 14.7035C10.9948 14.6107 10.9948 14.4607 10.9019 14.3655L10.4377 13.9012L11.3685 12.9704L11.8327 13.4347C11.8803 13.4823 11.9422 13.5061 12.0018 13.5061C12.0613 13.5061 12.1232 13.4823 12.1708 13.4347C12.2636 13.3418 12.2636 13.1918 12.1708 13.099L11.7042 12.6324L12.6374 11.7016L13.1016 12.1682C13.1492 12.2134 13.2087 12.2372 13.2706 12.2372C13.3325 12.2372 13.392 12.2134 13.4372 12.1682C13.5301 12.0753 13.5301 11.923 13.4372 11.8301L12.973 11.3659L13.9038 10.4351L14.3704 10.8993C14.4157 10.9469 14.4776 10.9684 14.5371 10.9684C14.5966 10.9684 14.6609 10.9469 14.7061 10.8993C14.7989 10.8065 14.7989 10.6565 14.7061 10.5637L14.2419 10.0971L15.1727 9.16626L15.6369 9.63048C15.6845 9.67809 15.744 9.70189 15.8059 9.70189C15.8678 9.70189 15.9273 9.67809 15.975 9.63048C16.0678 9.53763 16.0678 9.38766 15.975 9.29482L15.5084 8.82822L16.8629 7.47605L19.722 10.3351L20.1767 10.7898C19.6077 12.2444 18.8578 13.5918 17.9485 14.794C17.8699 14.8987 17.8913 15.0439 17.9937 15.1249H17.9961C18.1008 15.2058 18.2484 15.1844 18.3294 15.0796C19.2959 13.8036 20.0862 12.3705 20.679 10.8184C21.0051 9.97566 21.2718 9.09009 21.4741 8.18784C22.0335 5.73346 22.0478 3.60998 21.9621 2.26257ZM21.1765 2.48872L18.5531 5.11213L16.3416 2.90056C18.2651 2.50301 19.9529 2.44587 21.1765 2.48872ZM21.5122 2.82438C21.555 4.04801 21.4979 5.73584 21.1004 7.65935L18.8888 5.44779L21.5122 2.82438ZM2.82936 21.5096L3.77921 20.5597L5.45038 18.8862L7.66909 21.1049C5.74082 21.5001 4.0506 21.5548 2.82936 21.5096ZM3.0936 20.5693L2.49132 21.1716C2.48418 20.9787 2.47941 20.7716 2.47703 20.5574C2.47227 19.4099 2.56273 17.9554 2.89602 16.3318L5.11472 18.5505L3.0936 20.5693ZM9.50928 19.5647L10.3092 20.3645C9.62355 20.6121 8.92366 20.8192 8.21901 20.9811L3.01981 15.7819C3.18169 15.0796 3.3888 14.3774 3.63638 13.6918L9.50928 19.5647ZM15.1727 8.49256L14.7061 8.02596C14.6133 7.93312 14.4633 7.93312 14.3704 8.02596C14.2776 8.11881 14.2776 8.27116 14.3704 8.36401L14.8347 8.82822L13.9038 9.76141L13.4372 9.29482C13.3444 9.20197 13.1944 9.20197 13.1016 9.29482C13.0087 9.38766 13.0087 9.53763 13.1016 9.63048L13.5682 10.0971L12.6374 11.0279L12.1708 10.5637C12.0779 10.4708 11.9256 10.4708 11.8327 10.5637C11.7399 10.6565 11.7399 10.8065 11.8327 10.8993L12.2993 11.3659L11.3685 12.2967L10.9019 11.8301C10.8091 11.7373 10.6591 11.7373 10.5663 11.8301C10.4734 11.923 10.4734 12.0753 10.5663 12.1682L11.0329 12.6348L10.0997 13.5656L9.63545 13.099C9.54023 13.0061 9.39025 13.0061 9.29741 13.099C9.20457 13.1918 9.20457 13.3418 9.29741 13.4347L9.76401 13.9012L8.8332 14.8321L8.3666 14.3655C8.27376 14.2726 8.12378 14.2726 8.02856 14.3655C7.93572 14.4607 7.93572 14.6107 8.02856 14.7035L8.49753 15.1701L7.14298 16.5247L3.82206 13.2037C4.63384 11.1398 5.80033 9.30434 7.29534 7.74743C8.9427 6.03817 10.9329 4.71933 13.2111 3.82423L16.5249 7.13801L15.1727 8.49256ZM19.922 9.86139L13.6991 3.63854C14.3776 3.39572 15.0775 3.18861 15.7916 3.02197L20.6076 7.8379L20.9789 8.20927C20.8123 8.92344 20.6052 9.62334 20.3624 10.3018L19.922 9.86139ZM17.7556 15.4248C17.6533 15.3415 17.5033 15.3558 17.42 15.4558C17.3319 15.5629 17.239 15.6676 17.1462 15.7748C17.0605 15.8724 17.0676 16.02 17.1652 16.1081H17.1676C17.2129 16.1509 17.2676 16.1699 17.3247 16.1699C17.3914 16.1699 17.4557 16.1438 17.5033 16.089C17.6009 15.9819 17.6937 15.8724 17.7866 15.7605C17.8699 15.6581 17.8556 15.5081 17.7556 15.4248Z" fill="#171120"/>
</svg>
