<svg width="24" height="25" viewBox="0 0 24 25" fill="none" xmlns="http://www.w3.org/2000/svg">
<path d="M19.425 20.2301C15.3225 24.3301 8.67499 24.3301 4.57499 20.2301C3.47499 19.1301 2.66749 17.8426 2.15749 16.4726C0.769993 12.7401 1.57499 8.38005 4.57499 5.38005C8.67499 1.28005 15.3225 1.28005 19.425 5.38005C19.97 5.92505 20.4425 6.51505 20.8425 7.13755C23.4525 11.2001 22.98 16.6726 19.425 20.2301Z" fill="#6600FF"/>
<path d="M18.425 18.2301C14.325 22.3301 7.67499 22.3301 3.57499 18.2301C3.02999 17.6851 2.55749 17.0951 2.15749 16.4726C0.769993 12.7401 1.57499 8.38005 4.57499 5.38005C8.67499 1.28005 15.3225 1.28005 19.425 5.38005C19.97 5.92505 20.4425 6.51505 20.8425 7.13755C22.23 10.8676 21.425 15.2301 18.425 18.2301Z" fill="#9E68FF"/>
<path d="M22.5376 10.6751C22.1426 8.70255 21.2001 6.88505 19.8126 5.42005C19.7176 5.32005 19.5601 5.31505 19.4601 5.41005C19.3601 5.50505 19.3551 5.66255 19.4501 5.76255C20.5776 6.95255 21.3926 8.38755 21.8451 9.95005C20.3201 8.58005 16.3851 5.53755 11.3601 5.40005C11.8926 4.21255 13.1901 3.37505 15.0651 3.02005C16.0351 3.32505 16.9501 3.76505 17.7801 4.33505C17.8951 4.41255 18.0501 4.38505 18.1276 4.27005C18.2051 4.15505 18.1776 4.00005 18.0626 3.92255C17.1751 3.31255 16.1951 2.84005 15.1551 2.52255C15.1501 2.52255 15.1426 2.52005 15.1376 2.51755C13.3076 1.96005 11.3576 1.90005 9.49762 2.34505C8.02762 2.69505 6.67262 3.34005 5.47512 4.25755C5.09512 4.54755 4.73512 4.86505 4.40012 5.20005C3.27762 6.32255 2.43512 7.64005 1.90012 9.11755C0.847616 12.0051 1.08262 15.2101 2.54262 17.9101V17.9176C3.03512 18.8276 3.66012 19.6626 4.40012 20.4026C6.35262 22.3551 8.94512 23.4701 11.7001 23.5451C11.8051 23.5476 11.9076 23.5501 12.0101 23.5501C14.8801 23.5501 17.5676 22.4401 19.6076 20.3976C19.6451 20.3601 19.6826 20.3226 19.7176 20.2851C22.1851 17.7451 23.2376 14.1501 22.5376 10.6726V10.6751ZM14.0301 2.76255C12.3976 3.26005 11.2776 4.17505 10.8176 5.39755C10.1251 5.40755 9.41262 5.47505 8.68762 5.61005C8.96262 4.66255 9.31012 3.72755 9.72762 2.81005C11.1451 2.48755 12.6101 2.47505 14.0301 2.76255ZM5.90512 4.56505C6.87762 3.84255 7.95012 3.30755 9.11012 2.96755C8.71762 3.87005 8.39262 4.79005 8.13512 5.72255C7.40262 5.89255 6.68262 6.12755 5.98012 6.42755C6.06262 5.80755 6.04762 5.19505 5.90512 4.56505ZM4.75262 5.55755C4.97762 5.33255 5.22012 5.12005 5.46762 4.91255C5.57012 5.50005 5.55012 6.07755 5.44012 6.67005C4.50512 7.11755 3.61012 7.67755 2.77012 8.34005C3.26512 7.31255 3.92762 6.37755 4.75012 5.55505L4.75262 5.55755ZM2.34762 9.35255C3.25762 8.53005 4.25012 7.84255 5.29512 7.30255C5.05262 8.18505 4.65012 9.12505 4.18262 10.2101C3.94012 10.7726 3.69012 11.3551 3.43762 11.9876C2.66512 13.9201 2.45012 15.4351 2.42262 16.4451C1.56012 14.1801 1.52512 11.6626 2.35012 9.35255H2.34762ZM2.99762 17.7076C2.93012 17.3776 2.60762 15.4076 3.90012 12.1726C4.15262 11.5451 4.40012 10.9651 4.64012 10.4051C5.17262 9.16755 5.64012 8.07505 5.87512 7.01755C6.56262 6.70255 7.27012 6.45255 7.99262 6.27005C7.61262 7.81505 7.41262 9.39255 7.40262 10.9926C7.36762 16.5251 9.64262 20.7701 11.2026 23.0251C8.76762 22.8376 6.49262 21.7951 4.75262 20.0551C4.05262 19.3551 3.46512 18.5676 3.00012 17.7076H2.99762ZM11.8326 23.0501C10.3151 20.9451 7.86512 16.6626 7.90262 10.9951C7.91262 9.35255 8.12762 7.73005 8.54012 6.14755C9.26762 5.99755 9.97762 5.92255 10.6701 5.90255C10.3276 7.51505 11.1126 9.37255 12.9101 11.1701C16.1626 14.4226 18.6351 18.9301 19.2326 20.0676C17.2526 22.0401 14.6301 23.0926 11.8326 23.0501ZM19.5926 19.6826C18.8626 18.3151 16.4301 13.9851 13.2601 10.8176C11.5451 9.10255 10.8151 7.36255 11.1851 5.89755C16.9826 5.98255 21.3301 10.1101 22.0576 10.8476C22.6751 14.0276 21.7551 17.2951 19.5926 19.6851V19.6826ZM18.4826 4.86505C18.3751 4.77755 18.3601 4.62005 18.4501 4.51255C18.5401 4.40505 18.6951 4.39005 18.8026 4.48005C18.9201 4.57755 19.0376 4.67755 19.1526 4.77755C19.2551 4.87005 19.2651 5.02755 19.1726 5.13005C19.1226 5.18505 19.0551 5.21505 18.9851 5.21505C18.9251 5.21505 18.8676 5.19505 18.8201 5.15255C18.7101 5.05505 18.5976 4.96005 18.4851 4.86505H18.4826Z" fill="#171120"/>
</svg>
