<svg width="20" height="20" viewBox="0 0 20 20" fill="none" xmlns="http://www.w3.org/2000/svg">
<g id="Table-Tennis">
<path id="Vector" d="M18.029 8.901C17.049 8.901 16.252 9.698 16.252 10.679C16.252 11.66 17.049 12.457 18.029 12.457C19.009 12.457 19.807 11.66 19.807 10.679C19.807 9.698 19.009 8.901 18.029 8.901Z" fill="#9E68FF"/>
<path id="Vector_2" d="M14.2498 10.679C14.2498 8.59603 15.9438 6.90103 18.0268 6.90103C18.5798 6.90103 19.1028 7.02703 19.5768 7.24203C19.2768 5.44903 18.4178 3.80803 17.0688 2.53103C13.9748 -0.394973 9.02884 -0.513973 5.80584 2.25803C4.82884 3.10003 4.08784 4.12003 3.58984 5.23103L14.6828 16.325C15.6188 15.914 16.4948 15.352 17.2398 14.607C17.3068 14.54 17.3658 14.466 17.4308 14.397C15.6328 14.108 14.2498 12.558 14.2498 10.679Z" fill="#9E68FF"/>
<path id="Vector_3" d="M2.94768 7.41699C2.71868 8.96499 2.92368 10.584 3.60468 12.101C3.77568 12.483 3.70368 12.899 3.41968 13.161L1.13968 15.265C0.361682 15.94 0.0406819 16.849 0.261682 17.759C0.486682 18.682 1.25768 19.453 2.18168 19.677C2.36968 19.723 2.55968 19.745 2.74568 19.745C3.45768 19.745 4.13668 19.419 4.65668 18.817L6.77668 16.519C7.03868 16.235 7.45368 16.162 7.83468 16.333C9.31968 17 10.9357 17.185 12.4887 16.959L2.94768 7.41699Z" fill="#9E68FF"/>
</g>
</svg>
