<svg xmlns="http://www.w3.org/2000/svg" width="24" height="25" viewBox="0 0 24 25" fill="none">
  <path d="M15.2751 17.8326C15.2751 18.4176 12.4276 18.8926 8.91756 18.8926C5.40756 18.8926 2.56006 18.4176 2.56006 17.8326C2.56006 17.4976 3.49256 17.2001 4.94506 17.0051C6.03256 16.8576 7.41506 16.7726 8.91756 16.7726C12.4276 16.7726 15.2751 17.2476 15.2751 17.8326Z" fill="#9E68FF"/>
  <path d="M15.2751 17.8325V21.805C15.2751 22.39 12.4276 22.865 8.91756 22.865C5.40756 22.865 2.56006 22.39 2.56006 21.805V17.8325C2.56006 18.4175 5.40756 18.8925 8.91756 18.8925C11.2726 18.8925 13.3276 18.68 14.4251 18.3625C14.9651 18.205 15.2751 18.025 15.2751 17.8325Z" fill="#6600FF"/>
  <path d="M14.4251 18.3625V20.6225C14.4251 21.2075 11.5776 21.6825 8.06756 21.6825C5.71256 21.6825 3.65756 21.47 2.56006 21.1525V17.8325C2.56006 18.4175 5.40756 18.8925 8.91756 18.8925C11.2726 18.8925 13.3276 18.68 14.4251 18.3625Z" fill="#9E68FF"/>
  <path d="M22.17 3.73508L19.285 10.3226L17.74 9.63258L20.885 2.63508C20.9425 2.51008 20.885 2.36008 20.76 2.30508C20.635 2.24758 20.485 2.30508 20.43 2.43008L16.07 12.1301C15.8275 12.6726 15.245 12.9901 14.6525 12.9051L4.3475 11.3776C3.38 11.2326 2.3975 11.6226 1.7875 12.4301C1.425 12.9126 1.25 13.5101 1.25 14.1126V16.4401C1.25 17.2826 1.645 18.0701 2.31 18.5801V21.8051C2.31 23.1001 8.6475 23.1151 8.9175 23.1151C9.1875 23.1151 15.525 23.1001 15.525 21.8051V21.1801C15.525 21.0426 15.4125 20.9301 15.275 20.9301C15.1375 20.9301 15.025 21.0426 15.025 21.1801L15.03 21.7826C14.875 22.0826 12.7025 22.6151 8.9175 22.6151C5.1325 22.6151 2.96 22.0801 2.81 21.8051V18.3901C4.31 19.1301 8.695 19.1401 8.9175 19.1401C9.14 19.1401 13.525 19.1301 15.025 18.3901V18.9301C15.025 19.0676 15.1375 19.1801 15.275 19.1801C15.4125 19.1801 15.525 19.0676 15.525 18.9301V18.8101C16.025 18.5301 16.425 18.0951 16.66 17.5651L22.63 3.93758C22.685 3.81008 22.63 3.66258 22.5025 3.60758C22.375 3.55258 22.2275 3.60758 22.1725 3.73508H22.17ZM1.75 16.4401V14.0501C1.75 13.4076 2.0275 12.8001 2.515 12.3826C3 11.9651 3.6425 11.7776 4.275 11.8726L4.6975 11.9351V16.7926C3.4025 16.9801 2.3125 17.2951 2.3125 17.8326C2.3125 17.8376 2.3125 17.8426 2.3125 17.8451V17.9076C1.955 17.5076 1.7525 16.9876 1.7525 16.4401H1.75ZM8.9175 18.6426C5.1675 18.6426 3 18.1201 2.8175 17.8401C3.0325 17.5376 5.195 17.0226 8.9175 17.0226C12.64 17.0226 14.8275 17.5451 15.0175 17.8226C14.8075 18.1226 12.6475 18.6401 8.9175 18.6401V18.6426ZM16.2 17.3651C16.05 17.7051 15.815 17.9976 15.5225 18.2176V17.8526C15.5225 17.8526 15.5225 17.8401 15.5225 17.8326C15.5225 16.5376 9.185 16.5226 8.915 16.5226C8.7725 16.5226 6.905 16.5276 5.1925 16.7276V12.0101L14.5775 13.4001C15.39 13.5201 16.19 13.0801 16.525 12.3351L17.535 10.0901L19.085 10.7826L16.2025 17.3651H16.2ZM15.5225 19.8301V20.2801C15.5225 20.4176 15.41 20.5301 15.2725 20.5301C15.135 20.5301 15.0225 20.4176 15.0225 20.2801V19.8301C15.0225 19.6926 15.135 19.5801 15.2725 19.5801C15.41 19.5801 15.5225 19.6926 15.5225 19.8301Z" fill="#6600FF"/>
  <path d="M22.7299 3.70754L19.6424 10.755C19.6149 10.8175 19.5649 10.865 19.5024 10.8875C19.4724 10.9 19.4424 10.905 19.4124 10.905C19.3774 10.905 19.3424 10.8975 19.3099 10.8825L17.3074 9.98754C17.2474 9.96004 17.1999 9.91004 17.1774 9.85004C17.1524 9.78754 17.1549 9.71754 17.1824 9.65754L20.5324 2.20254C20.5624 2.13254 20.6249 2.08254 20.6974 2.06254C20.7724 2.04504 20.8499 2.06004 20.9099 2.10504L22.6499 3.40754C22.7424 3.47754 22.7749 3.60254 22.7299 3.70754Z" fill="#9E68FF"/>
</svg>