<svg xmlns="http://www.w3.org/2000/svg" width="24" height="25" viewBox="0 0 24 25" fill="none">
  <path d="M7.0349 12.6553C6.5774 13.1303 6.1724 13.6128 5.7999 14.1278C5.1124 15.0728 4.5524 16.0978 4.1299 17.1678C4.0924 17.2628 3.9999 17.3253 3.8974 17.3253H3.8849C3.7799 17.3203 3.6874 17.2478 3.6574 17.1453C3.4324 16.3728 3.3649 15.5878 3.4574 14.8103C3.5424 14.0753 3.7699 13.3653 4.1324 12.7003C4.4049 12.2003 4.8899 11.8653 5.4599 11.7853C6.0449 11.7003 6.6149 11.8903 7.0324 12.3053C7.1274 12.4028 7.1299 12.5578 7.0349 12.6553Z" fill="#6600FF"/>
  <path d="M20.5425 10.8002C20.4575 11.5352 20.23 12.2452 19.8675 12.9102C19.595 13.4102 19.11 13.7452 18.54 13.8252C18.45 13.8402 18.36 13.8452 18.27 13.8452C17.7825 13.8452 17.32 13.6552 16.9675 13.3052C16.8725 13.2077 16.87 13.0527 16.965 12.9552C17.4225 12.4802 17.8275 11.9977 18.2 11.4827C18.8875 10.5377 19.4475 9.51274 19.87 8.44274C19.91 8.34524 20.0025 8.27774 20.115 8.28524C20.22 8.29024 20.3125 8.36274 20.3425 8.46524C20.5675 9.23774 20.635 10.0227 20.5425 10.8002Z" fill="#6600FF"/>
  <path d="M12.2901 17.5976C11.7826 18.0526 11.2176 18.5151 10.5926 18.9726C9.35008 19.8801 8.16508 20.5476 7.14758 21.0401L3.70508 17.5951C3.76258 17.4326 3.82508 17.2601 3.89758 17.0776C3.94758 16.9501 4.00008 16.8201 4.06008 16.6851C4.40258 15.8826 4.89758 14.9476 5.59758 13.9801C6.01008 13.4101 6.43758 12.9151 6.85508 12.4826C6.94008 12.3926 7.02508 12.3076 7.11008 12.2251C7.93008 11.4201 9.24508 11.4276 10.0576 12.2401L12.3751 14.5576C12.6226 14.8051 12.7926 15.0976 12.8901 15.4076C13.1301 16.1676 12.9251 17.0301 12.2901 17.5976Z" fill="#6600FF"/>
  <path d="M12.8901 15.4076C12.7801 15.7526 12.5801 16.0726 12.2901 16.3326C11.7826 16.7876 11.2176 17.2501 10.5926 17.7076C10.0101 18.1326 9.43756 18.5051 8.89256 18.8326C7.90506 19.4226 6.64506 19.2701 5.83256 18.4576L4.06006 16.6851C4.40256 15.8826 4.89756 14.9476 5.59756 13.9801C6.01006 13.4101 6.43756 12.9151 6.85506 12.4826C6.94006 12.3926 7.02506 12.3076 7.11006 12.2251C7.93006 11.4201 9.24506 11.4276 10.0576 12.2401L12.3751 14.5576C12.6226 14.8051 12.7926 15.0976 12.8901 15.4076Z" fill="#9E68FF"/>
  <path d="M20.2949 8.01507C20.2374 8.17757 20.175 8.35007 20.1025 8.53257C20.0424 8.68507 19.9774 8.84257 19.9074 9.00507C19.5624 9.79007 19.08 10.6951 18.4025 11.6301C17.99 12.2001 17.5625 12.6951 17.145 13.1276C17.06 13.2176 16.9749 13.3026 16.8899 13.3851C16.0699 14.1901 14.755 14.1826 13.9425 13.3701L11.6249 11.0526C11.3924 10.8201 11.2274 10.5476 11.1299 10.2576C10.8599 9.48757 11.0574 8.59507 11.7099 8.01257C12.2174 7.55757 12.7825 7.09507 13.4075 6.63757C14.65 5.73007 15.835 5.06257 16.8525 4.57007L20.2949 8.01507Z" fill="#6600FF"/>
  <path d="M19.9074 9.00517C19.5624 9.79017 19.0799 10.6952 18.4024 11.6302C17.9899 12.2002 17.5624 12.6952 17.1449 13.1277C17.0599 13.2177 16.9749 13.3027 16.8899 13.3852C16.0699 14.1902 14.7549 14.1827 13.9424 13.3702L11.6249 11.0527C11.3924 10.8202 11.2274 10.5477 11.1299 10.2577C11.2424 9.93517 11.4349 9.63517 11.7099 9.39017C12.2174 8.93517 12.7824 8.47267 13.4074 8.01517C13.9899 7.59017 14.5624 7.21767 15.1074 6.89017C16.0949 6.30017 17.3549 6.45267 18.1674 7.26517L19.9074 9.00517Z" fill="#9E68FF"/>
  <path d="M5.60247 21.2151L4.91497 21.9051C4.86747 21.9526 4.80497 21.9776 4.73747 21.9776C4.66997 21.9776 4.60747 21.9526 4.55997 21.9051L2.83997 20.1826C2.74247 20.0851 2.74247 19.9276 2.83997 19.8301L3.52747 19.1401C3.57497 19.0926 3.63747 19.0676 3.70497 19.0676C3.77247 19.0676 3.83497 19.0926 3.88247 19.1401L5.60247 20.8626C5.69997 20.9601 5.69997 21.1176 5.60247 21.2151Z" fill="#6600FF"/>
  <path d="M21.1601 5.78007L20.4726 6.47007C20.4251 6.51757 20.3626 6.54257 20.2951 6.54257C20.2276 6.54257 20.1651 6.51757 20.1176 6.47007L18.3976 4.74757C18.3001 4.65007 18.3001 4.49257 18.3976 4.39507L19.0851 3.70507C19.1326 3.65757 19.1951 3.63257 19.2626 3.63257C19.3301 3.63257 19.3926 3.65757 19.4401 3.70507L21.1601 5.42757C21.2576 5.52507 21.2576 5.68257 21.1601 5.78007Z" fill="#6600FF"/>
  <path d="M12.5501 14.3801L10.2351 12.0651C9.32761 11.1576 7.84761 11.1501 6.93511 12.0476C6.37511 12.5976 5.85761 13.1976 5.39761 13.8326C4.58761 14.9451 3.94511 16.1651 3.48761 17.4601L1.47011 19.4751C1.17761 19.7676 1.17761 20.2451 1.47011 20.5376L4.20761 23.2726C4.35011 23.4151 4.53761 23.4926 4.73761 23.4926C4.93761 23.4926 5.12761 23.4151 5.26761 23.2726L7.29261 21.2476C8.50011 20.6626 9.65761 19.9651 10.7401 19.1751C11.3326 18.7426 11.9101 18.2751 12.4576 17.7851C12.9426 17.3526 13.2201 16.7551 13.2376 16.1051C13.2551 15.4526 13.0126 14.8401 12.5501 14.3801ZM4.91511 22.9201C4.86761 22.9676 4.80261 22.9901 4.74011 22.9901C4.67261 22.9901 4.60761 22.9676 4.56011 22.9201L1.82511 20.1826C1.72761 20.0851 1.72761 19.9276 1.82511 19.8301L3.70511 17.9501L6.79511 21.0401L4.91511 22.9201ZM12.1251 17.4126C11.5901 17.8901 11.0251 18.3476 10.4451 18.7701C9.42511 19.5151 8.33261 20.1776 7.19761 20.7351L3.99261 17.5301C4.43261 16.3151 5.04261 15.1726 5.80011 14.1276C6.24511 13.5151 6.74511 12.9351 7.28511 12.4051C8.00261 11.6976 9.16761 11.7051 9.88261 12.4176L12.1976 14.7326C12.5601 15.0976 12.7526 15.5776 12.7376 16.0901C12.7226 16.6026 12.5051 17.0726 12.1251 17.4126ZM22.5301 5.07261L19.7926 2.33761C19.5101 2.05511 19.0151 2.05511 18.7326 2.33761L16.7076 4.36261C15.5001 4.94761 14.3426 5.64511 13.2601 6.43511C12.6676 6.86761 12.0901 7.33511 11.5426 7.82511C11.0576 8.25761 10.7801 8.85511 10.7626 9.50511C10.7451 10.1576 10.9876 10.7701 11.4501 11.2301L13.7651 13.5451C14.2226 14.0026 14.8226 14.2301 15.4251 14.2301C16.0276 14.2301 16.6126 14.0076 17.0651 13.5626C17.6251 13.0126 18.1426 12.4126 18.6026 11.7776C19.4126 10.6651 20.0551 9.44511 20.5126 8.15011L22.5301 6.13511C22.8226 5.84261 22.8226 5.36511 22.5301 5.07261ZM18.2001 11.4826C17.7551 12.0951 17.2551 12.6751 16.7151 13.2051C15.9976 13.9126 14.8326 13.9051 14.1176 13.1926L11.8026 10.8776C11.4401 10.5126 11.2476 10.0326 11.2626 9.52011C11.2776 9.00761 11.4951 8.53761 11.8751 8.19761C12.4101 7.72011 12.9751 7.26261 13.5551 6.84011C14.5751 6.09511 15.6676 5.43261 16.8026 4.87511L20.0076 8.08011C19.5676 9.29511 18.9576 10.4376 18.2001 11.4826ZM22.1751 5.78011L20.2951 7.66011L17.2051 4.57011L19.0851 2.69011C19.1326 2.64261 19.1976 2.62011 19.2601 2.62011C19.3276 2.62011 19.3926 2.64261 19.4401 2.69011L22.1751 5.42761C22.2726 5.52511 22.2726 5.68261 22.1751 5.78011ZM16.1026 17.1576C16.0376 17.1576 15.9751 17.1326 15.9251 17.0851L15.2376 16.3976C15.1401 16.3001 15.1401 16.1426 15.2376 16.0451C15.3351 15.9476 15.4926 15.9476 15.5901 16.0451L16.2776 16.7326C16.3751 16.8301 16.3751 16.9876 16.2776 17.0851C16.2276 17.1351 16.1651 17.1576 16.1001 17.1576H16.1026ZM17.1351 15.6326C17.1026 15.6326 17.0676 15.6251 17.0376 15.6126L16.1426 15.2301C16.0151 15.1751 15.9576 15.0301 16.0101 14.9026C16.0626 14.7751 16.2126 14.7151 16.3376 14.7701L17.2326 15.1526C17.3601 15.2076 17.4176 15.3526 17.3651 15.4801C17.3251 15.5751 17.2326 15.6326 17.1351 15.6326ZM14.5751 18.1926C14.4776 18.1926 14.3851 18.1351 14.3451 18.0401L13.9626 17.1451C13.9076 17.0176 13.9676 16.8701 14.0951 16.8176C14.2201 16.7626 14.3701 16.8226 14.4226 16.9501L14.8051 17.8451C14.8601 17.9726 14.8001 18.1201 14.6726 18.1726C14.6401 18.1876 14.6076 18.1926 14.5751 18.1926ZM8.52511 9.58511C8.46011 9.58511 8.39761 9.56011 8.34761 9.51261L7.66011 8.82511C7.56261 8.72761 7.56261 8.57011 7.66011 8.47261C7.75761 8.37511 7.91511 8.37511 8.01261 8.47261L8.70011 9.16011C8.79761 9.25761 8.79761 9.41511 8.70011 9.51261C8.65011 9.56261 8.58761 9.58511 8.52261 9.58511H8.52511ZM9.74511 8.75761C9.64761 8.75761 9.55511 8.70011 9.51511 8.60511L9.13261 7.71011C9.07761 7.58261 9.13761 7.43511 9.26511 7.38261C9.39011 7.32761 9.53761 7.38761 9.59261 7.51511L9.97511 8.41011C10.0301 8.53761 9.97011 8.68511 9.84261 8.73761C9.81011 8.75261 9.77761 8.75761 9.74511 8.75761ZM7.69761 10.8051C7.66511 10.8051 7.63011 10.7976 7.60011 10.7851L6.70511 10.4026C6.57761 10.3476 6.52011 10.2026 6.57261 10.0751C6.62761 9.94761 6.77511 9.88761 6.90011 9.94261L7.79511 10.3251C7.92261 10.3801 7.98011 10.5251 7.92761 10.6526C7.88761 10.7476 7.79511 10.8051 7.69761 10.8051Z" fill="#424245"/>
</svg>