<svg xmlns="http://www.w3.org/2000/svg" width="24" height="25" viewBox="0 0 24 25" fill="none">
  <path d="M20.845 7.14509C20.8125 7.09259 20.7775 7.04009 20.7425 6.98759C20.685 6.89759 20.625 6.81009 20.5625 6.72509C20.2275 6.25259 19.8475 5.80259 19.425 5.38009C18.9625 4.91759 18.47 4.50759 17.95 4.15259C17.84 4.07509 17.7275 4.00009 17.615 3.93009C17.56 3.89509 17.5025 3.86009 17.445 3.82509C17.3 3.73759 17.1525 3.65259 17.005 3.57259C16.9425 3.53759 16.88 3.50509 16.8175 3.47259C16.81 3.46759 16.8025 3.46509 16.7925 3.46009C16.6725 3.39759 16.5525 3.34009 16.43 3.28259C16.2725 3.21009 16.1125 3.14009 15.95 3.07509C15.885 3.04759 15.8175 3.02009 15.75 2.99509C15.7 2.97509 15.65 2.95759 15.6 2.94009C15.5225 2.91009 15.445 2.88259 15.3675 2.85759C15.2425 2.81509 15.115 2.77509 14.9875 2.73759C14.9075 2.71259 14.825 2.69009 14.745 2.66759C14.6675 2.64759 14.5925 2.62759 14.5175 2.61009C14.4225 2.58759 14.3275 2.56509 14.2325 2.54259C14.1575 2.52759 14.08 2.51259 14.005 2.49759C13.9225 2.48009 13.84 2.46509 13.755 2.45259C13.675 2.43759 13.5925 2.42509 13.5125 2.41259C13.3175 2.38509 13.12 2.36259 12.925 2.34509C12.8675 2.34009 12.8125 2.33509 12.755 2.33259C12.5925 2.32009 12.43 2.31259 12.27 2.30759C12.01 2.30259 11.7525 2.30509 11.495 2.31759C11.4125 2.32009 11.3275 2.32509 11.245 2.33259C11.19 2.33509 11.1375 2.34009 11.0825 2.34509C11.03 2.35009 10.9775 2.35509 10.9275 2.36009C10.78 2.37509 10.6325 2.39259 10.4875 2.41259C10.405 2.42509 10.325 2.43759 10.2425 2.45259C10.16 2.46509 10.0775 2.48009 9.99498 2.49759C9.91748 2.51259 9.84248 2.52759 9.76748 2.54259C9.66998 2.56509 9.57498 2.58759 9.48248 2.61009C9.40498 2.62759 9.32998 2.64759 9.25498 2.66759C9.17248 2.69009 9.09248 2.71259 9.00998 2.73759C8.88248 2.77509 8.75748 2.81509 8.63248 2.85759C8.54998 2.88509 8.46998 2.91259 8.38998 2.94259C8.33998 2.96009 8.28998 2.98009 8.24248 2.99759C8.17748 3.02259 8.11248 3.04759 8.04748 3.07509C7.75498 3.19259 7.46498 3.32509 7.18248 3.47259C7.11998 3.50509 7.05748 3.53759 6.99498 3.57259C6.84498 3.65259 6.69998 3.73759 6.55498 3.82509C6.48248 3.86759 6.40998 3.91259 6.33998 3.96009C6.19248 4.05259 6.04748 4.15009 5.90498 4.25259C5.84498 4.29509 5.78498 4.34009 5.72498 4.38509C5.32498 4.68259 4.93998 5.01509 4.57498 5.38009C4.20998 5.74509 3.87748 6.13009 3.57998 6.53009C3.53498 6.59009 3.48998 6.65009 3.44748 6.71009C3.34498 6.85259 3.24748 6.99759 3.15498 7.14509C3.10748 7.21509 3.06248 7.28759 3.01998 7.36009C2.92998 7.50509 2.84748 7.65009 2.76748 7.80009C2.73248 7.86259 2.69998 7.92509 2.66748 7.98759C2.51998 8.27009 2.38748 8.56009 2.26998 8.85259C2.24248 8.91759 2.21748 8.98259 2.19248 9.04759C2.17248 9.09509 2.15498 9.14509 2.13748 9.19509C2.10748 9.27509 2.07998 9.35509 2.05248 9.43759C2.00998 9.56259 1.96998 9.69009 1.93248 9.81509C1.90748 9.89759 1.88498 9.97759 1.86248 10.0601C1.84248 10.1351 1.82248 10.2101 1.80498 10.2876C1.77998 10.3826 1.75748 10.4776 1.73748 10.5726C1.72248 10.6476 1.70748 10.7226 1.69248 10.8001C1.67498 10.8826 1.65998 10.9651 1.64748 11.0476C1.63248 11.1301 1.61998 11.2101 1.60748 11.2926C1.58748 11.4401 1.56748 11.5851 1.55498 11.7326C1.54998 11.7826 1.54498 11.8351 1.53998 11.8876C1.53498 11.9426 1.52998 11.9951 1.52748 12.0501C1.51998 12.1326 1.51498 12.2176 1.51248 12.3001C1.49498 12.6251 1.49498 12.9476 1.50998 13.2701C1.51248 13.3401 1.51748 13.4101 1.51998 13.4776C1.52498 13.5351 1.52748 13.5901 1.53248 13.6476C1.53998 13.7201 1.54498 13.7926 1.55248 13.8626C1.58998 14.2426 1.64998 14.6226 1.72998 14.9976C1.74248 15.0576 1.75498 15.1176 1.76998 15.1776C1.80998 15.3576 1.85748 15.5376 1.90998 15.7176C1.92998 15.7876 1.94998 15.8576 1.97248 15.9276C1.99748 16.0101 2.02498 16.0926 2.05248 16.1726C2.07998 16.2551 2.10748 16.3351 2.13748 16.4151C2.14248 16.4351 2.14998 16.4526 2.15748 16.4726C2.15748 16.4751 2.15998 16.4751 2.15998 16.4776C3.64998 20.4651 7.49248 23.3051 12 23.3051C17.8 23.3051 22.5 18.6051 22.5 12.8051C22.5 10.7201 21.8925 8.77759 20.845 7.14509ZM21.2 8.30509C21.4675 8.85009 21.685 9.41759 21.8525 10.0026L21.4825 10.2151L21.0925 10.4426L18.5925 8.99759V6.11259L19.3575 5.67009C20.11 6.45009 20.73 7.34009 21.2 8.30509ZM9.49998 2.86509C10.3 2.66259 11.1375 2.55509 12 2.55509C12.8625 2.55509 13.6875 2.66009 14.5 2.86509V3.74759L12 5.19259L9.49998 3.74759V2.86509ZM4.64748 5.67259L5.40748 6.11259V8.99759L2.90748 10.4426L2.14248 10.0001C2.61248 8.35259 3.48498 6.87259 4.64748 5.67259ZM2.86248 17.4401C2.56498 16.8601 2.32498 16.2476 2.14248 15.6101L2.90748 15.1701L5.40748 16.6126V19.4976L5.24748 19.5901L4.64748 19.9376C3.93498 19.2026 3.32998 18.3601 2.86248 17.4401ZM14.5 22.7451C13.7 22.9476 12.8625 23.0551 12 23.0551C11.1375 23.0551 10.3 22.9476 9.49998 22.7451V21.8626L10.4875 21.2926L12 20.4201L13.15 21.0826L14.5 21.8626V22.7451ZM19.3525 19.9376L18.5925 19.4976V16.6126L20.3425 15.6026L21.0925 15.1701L21.8575 15.6101C21.3875 17.2576 20.515 18.7376 19.3525 19.9376Z" fill="#6600FF"/>
  <path d="M21.4825 10.2151L21.0925 10.4426L18.5925 8.99759V6.11259L19.3575 5.67009C20.11 6.45009 20.73 7.34009 21.2 8.30509C21.105 7.91259 20.9875 7.52509 20.845 7.14509C20.845 7.14259 20.8425 7.14009 20.8425 7.13759C20.81 7.08759 20.7775 7.03759 20.7425 6.98759C20.685 6.89759 20.625 6.81009 20.5625 6.72509C20.2275 6.25259 19.8475 5.80259 19.425 5.38009C18.9625 4.91759 18.47 4.50759 17.95 4.15259C17.84 4.07509 17.7275 4.00009 17.615 3.93009C17.56 3.89509 17.5025 3.86009 17.445 3.82509C17.3 3.73759 17.1525 3.65259 17.005 3.57259C16.9425 3.53759 16.88 3.50509 16.8175 3.47259C16.81 3.46759 16.8025 3.46509 16.7925 3.46009C16.6725 3.39759 16.5525 3.34009 16.43 3.28259C16.2725 3.21009 16.1125 3.14009 15.95 3.07509C15.885 3.04759 15.8175 3.02009 15.75 2.99509C15.7 2.97509 15.65 2.95759 15.6 2.94009C15.5225 2.91009 15.445 2.88259 15.3675 2.85759C15.2425 2.81509 15.115 2.77509 14.9875 2.73759C14.9075 2.71259 14.825 2.69009 14.745 2.66759C14.6675 2.64759 14.5925 2.62759 14.5175 2.61009C14.4225 2.58759 14.3275 2.56509 14.2325 2.54259C14.1575 2.52759 14.08 2.51259 14.005 2.49759C13.9225 2.48009 13.84 2.46509 13.755 2.45259C13.675 2.43759 13.5925 2.42509 13.5125 2.41259C13.3175 2.38509 13.12 2.36259 12.925 2.34509C12.8675 2.34009 12.8125 2.33509 12.755 2.33259C12.5925 2.32009 12.43 2.31259 12.27 2.30759C12.01 2.30259 11.7525 2.30509 11.495 2.31759C11.4125 2.32009 11.3275 2.32509 11.245 2.33259C11.19 2.33509 11.1375 2.34009 11.0825 2.34509C11.03 2.35009 10.9775 2.35509 10.9275 2.36009C10.78 2.37509 10.6325 2.39259 10.4875 2.41259C10.405 2.42509 10.325 2.43759 10.2425 2.45259C10.16 2.46509 10.0775 2.48009 9.99498 2.49759C9.91748 2.51259 9.84248 2.52759 9.76748 2.54259C9.66998 2.56509 9.57498 2.58759 9.48248 2.61009C9.40498 2.62759 9.32998 2.64759 9.25498 2.66759C9.17248 2.69009 9.09248 2.71259 9.00998 2.73759C8.88248 2.77509 8.75748 2.81509 8.63248 2.85759C8.54998 2.88509 8.46998 2.91259 8.38998 2.94259C8.33998 2.96009 8.28998 2.98009 8.24248 2.99759C8.17748 3.02259 8.11248 3.04759 8.04748 3.07509C7.75498 3.19259 7.46498 3.32509 7.18248 3.47259C7.11998 3.50509 7.05748 3.53759 6.99498 3.57259C6.84498 3.65259 6.69998 3.73759 6.55498 3.82509C6.48248 3.86759 6.40998 3.91259 6.33998 3.96009C6.19248 4.05259 6.04748 4.15009 5.90498 4.25259C5.84498 4.29509 5.78498 4.34009 5.72498 4.38509C5.32498 4.68259 4.93998 5.01509 4.57498 5.38009C4.20998 5.74509 3.87748 6.13009 3.57998 6.53009C3.53498 6.59009 3.48998 6.65009 3.44748 6.71009C3.34498 6.85259 3.24748 6.99759 3.15498 7.14509C3.10748 7.21509 3.06248 7.28759 3.01998 7.36009C2.92998 7.50509 2.84748 7.65009 2.76748 7.80009C2.73248 7.86259 2.69998 7.92509 2.66748 7.98759C2.51998 8.27009 2.38748 8.56009 2.26998 8.85259C2.24248 8.91759 2.21748 8.98259 2.19248 9.04759C2.17248 9.09509 2.15498 9.14509 2.13748 9.19509C2.10748 9.27509 2.07998 9.35509 2.05248 9.43759C2.00998 9.56259 1.96998 9.69009 1.93248 9.81509C1.90748 9.89759 1.88498 9.97759 1.86248 10.0601C1.84248 10.1351 1.82248 10.2101 1.80498 10.2876C1.77998 10.3826 1.75748 10.4776 1.73748 10.5726C1.72248 10.6476 1.70748 10.7226 1.69248 10.8001C1.67498 10.8826 1.65998 10.9651 1.64748 11.0476C1.63248 11.1301 1.61998 11.2101 1.60748 11.2926C1.58748 11.4401 1.56748 11.5851 1.55498 11.7326C1.54998 11.7826 1.54498 11.8351 1.53998 11.8876C1.53498 11.9426 1.52998 11.9951 1.52748 12.0501C1.51998 12.1326 1.51498 12.2176 1.51248 12.3001C1.49498 12.6251 1.49498 12.9476 1.50998 13.2701C1.51248 13.3401 1.51748 13.4101 1.51998 13.4776C1.52498 13.5351 1.52748 13.5901 1.53248 13.6476C1.53998 13.7201 1.54498 13.7926 1.55248 13.8626C1.58998 14.2426 1.64998 14.6226 1.72998 14.9976C1.74248 15.0576 1.75498 15.1176 1.76998 15.1776C1.80998 15.3576 1.85748 15.5376 1.90998 15.7176C1.92998 15.7876 1.94998 15.8576 1.97248 15.9276C1.99748 16.0101 2.02498 16.0926 2.05248 16.1726C2.07998 16.2551 2.10748 16.3351 2.13748 16.4151C2.14248 16.4351 2.14998 16.4526 2.15748 16.4726C2.15748 16.4751 2.15998 16.4751 2.15998 16.4776C2.37248 16.8076 2.60748 17.1301 2.86248 17.4401C2.56498 16.8601 2.32498 16.2476 2.14248 15.6101L2.90748 15.1701L5.40748 16.6126V19.4976L5.24748 19.5901C5.40498 19.6951 5.56498 19.7951 5.72998 19.8901C6.94248 20.5951 8.26748 21.0351 9.61998 21.2151C9.90748 21.2526 10.1975 21.2776 10.4875 21.2926L12 20.4201L13.15 21.0826C13.3875 21.0351 13.6225 20.9776 13.855 20.9101C15.39 20.4801 16.8475 19.6901 18.0925 18.5476C18.205 18.4451 18.3175 18.3376 18.425 18.2301C18.4825 18.1726 18.5375 18.1151 18.5925 18.0576V16.6126L20.3425 15.6026C20.4775 15.3426 20.5975 15.0801 20.7075 14.8126C21.24 13.5251 21.5025 12.1551 21.5 10.7851C21.5 10.5951 21.495 10.4051 21.4825 10.2151ZM9.49998 2.86509C10.3 2.66259 11.1375 2.55509 12 2.55509C12.8625 2.55509 13.6875 2.66009 14.5 2.86509V3.74759L12 5.19259L9.49998 3.74759V2.86509ZM4.64748 5.67259L5.40748 6.11259V8.99759L2.90748 10.4426L2.14248 10.0001C2.61248 8.35259 3.48498 6.87259 4.64748 5.67259Z" fill="#9E68FF"/>
  <path d="M18.3025 4.09505C18.19 4.01505 18.0325 4.04005 17.9525 4.15005C17.9525 4.15005 17.9525 4.15255 17.95 4.15255C17.8725 4.26505 17.8975 4.42005 18.0075 4.50005C18.3525 4.75005 18.6775 5.02005 18.9875 5.30755L18.2175 5.75005C18.14 5.79505 18.0925 5.87755 18.0925 5.96755V8.99755L14.75 10.9276L12.25 9.48505V5.62505L14.875 4.11005C14.9525 4.06505 15 3.98255 15 3.89255V3.00255C15.3725 3.11755 15.7425 3.25255 16.1025 3.41005C16.23 3.46505 16.3725 3.40755 16.43 3.28255H16.4325C16.4875 3.15255 16.43 3.00505 16.3025 2.95005C14.9425 2.35755 13.495 2.05505 12 2.05505C6.0725 2.05505 1.25 6.87755 1.25 12.8051C1.25 18.7326 6.0725 23.5551 12 23.5551C17.9275 23.5551 22.75 18.7326 22.75 12.8051C22.75 9.37005 21.0875 6.11255 18.3025 4.09505ZM9.125 4.11005L11.75 5.62505V9.48505L9.25 10.9276L5.9075 8.99755V5.96755C5.9075 5.87755 5.86 5.79505 5.7825 5.75005L5.0175 5.31005C6.14 4.26255 7.4975 3.46505 9 3.00505V3.89255C9 3.98255 9.0475 4.06505 9.125 4.11005ZM11.75 16.1251V19.9851L9.62 21.2151L9.125 21.5001C9.0475 21.5451 9 21.6276 9 21.7176V22.6051C7.4975 22.1451 6.14 21.3476 5.0175 20.3001L5.73 19.8901L5.7825 19.8601C5.86 19.8151 5.9075 19.7326 5.9075 19.6426V16.6126L9.25 14.6826L11.75 16.1251ZM5.4075 6.11255V8.99755L2.9075 10.4426L2.1425 10.0001C2.6125 8.35255 3.485 6.87255 4.6475 5.67255L5.4075 6.11255ZM2.7825 10.9476C2.82 10.9701 2.865 10.9801 2.9075 10.9801C2.95 10.9801 2.995 10.9701 3.0325 10.9476L5.6575 9.43005L9 11.3626V14.2476L5.6575 16.1801L3.0325 14.6626C2.955 14.6201 2.86 14.6201 2.7825 14.6626L2.015 15.1076C1.8425 14.3676 1.75 13.5976 1.75 12.8051C1.75 12.0126 1.8425 11.2426 2.015 10.5026L2.7825 10.9476ZM2.9075 15.1701L5.4075 16.6126V19.4976L5.2475 19.5901L4.6475 19.9376C3.935 19.2026 3.33 18.3601 2.8625 17.4401C2.565 16.8601 2.325 16.2476 2.1425 15.6101L2.9075 15.1701ZM9.5 21.8626L10.4875 21.2926L12 20.4201L13.15 21.0826L14.5 21.8626V22.7451C13.7 22.9476 12.8625 23.0551 12 23.0551C11.1375 23.0551 10.3 22.9476 9.5 22.7451V21.8626ZM18.5925 16.6126L20.3425 15.6026L21.0925 15.1701L21.8575 15.6101C21.3875 17.2576 20.515 18.7376 19.3525 19.9376L18.5925 19.4976V16.6126ZM18.5925 6.11255L19.3575 5.67005C20.11 6.45005 20.73 7.34005 21.2 8.30505C21.4675 8.85005 21.685 9.41755 21.8525 10.0026L21.4825 10.2151L21.0925 10.4426L18.5925 8.99755V6.11255ZM15 11.3626L18.3425 9.43005L20.9675 10.9476C21.005 10.9701 21.05 10.9801 21.0925 10.9801C21.135 10.9801 21.18 10.9701 21.2175 10.9476L21.5 10.7851L21.9825 10.5051C22.1575 11.2526 22.25 12.0226 22.25 12.8051C22.25 13.5876 22.1575 14.3676 21.985 15.1076L21.2175 14.6626C21.14 14.6201 21.045 14.6201 20.9675 14.6626L20.7075 14.8126L18.3425 16.1801L15 14.2476V11.3626ZM18.0925 16.6126V19.6426C18.0925 19.7326 18.14 19.8151 18.2175 19.8601L18.9825 20.3001C17.86 21.3476 16.5025 22.1451 15 22.6051V21.7176C15 21.6276 14.9525 21.5451 14.875 21.5001L13.855 20.9101L12.25 19.9851V16.1251L14.75 14.6826L18.0925 16.6126ZM14.5 11.3626V14.2476L12 15.6926L9.5 14.2476V11.3626L12 9.91755L14.5 11.3626ZM14.5 3.74755L12 5.19255L9.5 3.74755V2.86505C10.3 2.66255 11.1375 2.55505 12 2.55505C12.8625 2.55505 13.6875 2.66005 14.5 2.86505V3.74755ZM17.5325 3.58755C17.4 3.50755 17.265 3.43005 17.13 3.35755C17.0075 3.29255 16.855 3.33755 16.7925 3.46005C16.7275 3.58255 16.7725 3.73505 16.895 3.79755C17.025 3.86505 17.15 3.93755 17.2725 4.01255C17.3125 4.03755 17.3575 4.05005 17.4025 4.05005C17.4875 4.05005 17.57 4.00755 17.615 3.93005C17.6875 3.81255 17.65 3.65755 17.5325 3.58755Z" fill="#171120"/>
  <path d="M5.4075 6.11255V8.99755L2.9075 10.4426L2.1425 10.0001C2.6125 8.35255 3.485 6.87255 4.6475 5.67255L5.4075 6.11255Z" fill="#171120"/>
  <path d="M14.5 3.74755L12 5.19255L9.5 3.74755V2.86505C10.3 2.66255 11.1375 2.55505 12 2.55505C12.8625 2.55505 13.6875 2.66005 14.5 2.86505V3.74755Z" fill="#171120"/>
  <path d="M18.5925 6.11255L19.3575 5.67005C20.11 6.45005 20.73 7.34005 21.2 8.30505C21.4675 8.85005 21.685 9.41755 21.8525 10.0026L21.4825 10.2151L21.0925 10.4426L18.5925 8.99755V6.11255Z" fill="#171120"/>
  <path d="M18.5925 16.6126L20.3425 15.6026L21.0925 15.1701L21.8575 15.6101C21.3875 17.2576 20.515 18.7376 19.3525 19.9376L18.5925 19.4976V16.6126Z" fill="#171120"/>
  <path d="M9.5 21.8626L10.4875 21.2926L12 20.4201L13.15 21.0826L14.5 21.8626V22.7451C13.7 22.9476 12.8625 23.0551 12 23.0551C11.1375 23.0551 10.3 22.9476 9.5 22.7451V21.8626Z" fill="#171120"/>
  <path d="M2.9075 15.1701L5.4075 16.6126V19.4976L5.2475 19.5901L4.6475 19.9376C3.935 19.2026 3.33 18.3601 2.8625 17.4401C2.565 16.8601 2.325 16.2476 2.1425 15.6101L2.9075 15.1701Z" fill="#171120"/>
  <path d="M15 11.2175V14.3925C15 14.4825 14.9525 14.565 14.875 14.61L12.125 16.1975C12.0875 16.22 12.0425 16.23 12 16.23C11.9575 16.23 11.9125 16.22 11.875 16.1975L9.125 14.61C9.0475 14.565 9 14.4825 9 14.3925V11.2175C9 11.1275 9.0475 11.045 9.125 11L11.875 9.41253C11.9525 9.36753 12.0475 9.36753 12.125 9.41253L14.875 11C14.9525 11.045 15 11.1275 15 11.2175Z" fill="#201A29"/>
</svg>