<svg xmlns="http://www.w3.org/2000/svg" width="24" height="25" viewBox="0 0 24 25" fill="none">
  <path d="M22.5001 4.62758C22.5001 5.27758 22.2301 5.92508 21.6951 6.38758L8.6551 17.3301L7.4751 16.1501L7.8701 15.6801L18.4176 3.11008C19.3001 2.08758 20.8651 2.03008 21.8201 2.98508C22.0526 3.21758 22.2251 3.48508 22.3376 3.77258C22.4451 4.04758 22.5001 4.33758 22.5001 4.62758Z" fill="#6600FF"/>
  <path d="M22.3376 3.77258C22.2951 4.36508 22.0276 4.94508 21.5376 5.36758L9.02512 15.8651C8.72762 16.1151 8.28762 16.0976 8.01262 15.8226L7.87012 15.6801L18.4176 3.11008C19.3001 2.08758 20.8651 2.03008 21.8201 2.98508C22.0526 3.21758 22.2251 3.48508 22.3376 3.77258Z" fill="#9E68FF"/>
  <path d="M16.5874 10.9228C16.5149 10.9228 16.4449 10.8928 16.3949 10.8328C16.3049 10.7278 16.3199 10.5703 16.4249 10.4803L16.7699 10.1903C16.8749 10.1003 17.0324 10.1153 17.1224 10.2203C17.2124 10.3253 17.1974 10.4828 17.0924 10.5728L16.7474 10.8628C16.6999 10.9028 16.6424 10.9203 16.5874 10.9203V10.9228ZM22.7499 4.62779C22.7499 5.37779 22.4249 6.08779 21.8574 6.57779L17.7824 9.99779C17.6774 10.0878 17.5199 10.0728 17.4299 9.96779C17.3399 9.86279 17.3549 9.70529 17.4599 9.61529L21.5324 6.19779C21.9849 5.80529 22.2474 5.23279 22.2474 4.63029C22.2474 4.07529 22.0324 3.55529 21.6399 3.16529C21.2274 2.75279 20.6749 2.53779 20.0974 2.56029C19.5149 2.58279 18.9849 2.83529 18.6024 3.27779L7.81493 16.1353L8.66993 16.9903L15.7374 11.0603C15.8449 10.9703 16.0024 10.9853 16.0899 11.0903C16.1799 11.1953 16.1649 11.3528 16.0599 11.4428L8.82243 17.5178L4.09993 22.2403L4.13993 22.2803C4.33493 22.4753 4.33493 22.7928 4.13993 22.9878L3.70743 23.4203C3.61243 23.5153 3.48743 23.5678 3.35493 23.5678C3.22243 23.5678 3.09493 23.5153 3.00243 23.4203L1.38993 21.8078C1.29493 21.7128 1.24243 21.5878 1.24243 21.4553C1.24243 21.3203 1.29493 21.1953 1.38993 21.1003L1.82243 20.6678C2.01243 20.4778 2.33993 20.4778 2.52993 20.6678L2.56993 20.7078L7.28993 15.9878L18.2249 2.95029C18.6924 2.40779 19.3699 2.08279 20.0824 2.05779C20.7874 2.03029 21.4924 2.30529 21.9974 2.81029C22.4824 3.29529 22.7499 3.94279 22.7499 4.63029V4.62779ZM5.70743 19.9228L6.33743 19.2928L5.51243 18.4678L4.88243 19.0978L5.70743 19.9228ZM4.52743 19.4503L3.89743 20.0803L4.72243 20.9053L5.35243 20.2753L4.52743 19.4503ZM6.68993 18.9403L7.31993 18.3103L6.49493 17.4853L5.86493 18.1153L6.68993 18.9403ZM7.67243 17.9578L8.29993 17.3303L7.47493 16.5053L6.84743 17.1328L7.67243 17.9578ZM3.78243 22.6328L3.56743 22.4178L2.38743 21.2378L2.17243 21.0228L1.73993 21.4553L3.35243 23.0678L3.78493 22.6353L3.78243 22.6328ZM3.74243 21.8853L4.37243 21.2553L3.54743 20.4303L2.91743 21.0603L3.74243 21.8853Z" fill="#424245"/>
  <path d="M4.13505 22.9876L3.70255 23.4201C3.61005 23.5151 3.48255 23.5676 3.35005 23.5676C3.21755 23.5676 3.09005 23.5151 2.99505 23.4201L1.38505 21.8076C1.29005 21.7151 1.23755 21.5901 1.23755 21.4551C1.23755 21.3201 1.29005 21.1951 1.38505 21.1026L1.81755 20.6701C2.00755 20.4801 2.33505 20.4801 2.52505 20.6701L4.13505 22.2801C4.33005 22.4751 4.33005 22.7926 4.13505 22.9876Z" fill="#6600FF"/>
</svg>