<svg xmlns="http://www.w3.org/2000/svg" width="24" height="25" viewBox="0 0 24 25" fill="none">
  <path d="M22.3476 6.25027L21.6076 5.51027L18.5551 2.45777C18.3601 2.26277 18.0451 2.26277 17.8501 2.45777L7.96256 12.3428C7.85506 12.4503 7.80006 12.5978 7.80756 12.7478L7.96756 15.4603C7.97756 15.6003 7.93006 15.7328 7.84006 15.8353C7.83006 15.8453 7.82256 15.8553 7.81256 15.8653L8.93756 16.9928H8.94006C9.04756 16.8853 9.19256 16.8278 9.34506 16.8378L12.0576 16.9978C12.2076 17.0053 12.3551 16.9503 12.4626 16.8428L18.0451 11.2578L18.3276 10.9753L19.0001 10.3053L19.2826 10.0203L22.3476 6.95527C22.5426 6.76027 22.5426 6.44527 22.3476 6.25027ZM13.9701 14.9803L13.7951 13.7453L13.4801 11.5378C13.4626 11.4278 13.3776 11.3428 13.2676 11.3253L9.82506 10.8353L10.6951 9.96277L14.3226 10.4828L14.6651 12.8753L14.8426 14.1103L13.9701 14.9803Z" fill="#6600FF"/>
  <path d="M21.6075 5.86527C21.585 5.93027 21.5475 5.99027 21.495 6.04277L15.1075 12.4328L14.665 12.8753L14.3225 10.4828L10.695 9.96277L9.825 10.8353L13.2675 11.3253C13.3775 11.3428 13.4625 11.4278 13.48 11.5378L13.795 13.7453L13.3525 14.1878L11.61 15.9303C11.5025 16.0378 11.355 16.0928 11.205 16.0853L8.4925 15.9253C8.4125 15.9203 8.335 15.9328 8.2625 15.9628C8.1975 15.9903 8.14 16.0278 8.0875 16.0803L7.8425 15.8353C7.9325 15.7328 7.98 15.6003 7.97 15.4603L7.81 12.7478C7.8025 12.5978 7.8575 12.4503 7.965 12.3428L17.85 2.45777C18.045 2.26277 18.36 2.26277 18.555 2.45777L21.6075 5.51027C21.6525 5.62277 21.6525 5.75027 21.6075 5.86527Z" fill="#9E68FF"/>
  <path d="M19 10.3052H18.9975C18.9 10.2052 18.7425 10.2052 18.645 10.3052L18.3275 10.6252C18.23 10.7227 18.23 10.8777 18.3275 10.9752H18.33C18.3775 11.0252 18.4425 11.0502 18.505 11.0502C18.5675 11.0502 18.6325 11.0252 18.6825 10.9752L19 10.6552C19.0975 10.5577 19.0975 10.4027 19 10.3052ZM22.525 6.07274L18.7325 2.28024C18.44 1.99024 17.965 1.99024 17.6725 2.28024L7.78499 12.1652C7.62999 12.3227 7.54749 12.5377 7.55749 12.7627L7.71749 15.4777C7.72249 15.5552 7.69249 15.6327 7.63499 15.6902L3.03249 20.2927L2.99999 20.2627C2.70749 19.9702 2.23249 19.9702 1.93999 20.2627L1.52249 20.6802C1.37999 20.8202 1.30249 21.0102 1.30249 21.2102C1.30249 21.4102 1.37999 21.5977 1.52249 21.7402L3.06499 23.2827C3.20999 23.4302 3.40249 23.5027 3.59499 23.5027C3.78749 23.5027 3.97999 23.4302 4.12499 23.2827L4.54249 22.8652C4.68499 22.7227 4.76249 22.5352 4.76249 22.3352C4.76249 22.1352 4.68499 21.9452 4.54249 21.8052L4.51249 21.7727L9.11499 17.1702C9.17249 17.1127 9.24999 17.0827 9.32999 17.0877L12.045 17.2477C12.265 17.2552 12.4825 17.1752 12.64 17.0202L18.045 11.6127C18.1425 11.5152 18.1425 11.3552 18.045 11.2577C17.9475 11.1602 17.7875 11.1602 17.69 11.2577L15.2825 13.6677L15.1075 12.4327L14.7925 10.2252C14.775 10.1152 14.69 10.0302 14.58 10.0127L11.1375 9.52274L18.0275 2.63524C18.1225 2.53774 18.2825 2.53774 18.3775 2.63524L22.17 6.42774C22.2675 6.52274 22.2675 6.68274 22.17 6.77774L19.2825 9.66524C19.185 9.76274 19.185 9.92274 19.2825 10.0202C19.38 10.1177 19.54 10.1177 19.6375 10.0202L22.525 7.13274C22.815 6.84024 22.815 6.36524 22.525 6.07274ZM13.53 15.4227L12.285 16.6652C12.23 16.7227 12.1525 16.7527 12.0725 16.7477L9.36249 16.5877C9.22499 16.5802 9.09249 16.6127 8.97249 16.6702L8.26249 15.9627L8.13499 15.8352C8.19499 15.7127 8.22499 15.5802 8.21749 15.4452L8.05749 12.7352C8.05249 12.6552 8.08249 12.5752 8.13999 12.5202L9.38249 11.2752L13.01 11.7952L13.3525 14.1877L13.53 15.4227ZM4.18999 22.5127L3.77249 22.9302C3.67499 23.0277 3.51499 23.0277 3.41749 22.9302L1.87499 21.3877C1.82749 21.3402 1.80249 21.2777 1.80249 21.2102C1.80249 21.1427 1.82749 21.0802 1.87499 21.0327L2.29249 20.6152C2.34249 20.5652 2.40749 20.5427 2.46999 20.5427C2.53249 20.5427 2.59749 20.5652 2.64749 20.6152L4.18999 22.1577C4.23749 22.2052 4.26249 22.2677 4.26249 22.3352C4.26249 22.4027 4.23749 22.4652 4.18999 22.5127ZM4.15749 21.4177L3.38749 20.6477L3.96999 20.0627L4.74249 20.8352L4.15749 21.4177ZM5.09499 20.4827L4.32249 19.7102L4.90749 19.1252L5.67999 19.8977L5.09499 20.4827ZM6.03249 19.5452L5.25999 18.7727L5.84499 18.1877L6.61749 18.9602L6.03249 19.5452ZM6.96999 18.6077L6.19749 17.8352L6.75999 17.2752L7.52999 18.0452L6.96999 18.6077ZM7.88499 17.6927L7.11249 16.9202L7.81249 16.2202L8.58499 16.9927L7.88499 17.6927ZM14.3225 10.4827L14.665 12.8752L14.8425 14.1102L13.97 14.9802L13.795 13.7452L13.48 11.5377C13.4625 11.4277 13.3775 11.3427 13.2675 11.3252L9.82499 10.8352L10.695 9.96274L14.3225 10.4827Z" fill="#424245"/>
  <path d="M4.76249 22.3351C4.76249 22.5351 4.68499 22.7226 4.54249 22.8651L4.12499 23.2826C3.97999 23.4301 3.78749 23.5026 3.59499 23.5026C3.40249 23.5026 3.20999 23.4301 3.06499 23.2826L1.52249 21.7401C1.37999 21.5976 1.30249 21.4101 1.30249 21.2101C1.30249 21.0101 1.37999 20.8201 1.52249 20.6801L1.93999 20.2626C2.23249 19.9701 2.70749 19.9701 2.99999 20.2626L4.54249 21.8051C4.68499 21.9451 4.76249 22.1351 4.76249 22.3351Z" fill="#6600FF"/>
</svg>