<svg xmlns="http://www.w3.org/2000/svg" width="24" height="25" viewBox="0 0 24 25" fill="none">
  <path d="M22.2101 2.5951C22.1076 2.5876 21.9751 2.5801 21.8176 2.5726C19.6126 2.4751 12.2951 2.5351 6.87756 8.1676C2.26506 12.9626 1.73506 18.9851 1.75006 21.7826C1.75256 22.3251 1.77256 22.7451 1.79256 23.0126C3.45006 23.1226 10.9176 23.4301 16.6376 17.9276C16.8151 17.7576 16.9851 17.5851 17.1501 17.4126C17.2426 17.3151 17.3351 17.2176 17.4226 17.1201C17.6401 16.8826 17.8451 16.6451 18.0426 16.4026C18.1301 16.2976 18.2126 16.1926 18.2926 16.0876C22.6001 10.5576 22.3001 3.9776 22.2101 2.5951ZM8.02756 22.2376L2.56756 16.7776C2.73756 16.0401 2.95506 15.3026 3.21506 14.5826L9.38256 20.7501L10.2226 21.5901C9.50256 21.8501 8.76756 22.0676 8.02756 22.2376ZM20.7801 11.0226L20.3176 10.5601L13.7826 4.0251C14.4951 3.7701 15.2301 3.5526 15.9801 3.3776L21.0376 8.4351L21.4276 8.8251C21.2526 9.5751 21.0351 10.3101 20.7801 11.0226Z" fill="#6600FF"/>
  <path d="M21.8176 2.5726C21.8176 2.8101 21.8151 3.0701 21.8051 3.3526C21.7651 4.5501 21.6151 6.1301 21.1826 7.8751C21.1376 8.0601 21.0901 8.2476 21.0376 8.4351L15.9801 3.3776C15.2301 3.5526 14.4951 3.7701 13.7826 4.0251L20.3176 10.5601C20.2501 10.7251 20.1801 10.8926 20.1076 11.0576C19.2701 12.9701 18.0301 14.9251 16.2076 16.6776C14.2126 18.5951 12.0051 19.8076 9.90756 20.5676C9.73006 20.6301 9.55506 20.6926 9.38256 20.7501L3.21506 14.5826C2.95506 15.3026 2.73756 16.0401 2.56756 16.7776L7.13756 21.3476C6.93756 21.3901 6.74006 21.4301 6.54506 21.4626C5.34006 21.6801 4.25006 21.7676 3.36506 21.7951C3.10756 21.8026 2.86506 21.8051 2.64506 21.8051C2.40506 21.8051 2.18756 21.8001 1.99756 21.7926C1.91006 21.7901 1.82756 21.7876 1.75006 21.7826C1.73506 18.9851 2.26506 12.9626 6.87756 8.1676C12.2951 2.5351 19.6126 2.4751 21.8176 2.5726Z" fill="#9E68FF"/>
  <path d="M22.46 2.58006C22.4525 2.45256 22.3525 2.35256 22.225 2.34506C20.81 2.25506 18.58 2.27006 16.0025 2.85756C15.055 3.07006 14.125 3.35006 13.24 3.69256C10.7175 4.66006 8.51498 6.10756 6.69748 7.99506C5.04498 9.71506 3.75998 11.7476 2.88248 14.0376C2.53498 14.9401 2.25498 15.8701 2.04748 16.8001C1.45748 19.3826 1.44748 21.6126 1.54248 23.0301C1.55248 23.1551 1.64998 23.2526 1.77498 23.2626C2.16998 23.2876 2.62748 23.3076 3.13748 23.3076C4.46248 23.3076 6.14248 23.1826 8.00498 22.7601C8.93498 22.5501 9.86498 22.2701 10.7675 21.9226C13.0575 21.0451 15.09 19.7601 16.81 18.1076C16.9275 17.9951 17.0425 17.8826 17.155 17.7676C17.25 17.6676 17.2475 17.5101 17.15 17.4126C17.05 17.3176 16.8925 17.3201 16.795 17.4176C16.6875 17.5276 16.5775 17.6401 16.465 17.7476C14.83 19.3176 12.9025 20.5426 10.735 21.3951L7.24998 17.9101L8.67248 16.4876L9.15998 16.9776C9.20998 17.0251 9.27248 17.0501 9.33748 17.0501C9.40248 17.0501 9.46498 17.0251 9.51498 16.9776C9.61248 16.8776 9.61248 16.7201 9.51498 16.6226L9.02498 16.1351L10.0025 15.1576L10.4925 15.6451C10.54 15.6926 10.605 15.7176 10.6675 15.7176C10.73 15.7176 10.7975 15.6926 10.845 15.6451C10.9425 15.5476 10.9425 15.3901 10.845 15.2901L10.3575 14.8026L11.335 13.8251L11.8225 14.3126C11.8725 14.3626 11.9375 14.3876 12 14.3876C12.0625 14.3876 12.1275 14.3626 12.1775 14.3126C12.275 14.2151 12.275 14.0576 12.1775 13.9601L11.6875 13.4701L12.6675 12.4926L13.155 12.9826C13.205 13.0301 13.2675 13.0551 13.3325 13.0551C13.3975 13.0551 13.46 13.0301 13.5075 12.9826C13.605 12.8851 13.605 12.7251 13.5075 12.6276L13.02 12.1401L13.9975 11.1626L14.4875 11.6501C14.535 11.7001 14.6 11.7226 14.6625 11.7226C14.725 11.7226 14.7925 11.7001 14.84 11.6501C14.9375 11.5526 14.9375 11.3951 14.84 11.2976L14.3525 10.8076L15.33 9.83006L15.8175 10.3176C15.8675 10.3676 15.93 10.3926 15.995 10.3926C16.06 10.3926 16.1225 10.3676 16.1725 10.3176C16.27 10.2201 16.27 10.0626 16.1725 9.96506L15.6825 9.47506L17.105 8.05506L20.1075 11.0576L20.585 11.5351C19.9875 13.0626 19.2 14.4776 18.245 15.7401C18.1625 15.8501 18.185 16.0026 18.2925 16.0876H18.295C18.405 16.1726 18.56 16.1501 18.645 16.0401C19.66 14.7001 20.49 13.1951 21.1125 11.5651C21.455 10.6801 21.735 9.75006 21.9475 8.80256C22.535 6.22506 22.55 3.99506 22.46 2.58006ZM21.635 2.81756L18.88 5.57256L16.5575 3.25006C18.5775 2.83256 20.35 2.77256 21.635 2.81756ZM21.9875 3.17006C22.0325 4.45506 21.9725 6.22756 21.555 8.24756L19.2325 5.92506L21.9875 3.17006ZM2.36748 22.7926L3.36498 21.7951L5.11998 20.0376L7.44998 22.3676C5.42498 22.7826 3.64998 22.8401 2.36748 22.7926ZM2.64498 21.8051L2.01248 22.4376C2.00498 22.2351 1.99998 22.0176 1.99748 21.7926C1.99248 20.5876 2.08748 19.0601 2.43748 17.3551L4.76748 19.6851L2.64498 21.8051ZM9.38248 20.7501L10.2225 21.5901C9.50248 21.8501 8.76748 22.0676 8.02748 22.2376L2.56748 16.7776C2.73748 16.0401 2.95498 15.3026 3.21498 14.5826L9.38248 20.7501ZM15.33 9.12256L14.84 8.63256C14.7425 8.53506 14.585 8.53506 14.4875 8.63256C14.39 8.73006 14.39 8.89006 14.4875 8.98756L14.975 9.47506L13.9975 10.4551L13.5075 9.96506C13.41 9.86756 13.2525 9.86756 13.155 9.96506C13.0575 10.0626 13.0575 10.2201 13.155 10.3176L13.645 10.8076L12.6675 11.7851L12.1775 11.2976C12.08 11.2001 11.92 11.2001 11.8225 11.2976C11.725 11.3951 11.725 11.5526 11.8225 11.6501L12.3125 12.1401L11.335 13.1176L10.845 12.6276C10.7475 12.5301 10.59 12.5301 10.4925 12.6276C10.395 12.7251 10.395 12.8851 10.4925 12.9826L10.9825 13.4726L10.0025 14.4501L9.51498 13.9601C9.41498 13.8626 9.25748 13.8626 9.15998 13.9601C9.06248 14.0576 9.06248 14.2151 9.15998 14.3126L9.64998 14.8026L8.67248 15.7801L8.18248 15.2901C8.08498 15.1926 7.92748 15.1926 7.82748 15.2901C7.72998 15.3901 7.72998 15.5476 7.82748 15.6451L8.31998 16.1351L6.89748 17.5576L3.40998 14.0701C4.26248 11.9026 5.48748 9.97506 7.05748 8.34006C8.78748 6.54506 10.8775 5.16006 13.27 4.22006L16.75 7.70006L15.33 9.12256ZM20.3175 10.5601L13.7825 4.02506C14.495 3.77006 15.23 3.55256 15.98 3.37756L21.0375 8.43506L21.4275 8.82506C21.2525 9.57506 21.035 10.3101 20.78 11.0226L20.3175 10.5601ZM18.0425 16.4026C17.935 16.3151 17.7775 16.3301 17.69 16.4351C17.5975 16.5476 17.5 16.6576 17.4025 16.7701C17.3125 16.8726 17.32 17.0276 17.4225 17.1201H17.425C17.4725 17.1651 17.53 17.1851 17.59 17.1851C17.66 17.1851 17.7275 17.1576 17.7775 17.1001C17.88 16.9876 17.9775 16.8726 18.075 16.7551C18.1625 16.6476 18.1475 16.4901 18.0425 16.4026Z" fill="#171120"/>
</svg>