 <svg width="25" height="25" viewBox="0 0 25 25" fill="none" xmlns="http://www.w3.org/2000/svg">
              <path
                d="M2.25 3.52003C2.15062 3.51863 2.05194 3.53699 1.95972 3.57405C1.86749 3.61111 1.78355 3.66613 1.71277 3.73591C1.642 3.8057 1.58579 3.88885 1.54743 3.98054C1.50907 4.07224 1.48932 4.17064 1.48932 4.27003C1.48932 4.36943 1.50907 4.46783 1.54743 4.55952C1.58579 4.65122 1.642 4.73437 1.71277 4.80415C1.78355 4.87394 1.86749 4.92896 1.95972 4.96602C2.05194 5.00308 2.15062 5.02144 2.25 5.02003H3.62793C3.9919 5.02003 4.29529 5.2715 4.36426 5.62941L4.51367 6.41066L6.12598 14.8784C6.41753 16.4062 7.76357 17.52 9.31934 17.52H18.6807C20.2364 17.52 21.583 16.4066 21.874 14.8784L23.4863 6.41066C23.507 6.30224 23.5035 6.19059 23.4761 6.08368C23.4486 5.97677 23.398 5.87724 23.3276 5.79217C23.2573 5.7071 23.1691 5.63861 23.0692 5.59157C22.9694 5.54453 22.8604 5.5201 22.75 5.52003H16.5V7.02003H21.8438L20.4004 14.5982C20.2424 15.428 19.5259 16.02 18.6807 16.02H9.31934C8.4744 16.02 7.75839 15.4279 7.59961 14.5982V14.5972L6.15625 7.02003H12V5.52003H5.87012L5.83789 5.34914C5.63633 4.2928 4.70349 3.52003 3.62793 3.52003H2.25ZM14.2383 4.00929C14.0395 4.0124 13.8502 4.09426 13.7117 4.2369C13.5733 4.37954 13.4972 4.57129 13.5 4.77003V11.4595L12.2803 10.2398C12.2112 10.1678 12.1284 10.1103 12.0368 10.0707C11.9452 10.0311 11.8466 10.0102 11.7468 10.0092C11.6471 10.0082 11.5481 10.0271 11.4557 10.0648C11.3633 10.1025 11.2794 10.1583 11.2088 10.2289C11.1383 10.2994 11.0825 10.3834 11.0448 10.4757C11.0071 10.5681 10.9882 10.6671 10.9892 10.7669C10.9902 10.8667 11.0111 10.9652 11.0507 11.0568C11.0903 11.1484 11.1477 11.2312 11.2197 11.3003L13.7197 13.8003C13.8604 13.9409 14.0511 14.0199 14.25 14.0199C14.4489 14.0199 14.6396 13.9409 14.7803 13.8003L17.2803 11.3003C17.3523 11.2312 17.4097 11.1484 17.4493 11.0568C17.4889 10.9652 17.5098 10.8667 17.5108 10.7669C17.5118 10.6671 17.4929 10.5681 17.4552 10.4757C17.4175 10.3834 17.3617 10.2994 17.2912 10.2289C17.2206 10.1583 17.1367 10.1025 17.0443 10.0648C16.9519 10.0271 16.8529 10.0082 16.7532 10.0092C16.6534 10.0102 16.5548 10.0311 16.4632 10.0707C16.3716 10.1103 16.2888 10.1678 16.2197 10.2398L15 11.4595V4.77003C15.0014 4.66965 14.9827 4.57 14.9449 4.47699C14.9071 4.38398 14.8511 4.29949 14.78 4.22855C14.709 4.15761 14.6245 4.10165 14.5314 4.06398C14.4383 4.02632 14.3387 4.00772 14.2383 4.00929ZM10.5 18.52C10.1022 18.52 9.72064 18.6781 9.43934 18.9594C9.15804 19.2407 9 19.6222 9 20.02C9 20.4179 9.15804 20.7994 9.43934 21.0807C9.72064 21.362 10.1022 21.52 10.5 21.52C10.8978 21.52 11.2794 21.362 11.5607 21.0807C11.842 20.7994 12 20.4179 12 20.02C12 19.6222 11.842 19.2407 11.5607 18.9594C11.2794 18.6781 10.8978 18.52 10.5 18.52ZM17.5 18.52C17.1022 18.52 16.7206 18.6781 16.4393 18.9594C16.158 19.2407 16 19.6222 16 20.02C16 20.4179 16.158 20.7994 16.4393 21.0807C16.7206 21.362 17.1022 21.52 17.5 21.52C17.8978 21.52 18.2794 21.362 18.5607 21.0807C18.842 20.7994 19 20.4179 19 20.02C19 19.6222 18.842 19.2407 18.5607 18.9594C18.2794 18.6781 17.8978 18.52 17.5 18.52Z"
                fill="#6600FF"
              />
            </svg>