 <svg xmlns="http://www.w3.org/2000/svg" width="25" height="25" viewBox="0 0 25 25" fill="none">
            <path
              d="M21.7541 13.3523C21.4925 13.151 21.3421 12.8476 21.3421 12.5197C21.3421 12.1921 21.4925 11.8892 21.7541 11.6879C22.5747 11.057 22.8747 10.0253 22.5193 9.0595C22.1635 8.09459 21.2453 7.4934 20.2241 7.53348C19.8919 7.53952 19.5802 7.40807 19.3669 7.15726C19.1542 6.90601 19.0722 6.57848 19.1415 6.25828C19.3595 5.25372 18.9192 4.27286 18.0183 3.75873C17.1193 3.24632 16.0401 3.35751 15.268 4.04747C15.0216 4.26769 14.6933 4.36035 14.3671 4.30389C14.0406 4.247 13.765 4.04833 13.6094 3.7583C13.1232 2.84984 12.1483 2.3801 11.1245 2.55679C10.1012 2.73521 9.34686 3.50834 9.20384 4.52626C9.1585 4.85121 8.96796 5.1309 8.6815 5.29466C8.39504 5.45972 8.0532 5.48213 7.74581 5.35844C6.78308 4.97058 5.72967 5.23045 5.06038 6.01694C4.39284 6.80387 4.31741 7.8748 4.87072 8.74534C5.04687 9.02287 5.08306 9.35859 4.96926 9.66672C4.85589 9.97442 4.60998 10.2089 4.29518 10.3093C3.30586 10.6247 2.66579 11.4927 2.66666 12.5205C2.66666 13.5479 3.30586 14.4154 4.29518 14.7305C4.60998 14.8305 4.85589 15.0653 4.96926 15.373C5.08306 15.6807 5.04687 16.0169 4.87072 16.2944C4.31741 17.1649 4.39284 18.2354 5.06038 19.0228C5.72967 19.8097 6.78396 20.0683 7.74581 19.6813C8.0532 19.5581 8.39504 19.5813 8.6815 19.7451C8.96796 19.9088 9.1585 20.1885 9.20384 20.5135C9.34686 21.5314 10.1012 22.3045 11.1245 22.483C11.2684 22.5075 11.4114 22.52 11.5518 22.52C12.4121 22.52 13.1916 22.0619 13.6094 21.2814C13.765 20.9918 14.0406 20.7927 14.3671 20.7359C14.6933 20.6803 15.0216 20.7721 15.268 20.9923C16.0401 21.6818 17.1193 21.7934 18.0183 21.281C18.9192 20.7669 19.3595 19.786 19.1415 18.7815C19.0722 18.4613 19.1542 18.1337 19.3669 17.8825C19.5802 17.6317 19.874 17.492 20.2241 17.5067C21.2453 17.5373 22.1635 16.9452 22.5193 15.9802C22.8747 15.0145 22.5747 13.9832 21.7541 13.3523ZM16.9959 9.95072L11.6338 15.9307C11.5064 16.072 11.3303 16.1444 11.1533 16.1444C11.002 16.1444 10.8507 16.0919 10.7286 15.9858L8.39067 13.947C8.12514 13.7156 8.09942 13.3143 8.33399 13.0519C8.56901 12.7886 8.97494 12.7649 9.2396 12.9959L11.097 14.6154L16.0349 9.10906C16.2699 8.84704 16.6758 8.82291 16.9405 9.05476C17.2065 9.28748 17.2309 9.68827 16.9959 9.95072Z"
              fill="#9E68FF"
            />
            <path
              d="M16.9959 9.95072L11.6338 15.9307C11.5064 16.072 11.3303 16.1444 11.1533 16.1444C11.002 16.1444 10.8507 16.0919 10.7286 15.9858L8.39067 13.947C8.12514 13.7156 8.09942 13.3143 8.33399 13.0519C8.56901 12.7886 8.97494 12.7649 9.2396 12.9959L11.097 14.6154L16.0349 9.10906C16.2699 8.84704 16.6758 8.82291 16.9405 9.05476C17.2065 9.28748 17.2309 9.68827 16.9959 9.95072Z"
              fill="#9E68FF"
            />
            <path d="M15.2314 9.75425L13.0061 11.9884L10.7809 9.75425L13.0061 7.52002L15.2314 9.75425Z" fill="white" />
            <path d="M18.2697 12.9847L16.0445 15.2189L13.8193 12.9847L16.0445 10.7505L18.2697 12.9847Z" fill="white" />
            <path d="M12.1929 12.9847L9.96776 15.2189L7.74249 12.9847L9.96776 10.7505L12.1929 12.9847Z" fill="white" />
            <path d="M15.874 16.8412H10.1382L13.0061 13.9618L15.874 16.8412Z" fill="white" />
          </svg>