 <svg width="21" height="17" viewBox="0 0 21 17" fill="none" xmlns="http://www.w3.org/2000/svg">
          <path
            d="M20.6665 13.8246V3.18943C20.6665 2.39471 20.3648 1.63222 19.8275 1.06941C19.2901 0.506639 18.5609 0.1892 17.8 0.186862H9.94164C9.59325 0.1822 9.2508 0.282248 8.95543 0.475153C8.65987 0.668058 8.42364 0.945662 8.27502 1.27474C8.21531 1.40237 8.12119 1.50903 8.0042 1.58168C7.88738 1.65434 7.75272 1.68989 7.61675 1.68387C7.48338 1.68795 7.3515 1.6524 7.23655 1.58149C7.12141 1.51078 7.02803 1.40743 6.96684 1.28349C6.81859 0.953431 6.58273 0.674469 6.28733 0.480216C5.99195 0.285754 5.64935 0.183963 5.30021 0.186877H3.5335C2.77257 0.189208 2.0434 0.506638 1.50603 1.06942C0.968668 1.63219 0.666962 2.39468 0.666962 3.18944V5.94842C0.662126 6.47936 0.794192 7.00214 1.0492 7.46137C1.30441 7.9208 1.67309 8.29999 2.11689 8.55935C2.28783 8.64677 2.43254 8.78139 2.53541 8.94846C2.63827 9.11572 2.69519 9.30921 2.70021 9.50794C2.695 9.70765 2.63789 9.90211 2.53522 10.0707C2.43255 10.2393 2.28802 10.3757 2.11689 10.4653C1.6714 10.7223 1.30105 11.1011 1.04568 11.5609C0.790293 12.0209 0.659343 12.5447 0.666972 13.0762V13.8507C0.666972 14.6456 0.968673 15.4079 1.50604 15.9707C2.04341 16.5337 2.77258 16.8509 3.53351 16.8533H5.27508C5.62217 16.8556 5.96259 16.7556 6.25739 16.5646C6.55221 16.3738 6.78956 16.0997 6.9417 15.7741C6.99899 15.6455 7.09106 15.5375 7.20658 15.4631C7.32227 15.3889 7.4562 15.3518 7.59179 15.3564C7.72572 15.3491 7.8589 15.3831 7.97441 15.4544C8.09011 15.5255 8.18292 15.6307 8.2417 15.7566C8.39088 16.0861 8.62692 16.3643 8.92211 16.5586C9.21731 16.7528 9.55938 16.8552 9.90832 16.8533H17.7667C18.5377 16.8603 19.2793 16.5434 19.8247 15.974C20.3698 15.4044 20.6732 14.6301 20.6665 13.8246ZM7.60833 12.4929C7.40465 12.4929 7.20916 12.4082 7.06539 12.2575C6.92142 12.1067 6.84107 11.9022 6.84181 11.6894C6.84255 11.4765 6.9244 11.2727 7.06929 11.1231C7.2142 10.9734 7.41025 10.89 7.61409 10.8916C7.81776 10.8931 8.0127 10.9794 8.15536 11.1313C8.29821 11.2832 8.37727 11.4882 8.37503 11.7011C8.37503 11.9126 8.29394 12.1153 8.14996 12.264C8.006 12.4129 7.81089 12.4953 7.60833 12.4929ZM7.60833 9.30774C7.40502 9.30774 7.21008 9.22324 7.06629 9.07307C6.92251 8.9229 6.84179 8.71931 6.84179 8.50697C6.84179 8.29463 6.92251 8.09104 7.06629 7.94087C7.21008 7.7907 7.40501 7.7062 7.60833 7.7062C7.81182 7.7062 8.00675 7.7907 8.15055 7.94087C8.29433 8.09103 8.37506 8.29463 8.37506 8.50697C8.37506 8.71931 8.29433 8.92289 8.15055 9.07307C8.00677 9.22323 7.81183 9.30774 7.60833 9.30774ZM7.60833 6.11361C7.40502 6.11361 7.21008 6.0293 7.06629 5.87913C6.92251 5.72897 6.84179 5.52538 6.84179 5.31284C6.84179 5.10051 6.92251 4.89691 7.06629 4.74674C7.21008 4.59656 7.40501 4.51226 7.60833 4.51226C7.81182 4.51226 8.00675 4.59657 8.15055 4.74674C8.29433 4.8969 8.37506 5.1005 8.37506 5.31284C8.37506 5.52536 8.29433 5.72895 8.15055 5.87913C8.00677 6.0293 7.81183 6.11361 7.60833 6.11361ZM15.7581 13.0759L11.6835 13.0761C11.3857 13.0761 11.1106 12.9102 10.9618 12.6409C10.813 12.3717 10.813 12.0399 10.9618 11.7706C11.1106 11.5014 11.3857 11.3355 11.6835 11.3355H15.7583C16.0559 11.3355 16.331 11.5014 16.48 11.7706C16.6288 12.0399 16.6288 12.3717 16.48 12.6409C16.331 12.9102 16.0559 13.0761 15.7583 13.0761L15.7581 13.0759ZM15.7581 9.35106L11.6835 9.35126C11.3857 9.35126 11.1106 9.18536 10.9618 8.9161C10.813 8.64666 10.813 8.31504 10.9618 8.04579C11.1106 7.77635 11.3857 7.61064 11.6835 7.61064H15.7583C16.0559 7.61064 16.331 7.77635 16.48 8.04579C16.6288 8.31505 16.6288 8.64666 16.48 8.9161C16.331 9.18536 16.0559 9.35126 15.7583 9.35126L15.7581 9.35106ZM15.7581 5.62624H11.6835C11.3857 5.62624 11.1106 5.46034 10.9618 5.19109C10.813 4.92183 10.813 4.59003 10.9618 4.32078C11.1106 4.05153 11.3857 3.88562 11.6835 3.88562H15.7583C16.0559 3.88562 16.331 4.05153 16.48 4.32078C16.6288 4.59003 16.6288 4.92184 16.48 5.19109C16.331 5.46034 16.0559 5.62624 15.7583 5.62624H15.7581Z"
            fill="#FFDC7E"
          />
        </svg>