<svg width="25" height="25" viewBox="0 0 25 25" fill="none" xmlns="http://www.w3.org/2000/svg">
          <path
            d="M20.7284 19.2175C21.8055 17.9216 22.5546 16.3853 22.9124 14.7386C23.2702 13.092 23.2261 11.3833 22.7839 9.75732C22.3417 8.13128 21.5144 6.63567 20.3719 5.39701C19.2294 4.15835 17.8054 3.21307 16.2204 2.64114C14.6353 2.06921 12.9358 1.88746 11.2656 2.11126C9.59547 2.33506 8.00377 2.95783 6.6252 3.92688C5.24662 4.89593 4.12172 6.18276 3.34565 7.67851C2.56958 9.17425 2.16518 10.8349 2.16666 12.52C2.16723 14.9696 3.03047 17.3408 4.60491 19.2175L4.58991 19.2303C4.64241 19.2933 4.70241 19.3473 4.75641 19.4095C4.82391 19.4868 4.89666 19.5595 4.96641 19.6345C5.17641 19.8625 5.39241 20.0815 5.61891 20.287C5.68791 20.35 5.75916 20.4085 5.82891 20.4685C6.06891 20.6755 6.31566 20.872 6.57141 21.055C6.60441 21.0775 6.63441 21.1068 6.66741 21.13V21.121C8.42399 22.3571 10.5195 23.0205 12.6674 23.0205C14.8153 23.0205 16.9108 22.3571 18.6674 21.121V21.13C18.7004 21.1068 18.7297 21.0775 18.7634 21.055C19.0184 20.8713 19.2659 20.6755 19.5059 20.4685C19.5757 20.4085 19.6469 20.3493 19.7159 20.287C19.9424 20.0808 20.1584 19.8625 20.3684 19.6345C20.4382 19.5595 20.5102 19.4868 20.5784 19.4095C20.6317 19.3473 20.6924 19.2933 20.7449 19.2295L20.7284 19.2175ZM12.6667 6.52C13.3342 6.52 13.9867 6.71794 14.5417 7.08879C15.0967 7.45964 15.5293 7.98675 15.7848 8.60345C16.0402 9.22015 16.107 9.89875 15.9768 10.5534C15.8466 11.2081 15.5251 11.8095 15.0531 12.2815C14.5811 12.7535 13.9798 13.0749 13.3251 13.2052C12.6704 13.3354 11.9918 13.2685 11.3751 13.0131C10.7584 12.7577 10.2313 12.3251 9.86045 11.7701C9.4896 11.215 9.29166 10.5625 9.29166 9.895C9.29166 8.9999 9.64724 8.14145 10.2802 7.50852C10.9131 6.87558 11.7716 6.52 12.6667 6.52ZM6.67191 19.2175C6.68492 18.2327 7.08512 17.2927 7.78593 16.6007C8.48674 15.9087 9.4318 15.5205 10.4167 15.52H14.9167C15.9015 15.5205 16.8466 15.9087 17.5474 16.6007C18.2482 17.2927 18.6484 18.2327 18.6614 19.2175C17.0165 20.6998 14.8809 21.5201 12.6667 21.5201C10.4525 21.5201 8.31678 20.6998 6.67191 19.2175Z"
            fill="#F5F5F7"
          />
        </svg>