<svg xmlns="http://www.w3.org/2000/svg" width="20" height="20" viewBox="0 0 20 20" fill="none">
  <g clip-path="url(#clip0_1150_18978)">
    <path d="M10 20C15.5228 20 20 15.5228 20 10C20 4.47715 15.5228 0 10 0C4.47715 0 0 4.47715 0 10C0 15.5228 4.47715 20 10 20Z" fill="url(#paint0_linear_1150_18978)"/>
    <path fill-rule="evenodd" clip-rule="evenodd" d="M9.97044 16.6404C8.02425 16.6389 6.45656 16.1719 5.36121 15.3331C4.25271 14.4842 3.66465 13.2795 3.66465 11.9165C3.66465 10.603 4.25142 9.65596 4.91533 9.0158C5.43565 8.51411 6.00981 8.1928 6.4096 8.00799C6.31921 7.73053 6.2064 7.36728 6.10548 6.99211C5.97046 6.49007 5.83798 5.90105 5.83798 5.46942C5.83798 4.95853 5.94938 4.44544 6.24971 4.04676C6.56702 3.62555 7.04471 3.3999 7.6194 3.3999C8.06852 3.3999 8.44985 3.56649 8.74837 3.8539C9.03373 4.12861 9.22365 4.49346 9.35477 4.87378C9.58519 5.54205 9.67492 6.38165 9.70008 7.21953H10.2505C10.2757 6.38165 10.3654 5.54205 10.5959 4.87378C10.727 4.49346 10.9169 4.12861 11.2023 3.8539C11.5008 3.56649 11.8821 3.3999 12.3312 3.3999C12.9059 3.3999 13.3836 3.62555 13.7009 4.04676C14.0012 4.44544 14.1126 4.95853 14.1126 5.46942C14.1126 5.90105 13.9802 6.49007 13.8451 6.99211C13.7442 7.36728 13.6314 7.73053 13.541 8.00799C13.9408 8.1928 14.515 8.51411 15.0353 9.0158C15.6992 9.65596 16.286 10.603 16.286 11.9165C16.286 13.2795 15.6979 14.4842 14.5894 15.3331C13.4941 16.1719 11.9264 16.6389 9.98019 16.6404H9.97044Z" fill="#633001"/>
    <path d="M7.61938 3.88623C6.77765 3.88623 6.39019 4.52058 6.39019 5.3979C6.39019 6.09521 6.8404 7.49177 7.0251 8.03544C7.06665 8.15771 7.00135 8.29169 6.88231 8.33911C6.20771 8.60781 4.21688 9.59169 4.21688 11.8449C4.21688 14.2185 6.24 16.0081 9.97083 16.011C9.97231 16.011 9.97379 16.011 9.97529 16.011C9.97677 16.011 9.97825 16.011 9.97975 16.011C13.7106 16.0081 15.7337 14.2185 15.7337 11.8449C15.7337 9.59169 13.7429 8.60781 13.0683 8.33911C12.9492 8.29169 12.8839 8.15771 12.9255 8.03544C13.1102 7.49177 13.5604 6.09521 13.5604 5.3979C13.5604 4.52058 13.1729 3.88623 12.3312 3.88623C11.1196 3.88623 10.8176 5.62004 10.796 7.48086C10.7946 7.60509 10.6952 7.70588 10.5722 7.70588H9.3784C9.2554 7.70588 9.156 7.60509 9.15456 7.48086C9.13302 5.62004 8.83098 3.88623 7.61938 3.88623Z" fill="#D1884F"/>
    <path d="M9.97975 15.2503C7.23852 15.2503 4.2216 13.768 4.21688 11.8491C4.21688 11.8521 4.21688 11.8551 4.21688 11.8581C4.21688 14.2336 6.24323 16.0242 9.97975 16.0242C13.7163 16.0242 15.7426 14.2336 15.7426 11.8581C15.7426 11.8551 15.7426 11.8521 15.7426 11.8491C15.7379 13.768 12.721 15.2503 9.97975 15.2503Z" fill="#FEDC90"/>
    <path d="M8.45665 11.2597C8.45665 11.9075 8.15356 12.245 7.77971 12.245C7.40583 12.245 7.10277 11.9075 7.10277 11.2597C7.10277 10.6118 7.40583 10.2744 7.77971 10.2744C8.15356 10.2744 8.45665 10.6118 8.45665 11.2597Z" fill="#633001"/>
    <path d="M12.8567 11.2597C12.8567 11.9075 12.5536 12.245 12.1798 12.245C11.8059 12.245 11.5028 11.9075 11.5028 11.2597C11.5028 10.6118 11.8059 10.2744 12.1798 10.2744C12.5536 10.2744 12.8567 10.6118 12.8567 11.2597Z" fill="#633001"/>
  </g>
  <defs>
    <linearGradient id="paint0_linear_1150_18978" x1="10" y1="0" x2="10" y2="20" gradientUnits="userSpaceOnUse">
      <stop stop-color="#53DEE9"/>
      <stop offset="1" stop-color="#1FC7D4"/>
    </linearGradient>
    <clipPath id="clip0_1150_18978">
      <rect width="20" height="20" fill="white"/>
    </clipPath>
  </defs>
</svg>