<svg xmlns="http://www.w3.org/2000/svg" width="29" height="34" viewBox="0 0 29 34" fill="none">
<path d="M11.3477 7.91477C10.9867 7.8632 10.9695 7.84601 11.1414 7.82882C11.4681 7.77724 12.2245 7.84601 12.7574 7.96634C13.9951 8.25859 15.1125 9.01499 16.2987 10.3387L16.6082 10.6997L17.0551 10.6309C18.9633 10.3215 20.9231 10.5622 22.5562 11.3186C23.0032 11.5249 23.708 11.9374 23.794 12.0406C23.8283 12.075 23.8799 12.2985 23.9143 12.5219C24.0346 13.3299 23.9831 13.9316 23.7252 14.3958C23.5877 14.6536 23.5877 14.7224 23.6736 14.9459C23.7424 15.1178 23.9487 15.2381 24.1378 15.2381C24.5504 15.2381 24.9801 14.5849 25.1864 13.6737L25.2724 13.3127L25.4271 13.4846C26.3038 14.4645 26.9915 15.8226 27.0946 16.7853L27.129 17.0432L26.9743 16.8197C26.7164 16.4243 26.4757 16.1664 26.1491 15.9429C25.5646 15.5475 24.9457 15.4272 23.3126 15.3413C21.8342 15.2553 20.9918 15.135 20.1667 14.8599C18.757 14.3958 18.035 13.7941 16.3675 11.5764C15.6283 10.5966 15.1641 10.0636 14.7 9.61667C13.6857 8.63679 12.6714 8.12106 11.3477 7.91477Z" fill="#FF007A"/>
<path d="M24.1544 10.0978C24.1887 9.44453 24.2747 9.01475 24.4638 8.61936C24.5326 8.46465 24.6013 8.32712 24.6185 8.32712C24.6357 8.32712 24.6013 8.44745 24.5497 8.58498C24.4122 8.96318 24.395 9.4961 24.481 10.0978C24.6013 10.8714 24.6529 10.9745 25.4781 11.8169C25.8563 12.2123 26.3032 12.7108 26.4751 12.9171L26.7674 13.2953L26.4751 13.0202C26.1141 12.6764 25.289 12.0232 25.0999 11.9372C24.9795 11.8684 24.9623 11.8684 24.8764 11.9544C24.8076 12.0232 24.7904 12.1263 24.7904 12.6248C24.7732 13.3984 24.6701 13.8798 24.4122 14.3783C24.2747 14.6362 24.2575 14.5846 24.3778 14.2924C24.4638 14.0689 24.481 13.9657 24.481 13.2265C24.481 11.7309 24.3091 11.3699 23.2604 10.7682C23.0026 10.6135 22.5556 10.39 22.2977 10.2697C22.0227 10.1494 21.8164 10.0462 21.8336 10.0462C21.868 10.0118 22.8822 10.3041 23.2776 10.476C23.8793 10.7167 23.9824 10.7338 24.0512 10.7167C24.1028 10.6651 24.1372 10.5276 24.1544 10.0978Z" fill="#FF007A"/>
<path d="M12.0524 12.6593C11.3303 11.6622 10.8662 10.115 10.9693 8.96321L11.0037 8.6022L11.1756 8.63659C11.4851 8.68816 12.018 8.89445 12.2758 9.04917C12.9635 9.46175 13.2729 10.0291 13.5652 11.4387C13.6511 11.8513 13.7714 12.3326 13.823 12.4874C13.909 12.7452 14.2356 13.3469 14.5107 13.7251C14.6998 14.0002 14.5794 14.1377 14.1496 14.1033C13.4964 14.0345 12.6197 13.4329 12.0524 12.6593Z" fill="#FF007A"/>
<path d="M23.2783 20.1376C19.8745 18.7623 18.6711 17.5761 18.6711 15.5648C18.6711 15.2725 18.6883 15.0319 18.6883 15.0319C18.7055 15.0319 18.8259 15.135 18.9806 15.2553C19.6682 15.8055 20.4418 16.0461 22.5907 16.3556C23.8456 16.5447 24.5676 16.6822 25.2209 16.9057C27.301 17.5933 28.5903 19.003 28.8997 20.9112C28.9857 21.4613 28.9341 22.5099 28.7966 23.06C28.6763 23.4898 28.3324 24.2806 28.2465 24.2978C28.2293 24.2978 28.1949 24.2118 28.1949 24.0743C28.1605 23.3523 27.7995 22.6646 27.1978 22.1317C26.4758 21.5128 25.5475 21.0487 23.2783 20.1376Z" fill="#FF007A"/>
<path d="M20.8721 20.7047C20.8377 20.4469 20.7518 20.1202 20.7002 19.9827L20.6143 19.7249L20.769 19.914C20.9925 20.1718 21.1644 20.4813 21.3191 20.911C21.4394 21.2377 21.4394 21.3408 21.4394 21.8737C21.4394 22.3894 21.4222 22.5098 21.3191 22.802C21.1472 23.2662 20.9409 23.5928 20.5971 23.9538C19.9782 24.5899 19.1702 24.9337 18.0184 25.0884C17.8121 25.1056 17.2276 25.1572 16.7119 25.1916C15.4226 25.2603 14.563 25.3979 13.7895 25.6729C13.6863 25.7073 13.5832 25.7417 13.566 25.7245C13.5316 25.6901 14.0645 25.3807 14.4943 25.1744C15.096 24.8821 15.7148 24.7274 17.0729 24.4867C17.7434 24.3836 18.431 24.2461 18.6029 24.1773C20.3048 23.6444 21.1472 22.3207 20.8721 20.7047Z" fill="#FF007A"/>
<path d="M22.4351 23.4724C21.9881 22.4925 21.8849 21.5642 22.1256 20.6875C22.16 20.6015 22.1944 20.5156 22.2288 20.5156C22.2631 20.5156 22.3663 20.5671 22.4694 20.6359C22.6757 20.7734 23.1055 21.0141 24.2057 21.6158C25.5982 22.3722 26.389 22.9567 26.9391 23.6271C27.4204 24.2116 27.7127 24.8821 27.8502 25.7072C27.9362 26.1714 27.8846 27.2888 27.7642 27.7529C27.386 29.2142 26.5265 30.3832 25.2716 31.0536C25.0825 31.1567 24.9277 31.2255 24.9106 31.2255C24.8934 31.2255 24.9621 31.0536 25.0653 30.8473C25.4779 29.9706 25.5294 29.1282 25.22 28.1827C25.0309 27.5982 24.6355 26.8934 23.8447 25.7072C22.8992 24.3319 22.6757 23.9709 22.4351 23.4724Z" fill="#FF007A"/>
<path d="M9.62853 28.7328C10.9007 27.6669 12.465 26.9105 13.9091 26.6699C14.5279 26.5667 15.5594 26.6011 16.1267 26.7558C17.0378 26.9965 17.863 27.5122 18.2928 28.1483C18.7053 28.7672 18.8944 29.3001 19.0835 30.4862C19.1523 30.9504 19.2383 31.4317 19.2554 31.5349C19.393 32.1538 19.668 32.6351 20.0118 32.893C20.5448 33.2884 21.4731 33.3056 22.3842 32.9617C22.5389 32.9102 22.6764 32.8586 22.6764 32.8758C22.7108 32.9102 22.2467 33.2196 21.9372 33.3743C21.5075 33.5978 21.1636 33.6666 20.6995 33.6666C19.8743 33.6666 19.1695 33.2368 18.6022 32.3772C18.4819 32.2053 18.2412 31.7068 18.0349 31.2426C17.4332 29.8502 17.1238 29.4376 16.4189 28.9734C15.8001 28.5781 15.0093 28.4921 14.4076 28.7843C13.6168 29.1625 13.4105 30.1768 13.9606 30.7957C14.1841 31.0535 14.5967 31.2598 14.9405 31.3114C15.5766 31.3974 16.1267 30.8988 16.1267 30.2628C16.1267 29.8502 15.972 29.6095 15.5594 29.4204C15.0093 29.1797 14.4076 29.4548 14.4248 29.9877C14.4248 30.2112 14.5279 30.3487 14.7514 30.4519C14.8889 30.5206 14.8889 30.5206 14.7858 30.5034C14.2873 30.4003 14.1669 29.7814 14.5623 29.386C15.0437 28.9047 16.0579 29.111 16.4017 29.7814C16.5393 30.0565 16.5565 30.6066 16.4361 30.9504C16.1439 31.7068 15.3187 32.1022 14.4764 31.8787C13.9091 31.724 13.6684 31.5693 12.9808 30.8644C11.7774 29.6267 11.3132 29.386 9.59414 29.1282L9.26752 29.0766L9.62853 28.7328Z" fill="#FF007A"/>
<path fill-rule="evenodd" clip-rule="evenodd" d="M0.584585 1.07255C4.59007 5.93758 10.7616 13.5016 11.071 13.9142C11.3289 14.258 11.2258 14.5846 10.796 14.8253C10.5553 14.9628 10.0568 15.1003 9.81611 15.1003C9.54105 15.1003 9.21443 14.9628 8.99094 14.7393C8.83623 14.5846 8.16578 13.6047 6.65298 11.2496C5.50119 9.44453 4.52131 7.94892 4.50411 7.93173C4.43535 7.89735 4.43535 7.89735 6.53264 11.645C7.85634 14.0001 8.28612 14.8425 8.28612 14.9456C8.28612 15.1691 8.21735 15.2894 7.9423 15.5989C7.47814 16.1146 7.27185 16.6991 7.11713 17.9197C6.94523 19.2777 6.48107 20.2404 5.15737 21.8736C4.38378 22.8363 4.26344 23.0082 4.07434 23.4036C3.83367 23.8849 3.7649 24.16 3.73052 24.7788C3.69614 25.4321 3.7649 25.8447 3.95401 26.4635C4.12591 27.0137 4.31501 27.3747 4.77917 28.0795C5.17456 28.6984 5.41523 29.1625 5.41523 29.3344C5.41523 29.472 5.44962 29.472 6.06849 29.3344C7.54691 28.9906 8.76746 28.4061 9.43791 27.6841C9.85049 27.2371 9.95364 26.9965 9.95364 26.3776C9.95364 25.9822 9.93645 25.8962 9.8333 25.6556C9.66139 25.2774 9.33476 24.9679 8.62994 24.4866C7.70163 23.8505 7.30623 23.3348 7.20309 22.6472C7.11713 22.0627 7.22028 21.6673 7.73601 20.5842C8.26893 19.4668 8.40645 19.0027 8.49241 17.8681C8.54398 17.1461 8.62994 16.8538 8.83623 16.6303C9.05971 16.3897 9.24881 16.3037 9.78173 16.2349C10.6585 16.1146 11.2258 15.8911 11.6727 15.4614C12.0681 15.1003 12.24 14.7393 12.2572 14.2064L12.2744 13.811L12.0509 13.5704C11.243 12.642 0.051666 0.333344 9.32736e-05 0.333344C-0.0170976 0.333344 0.257957 0.659971 0.584585 1.07255ZM5.86304 25.518C6.05214 25.1913 5.949 24.7787 5.63956 24.5725C5.34731 24.3834 4.90035 24.4693 4.90035 24.7272C4.90035 24.7959 4.93473 24.8647 5.03788 24.8991C5.1926 24.985 5.20979 25.071 5.08945 25.2601C4.96911 25.4492 4.96911 25.6211 5.12383 25.7414C5.3645 25.9305 5.69113 25.8274 5.86304 25.518Z" fill="#FF007A"/>
<path fill-rule="evenodd" clip-rule="evenodd" d="M12.8246 16.4756C12.412 16.5959 12.0167 17.0429 11.8963 17.4898C11.8276 17.7649 11.8619 18.2634 11.9823 18.4181C12.1714 18.6588 12.3433 18.7276 12.8246 18.7276C13.7701 18.7276 14.5781 18.315 14.6641 17.8164C14.75 17.4039 14.389 16.8366 13.8905 16.5787C13.6326 16.4412 13.0997 16.3896 12.8246 16.4756ZM13.9235 17.335C14.061 17.1288 14.0094 16.9053 13.7516 16.7506C13.2874 16.4583 12.5826 16.699 12.5826 17.1459C12.5826 17.3694 12.9436 17.6101 13.2874 17.6101C13.5109 17.6101 13.8203 17.4726 13.9235 17.335Z" fill="#FF007A"/>
</svg>