<svg xmlns="http://www.w3.org/2000/svg" width="34" height="34" viewBox="0 0 34 34" fill="none">
<rect x="0.333313" y="0.333313" width="33.3333" height="33.3333" rx="16.6667" fill="#1BA27A"/>
<path fill-rule="evenodd" clip-rule="evenodd" d="M25.3334 8.66663H8.66669V12.5555H14.7778V27H19.2223V12.5555H25.3334V8.66663Z" fill="white"/>
<path fill-rule="evenodd" clip-rule="evenodd" d="M17.0001 18.3005C25.0397 18.3005 27.0001 16.8094 27.0001 15.8889C27.0001 14.9684 22.5229 14.2222 17.0001 14.2222C11.4772 14.2222 7.00006 14.9684 7.00006 15.8889C7.00006 16.8094 8.96044 18.3005 17.0001 18.3005ZM17.0002 17.1388C21.9094 17.1388 25.8891 16.5792 25.8891 15.8888C25.8891 15.1984 21.9094 14.6388 17.0002 14.6388C12.091 14.6388 8.11131 15.1984 8.11131 15.8888C8.11131 16.5792 12.091 17.1388 17.0002 17.1388Z" fill="white"/>
<path fill-rule="evenodd" clip-rule="evenodd" d="M14.7778 16.7112C14.7778 16.7112 16.2573 16.8716 17 16.8716C17.7427 16.8716 19.2222 16.7112 19.2222 16.7112V17.0544C19.2222 17.0544 18.5579 17.1703 17 17.1703C15.4421 17.1703 14.7778 17.0544 14.7778 17.0544V16.7112Z" fill="#1BA27A"/>
</svg>