<svg width="18" height="16" viewBox="0 0 18 16" fill="none" xmlns="http://www.w3.org/2000/svg">
<g id="Group">
<g id="Group_2">
<g id="Group_3">
<path id="Vector" d="M17.6928 12.6212L10.7993 1.20138C9.98493 -0.162178 8.01535 -0.162178 7.20101 1.20138L0.307468 12.6212C-0.544755 14.0226 0.477913 15.8217 2.10661 15.8217H15.8747C17.5224 15.8028 18.545 14.0226 17.6928 12.6212ZM8.94333 13.7385C8.432 13.7385 8.03429 13.3219 8.03429 12.8295C8.03429 12.3182 8.45093 11.9205 8.94333 11.9205C9.45466 11.9205 9.85237 12.3371 9.85237 12.8295C9.85237 13.3219 9.43572 13.7385 8.94333 13.7385ZM10.0607 10.0077C9.62511 10.3486 9.62511 10.5569 9.62511 10.6137V10.9357C9.62511 11.1061 9.49254 11.2387 9.32209 11.2387H8.48881C8.31837 11.2387 8.1858 11.1061 8.1858 10.9357V10.6137C8.1858 9.96981 8.50775 9.4206 9.15165 8.89032C9.60617 8.51156 10.0986 8.07598 10.0986 7.65934C10.0986 7.01543 9.79555 6.7503 9.05696 6.7503C7.92066 6.7503 7.90172 7.58358 7.90172 7.62146V7.77297C7.90172 7.94341 7.76915 8.07598 7.59871 8.07598H6.76543C6.59498 8.07598 6.46241 7.94341 6.46241 7.77297V7.62146C6.46241 6.69348 7.16313 5.29205 9.05696 5.29205C10.894 5.29205 11.5568 6.5041 11.5568 7.65934C11.5568 8.79563 10.6099 9.55316 10.0607 10.0077Z" fill="#F5F5F7"/>
</g>
</g>
</g>
</svg>
