<svg width="24" height="24" viewBox="0 0 24 24" fill="none" xmlns="http://www.w3.org/2000/svg">
<path d="M23.6176 6.34259L21.4296 20.0079H6.94344L0.382446 6.34259H23.6176Z" fill="#6F6C75"/>
<path d="M9.52175 24C10.5219 24 11.3326 23.1892 11.3326 22.1891C11.3326 21.189 10.5219 20.3783 9.52175 20.3783C8.52163 20.3783 7.71088 21.189 7.71088 22.1891C7.71088 23.1892 8.52163 24 9.52175 24Z" fill="#6F6C75"/>
<path d="M18.542 24C19.5421 24 20.3529 23.1892 20.3529 22.1891C20.3529 21.189 19.5421 20.3783 18.542 20.3783C17.5419 20.3783 16.7311 21.189 16.7311 22.1891C16.7311 23.1892 17.5419 24 18.542 24Z" fill="#6F6C75"/>
<path d="M21.6363 5.71435H3.65967C4.01838 4.05316 5.26264 2.8248 6.74633 2.8248C7.14395 2.8248 7.52197 2.90887 7.87102 3.0736C8.37202 1.28289 9.74551 0 11.365 0C12.4897 0 13.4982 0.62057 14.1736 1.59985C14.9526 0.892087 15.9254 0.478279 16.9791 0.478279C19.4548 0.478563 21.4844 2.79271 21.6363 5.71435Z" fill="#6F6C75"/>
</svg>
