<svg width="23" height="24" viewBox="0 0 23 24" fill="none" xmlns="http://www.w3.org/2000/svg">
<path d="M11.5001 23.1257C17.5001 23.1257 21.7858 20.9999 21.7858 16.2685C21.7858 11.1257 19.2144 7.69709 14.0715 5.12566L16.0944 2.51995C16.1971 2.34899 16.2529 2.15389 16.2559 1.95444C16.259 1.75499 16.2093 1.55827 16.1118 1.38423C16.0143 1.21019 15.8726 1.06501 15.7009 0.963401C15.5293 0.861796 15.3338 0.807378 15.1344 0.805664H7.86578C7.66632 0.807378 7.47085 0.861796 7.29919 0.963401C7.12754 1.06501 6.98579 1.21019 6.88833 1.38423C6.79086 1.55827 6.74114 1.75499 6.74421 1.95444C6.74728 2.15389 6.80302 2.34899 6.90578 2.51995L8.92864 5.14281C3.78578 7.73138 1.21436 11.16 1.21436 16.3028C1.21436 21 5.50007 23.1257 11.5001 23.1257Z" fill="#F5F5F7"/>
<path d="M11.5001 17.1771V18.9085M11.5001 8.58852V10.2M11.5001 23.1257C17.5001 23.1257 21.7858 20.9999 21.7858 16.2685C21.7858 11.1257 19.2144 7.69709 14.0715 5.12566L16.0944 2.51995C16.1971 2.34899 16.2529 2.15389 16.2559 1.95444C16.259 1.75499 16.2093 1.55827 16.1118 1.38423C16.0143 1.21019 15.8726 1.06501 15.7009 0.963401C15.5293 0.861796 15.3338 0.807378 15.1344 0.805664H7.86578C7.66632 0.807378 7.47085 0.861796 7.29919 0.963401C7.12754 1.06501 6.98579 1.21019 6.88833 1.38423C6.79086 1.55827 6.74114 1.75499 6.74421 1.95444C6.74728 2.15389 6.80302 2.34899 6.90578 2.51995L8.92864 5.14281C3.78578 7.73138 1.21436 11.1599 1.21436 16.3028C1.21436 20.9999 5.50007 23.1257 11.5001 23.1257Z" stroke="#6600FF" stroke-linecap="round" stroke-linejoin="round"/>
<path d="M9.78568 16.3885C9.99485 16.6368 10.2581 16.8339 10.5553 16.9646C10.8524 17.0954 11.1756 17.1563 11.5 17.1428C11.9957 17.1766 12.4853 17.0168 12.8658 16.6971C13.2462 16.3774 13.4879 15.9227 13.54 15.4285C13.4879 14.9343 13.2462 14.4796 12.8658 14.1599C12.4853 13.8402 11.9957 13.6804 11.5 13.7142C11.0042 13.748 10.5146 13.5883 10.1342 13.2686C9.75372 12.9489 9.51205 12.4941 9.45996 11.9999C9.50787 11.504 9.74837 11.0466 10.1298 10.7261C10.5113 10.4056 11.0032 10.2474 11.5 10.2856C11.8186 10.2661 12.1376 10.3175 12.4341 10.4361C12.7305 10.5547 12.9969 10.7375 13.2142 10.9714" stroke="#6600FF" stroke-linecap="round" stroke-linejoin="round"/>
</svg>
