<svg width="33" height="24" viewBox="0 0 33 24" fill="none" xmlns="http://www.w3.org/2000/svg">
<path id="Vector" d="M9.18268 0.00148605C9.05443 0.00741228 8.92779 0.0326025 8.80702 0.0762105L1.51612 2.75173C1.20098 2.86737 0.919099 3.1283 0.778016 3.43289C0.636933 3.73727 0.620695 4.12165 0.736261 4.43672L5.42637 17.2217C5.54187 17.5368 5.80274 17.8209 6.10726 17.9619C6.41178 18.1031 6.79615 18.1194 7.11108 18.0038L14.4021 15.3281C14.7173 15.2125 14.9991 14.9517 15.1402 14.6471L15.1423 14.6427C15.2817 14.3389 15.297 13.9568 15.182 13.6433L10.4919 0.858179C10.3769 0.54466 10.118 0.261791 9.81534 0.120075L9.81098 0.117966C9.65872 0.0473192 9.48601 0.00858594 9.31231 0.00141579C9.26887 -0.000341595 9.22585 -0.000622816 9.18268 0.00148605ZM11.9287 0.959193L16.4166 13.1906C16.656 13.8453 16.626 14.5682 16.3331 15.2007C16.0403 15.8327 15.5085 16.3226 14.8548 16.5627L12.9258 17.2701L17.1436 17.4655C17.4789 17.4812 17.8402 17.3488 18.0883 17.1229C18.3364 16.8967 18.501 16.5486 18.5166 16.2133L19.1492 2.61107C19.1649 2.2759 19.0348 1.91247 18.8088 1.66433C18.5827 1.41618 18.2346 1.25169 17.8993 1.23602L11.9287 0.959193ZM20.4345 3.29652L19.8281 16.2749C19.7957 16.9712 19.4884 17.6261 18.9736 18.096C18.4583 18.5647 17.778 18.8096 17.0821 18.777L15.2502 18.6913L20.1269 20.3147C20.4454 20.4207 20.8307 20.3925 21.1307 20.2423C21.4309 20.0919 21.6817 19.8007 21.7876 19.4822L26.0866 6.56112C26.1925 6.24254 26.1644 5.85725 26.0142 5.55716C25.8637 5.25699 25.5725 5.00393 25.254 4.89814L20.4345 3.29652ZM6.01939 4.58609C7.73867 6.33898 10.8009 5.83314 11.6957 7.78665C12.5305 9.60921 10.6758 11.0207 9.02663 10.4865L10.2217 12.6503L8.9015 13.1358L8.13268 10.9083C7.40231 12.4986 5.10625 12.5775 4.32569 10.871C3.37459 8.79188 6.01426 7.06099 6.01939 4.58609ZM27.2091 7.34309L23.0354 19.8973C22.8155 20.5584 22.3422 21.1051 21.7195 21.4175L21.7129 21.4196C21.0912 21.7286 20.3726 21.7792 19.7139 21.5602L18.2815 21.0836L21.3262 23.6866C21.5813 23.9047 21.9493 24.0226 22.2839 23.9964C22.6185 23.9701 22.96 23.7968 23.1781 23.5416L32.0265 13.1863C32.2446 12.9312 32.3625 12.5653 32.3363 12.2307C32.3101 11.8961 32.1345 11.5525 31.8793 11.3344L27.2091 7.34309Z" fill="#F5F5F7"/>
</svg>
