<svg xmlns="http://www.w3.org/2000/svg" width="25" height="24" viewBox="0 0 25 24" fill="none">
<g clip-path="url(#clip0_1587_8265)">
<path d="M11.4571 0.120072C10.6459 0.35341 9.92553 0.863173 9.40231 1.57407L9.39585 1.58307C8.87796 2.30118 8.59745 3.18678 8.59924 4.09807C8.59924 5.19907 8.99985 6.19907 9.65247 6.93507L9.65154 6.93407C9.93401 7.17207 10.1242 7.52507 10.162 7.92707V7.93307C10.3033 8.81904 10.3012 9.72491 10.1555 10.6101L10.162 10.5631C9.95799 11.6274 9.50824 12.6183 8.85479 13.4432C8.20133 14.2681 7.36549 14.9001 6.42539 15.2801L6.38478 15.2941L5.80139 15.5341L5.35831 15.4011C5.0187 15.2911 4.666 15.2358 4.31155 15.2371C3.69585 15.2371 3.11616 15.4001 2.6057 15.6881L2.62601 15.6771C1.98958 16.0163 1.45346 16.5417 1.07827 17.1938C0.703077 17.8459 0.503786 18.5987 0.50293 19.3671C0.502736 20.1178 0.692335 20.8542 1.05115 21.4964C1.40997 22.1386 1.92429 22.6621 2.53831 23.0101L2.55955 23.0211C3.06534 23.3018 3.62285 23.456 4.19098 23.4723C4.7591 23.4885 5.32335 23.3664 5.84211 23.115C6.36088 22.8635 6.82094 22.4892 7.18837 22.0195C7.5558 21.5498 7.82122 20.9967 7.96508 20.4011L7.97062 20.3721C8.08139 19.8781 8.17554 19.7461 8.79862 19.2411C9.37093 18.7911 10.0355 18.4281 10.7509 18.1891L10.7989 18.1751C11.3166 18.0239 11.8505 17.9482 12.3866 17.9501C13.9872 17.9501 15.4457 18.6091 16.5432 19.6901L16.5386 19.6851C16.6353 19.7665 16.7156 19.8685 16.7747 19.9847C16.8337 20.1009 16.8702 20.229 16.882 20.3611V20.3651C17.0374 21.0744 17.3849 21.7172 17.8799 22.2111L17.8826 22.2131C18.1448 22.5311 18.4605 22.7901 18.8149 22.9751L18.8325 22.9831C19.4131 23.3208 20.0736 23.4632 20.7294 23.3921L20.7155 23.3931C21.0885 23.3931 21.4475 23.3271 21.7835 23.2051L21.7595 23.2121C22.3673 22.9824 22.9126 22.5924 23.3463 22.0772C23.78 21.5619 24.0884 20.9378 24.2435 20.2611L24.2491 20.2321C24.36 19.5906 24.3562 18.932 24.238 18.2921L24.2426 18.3241C24.0726 17.6507 23.7512 17.0334 23.3071 16.5275C22.8629 16.0216 22.31 15.6428 21.6977 15.4251L21.67 15.4171C20.9855 15.213 20.2647 15.1986 19.5737 15.3751L19.6023 15.3691C19.4074 15.4529 19.1975 15.4874 18.9884 15.4701C18.7794 15.4527 18.5767 15.384 18.3959 15.2691L18.4023 15.2731C16.1159 14.3381 14.5199 11.9871 14.5199 9.23207C14.5199 8.79707 14.5595 8.37207 14.6352 7.96107L14.6288 8.00207L14.7285 7.43607L15.0977 7.00907C15.7642 6.3003 16.1574 5.34387 16.198 4.33307V4.32507C16.2473 3.37922 15.9929 2.44404 15.478 1.67829C14.9631 0.912535 14.2195 0.363391 13.3734 0.124072L13.3466 0.118072C12.7144 -0.0400598 12.0569 -0.037664 11.4257 0.125072L11.4543 0.119072L11.4571 0.120072ZM13.0817 2.66607C13.292 2.78126 13.4741 2.9489 13.613 3.1552C13.7519 3.3615 13.8436 3.60057 13.8805 3.85275C13.9175 4.10492 13.8986 4.363 13.8256 4.60575C13.7525 4.8485 13.6272 5.06898 13.4602 5.24907C13.3291 5.40998 13.164 5.534 12.9789 5.61047C12.7938 5.68694 12.5944 5.71357 12.3977 5.68807L12.4032 5.68907C12.208 5.71331 12.0103 5.68625 11.8268 5.61018C11.6434 5.53411 11.4795 5.41128 11.3491 5.25207L11.3482 5.25107C11.1698 5.07143 11.0377 4.84449 10.965 4.59266C10.8923 4.34082 10.8815 4.07281 10.9337 3.81507L10.9319 3.82507C10.9736 3.57514 11.0689 3.3393 11.2101 3.13648C11.3512 2.93366 11.5343 2.76952 11.7446 2.65721C11.9549 2.5449 12.1866 2.48756 12.421 2.4898C12.6555 2.49203 12.8862 2.55377 13.0946 2.67007L13.0863 2.66607H13.0817ZM13.3928 12.0561C13.8672 12.3071 14.242 12.7141 14.4654 13.2151L14.4709 13.2301C14.617 13.543 14.6712 13.8968 14.626 14.2441L14.6269 14.2351C14.671 14.6071 14.6075 14.9848 14.4451 15.3161L14.4497 15.3061C14.2928 15.6607 14.0599 15.9696 13.7703 16.2069C13.4808 16.4441 13.1431 16.603 12.7854 16.6701L12.7715 16.6721C12.2873 16.7535 11.7918 16.6644 11.3578 16.418C10.9238 16.1716 10.5742 15.7808 10.3605 15.3031L10.3549 15.2881C10.1958 14.9622 10.1361 14.5901 10.1842 14.2251L10.1832 14.2341C10.1407 13.8908 10.1938 13.5415 10.3355 13.2311L10.3309 13.2411C10.4624 12.936 10.6485 12.6623 10.8784 12.4359C11.1083 12.2095 11.3775 12.0348 11.6703 11.9221L11.6869 11.9171C11.9498 11.8162 12.2305 11.7816 12.5075 11.8161L12.4992 11.8151L12.5611 11.8141C12.8685 11.8141 13.1574 11.9031 13.4057 12.0581L13.3974 12.0531L13.3928 12.0561ZM4.72139 17.7541C5.13031 17.8911 5.45985 18.1951 5.64816 18.5911L5.65185 18.6001C5.80017 18.8407 5.85735 19.134 5.81155 19.4191L5.81247 19.4121C5.80444 19.7204 5.71328 20.0194 5.55023 20.2723C5.38719 20.5252 5.15939 20.7208 4.89493 20.8351L4.88478 20.8391C4.67171 20.9204 4.44549 20.9533 4.22017 20.936C3.99485 20.9186 3.77522 20.8512 3.57493 20.7381L3.58416 20.7431C3.33451 20.59 3.1313 20.3616 2.99922 20.0857C2.86714 19.8098 2.81188 19.4983 2.84016 19.1891L2.83924 19.1961C2.85795 18.8227 3.00909 18.4716 3.26108 18.2161L3.26201 18.2151C3.44103 17.995 3.67435 17.8349 3.93452 17.7535C4.1947 17.6722 4.47089 17.6731 4.73062 17.7561L4.72047 17.7531L4.72139 17.7541ZM21.0562 17.8141C21.4235 17.9891 21.7189 18.2811 21.9072 18.6471L21.9119 18.6571C21.982 18.8521 22.0226 19.0781 22.0226 19.3141C22.0226 19.5841 21.97 19.8401 21.874 20.0711L21.8786 20.0591C21.7613 20.3239 21.5773 20.5475 21.3479 20.704C21.1184 20.8606 20.8529 20.9438 20.5817 20.9441L20.5429 20.9431H20.5448C20.3542 20.95 20.1643 20.9159 19.986 20.8426C19.8077 20.7694 19.6446 20.6585 19.5062 20.5165C19.3677 20.3744 19.2567 20.204 19.1796 20.0151C19.1024 19.8262 19.0607 19.6226 19.0568 19.4161V19.4141C19.0125 19.1267 19.0731 18.832 19.2257 18.5921L19.2229 18.5961C19.3798 18.2348 19.6587 17.9526 20.0021 17.8077C20.3454 17.6627 20.727 17.6661 21.0682 17.8171L21.0589 17.8131L21.0562 17.8141ZM5.17278 6.08207C4.24766 7.22682 3.5571 8.57104 3.14662 10.0261L3.12816 10.1021C2.92785 10.8911 2.91216 11.1081 3.10047 10.5021C3.39493 9.63807 3.71893 8.90407 4.09462 8.20707L4.06047 8.27507C4.42878 7.64807 4.82016 7.10307 5.25493 6.60207L5.24939 6.60807C5.39948 6.45364 5.53323 6.28158 5.64816 6.09507L5.65462 6.08407C5.63684 6.02831 5.60806 5.97742 5.57028 5.93493C5.5325 5.89245 5.48663 5.8594 5.43585 5.83807L5.43308 5.83707C5.33155 5.90307 5.2457 5.98407 5.17462 6.08007L5.17278 6.08207ZM19.6466 6.49807C20.5363 7.67151 21.1716 9.04629 21.5057 10.5211L21.5195 10.5911C21.7088 11.4711 21.7411 11.5511 21.8759 11.5511C22.0919 11.5511 22.1149 11.3581 21.9589 10.7861C21.5279 9.16906 20.7476 7.68649 19.6826 6.46107L19.6872 6.46607L19.318 6.04407L19.6466 6.49807ZM5.53001 7.29307C4.97849 8.07769 4.54885 8.95455 4.25801 9.88907L4.24047 9.95307C4.00139 10.7421 3.94047 11.1211 4.15185 10.5251C4.54508 9.43907 5.07493 8.50507 5.72847 7.69007L5.71924 7.70207C5.99708 7.35307 6.04139 7.23907 5.92416 7.11207C5.80693 6.98507 5.73031 7.02707 5.53001 7.29207V7.29307Z" fill="#F5F5F7"/>
<path d="M19.2135 7.64194C19.8422 8.62639 20.2975 9.72822 20.5566 10.8919L20.5695 10.9589C20.6027 11.1279 20.7172 11.2119 20.8473 11.1569C20.9858 11.0969 20.995 10.9639 20.8584 10.5489C20.4626 9.35592 19.8467 8.26271 19.0483 7.33594L19.0529 7.34094C18.9587 7.22694 19.0307 7.35894 19.2135 7.64194ZM5.71811 8.59794C5.40688 9.18525 5.16645 9.81337 5.00272 10.4669L4.99072 10.5239C5.07198 10.4024 5.14509 10.2748 5.20949 10.1419L5.2178 10.1239C5.41349 9.75594 5.60918 9.44194 5.82149 9.14494L5.80857 9.16394C6.08088 8.76394 6.15841 8.61594 6.11965 8.54394C6.01811 8.38094 5.84549 8.40494 5.71811 8.59794ZM18.9633 8.92994C19.0981 9.21494 19.2338 9.56094 19.3473 9.91794L19.364 9.97694C19.5421 10.5609 19.6695 10.6969 19.8366 10.4709C19.9363 10.3379 19.9363 10.3259 19.7627 9.99594C19.4937 9.50193 19.192 9.02969 18.86 8.58294L18.8766 8.60594C18.7307 8.41294 18.7363 8.44294 18.9633 8.92994ZM11.1024 21.7199C11.0804 21.755 11.0722 21.798 11.0794 21.8396C11.0867 21.8812 11.1089 21.918 11.1412 21.9419H11.1421C11.2252 22.0319 11.3249 22.0379 12.0476 22.0019C12.4907 21.9839 12.9421 21.9479 13.0473 21.9219C13.2301 21.8859 13.2366 21.8799 13.1027 21.8379C12.9573 21.8078 12.8096 21.7917 12.6615 21.7899H12.6596C12.3897 21.7724 12.1208 21.7403 11.8538 21.6939C11.2049 21.5809 11.1753 21.5809 11.1024 21.7199ZM10.1184 22.3639C10.0243 22.4059 10.0243 22.5979 10.1184 22.6769C10.6768 22.8453 11.2539 22.9297 11.8335 22.9279C11.996 22.9279 12.1575 22.9209 12.3172 22.9089L12.296 22.9099C12.9193 22.9037 13.5396 22.8147 14.143 22.6449L14.0904 22.6579H14.0489C13.8421 22.6579 13.639 22.6709 13.4387 22.6969L13.4627 22.6939C12.6104 22.7556 11.7543 22.6869 10.9196 22.4899L10.9796 22.5019C10.3464 22.3519 10.207 22.3239 10.1184 22.3659V22.3639ZM9.17965 23.2609C9.11318 23.4419 9.23503 23.5559 9.60703 23.6609C10.3483 23.8749 11.2003 23.9979 12.0781 23.9979C12.7713 23.9979 13.4489 23.9209 14.1024 23.7749L14.0378 23.7869C14.6101 23.6669 14.5935 23.6129 14.0101 23.7069C12.6662 23.8789 11.3041 23.7578 10.004 23.3509L10.076 23.3699C9.39195 23.1519 9.22395 23.1289 9.17965 23.2609Z" fill="#F5F5F7"/>
</g>
<defs>
<clipPath id="clip0_1587_8265">
<rect width="24" height="24" fill="white" transform="translate(0.5)"/>
</clipPath>
</defs>
</svg>