<svg xmlns="http://www.w3.org/2000/svg" width="18" height="24" viewBox="0 0 18 24" fill="none">
<path d="M12.9382 13.218L13.3237 14.2068L18 9.63135L9 1.96281e-05L-1.97183e-07 9.63135L4.67625 14.2068L5.06181 13.218L2.53917 10.0112L9 4.5978L15.4608 10.0112L12.9382 13.218Z" fill="#F5F5F7"/>
<path d="M11.5555 13.2569L11.8364 13.5139L13.8247 10.0558L8.99977 6.13958L4.1748 10.0558L6.16318 13.5139L6.44408 13.2569L5.87125 10.7597L8.99977 8.71501L12.1283 10.7597L11.5555 13.2569Z" fill="#F5F5F7"/>
<path d="M7.12158 11.1452L8.9998 24L10.878 11.1452L8.99979 9.96083L7.12158 11.1452Z" fill="#F5F5F7"/>
<path d="M8.99993 0.826958L1.02441 9.3689L6.14131 5.07279L4.56052 7.07838L8.99993 3.68731L13.4338 7.07838L11.8586 5.07279L16.9755 9.3689L8.99993 0.826958Z" fill="#F5F5F7"/>
<path d="M8.99983 6.67035L4.79175 10.0894L7.5292 8.64801L6.4882 9.76533L8.99983 8.21784L11.5059 9.76533L10.4705 8.64801L13.2079 10.0894L8.99983 6.67035Z" fill="#F5F5F7"/>
<path d="M9.68842 12.3688L9.59479 17.542L10.3824 11.5755L8.99993 10.5196L7.61743 11.5755L8.39956 17.542L8.30593 12.3688L8.99993 20.0728L9.68842 12.3688Z" fill="#F5F5F7"/>
</svg>