<svg width="24" height="25" viewBox="0 0 24 25" fill="none" xmlns="http://www.w3.org/2000/svg">
<g id="search">
<g id="Group">
<path id="Vector" d="M14.7164 4.76777C11.693 1.74438 6.79146 1.74377 3.76857 4.76777C0.744562 7.79178 0.744562 12.6927 3.76797 15.7164C6.79135 18.7404 11.6929 18.7404 14.7169 15.7164C17.7405 12.6928 17.7399 7.79182 14.7165 4.76777H14.7164ZM5.93164 13.5533C6.14303 13.7647 6.14303 14.1064 5.93164 14.318C5.82617 14.4235 5.68781 14.4764 5.5493 14.4764C5.41079 14.4764 5.27243 14.4235 5.16696 14.318C4.0779 13.2289 3.47811 11.7818 3.47811 10.2421C3.47811 8.70251 4.07786 7.25557 5.16696 6.16631C5.37835 5.95492 5.72009 5.95492 5.93164 6.16631C6.14303 6.3777 6.14303 6.71944 5.93164 6.931C5.04703 7.81561 4.55964 8.9919 4.55964 10.2421C4.55964 11.4924 5.04698 12.6691 5.93164 13.5533Z" fill="#F5F5F7"/>
<path id="Vector_2" d="M21.1359 19.8259L16.5247 15.2143C16.2202 15.6599 15.8764 16.086 15.481 16.4813C15.0884 16.8739 14.664 17.22 14.2162 17.5277L18.8251 22.1362C19.3102 22.6213 20.097 22.6213 20.5819 22.1362L21.1351 21.5831C21.6209 21.0974 21.6209 20.3105 21.1358 19.826L21.1359 19.8259Z" fill="#F5F5F7"/>
</g>
</g>
</svg>
