<svg width="25" height="25" viewBox="0 0 25 25" fill="none" xmlns="http://www.w3.org/2000/svg">
<g id="Coin-1">
<g id="Coin-1_2">
<path id="Vector" d="M22.2491 15.1733V12.3341C19.975 13.329 16.3832 13.9275 12.3512 13.9275C8.23311 13.9275 4.51325 13.2921 2.25012 12.2535V15.0439C3.54977 16.0059 7.19359 17.0107 12.3512 17.0107C17.2536 17.0107 20.7944 16.1025 22.2491 15.1733Z" fill="#F5F5F7"/>
<path id="Vector_2" d="M12.3524 11.9358C17.2538 11.9358 20.7956 11.0286 22.2503 10.0995V7.25924C19.9762 8.25411 16.3844 8.85263 12.3524 8.85263C8.23434 8.85263 4.51447 8.21726 2.25134 7.17857V9.96899C3.55099 10.931 7.19482 11.9358 12.3524 11.9358Z" fill="#F5F5F7"/>
<path id="Vector_3" d="M12.3521 6.86088C16.9604 6.86088 20.3641 6.05821 21.9659 5.19081C20.7022 3.09451 15.4946 2.49998 12.25 2.49998C9.04541 2.49998 3.93486 3.08356 2.59119 5.11612C4.12095 6.00443 7.59069 6.86088 12.3521 6.86088Z" fill="#F5F5F7"/>
<path id="Vector_4" d="M12.3524 19.0027C8.23433 19.0027 4.51447 18.3673 2.25134 17.3286V18.8045C2.25134 21.7224 8.53648 22.5001 12.2503 22.5001C15.9642 22.5001 22.2493 21.7214 22.2493 18.8045V17.4093C19.9752 18.4031 16.3834 19.0027 12.3524 19.0027Z" fill="#F5F5F7"/>
</g>
</g>
</svg>
