<svg xmlns="http://www.w3.org/2000/svg" width="16" height="16" viewBox="0 0 16 16" fill="none">
  <path fill-rule="evenodd" clip-rule="evenodd" d="M2 0C0.895431 0 0 0.895431 0 2V14C0 15.1046 0.895431 16 2 16H14C15.1046 16 16 15.1046 16 14V2C16 0.895431 15.1046 0 14 0H2ZM2.3365 11.4926C2.61693 11.8309 3.01252 12 3.52328 12C3.7336 12.0004 3.92889 11.9648 4.10916 11.8931C4.28943 11.8215 4.45468 11.7143 4.60491 11.5714L5.95694 10.2857H10.0431L11.3951 11.5714C11.5453 11.7147 11.7106 11.8219 11.8908 11.8931C12.0711 11.9644 12.2664 12 12.4767 12C12.9875 12.0004 13.3831 11.8314 13.6635 11.4931C13.9439 11.1549 14.0491 10.7429 13.979 10.2571L13.348 5.97143C13.2583 5.4 12.9905 4.92857 12.5446 4.55714C12.0987 4.18571 11.5754 4 10.9745 4H5.02554C4.42504 4 3.90185 4.18571 3.45598 4.55714C3.01012 4.92857 2.74211 5.4 2.65198 5.97143L2.02103 10.2571C1.95093 10.7425 2.05608 11.1543 2.3365 11.4926ZM11.4329 8.40686C11.3176 8.51657 11.1748 8.57143 11.0045 8.57143C10.8347 8.57181 10.692 8.51714 10.5767 8.40743C10.4613 8.29771 10.4036 8.1619 10.4036 8C10.404 7.83847 10.4617 7.70286 10.5767 7.59314C10.6916 7.48343 10.8343 7.42857 11.0045 7.42857C11.1744 7.42895 11.317 7.48381 11.4323 7.59314C11.5477 7.70247 11.6054 7.83809 11.6054 8C11.6058 8.16152 11.5483 8.29714 11.4329 8.40686ZM10.2311 6.69257C10.1158 6.80228 9.97296 6.85714 9.8027 6.85714C9.63285 6.85752 9.49023 6.80286 9.37486 6.69314C9.25949 6.58343 9.2018 6.44762 9.2018 6.28571C9.2022 6.12419 9.25989 5.98857 9.37486 5.87886C9.48983 5.76914 9.63245 5.71428 9.8027 5.71428C9.97256 5.71467 10.1152 5.76952 10.2305 5.87886C10.3459 5.98819 10.4036 6.12381 10.4036 6.28571C10.404 6.44724 10.3465 6.58286 10.2311 6.69257ZM6.34752 8.57143H5.44617V7.57143H4.39459V6.71428H5.44617V5.71428H6.34752V6.71428H7.3991V7.57143H6.34752V8.57143Z" fill="#F5F5F7"/>
</svg>