<svg width="24" height="25" viewBox="0 0 24 25" fill="none" xmlns="http://www.w3.org/2000/svg">
<g id="emojione-monotone:pool-8-ball">
<g id="Group 56">
<path id="Vector" d="M12 2.5C6.47733 2.5 2 6.97733 2 12.5C2 18.0227 6.47733 22.5 12 22.5C17.5227 22.5 22 18.0227 22 12.5C22 6.97733 17.5227 2.5 12 2.5ZM16.3673 13.4843C14.5027 15.0267 11.6727 14.6817 10.0457 12.7147C8.41867 10.7473 8.61133 7.90267 10.476 6.36033C12.3407 4.81867 15.1707 5.163 16.7977 7.13067C18.4247 9.09833 18.2317 11.9427 16.3673 13.4843Z" fill="#6F6C75"/>
<path id="Vector_2" d="M14.7363 8.746C14.9837 8.26033 14.9803 7.72133 14.6577 7.20233C14.0977 6.302 12.9727 6.12733 11.9343 6.774C10.8867 7.425 10.5463 8.51033 11.1063 9.41133C11.4287 9.92967 11.911 10.171 12.4637 10.1593C12.094 10.7653 12.0797 11.427 12.4567 12.033C13.0517 12.9893 14.228 13.1977 15.4547 12.4353C16.6813 11.6723 17.0147 10.5253 16.4197 9.568C16.0423 8.963 15.4433 8.683 14.7363 8.746ZM12.0157 8.92333C11.718 8.44467 11.8613 7.85833 12.3997 7.52367C12.931 7.19367 13.5323 7.32767 13.8247 7.79767C14.1177 8.26833 13.977 8.87567 13.4463 9.206C12.9083 9.541 12.3137 9.40167 12.0157 8.92333ZM14.9537 11.6303C14.3633 11.9977 13.7037 11.855 13.3813 11.336C13.0687 10.834 13.2473 10.2033 13.8377 9.836C14.4287 9.46867 15.0773 9.59567 15.3847 10.09C15.7023 10.6003 15.5443 11.2623 14.9537 11.6303Z" fill="#6F6C75"/>
</g>
</g>
</svg>
