<svg width="21" height="21" viewBox="0 0 21 21" fill="none" xmlns="http://www.w3.org/2000/svg">
<path id="Vector" fill-rule="evenodd" clip-rule="evenodd" d="M2.75994 16.8321C1.34762 15.1076 0.500122 12.9028 0.500122 10.5C2.96522 10.5 5.22221 9.60804 6.96565 8.12909L9.21447 10.3779L2.75994 16.8321ZM16.8321 2.76001L10.5 9.0921L8.24016 6.83209C9.65248 5.10779 10.5 2.9029 10.5 0.5C12.9029 0.5 15.1077 1.34749 16.8321 2.75982V2.76001ZM4.03444 18.129L10.5 11.6635L12.8709 14.0345C11.392 15.7778 10.5 18.0348 10.5 20.5C8.03469 20.5 5.77789 19.608 4.03444 18.129ZM18.129 4.03452C19.6079 5.77786 20.4999 8.03466 20.4999 10.5C18.097 10.5 15.8922 11.3475 14.1678 12.7599L11.7857 10.3779L18.129 4.03452ZM12.3199 20.3347C12.3576 18.436 13.0421 16.6956 14.162 15.3253L16.9655 18.1288C15.6616 19.2349 14.0707 20.0128 12.3199 20.3347L12.3199 20.3347ZM20.3346 12.32C20.0236 14.0114 19.287 15.554 18.2399 16.8324L15.4611 14.0535C16.8097 12.998 18.4979 12.3563 20.3346 12.32ZM8.68002 0.665388C8.64369 2.50214 8.00201 4.19031 6.94656 5.53889L4.16759 2.76006C5.44599 1.71299 6.98864 0.976441 8.68002 0.665388ZM0.665315 8.6801C0.987199 6.92935 1.76508 5.33839 2.87113 4.03447L5.67464 6.83798C4.30434 7.95791 2.56407 8.6424 0.665267 8.68005L0.665315 8.6801Z" fill="#6F6C75"/>
</svg>
