<svg width="21" height="20" viewBox="0 0 21 20" fill="none" xmlns="http://www.w3.org/2000/svg">
<g id="Group 55">
<path id="Subtract" fill-rule="evenodd" clip-rule="evenodd" d="M20.5 18V2C20.5 0.895431 19.6046 0 18.5 0H9.97214C9.66165 0 9.35542 0.0722902 9.07771 0.211146L8.39443 0.552786C7.83137 0.834314 7.16863 0.834314 6.60557 0.552787L5.92229 0.211146C5.64458 0.0722902 5.33835 0 5.02786 0H2.5C1.39543 0 0.5 0.895431 0.5 2V7.52786C0.5 7.83835 0.57229 8.14458 0.711146 8.42229L1.05279 9.10557C1.33431 9.66863 1.33431 10.3314 1.05279 10.8944L0.711146 11.5777C0.57229 11.8554 0.5 12.1616 0.5 12.4721V18C0.5 19.1046 1.39543 20 2.5 20H5.02786C5.33835 20 5.64458 19.9277 5.92229 19.7889L6.60557 19.4472C7.16863 19.1657 7.83137 19.1657 8.39443 19.4472L9.07771 19.7889C9.35542 19.9277 9.66165 20 9.97214 20H18.5C19.6046 20 20.5 19.1046 20.5 18ZM16.3 7.99998C16.4105 7.99998 16.5 7.91044 16.5 7.79998V6.19998C16.5 6.08953 16.4105 5.99998 16.3 5.99998H10.7C10.5895 5.99998 10.5 6.08953 10.5 6.19998V7.79998C10.5 7.91044 10.5895 7.99998 10.7 7.99998H16.3ZM16.5 9.19994V10.7999C16.5 10.9104 16.4105 10.9999 16.3 10.9999H10.7C10.5895 10.9999 10.5 10.9104 10.5 10.7999V9.19994C10.5 9.08948 10.5895 8.99994 10.7 8.99994H16.3C16.4105 8.99994 16.5 9.08948 16.5 9.19994ZM16.3 14C16.4105 14 16.5 13.9104 16.5 13.8V12.2C16.5 12.0895 16.4105 12 16.3 12H10.7C10.5895 12 10.5 12.0895 10.5 12.2V13.8C10.5 13.9104 10.5895 14 10.7 14H16.3ZM7.50006 7.99998C8.05235 7.99998 8.50006 7.55227 8.50006 6.99998C8.50006 6.4477 8.05235 5.99998 7.50006 5.99998C6.94778 5.99998 6.50006 6.4477 6.50006 6.99998C6.50006 7.55227 6.94778 7.99998 7.50006 7.99998ZM8.50006 9.99994C8.50006 10.5522 8.05235 10.9999 7.50006 10.9999C6.94778 10.9999 6.50006 10.5522 6.50006 9.99994C6.50006 9.44765 6.94778 8.99994 7.50006 8.99994C8.05235 8.99994 8.50006 9.44765 8.50006 9.99994ZM7.50006 14C8.05235 14 8.50006 13.5523 8.50006 13C8.50006 12.4477 8.05235 12 7.50006 12C6.94778 12 6.50006 12.4477 6.50006 13C6.50006 13.5523 6.94778 14 7.50006 14Z" fill="#F5F5F7"/>
</g>
</svg>
