<svg width="24" height="24" data-baseweb="icon" title="Bsc" viewBox="0 0 24 24" xmlns="http://www.w3.org/2000/svg"><title>Bsc</title><path d="M8.11586 10.4041L12 6.51994L15.8861 10.4058L18.1461 8.14579L12 1.99992L5.85601 8.14395L8.11594 10.404L8.11586 10.4041ZM2 12L4.26009 9.73955L6.52002 11.9995L4.25993 14.2596L2 12ZM8.11586 13.596L12 17.48L15.886 13.5942L18.1472 15.853L18.1461 15.8542L12 22L5.85601 15.856L5.85281 15.8528L8.1161 13.5958L8.11586 13.596ZM17.4801 12.0009L19.7401 9.74083L22.0001 12.0008L19.7401 14.2608L17.4801 12.0009Z" fill="#F3BA2F"></path><path d="M14.2922 11.9988H14.2931L12 9.70547L10.3051 11.4L10.1104 11.5948L9.70877 11.9964L9.70557 11.9996L9.70877 12.0028L12 14.2945L14.2933 12.0012L14.2944 11.9999L14.2923 11.9988" fill="#F3BA2F"></path></svg>
