<svg width="24" height="24" viewBox="0 0 24 24" fill="none" xmlns="http://www.w3.org/2000/svg">
<path fill-rule="evenodd" clip-rule="evenodd" d="M14.2351 1.75503C13.6651 -0.585009 10.3349 -0.585009 9.76493 1.75503C9.67983 2.10666 9.51291 2.43323 9.27775 2.70816C9.04259 2.98309 8.74584 3.19862 8.41165 3.33721C8.07747 3.47579 7.71528 3.53352 7.35456 3.50569C6.99385 3.47786 6.6448 3.36526 6.33582 3.17705C4.27776 1.92303 1.92268 4.27807 3.17672 6.3361C3.98675 7.66512 3.26823 9.39915 1.75618 9.76665C-0.585393 10.3352 -0.585393 13.6667 1.75618 14.2337C2.10791 14.3189 2.43454 14.486 2.70948 14.7213C2.98441 14.9567 3.19988 15.2536 3.33834 15.588C3.47679 15.9223 3.53432 16.2847 3.50624 16.6455C3.47815 17.0063 3.36525 17.3554 3.17672 17.6643C1.92268 19.7223 4.27776 22.0773 6.33582 20.8233C6.64474 20.6348 6.99382 20.5219 7.35463 20.4938C7.71544 20.4657 8.07779 20.5233 8.41216 20.6617C8.74653 20.8002 9.04347 21.0156 9.27881 21.2906C9.51414 21.5655 9.68122 21.8921 9.76643 22.2438C10.3349 24.5854 13.6666 24.5854 14.2336 22.2438C14.3191 21.8923 14.4863 21.5659 14.7217 21.2912C14.9571 21.0164 15.254 20.8011 15.5882 20.6627C15.9225 20.5243 16.2847 20.4667 16.6454 20.4946C17.0061 20.5225 17.3552 20.6351 17.6642 20.8233C19.7222 22.0773 22.0773 19.7223 20.8233 17.6643C20.6351 17.3553 20.5225 17.0063 20.4945 16.6455C20.4666 16.2848 20.5242 15.9226 20.6626 15.5884C20.801 15.2541 21.0164 14.9572 21.2911 14.7218C21.5659 14.4865 21.8923 14.3192 22.2438 14.2337C24.5854 13.6652 24.5854 10.3337 22.2438 9.76665C21.8921 9.68144 21.5655 9.51437 21.2905 9.27904C21.0156 9.0437 20.8001 8.74677 20.6617 8.4124C20.5232 8.07804 20.4657 7.7157 20.4938 7.35489C20.5218 6.99409 20.6347 6.64501 20.8233 6.3361C22.0773 4.27807 19.7222 1.92303 17.6642 3.17705C17.3553 3.36557 17.0062 3.47848 16.6454 3.50656C16.2846 3.53464 15.9222 3.47712 15.5878 3.33866C15.2535 3.20021 14.9565 2.98474 14.7212 2.70981C14.4859 2.43488 14.3188 2.10825 14.2336 1.75653L14.2351 1.75503ZM12 16.5003C13.1935 16.5003 14.3381 16.0261 15.1821 15.1822C16.026 14.3383 16.5001 13.1937 16.5001 12.0002C16.5001 10.8067 16.026 9.66208 15.1821 8.81816C14.3381 7.97423 13.1935 7.50012 12 7.50012C10.8065 7.50012 9.66186 7.97423 8.81792 8.81816C7.97398 9.66208 7.49986 10.8067 7.49986 12.0002C7.49986 13.1937 7.97398 14.3383 8.81792 15.1822C9.66186 16.0261 10.8065 16.5003 12 16.5003Z" fill="white"/>
</svg>
