<svg width="72" height="72" viewBox="0 0 72 72" fill="none" xmlns="http://www.w3.org/2000/svg">
    <mask id="mask0_3540_34219" style="mask-type:alpha" maskUnits="userSpaceOnUse" x="0" y="0" width="72" height="72">
        <rect width="72" height="72" fill="#D9D9D9"/>
    </mask>
    <g mask="url(#mask0_3540_34219)">
        <path d="M33.0068 51H39.0068V33H33.0068V51ZM36.0068 27C36.8568 27 37.5698 26.712 38.1458 26.136C38.7198 25.562 39.0068 24.85 39.0068 24C39.0068 23.15 38.7198 22.437 38.1458 21.861C37.5698 21.287 36.8568 21 36.0068 21C35.1568 21 34.4448 21.287 33.8708 21.861C33.2948 22.437 33.0068 23.15 33.0068 24C33.0068 24.85 33.2948 25.562 33.8708 26.136C34.4448 26.712 35.1568 27 36.0068 27ZM36.0068 66C31.8568 66 27.9568 65.212 24.3068 63.636C20.6568 62.062 17.4818 59.925 14.7818 57.225C12.0818 54.525 9.94484 51.35 8.37084 47.7C6.79484 44.05 6.00684 40.15 6.00684 36C6.00684 31.85 6.79484 27.95 8.37084 24.3C9.94484 20.65 12.0818 17.475 14.7818 14.775C17.4818 12.075 20.6568 9.937 24.3068 8.361C27.9568 6.787 31.8568 6 36.0068 6C40.1568 6 44.0568 6.787 47.7068 8.361C51.3568 9.937 54.5318 12.075 57.2318 14.775C59.9318 17.475 62.0688 20.65 63.6428 24.3C65.2188 27.95 66.0068 31.85 66.0068 36C66.0068 40.15 65.2188 44.05 63.6428 47.7C62.0688 51.35 59.9318 54.525 57.2318 57.225C54.5318 59.925 51.3568 62.062 47.7068 63.636C44.0568 65.212 40.1568 66 36.0068 66ZM36.0068 60C42.6568 60 48.3198 57.663 52.9958 52.989C57.6698 48.313 60.0068 42.65 60.0068 36C60.0068 29.35 57.6698 23.687 52.9958 19.011C48.3198 14.337 42.6568 12 36.0068 12C29.3568 12 23.6948 14.337 19.0208 19.011C14.3448 23.687 12.0068 29.35 12.0068 36C12.0068 42.65 14.3448 48.313 19.0208 52.989C23.6948 57.663 29.3568 60 36.0068 60Z" fill="white" fill-opacity="0.6"/>
    </g>
</svg>
