<svg width="200" height="200" viewBox="0 0 200 200" fill="none" xmlns="http://www.w3.org/2000/svg">
<circle cx="100" cy="100" r="100" fill="#8247E5"/>
<path d="M133.055 78.3761C130.633 76.9487 127.485 76.9487 124.821 78.3761L105.93 89.3194L93.0939 96.4564L74.2033 107.399C71.7814 108.827 68.633 108.827 65.9689 107.399L50.9532 98.835C48.5313 97.4076 46.836 94.791 46.836 91.9362V75.0455C46.836 72.1908 48.2891 69.5739 50.9532 68.1465L65.7267 59.8201C68.1486 58.3928 71.297 58.3928 73.9611 59.8201L88.7347 68.1465C91.1563 69.5739 92.8518 72.1908 92.8518 75.0455V85.9888L105.688 78.614V67.6708C105.688 64.8159 104.235 62.1991 101.571 60.7717L74.2033 45.0705C71.7814 43.6432 68.633 43.6432 65.9689 45.0705L38.1172 60.7717C35.4531 62.1991 34 64.8159 34 67.6708V99.3111C34 102.166 35.4531 104.783 38.1172 106.21L65.9689 121.911C68.3907 123.339 71.5392 123.339 74.2033 121.911L93.0939 111.206L105.93 103.831L124.821 93.1257C127.243 91.6983 130.391 91.6983 133.055 93.1257L147.829 101.452C150.25 102.879 151.946 105.497 151.946 108.351V125.242C151.946 128.097 150.493 130.713 147.829 132.141L133.055 140.705C130.633 142.132 127.485 142.132 124.821 140.705L110.047 132.379C107.625 130.951 105.93 128.334 105.93 125.48V114.537L93.0939 121.911V132.854C93.0939 135.709 94.5473 138.326 97.211 139.753L125.063 155.455C127.485 156.882 130.633 156.882 133.297 155.455L161.149 139.753C163.571 138.326 165.266 135.709 165.266 132.854V101.214C165.266 98.3594 163.813 95.7428 161.149 94.3154L133.055 78.3761Z" fill="white"/>
</svg>
