<svg width="20" height="20" viewBox="0 0 20 20" fill="none" xmlns="http://www.w3.org/2000/svg">
<path id="Vector" fill-rule="evenodd" clip-rule="evenodd" d="M2.25982 16.3321C0.847494 14.6076 0 12.4028 0 10C2.46509 10 4.72209 9.10804 6.46553 7.62909L8.71434 9.87791L2.25982 16.3321ZM16.3319 2.26001L9.99985 8.5921L7.74003 6.33209C9.15236 4.60779 9.99985 2.4029 9.99985 0C12.4028 0 14.6076 0.847493 16.3319 2.25982V2.26001ZM3.53432 17.629L9.99985 11.1635L12.3708 13.5345C10.8919 15.2778 9.99985 17.5348 9.99985 20C7.53457 20 5.27777 19.108 3.53432 17.629ZM17.6288 3.53452C19.1077 5.27786 19.9998 7.53466 19.9998 10C17.5969 10 15.3921 10.8475 13.6677 12.2599L11.2856 9.87791L17.6288 3.53452ZM11.8198 19.8347C11.8575 17.936 12.5419 16.1956 13.6619 14.8253L16.4654 17.6288C15.1615 18.7349 13.5706 19.5128 11.8198 19.8347L11.8198 19.8347ZM19.8345 11.82C19.5235 13.5114 18.7869 15.054 17.7398 16.3324L14.961 13.5535C16.3095 12.498 17.9978 11.8563 19.8345 11.82ZM8.1799 0.165388C8.14357 2.00214 7.50189 3.69031 6.44644 5.03889L3.66747 2.26006C4.94587 1.21299 6.48852 0.476441 8.1799 0.165388ZM0.165193 8.1801C0.487077 6.42935 1.26496 4.83839 2.371 3.53447L5.17452 6.33798C3.80422 7.45791 2.06394 8.1424 0.165145 8.18005L0.165193 8.1801Z" fill="#E6E6E6"/>
</svg>
