<svg width="20" height="22" viewBox="0 0 20 22" fill="none" xmlns="http://www.w3.org/2000/svg">
<g id="Group">
<path id="Vector" d="M7.23328 17.6676V18.2365C7.23328 18.5997 7.30485 18.9594 7.44392 19.2949C7.58298 19.6305 7.78681 19.9353 8.04375 20.192C8.30069 20.4488 8.6057 20.6523 8.94135 20.7911C9.27701 20.9299 9.63672 21.0012 9.99994 21.0009C10.3632 21.0011 10.723 20.9297 11.0586 20.7907C11.3943 20.6518 11.6993 20.4481 11.9562 20.1913C12.2131 19.9345 12.4169 19.6296 12.556 19.294C12.695 18.9584 12.7666 18.5987 12.7666 18.2354V17.6676" stroke="#F5F5F7" stroke-width="1.5" stroke-linecap="round" stroke-linejoin="round"/>
<path id="Vector_2" d="M16.6078 17.6676C17.8678 17.6676 18.8889 16.6454 18.8889 15.3865C18.8889 14.7465 18.6333 14.1331 18.1822 13.6798L16.6666 12.1654V7.66758C16.6666 5.89947 15.9643 4.20378 14.714 2.95354C13.4638 1.70329 11.7681 1.00092 9.99997 1.00092C8.23186 1.00092 6.53617 1.70329 5.28593 2.95354C4.03569 4.20378 3.33331 5.89947 3.33331 7.66758V12.1654L1.81775 13.6798C1.36553 14.1331 1.11108 14.7465 1.11108 15.3865C1.11108 16.6465 2.13331 17.6676 3.3922 17.6676H16.6078Z" stroke="#F5F5F7" stroke-width="1.5" stroke-linecap="round" stroke-linejoin="round"/>
</g>
</svg>
