<svg width="20" height="20" viewBox="0 0 20 20" fill="none" xmlns="http://www.w3.org/2000/svg">
<path id="Vector" d="M10 0C7.34785 0 4.80429 1.0536 2.9289 2.9289C1.0536 4.80437 0 7.34785 0 10C0 12.6522 1.0536 15.1957 2.9289 17.0711C4.80437 18.9464 7.34785 20 10 20C12.6522 20 15.1957 18.9464 17.0711 17.0711C18.9464 15.1956 20 12.6522 20 10C19.9944 7.34954 18.9392 4.80903 17.0649 2.93522C15.1909 1.06098 12.6503 0.00568656 10.0002 0.000157949L10 0ZM14.772 10.6912H10C9.81674 10.6912 9.64089 10.6183 9.51131 10.4888C9.38174 10.3592 9.30892 10.1833 9.30892 10.0001V4.24005C9.30892 3.99324 9.44066 3.7651 9.65446 3.64154C9.86827 3.51813 10.1317 3.51813 10.3455 3.64154C10.5593 3.7651 10.6911 3.99325 10.6911 4.24005V9.309H14.772C15.019 9.309 15.2471 9.44074 15.3705 9.65454C15.4939 9.86834 15.4939 10.1318 15.3705 10.3456C15.2471 10.5594 15.0189 10.6912 14.772 10.6912Z" fill="#E6E6E6"/>
</svg>
