<svg width="18" height="18" viewBox="0 0 18 18" fill="none" xmlns="http://www.w3.org/2000/svg">
<g id="Group">
<path id="Path" d="M7.33249 10.6667L10.6658 7.33337" stroke="#E6E6E6" stroke-width="1.5" stroke-linecap="round" stroke-linejoin="round"/>
<path id="Path_2" d="M13.1667 13.1667L14.8333 11.5" stroke="#E6E6E6" stroke-width="1.5" stroke-linecap="round" stroke-linejoin="round"/>
<path id="Path_3" d="M14.8333 15.6667V11.5" stroke="#E6E6E6" stroke-width="1.5" stroke-linecap="round" stroke-linejoin="round"/>
<path id="Path_4" d="M11.5 16.5H5.66667C3.36548 16.5 1.5 14.6345 1.5 12.3333V5.66667C1.5 3.36548 3.36548 1.5 5.66667 1.5H12.3333C14.6345 1.5 16.5 3.36548 16.5 5.66667V8.16667" stroke="#E6E6E6" stroke-width="1.5" stroke-linecap="round" stroke-linejoin="round"/>
<path id="Path_5" d="M16.5 13.1667L14.8333 11.5" stroke="#E6E6E6" stroke-width="1.5" stroke-linecap="round" stroke-linejoin="round"/>
<path id="Path_6" d="M10.875 10.7708C10.8748 10.8281 10.8283 10.8743 10.771 10.8742C10.7138 10.8741 10.6674 10.8277 10.6674 10.7704C10.6674 10.7132 10.7138 10.6667 10.771 10.6666C10.8283 10.6665 10.8748 10.7128 10.875 10.77V10.7708" stroke="#E6E6E6" stroke-width="1.5" stroke-linecap="round" stroke-linejoin="round"/>
<path id="Path_7" d="M7.12499 7.22915C7.1252 7.17191 7.17172 7.12564 7.22896 7.12575C7.2862 7.12586 7.33255 7.17229 7.33255 7.22953C7.33255 7.28678 7.2862 7.33321 7.22896 7.33332C7.17172 7.33342 7.1252 7.28716 7.12499 7.22992V7.22915" stroke="#E6E6E6" stroke-width="1.5" stroke-linecap="round" stroke-linejoin="round"/>
</g>
</svg>
