<svg width="20" height="20" viewBox="0 0 20 20" fill="none" xmlns="http://www.w3.org/2000/svg">
<g id="Group">
<path id="Vector" d="M8.23157 0H1.36836C0.610456 0 0 0.610456 0 1.36836V8.23157C0 8.98947 0.610456 9.59992 1.36836 9.59992H8.23157C8.98947 9.59992 9.59992 8.98947 9.59992 8.23157L9.60007 1.36836C9.60007 0.610456 8.98961 0 8.23171 0H8.23157ZM2.61047 1.53682C3.22093 1.53682 3.70525 2.02099 3.70525 2.6316C3.70525 3.24205 3.22108 3.72638 2.61047 3.72638C2.00002 3.72638 1.51569 3.24221 1.51569 2.6316C1.53669 2.02114 2.02099 1.53682 2.61047 1.53682ZM2.61047 8.06318C2.00002 8.06318 1.51569 7.579 1.51569 6.9684C1.51569 6.35794 1.99986 5.87362 2.61047 5.87362C3.22093 5.87362 3.70525 6.35779 3.70525 6.9684C3.70511 7.579 3.22093 8.06318 2.61047 8.06318ZM4.79989 5.89474C4.18943 5.89474 3.7051 5.41057 3.7051 4.79996C3.7051 4.18951 4.18928 3.70518 4.79989 3.70518C5.41034 3.70518 5.89467 4.18935 5.89467 4.79996C5.89467 5.41057 5.41049 5.89474 4.79989 5.89474ZM6.96832 8.06318C6.35787 8.06318 5.87354 7.579 5.87354 6.9684C5.87354 6.35794 6.35772 5.87362 6.96832 5.87362C7.57878 5.87362 8.06311 6.35779 8.06311 6.9684C8.06311 7.579 7.57893 8.06318 6.96832 8.06318ZM6.96832 3.70525C6.35787 3.70525 5.87354 3.22108 5.87354 2.61047C5.87354 2.00002 6.35772 1.51569 6.96832 1.51569C7.57878 1.51569 8.06311 1.99986 8.06311 2.61047C8.06311 3.22108 7.57893 3.70525 6.96832 3.70525Z" fill="#E6E6E6"/>
<path id="Vector_2" d="M18.6317 10.4H11.7684C11.0105 10.4 10.4001 11.0105 10.4001 11.7684V18.6316C10.4001 19.3895 11.0105 19.9999 11.7684 19.9999H18.6317C19.3896 19.9999 20 19.3895 20 18.6316V11.7684C20 11.0105 19.3896 10.4 18.6317 10.4ZM13.0316 18.4632C12.4212 18.4632 11.9368 17.9791 11.9368 17.3685C11.9368 16.758 12.421 16.2737 13.0316 16.2737C13.6421 16.2737 14.1264 16.7579 14.1264 17.3685C14.1052 17.9789 13.6211 18.4632 13.0316 18.4632ZM13.0316 14.1053C12.4212 14.1053 11.9368 13.6211 11.9368 13.0105C11.9368 12.4001 12.421 11.9157 13.0316 11.9157C13.6421 11.9157 14.1264 12.3999 14.1264 13.0105C14.1052 13.6211 13.6211 14.1053 13.0316 14.1053ZM17.3895 18.4632C16.7791 18.4632 16.2948 17.9791 16.2948 17.3685C16.2948 16.758 16.7789 16.2737 17.3895 16.2737C18 16.2737 18.4843 16.7579 18.4843 17.3685C18.4633 17.9789 17.979 18.4632 17.3895 18.4632ZM17.3895 14.1053C16.7791 14.1053 16.2948 13.6211 16.2948 13.0105C16.2948 12.4001 16.7789 11.9157 17.3895 11.9157C18 11.9157 18.4843 12.3999 18.4843 13.0105C18.4633 13.6211 17.979 14.1053 17.3895 14.1053Z" fill="#E6E6E6"/>
<path id="Vector_3" d="M7.13681 16.4211C6.77893 16.4211 6.50519 16.7159 6.50519 17.0528V18.6949C6.50519 19.0528 6.79992 19.3265 7.13681 19.3265C7.47369 19.3265 7.76843 19.0318 7.76843 18.6949V17.0528C7.76843 16.7159 7.4737 16.4211 7.13681 16.4211Z" fill="#E6E6E6"/>
<path id="Vector_4" d="M3.72626 15.3896L2.56832 16.5476C2.31573 16.8002 2.31573 17.2002 2.56832 17.4528C2.69461 17.5791 2.86305 17.6422 3.0105 17.6422C3.15795 17.6422 3.34738 17.5791 3.45268 17.4528L4.61063 16.2948C4.86321 16.0422 4.86321 15.6422 4.61063 15.3896C4.37889 15.137 3.95788 15.137 3.7263 15.3896H3.72626Z" fill="#E6E6E6"/>
<path id="Vector_5" d="M3.5789 12.8633C3.5789 12.5054 3.28416 12.2317 2.94727 12.2317H1.28418C0.9263 12.2317 0.652557 12.5264 0.652557 12.8633C0.652557 13.2002 0.947289 13.4949 1.28418 13.4949H2.9263C3.28418 13.5159 3.5789 13.2212 3.5789 12.8633Z" fill="#E6E6E6"/>
<path id="Vector_6" d="M12.8632 3.57893C13.2211 3.57893 13.4948 3.28419 13.4948 2.9473V1.28421C13.4948 0.926331 13.2001 0.652588 12.8632 0.652588C12.5263 0.652588 12.2316 0.947319 12.2316 1.28421V2.92633C12.2316 3.28421 12.5263 3.57893 12.8632 3.57893Z" fill="#E6E6E6"/>
<path id="Vector_7" d="M15.8316 4.80005C16.0001 4.80005 16.1685 4.73691 16.2738 4.61061L17.4317 3.45267C17.6843 3.20008 17.6843 2.80007 17.4317 2.54748C17.1792 2.29488 16.7791 2.29489 16.5266 2.54748L15.3686 3.70542C15.116 3.95801 15.116 4.35802 15.3686 4.61061C15.4948 4.73691 15.6632 4.80005 15.8316 4.80005Z" fill="#E6E6E6"/>
<path id="Vector_8" d="M16.4211 7.13695C16.4211 7.49483 16.7158 7.76857 17.0527 7.76857H18.6949C19.0527 7.76857 19.3265 7.47384 19.3265 7.13695C19.3265 6.80007 19.0317 6.50533 18.6949 6.50533H17.0527C16.7159 6.48433 16.4211 6.77906 16.4211 7.13695Z" fill="#E6E6E6"/>
</g>
</svg>
