<svg width="18" height="18" viewBox="0 0 18 18" fill="none" xmlns="http://www.w3.org/2000/svg">
<g id="Group">
<path id="Path" d="M9 8.16623H13.1684" stroke="#E6E6E6" stroke-width="1.5" stroke-linecap="round" stroke-linejoin="round"/>
<path id="Path_2" d="M9 10.6673H13.1684" stroke="#E6E6E6" stroke-width="1.5" stroke-linecap="round" stroke-linejoin="round"/>
<path id="Path_3" d="M9 13.1683H13.1684" stroke="#E6E6E6" stroke-width="1.5" stroke-linecap="round" stroke-linejoin="round"/>
<path id="Path_4" d="M5.66529 3.99787H14.8358C15.7566 3.99787 16.5031 4.74437 16.5031 5.66523V14.8357C16.5031 15.7566 15.7566 16.5031 14.8358 16.5031H3.16425C2.24339 16.5031 1.49689 15.7566 1.49689 14.8357V14.8357C1.49689 13.9149 2.24339 13.1684 3.16425 13.1684H3.99793C4.91879 13.1684 5.66529 12.4219 5.66529 11.501V3.58103C5.66529 2.42995 4.73216 1.49683 3.58109 1.49683V1.49683C2.43002 1.49683 1.49689 2.42995 1.49689 3.58103V14.8357" stroke="#E6E6E6" stroke-width="1.5" stroke-linecap="round" stroke-linejoin="round"/>
</g>
</svg>
