<svg width="20" height="22" viewBox="0 0 20 22" fill="none" xmlns="http://www.w3.org/2000/svg">
<g id="Group">
<g id="Group_2">
<path id="Vector" d="M19.3966 9.9355C18.9908 9.52825 18.5079 9.31995 17.9485 9.31995C17.3891 9.31995 16.9173 9.51887 16.5112 9.9238C16.1054 10.3287 15.9078 10.8132 15.9078 11.3726C15.9078 11.9319 16.1026 12.4071 16.5002 12.8097C16.9032 13.2169 17.3889 13.4135 17.9485 13.4135C18.5081 13.4135 18.9908 13.2146 19.3966 12.8097C19.8024 12.4024 20 11.932 20 11.3726C20 10.8132 19.8024 10.3404 19.3966 9.9355Z" fill="#E6E6E6"/>
<path id="Vector_2" d="M15.4801 15.3053C14.9535 15.3053 14.5146 15.4808 14.1525 15.8436C13.7905 16.204 13.615 16.6324 13.615 17.1473C13.615 17.6645 13.7877 18.1046 14.1525 18.4767C14.5118 18.8395 14.9535 19.0127 15.4801 19.0127C15.9957 19.0127 16.4235 18.8371 16.7856 18.4767C17.1587 18.1022 17.3452 17.6645 17.3452 17.1473C17.3452 16.6324 17.1561 16.2064 16.7856 15.8436C16.4207 15.4832 15.9957 15.3053 15.4801 15.3053Z" fill="#E6E6E6"/>
<path id="Vector_3" d="M15.7545 7.96174C16.3579 7.96174 16.8845 7.74173 17.3233 7.30405C17.7622 6.86405 17.9815 6.33742 17.9815 5.72421C17.9815 5.09928 17.7619 4.57268 17.3233 4.13268C16.8955 3.70437 16.3689 3.48669 15.7545 3.48669C15.1291 3.48669 14.6025 3.70437 14.1747 4.13268C13.7358 4.57268 13.5165 5.09931 13.5165 5.72421C13.5165 6.33742 13.736 6.86402 14.1747 7.30405C14.6135 7.74173 15.1401 7.96174 15.7545 7.96174Z" fill="#E6E6E6"/>
<path id="Vector_4" d="M9.68756 17.6793C9.22671 17.6793 8.82906 17.8408 8.50282 18.1732C8.18194 18.4985 8.0202 18.8964 8.0202 19.3692C8.0202 19.8302 8.18216 20.2281 8.50282 20.5418C8.82932 20.8648 9.22697 21.0263 9.68756 21.0263C10.1594 21.0263 10.5514 20.8577 10.8723 20.5418C11.1988 20.2211 11.3659 19.8303 11.3659 19.3692C11.3659 18.8964 11.2014 18.4915 10.8723 18.1615C10.5543 17.8432 10.1594 17.6793 9.68756 17.6793Z" fill="#E6E6E6"/>
<path id="Vector_5" d="M9.68734 0.973633C9.01819 0.973633 8.44756 1.20533 7.97596 1.67579C7.50413 2.14857 7.2738 2.70795 7.2738 3.37733C7.2738 4.04671 7.5041 4.62717 7.97596 5.09992C8.44779 5.57037 9.01819 5.80207 9.68734 5.80207C10.3565 5.80207 10.9271 5.57037 11.3987 5.09992C11.8705 4.62714 12.1119 4.04668 12.1119 3.37733C12.1119 2.70798 11.8705 2.14857 11.3987 1.67579C10.9271 1.20533 10.3565 0.973633 9.68734 0.973633Z" fill="#E6E6E6"/>
<path id="Vector_6" d="M3.90565 6.83223C4.20195 6.83223 4.47581 6.73393 4.69555 6.51393C5.13464 6.07625 5.13464 5.36239 4.69555 4.92475C4.47578 4.70475 4.20195 4.60645 3.90565 4.60645C3.62035 4.60645 3.35003 4.7071 3.12672 4.92475C2.66963 5.3671 2.66963 6.07158 3.12672 6.51393C3.35003 6.73161 3.62058 6.83223 3.90565 6.83223Z" fill="#E6E6E6"/>
<path id="Vector_7" d="M3.90545 15.5309C3.49964 15.5309 3.15392 15.69 2.85222 15.9826C2.56153 16.2611 2.41336 16.6075 2.41336 17.0124C2.41336 17.4196 2.55591 17.7707 2.85222 18.0657C3.14853 18.3629 3.4996 18.515 3.90545 18.515C4.31131 18.515 4.66238 18.3629 4.95869 18.0657C5.255 17.7708 5.39755 17.4196 5.39755 17.0124C5.39755 16.6075 5.24941 16.2611 4.95869 15.9826C4.65699 15.69 4.31157 15.5309 3.90545 15.5309Z" fill="#E6E6E6"/>
<path id="Vector_8" d="M2.21624 10.4546C1.96392 10.2018 1.66762 10.0708 1.30556 10.0708C0.943496 10.0708 0.625424 10.2018 0.373103 10.4546C0.120782 10.7074 3.05176e-05 11.014 3.05176e-05 11.3768C3.05176e-05 11.7372 0.120782 12.0555 0.373103 12.3083C0.625424 12.561 0.943496 12.6828 1.30556 12.6828C1.66762 12.6828 1.96369 12.561 2.21624 12.3083C2.46853 12.0555 2.6003 11.7372 2.6003 11.3768C2.60007 11.014 2.46853 10.7074 2.21624 10.4546Z" fill="#E6E6E6"/>
</g>
</g>
</svg>
