<svg width="140" height="24" viewBox="0 0 140 24" fill="none" xmlns="http://www.w3.org/2000/svg">
<g clip-path="url(#clip0_5_47299)">
<path d="M13.6062 -2.94847e-05L7.85413 5.75208L13.6062 11.5042L19.3583 5.75208L13.6062 -2.94847e-05Z" fill="#F5F5F7"/>
<path d="M21.4604 8.31918L15.7083 14.0713L21.4604 19.8234L27.2125 14.0713L21.4604 8.31918Z" fill="#F5F5F7"/>
<path d="M5.7521 8.31918L0 14.0713L5.7521 19.8234L11.5042 14.0713L5.7521 8.31918Z" fill="#F5F5F7"/>
<path d="M21.0194 24H13.6062H6.1929L13.6062 16.5867L21.0194 24Z" fill="#F5F5F7"/>
<path d="M43.8738 19.459L40.5964 13.6706H39.192V19.459H36.2125V4.60461H41.7882C42.9373 4.60461 43.9164 4.80692 44.7251 5.21127C45.5338 5.61562 46.1402 6.16194 46.5445 6.84996C46.9489 7.53826 47.1512 8.30764 47.1512 9.15893C47.1512 10.1377 46.8672 11.0209 46.2999 11.8084C45.7323 12.5958 44.8881 13.1385 43.7673 13.4364L47.3213 19.459H43.8738ZM39.192 11.4359H41.682C42.4904 11.4359 43.0935 11.2413 43.4907 10.8509C43.8877 10.4607 44.0865 9.91793 44.0865 9.22281C44.0865 8.54189 43.8877 8.01332 43.4907 7.63736C43.0935 7.26168 42.4904 7.0733 41.682 7.0733H39.192V11.4359Z" fill="#F5F5F7"/>
<path d="M54.9613 4.60461V19.459H51.9818V4.60461H54.9613Z" fill="#F5F5F7"/>
<path d="M69.3365 5.51979C70.5209 6.13 71.4361 6.99876 72.0818 8.1269C72.7272 9.25476 73.0499 10.5634 73.0499 12.0533C73.0499 13.5429 72.7272 14.8446 72.0818 15.9583C71.4361 17.0723 70.5209 17.9342 69.3365 18.5438C68.1516 19.1541 66.7791 19.459 65.2185 19.459H60.0259V4.60461H65.2185C66.7791 4.60461 68.1516 4.90986 69.3365 5.51979ZM68.7299 15.6498C69.5812 14.7985 70.0068 13.5997 70.0068 12.0533C70.0068 10.5068 69.5812 9.29735 68.7299 8.42477C67.8789 7.55218 66.6726 7.11589 65.112 7.11589H63.0054V16.9265H65.112C66.6726 16.9265 67.8789 16.5008 68.7299 15.6498Z" fill="#F5F5F7"/>
<path d="M80.4773 18.629C79.3137 17.9768 78.3917 17.0722 77.7107 15.9157C77.0295 14.7594 76.6891 13.4508 76.6891 11.9893C76.6891 10.542 77.0295 9.24081 77.7107 8.08428C78.3917 6.92803 79.3137 6.0235 80.4773 5.3707C81.6404 4.71844 82.9173 4.39191 84.3078 4.39191C85.7123 4.39191 86.9925 4.71844 88.149 5.3707C89.3053 6.0235 90.2204 6.92803 90.8942 8.08428C91.5681 9.24081 91.9053 10.542 91.9053 11.9893C91.9053 13.4508 91.5681 14.7594 90.8942 15.9157C90.2204 17.0722 89.3017 17.9768 88.1383 18.629C86.975 19.2818 85.6981 19.6081 84.3078 19.6081C82.9173 19.6081 81.6404 19.2818 80.4773 18.629ZM86.67 16.3413C87.3509 15.937 87.8831 15.359 88.2661 14.6068C88.6492 13.8552 88.8408 12.9826 88.8408 11.9893C88.8408 10.9964 88.6492 10.1273 88.2661 9.38224C87.8831 8.63743 87.3509 8.06654 86.67 7.66929C85.9891 7.27231 85.2017 7.07327 84.3078 7.07327C83.4139 7.07327 82.623 7.27231 81.935 7.66929C81.2467 8.06654 80.7113 8.63743 80.3282 9.38224C79.9452 10.1273 79.7535 10.9964 79.7535 11.9893C79.7535 12.9826 79.9452 13.8552 80.3282 14.6068C80.7113 15.359 81.2467 15.937 81.935 16.3413C82.623 16.7457 83.4139 16.9477 84.3078 16.9477C85.2017 16.9477 85.9891 16.7457 86.67 16.3413Z" fill="#F5F5F7"/>
<path d="M106.355 4.60461V7.00941H102.397V19.459H99.4172V7.00941H95.4589V4.60461H106.355Z" fill="#F5F5F7"/>
<path d="M120.762 4.60461V7.00941H116.804V19.459H113.824V7.00941H109.866V4.60461H120.762Z" fill="#F5F5F7"/>
<path d="M128.126 18.629C126.962 17.9768 126.04 17.0722 125.359 15.9157C124.678 14.7594 124.337 13.4508 124.337 11.9893C124.337 10.542 124.678 9.24081 125.359 8.08428C126.04 6.92803 126.962 6.0235 128.126 5.3707C129.289 4.71844 130.566 4.39191 131.956 4.39191C133.361 4.39191 134.641 4.71844 135.797 5.3707C136.954 6.0235 137.869 6.92803 138.543 8.08428C139.216 9.24081 139.554 10.542 139.554 11.9893C139.554 13.4508 139.216 14.7594 138.543 15.9157C137.869 17.0722 136.95 17.9768 135.787 18.629C134.623 19.2818 133.346 19.6081 131.956 19.6081C130.566 19.6081 129.289 19.2818 128.126 18.629ZM134.318 16.3413C134.999 15.937 135.531 15.359 135.915 14.6068C136.298 13.8552 136.489 12.9826 136.489 11.9893C136.489 10.9964 136.298 10.1273 135.915 9.38224C135.531 8.63743 134.999 8.06654 134.318 7.66929C133.638 7.27231 132.85 7.07327 131.956 7.07327C131.062 7.07327 130.271 7.27231 129.583 7.66929C128.895 8.06654 128.36 8.63743 127.977 9.38224C127.594 10.1273 127.402 10.9964 127.402 11.9893C127.402 12.9826 127.594 13.8552 127.977 14.6068C128.36 15.359 128.895 15.937 129.583 16.3413C130.271 16.7457 131.062 16.9477 131.956 16.9477C132.85 16.9477 133.638 16.7457 134.318 16.3413Z" fill="#F5F5F7"/>
</g>
<defs>
<clipPath id="clip0_5_47299">
<rect width="139.554" height="24" fill="white"/>
</clipPath>
</defs>
</svg>
