<svg width="20" height="14" viewBox="0 0 20 14" fill="none" xmlns="http://www.w3.org/2000/svg">
<g id="Group">
<path id="Path" fill-rule="evenodd" clip-rule="evenodd" d="M18.3333 9.69663V12C18.3333 12.46 17.96 12.8333 17.5 12.8333H2.49999C2.03999 12.8333 1.66666 12.46 1.66666 12V9.69663C1.66666 9.57579 1.73499 9.46579 1.84249 9.41163V9.41163C2.75666 8.95496 3.33332 8.02163 3.33332 6.99996V6.99996C3.33332 5.97829 2.75582 5.04496 1.84249 4.58829V4.58829C1.73499 4.53413 1.66666 4.42413 1.66666 4.30329V1.99996C1.66666 1.53996 2.03999 1.16663 2.49999 1.16663H17.5C17.96 1.16663 18.3333 1.53996 18.3333 1.99996V4.30329C18.3333 4.42413 18.265 4.53413 18.1575 4.58829L18.1208 4.60746C17.2275 5.07079 16.6667 5.99329 16.6667 6.99996V6.99996C16.6667 8.02079 17.2433 8.95496 18.1567 9.41163H18.1575C18.265 9.46579 18.3333 9.57579 18.3333 9.69663Z" stroke="#E6E6E6" stroke-width="1.5" stroke-linecap="round" stroke-linejoin="round"/>
<path id="Path_2" d="M7.85834 9.14164L12.025 4.97498" stroke="#E6E6E6" stroke-width="1.5" stroke-linecap="round" stroke-linejoin="round"/>
<path id="Path_3" d="M12.0825 8.87496C11.9675 8.87496 11.8742 8.96829 11.875 9.08329C11.875 9.19829 11.9683 9.29163 12.0833 9.29163C12.1983 9.29163 12.2917 9.19829 12.2917 9.08329C12.2917 8.96829 12.1983 8.87496 12.0825 8.87496" stroke="#E6E6E6" stroke-width="1.5" stroke-linecap="round" stroke-linejoin="round"/>
<path id="Path_4" d="M7.91584 4.70833C7.80084 4.70833 7.7075 4.80167 7.70834 4.91667C7.70834 5.03167 7.80167 5.125 7.91667 5.125C8.03167 5.125 8.125 5.03167 8.125 4.91667C8.125 4.80167 8.03167 4.70833 7.91584 4.70833" stroke="#E6E6E6" stroke-width="1.5" stroke-linecap="round" stroke-linejoin="round"/>
</g>
</svg>
