<svg width="18" height="18" viewBox="0 0 18 18" fill="none" xmlns="http://www.w3.org/2000/svg">
<g id="Group">
<path id="Path" d="M4.40665 11.9842C5.05832 12.6351 5.05832 13.6909 4.40665 14.3417C3.75499 14.9926 2.69915 14.9926 2.04832 14.3417C1.39665 13.6909 1.39665 12.6351 2.04832 11.9842C2.69915 11.3334 3.75499 11.3334 4.40665 11.9842" stroke="#E6E6E6" stroke-width="1.5" stroke-linecap="round" stroke-linejoin="round"/>
<path id="Path_2" d="M10.1791 1.98837C10.8308 2.6392 10.8308 3.69504 10.1791 4.34587C9.52748 4.9967 8.47164 4.9967 7.82081 4.34587C7.16915 3.69504 7.16915 2.6392 7.82081 1.98837C8.47164 1.33754 9.52831 1.33754 10.1791 1.98837" stroke="#E6E6E6" stroke-width="1.5" stroke-linecap="round" stroke-linejoin="round"/>
<path id="Path_3" d="M15.9525 11.9834C16.6042 12.6342 16.6042 13.69 15.9525 14.3409C15.3008 14.9917 14.245 14.9917 13.5942 14.3409C12.9425 13.69 12.9425 12.6342 13.5942 11.9834C14.245 11.3325 15.3008 11.3325 15.9525 11.9834" stroke="#E6E6E6" stroke-width="1.5" stroke-linecap="round" stroke-linejoin="round"/>
<path id="Path_4" fill-rule="evenodd" clip-rule="evenodd" d="M8.99945 7.33582L11.5012 9.83683L9.00016 12.3385L6.49844 9.83754L8.99945 7.33582Z" stroke="#E6E6E6" stroke-width="1.49999" stroke-linecap="round" stroke-linejoin="round"/>
<path id="Path_5" d="M13.7675 14.4843C12.5575 15.7259 10.8717 16.5001 9 16.5001C8.045 16.5001 7.14083 16.2951 6.32083 15.9334" stroke="#E6E6E6" stroke-width="1.5" stroke-linecap="round" stroke-linejoin="round"/>
<path id="Path_6" d="M2.57749 11.6267C2.11082 9.96092 2.28415 8.11842 3.21832 6.50092C3.69665 5.67175 4.32999 4.98925 5.05582 4.46008" stroke="#E6E6E6" stroke-width="1.5" stroke-linecap="round" stroke-linejoin="round"/>
<path id="Path_7" d="M10.6458 3.37842C12.3266 3.80508 13.8408 4.87758 14.7766 6.49758C15.2508 7.31842 15.5258 8.19842 15.625 9.08342" stroke="#E6E6E6" stroke-width="1.5" stroke-linecap="round" stroke-linejoin="round"/>
</g>
</svg>
