<svg width="104" height="16" viewBox="0 0 104 16" fill="none" xmlns="http://www.w3.org/2000/svg">
<g id="Group">
<path id="Vector" d="M7.87379 15.459L4.59641 9.67065H3.19197V15.459H0.212463V0.604614H5.78816C6.93732 0.604614 7.91638 0.806925 8.72508 1.21127C9.53377 1.61562 10.1402 2.16194 10.5445 2.84996C10.9489 3.53826 11.1512 4.30764 11.1512 5.15893C11.1512 6.13772 10.8672 7.02095 10.2999 7.80835C9.73226 8.59575 8.88807 9.13852 7.76731 9.43639L11.3213 15.459H7.87379ZM3.19197 7.43595H5.68195C6.49038 7.43595 7.09349 7.24128 7.49074 6.85086C7.88771 6.4607 8.08647 5.91793 8.08647 5.22281C8.08647 4.54189 7.88771 4.01332 7.49074 3.63736C7.09349 3.26168 6.49038 3.0733 5.68195 3.0733H3.19197V7.43595Z" fill="#F5F5F7"/>
<path id="Vector_2" d="M18.9613 0.604614V15.459H15.9818V0.604614H18.9613Z" fill="#F5F5F7"/>
<path id="Vector_3" d="M33.3365 1.51979C34.5209 2.13 35.4361 2.99876 36.0818 4.1269C36.7272 5.25476 37.0499 6.56336 37.0499 8.05325C37.0499 9.54287 36.7272 10.8446 36.0818 11.9583C35.4361 13.0723 34.5209 13.9342 33.3365 14.5438C32.1516 15.1541 30.7791 15.459 29.2185 15.459H24.0259V0.604614H29.2185C30.7791 0.604614 32.1516 0.909855 33.3365 1.51979ZM32.7299 11.6498C33.5812 10.7985 34.0068 9.59966 34.0068 8.05325C34.0068 6.50685 33.5812 5.29735 32.7299 4.42477C31.8789 3.55218 30.6726 3.11589 29.112 3.11589H27.0054V12.9265H29.112C30.6726 12.9265 31.8789 12.5008 32.7299 11.6498Z" fill="#F5F5F7"/>
<path id="Vector_4" d="M44.4773 14.6291C43.3137 13.9768 42.3917 13.0723 41.7107 11.9158C41.0295 10.7595 40.6891 9.4509 40.6891 7.9894C40.6891 6.5421 41.0295 5.24087 41.7107 4.08434C42.3917 2.92809 43.3137 2.02356 44.4773 1.37076C45.6404 0.718504 46.9173 0.391968 48.3078 0.391968C49.7123 0.391968 50.9925 0.718504 52.149 1.37076C53.3053 2.02356 54.2204 2.92809 54.8942 4.08434C55.5681 5.24087 55.9053 6.5421 55.9053 7.9894C55.9053 9.4509 55.5681 10.7595 54.8942 11.9158C54.2204 13.0723 53.3017 13.9768 52.1383 14.6291C50.975 15.2819 49.6981 15.6081 48.3078 15.6081C46.9173 15.6081 45.6404 15.2819 44.4773 14.6291ZM50.67 12.3414C51.3509 11.9371 51.8831 11.3591 52.2661 10.6069C52.6492 9.85525 52.8408 8.98267 52.8408 7.9894C52.8408 6.99642 52.6492 6.12738 52.2661 5.3823C51.8831 4.63749 51.3509 4.0666 50.67 3.66935C49.9891 3.27237 49.2017 3.07334 48.3078 3.07334C47.4139 3.07334 46.623 3.27237 45.935 3.66935C45.2467 4.0666 44.7113 4.63749 44.3282 5.3823C43.9452 6.12738 43.7535 6.99642 43.7535 7.9894C43.7535 8.98267 43.9452 9.85525 44.3282 10.6069C44.7113 11.3591 45.2467 11.9371 45.935 12.3414C46.623 12.7458 47.4139 12.9478 48.3078 12.9478C49.2017 12.9478 49.9891 12.7458 50.67 12.3414Z" fill="#F5F5F7"/>
<path id="Vector_5" d="M70.355 0.604614V3.00941H66.3967V15.459H63.4172V3.00941H59.4589V0.604614H70.355Z" fill="#F5F5F7"/>
<path id="Vector_6" d="M84.7622 0.604614V3.00941H80.8039V15.459H77.8244V3.00941H73.8661V0.604614H84.7622Z" fill="#F5F5F7"/>
<path id="Vector_7" d="M92.1257 14.6291C90.9621 13.9768 90.0401 13.0723 89.3592 11.9158C88.678 10.7595 88.3375 9.4509 88.3375 7.9894C88.3375 6.5421 88.678 5.24087 89.3592 4.08434C90.0401 2.92809 90.9621 2.02356 92.1257 1.37076C93.2888 0.718504 94.5657 0.391968 95.9563 0.391968C97.3607 0.391968 98.6409 0.718504 99.7974 1.37076C100.954 2.02356 101.869 2.92809 102.543 4.08434C103.217 5.24087 103.554 6.5421 103.554 7.9894C103.554 9.4509 103.217 10.7595 102.543 11.9158C101.869 13.0723 100.95 13.9768 99.7868 14.6291C98.6234 15.2819 97.3465 15.6081 95.9563 15.6081C94.5657 15.6081 93.2888 15.2819 92.1257 14.6291ZM98.3185 12.3414C98.9994 11.9371 99.5315 11.3591 99.9146 10.6069C100.298 9.85525 100.489 8.98267 100.489 7.9894C100.489 6.99642 100.298 6.12738 99.9146 5.3823C99.5315 4.63749 98.9994 4.0666 98.3185 3.66935C97.6375 3.27237 96.8501 3.07334 95.9563 3.07334C95.0624 3.07334 94.2714 3.27237 93.5834 3.66935C92.8951 4.0666 92.3597 4.63749 91.9767 5.3823C91.5936 6.12738 91.4019 6.99642 91.4019 7.9894C91.4019 8.98267 91.5936 9.85525 91.9767 10.6069C92.3597 11.3591 92.8951 11.9371 93.5834 12.3414C94.2714 12.7458 95.0624 12.9478 95.9563 12.9478C96.8501 12.9478 97.6375 12.7458 98.3185 12.3414Z" fill="#F5F5F7"/>
</g>
</svg>
