<svg width="20" height="18" viewBox="0 0 20 18" fill="none" xmlns="http://www.w3.org/2000/svg">
<path id="Vector" d="M19.9999 14.3045V3.66935C19.9999 2.87463 19.6982 2.11214 19.1608 1.54932C18.6234 0.986558 17.8943 0.669119 17.1333 0.666782H9.27499C8.9266 0.662119 8.58415 0.762168 8.28878 0.955073C7.99321 1.14798 7.75698 1.42558 7.60837 1.75466C7.54866 1.88229 7.45454 1.98894 7.33754 2.0616C7.22073 2.13426 7.08606 2.16981 6.95009 2.16379C6.81672 2.16787 6.68484 2.13232 6.56989 2.06141C6.45475 1.99069 6.36138 1.88735 6.30018 1.76341C6.15193 1.43335 5.91607 1.15439 5.62067 0.960135C5.3253 0.765674 4.98269 0.663882 4.63356 0.666797H2.86685C2.10591 0.669128 1.37674 0.986558 0.839378 1.54934C0.302012 2.11211 0.000305792 2.8746 0.000305792 3.66936V6.42834C-0.00453026 6.95928 0.127535 7.48206 0.382547 7.94128C0.63775 8.40072 1.00643 8.77991 1.45023 9.03927C1.62117 9.12669 1.76589 9.26131 1.86875 9.42838C1.97161 9.59564 2.02853 9.78913 2.03355 9.98786C2.02834 10.1876 1.97124 10.382 1.86856 10.5506C1.76589 10.7192 1.62136 10.8556 1.45023 10.9452C1.00474 11.2022 0.634398 11.581 0.379024 12.0408C0.123636 12.5008 -0.00731312 13.0246 0.000315237 13.5561V14.3306C0.000315237 15.1255 0.302016 15.8878 0.839387 16.4507C1.37675 17.0136 2.10592 17.3309 2.86685 17.3332H4.60843C4.95552 17.3355 5.29593 17.2355 5.59073 17.0445C5.88555 16.8538 6.12291 16.5796 6.27505 16.254C6.33233 16.1254 6.42441 16.0174 6.53992 15.943C6.65562 15.8688 6.78954 15.8317 6.92514 15.8364C7.05906 15.829 7.19224 15.863 7.30776 15.9343C7.42345 16.0054 7.51627 16.1107 7.57505 16.2365C7.72422 16.566 7.96026 16.8442 8.25546 17.0385C8.55065 17.2327 8.89272 17.3351 9.24167 17.3332H17.1C17.871 17.3402 18.6126 17.0233 19.158 16.4539C19.7032 15.8843 20.0065 15.11 19.9999 14.3045ZM6.94167 12.9728C6.73799 12.9728 6.5425 12.8881 6.39873 12.7374C6.25477 12.5866 6.17441 12.3821 6.17515 12.1694C6.1759 11.9564 6.25774 11.7527 6.40264 11.6031C6.54754 11.4533 6.74359 11.3699 6.94743 11.3715C7.15111 11.3731 7.34604 11.4593 7.4887 11.6112C7.63156 11.7631 7.71061 11.9681 7.70838 12.181C7.70838 12.3926 7.62728 12.5952 7.48331 12.744C7.33934 12.8928 7.14423 12.9752 6.94167 12.9728ZM6.94167 9.78766C6.73837 9.78766 6.54343 9.70316 6.39964 9.55299C6.25586 9.40282 6.17513 9.19923 6.17513 8.98689C6.17513 8.77455 6.25586 8.57096 6.39964 8.42079C6.54342 8.27062 6.73836 8.18611 6.94167 8.18611C7.14516 8.18611 7.3401 8.27062 7.48389 8.42079C7.62768 8.57095 7.7084 8.77455 7.7084 8.98689C7.7084 9.19923 7.62768 9.40281 7.48389 9.55299C7.34011 9.70315 7.14517 9.78766 6.94167 9.78766ZM6.94167 6.59353C6.73837 6.59353 6.54343 6.50922 6.39964 6.35905C6.25586 6.20889 6.17513 6.0053 6.17513 5.79276C6.17513 5.58043 6.25586 5.37683 6.39964 5.22666C6.54342 5.07648 6.73836 4.99218 6.94167 4.99218C7.14516 4.99218 7.3401 5.07649 7.48389 5.22666C7.62768 5.37682 7.7084 5.58042 7.7084 5.79276C7.7084 6.00528 7.62768 6.20887 7.48389 6.35905C7.34011 6.50922 7.14517 6.59353 6.94167 6.59353ZM15.0914 13.5558L11.0168 13.556C10.719 13.556 10.4439 13.3901 10.2951 13.1208C10.1463 12.8516 10.1463 12.5198 10.2951 12.2505C10.4439 11.9813 10.719 11.8154 11.0168 11.8154H15.0916C15.3892 11.8154 15.6643 11.9813 15.8133 12.2505C15.9621 12.5198 15.9621 12.8516 15.8133 13.1208C15.6643 13.3901 15.3892 13.556 15.0916 13.556L15.0914 13.5558ZM15.0914 9.83098L11.0168 9.83118C10.719 9.83118 10.4439 9.66528 10.2951 9.39602C10.1463 9.12657 10.1463 8.79496 10.2951 8.52571C10.4439 8.25627 10.719 8.09056 11.0168 8.09056H15.0916C15.3892 8.09056 15.6643 8.25627 15.8133 8.52571C15.9621 8.79497 15.9621 9.12657 15.8133 9.39602C15.6643 9.66528 15.3892 9.83118 15.0916 9.83118L15.0914 9.83098ZM15.0914 6.10616H11.0168C10.719 6.10616 10.4439 5.94026 10.2951 5.67101C10.1463 5.40175 10.1463 5.06995 10.2951 4.8007C10.4439 4.53144 10.719 4.36554 11.0168 4.36554H15.0916C15.3892 4.36554 15.6643 4.53144 15.8133 4.8007C15.9621 5.06995 15.9621 5.40176 15.8133 5.67101C15.6643 5.94026 15.3892 6.10616 15.0916 6.10616H15.0914Z" fill="#E6E6E6"/>
</svg>
