<svg width="19" height="18" viewBox="0 0 19 18" fill="none" xmlns="http://www.w3.org/2000/svg">
<g id="mobile_top_nav/walletconnect">
<path id="Vector" d="M5.24798 5.09554C7.5963 1.77138 11.4037 1.77138 13.752 5.09554L14.0346 5.49559C14.1521 5.66182 14.1521 5.93128 14.0346 6.09751L13.0679 7.46605C13.0091 7.54917 12.914 7.54917 12.8552 7.46605L12.4663 6.91553C10.8281 4.59649 8.17193 4.59649 6.53366 6.91553L6.11715 7.50509C6.05846 7.5882 5.96329 7.5882 5.90456 7.50509L4.93778 6.13654C4.82033 5.97032 4.82033 5.70086 4.93778 5.53463L5.24798 5.09554ZM15.7515 7.92586L16.6119 9.14385C16.7294 9.31007 16.7294 9.57953 16.6119 9.74576L12.7321 15.238C12.6147 15.4042 12.4243 15.4042 12.3069 15.238L9.55316 11.34C9.5238 11.2984 9.47621 11.2984 9.44685 11.34L6.69323 15.238C6.57581 15.4042 6.38543 15.4042 6.26801 15.238L2.38805 9.74571C2.27063 9.57948 2.27063 9.31002 2.38805 9.14379L3.24851 7.92576C3.36593 7.75958 3.5563 7.75958 3.67371 7.92576L6.42746 11.8238C6.45679 11.8654 6.50438 11.8654 6.53374 11.8238L9.28733 7.92576C9.40474 7.75958 9.59513 7.75958 9.71254 7.92576L12.4663 11.8238C12.4956 11.8654 12.5432 11.8654 12.5726 11.8238L15.3263 7.92586C15.4437 7.75964 15.6341 7.75964 15.7515 7.92586Z" fill="#F5F5F7"/>
</g>
</svg>
