<svg width="25" height="20" viewBox="0 0 25 20" fill="none" xmlns="http://www.w3.org/2000/svg">
<path d="M16.5472 0.0846905C16.4412 0.0260586 16.3289 0 16.2105 0H7.81139C7.69915 0 7.58692 0.0260586 7.48715 0.0781759L4.65005 1.59609L0.590814 4.65147L0.51599 4.72964C0.0795127 5.31596 0.11069 6.14984 0.572108 6.7101L11.5589 19.785C11.6711 19.9218 11.8332 19.9935 12.0016 19.9935C12.1699 19.9935 12.332 19.9218 12.4443 19.785L23.4435 6.69055C23.8925 6.15635 23.9423 5.36808 23.5557 4.78176C23.5246 4.73616 23.4871 4.69055 23.4248 4.63844L19.5776 1.81759L16.5472 0.0846905ZM5.16759 2.15635L7.81139 0.76873H16.2105L18.8667 2.18241L18.9727 2.23453L18.9166 2.2671L16.2416 3.85016C15.7553 3.88925 13.2798 4.07166 11.9829 4.07166C10.6859 4.07166 8.31022 3.77199 8.05457 3.73941L5.16135 2.16938L5.18629 2.15635H5.16759ZM8.16681 4.54072C8.89011 4.63192 10.7919 4.85342 11.9766 4.85342C13.1614 4.85342 15.1255 4.71661 15.9735 4.65147L17.0709 8.33225H7.20656L8.17304 4.54072H8.16681ZM1.07717 5.2443L4.56276 2.61889C4.62511 2.7101 7.46844 4.29967 7.46844 4.29967L6.43961 8.32573L0.971173 5.49837C0.996114 5.40717 1.02729 5.32248 1.07717 5.2443ZM1.49495 6.62541L6.2276 9.07492C6.37725 9.14658 6.48949 9.27036 6.57055 9.42671L10.8293 17.7329L1.49495 6.62541ZM11.9891 18.3844L7.23774 9.10749H17.0398L11.9891 18.3844ZM13.205 17.7134L17.7194 9.41368C17.7942 9.27036 17.9065 9.15961 18.0624 9.08143L22.4458 6.71661L13.2112 17.7068L13.205 17.7134ZM17.8379 8.32573L17.837 8.32284L16.6906 4.46906C16.6906 4.46906 19.4716 2.8013 19.5277 2.72964L22.9571 5.23778C23.007 5.32248 23.0444 5.41368 23.0569 5.5114L17.837 8.32284L17.8317 8.32573H17.8379Z" fill="#F5F5F7"/>
<path d="M5.16759 2.15635L7.81139 0.76873H16.2105L18.8667 2.18241L18.9727 2.23453L18.9166 2.2671L16.2416 3.85016C15.7553 3.88925 13.2798 4.07166 11.9829 4.07166C10.6859 4.07166 8.31022 3.77199 8.05457 3.73941L5.16135 2.16938L5.18629 2.15635H5.16759Z" fill="#FF6600"/>
<path d="M11.9766 4.85342C10.7952 4.85342 8.90084 4.63239 8.17304 4.54072L7.20656 8.33225H17.0709L15.9735 4.65147C15.1255 4.71661 13.1614 4.85342 11.9766 4.85342Z" fill="#FF6600"/>
<path d="M16.6906 4.46906L17.837 8.32284L23.0569 5.5114C23.0444 5.41368 23.007 5.32248 22.9571 5.23778L19.5277 2.72964C19.4716 2.8013 16.6906 4.46906 16.6906 4.46906Z" fill="#FF6600"/>
<path d="M13.205 17.7134L17.7194 9.41368C17.7942 9.27036 17.9065 9.15961 18.0624 9.08143L22.4458 6.71661L13.2112 17.7068L13.205 17.7134Z" fill="#FF6600"/>
<path d="M11.9891 18.3844L7.23774 9.10749H17.0398L11.9891 18.3844Z" fill="#FF6600"/>
<path d="M1.49495 6.62541L6.2276 9.07492C6.37725 9.14658 6.48949 9.27036 6.57055 9.42671L10.8293 17.7329L1.49495 6.62541Z" fill="#FF6600"/>
<path d="M1.07717 5.2443L4.56276 2.61889C4.62511 2.7101 7.46844 4.29967 7.46844 4.29967L6.43961 8.32573L0.971173 5.49837C0.996114 5.40717 1.02729 5.32248 1.07717 5.2443Z" fill="#FF6600"/>
</svg>
