<svg width="25" height="24" viewBox="0 0 25 24" fill="none" xmlns="http://www.w3.org/2000/svg">
<g clip-path="url(#clip0_1824_9167)">
<path d="M12.0434 12.0301L7.99195 7.97873C7.35481 7.34192 6.49085 6.98419 5.59003 6.98419C4.68921 6.98419 3.82525 7.34192 3.18811 7.97873C2.86092 8.29733 2.61595 8.69058 2.47424 9.12472C2.33253 9.55886 2.29832 10.0209 2.37453 10.4712C2.48664 11.0904 2.83268 11.6427 3.34094 12.0137C2.87722 12.3481 2.55518 12.8437 2.43802 13.4033C2.32592 13.8771 2.33594 14.3716 2.46713 14.8404C2.59832 15.3093 2.8464 15.7371 3.18811 16.0839C3.82586 16.7196 4.68959 17.0765 5.59003 17.0765C6.49047 17.0765 7.3542 16.7196 7.99195 16.0839L12.0434 12.0301ZM3.59254 15.6795C3.31937 15.4019 3.12107 15.0596 3.01621 14.6846C2.91134 14.3095 2.90334 13.914 2.99294 13.535C3.04381 13.2572 3.16619 12.9975 3.34803 12.7815C3.52987 12.5654 3.76488 12.4004 4.0299 12.3029L4.73531 12.0678L4.05576 11.7691C3.76694 11.6451 3.51347 11.4512 3.31811 11.205C3.12275 10.9587 2.99162 10.6678 2.93651 10.3583C2.87655 9.99948 2.90495 9.63143 3.01926 9.28604C3.13357 8.94065 3.33034 8.62833 3.59254 8.37611C3.85468 8.11306 4.16617 7.90434 4.50915 7.76193C4.85212 7.61951 5.21984 7.5462 5.59121 7.5462C5.96257 7.5462 6.33029 7.61951 6.67326 7.76193C7.01624 7.90434 7.32773 8.11306 7.58987 8.37611L11.2345 12.0301L7.58752 15.6795C7.32542 15.9422 7.01408 16.1506 6.67132 16.2928C6.32856 16.435 5.96112 16.5082 5.59003 16.5082C5.21894 16.5082 4.8515 16.435 4.50874 16.2928C4.16598 16.1506 3.85464 15.9422 3.59254 15.6795Z" fill="#F5F5F7"/>
<path d="M12.3655 11.7081L16.4169 7.65665C17.0537 7.01951 17.4115 6.15555 17.4115 5.25473C17.4115 4.3539 17.0537 3.48995 16.4169 2.8528C16.0986 2.52598 15.7057 2.28122 15.272 2.13953C14.8383 1.99783 14.3767 1.96341 13.9268 2.03923C13.3075 2.15088 12.755 2.49702 12.3843 3.00564C12.0494 2.54242 11.554 2.22052 10.9947 2.10272C10.5203 1.99128 10.0254 2.00231 9.55652 2.13476C9.0876 2.26721 8.66007 2.51673 8.31412 2.85986C7.67731 3.497 7.31958 4.36096 7.31958 5.26178C7.31958 6.16261 7.67731 7.02656 8.31412 7.66371L12.3655 11.7081ZM7.89793 5.25355C7.89691 4.88258 7.96955 4.5151 8.11163 4.17242C8.25371 3.82973 8.4624 3.51866 8.72561 3.25724C9.00315 2.98407 9.34547 2.78577 9.72051 2.6809C10.0956 2.57604 10.4911 2.56804 10.8701 2.65764C11.1462 2.7112 11.404 2.83463 11.6189 3.01617C11.8338 3.1977 11.9985 3.43127 12.0975 3.69459L12.3326 4.4L12.6312 3.72516C12.7556 3.43658 12.9496 3.18332 13.1958 2.98801C13.442 2.7927 13.7327 2.66142 14.0421 2.60591C14.4012 2.54657 14.7695 2.57526 15.1151 2.68953C15.4608 2.80379 15.7736 3.00021 16.0266 3.26194C16.2897 3.52408 16.4984 3.83557 16.6408 4.17855C16.7832 4.52152 16.8565 4.88924 16.8565 5.26061C16.8565 5.63197 16.7832 5.99969 16.6408 6.34266C16.4984 6.68564 16.2897 6.99713 16.0266 7.25927L12.3655 10.8992L8.71855 7.25222C8.45528 6.99036 8.24656 6.67888 8.10448 6.3358C7.96241 5.99273 7.88981 5.62488 7.89087 5.25355H7.89793Z" fill="#F5F5F7"/>
<path d="M22.2907 13.5233C22.1779 12.9044 21.832 12.3523 21.3242 11.9808C21.7873 11.6468 22.1093 11.1522 22.2272 10.5935C22.3397 10.1198 22.3299 9.62519 22.1987 9.15626C22.0675 8.68734 21.8192 8.2595 21.4771 7.91297C20.8399 7.27616 19.976 6.91843 19.0752 6.91843C18.1743 6.91843 17.3104 7.27616 16.6732 7.91297L12.6218 11.9644L16.6732 16.0275C17.3104 16.6644 18.1743 17.0221 19.0752 17.0221C19.976 17.0221 20.8399 16.6644 21.4771 16.0275C21.8061 15.7077 22.0521 15.3125 22.1939 14.8762C22.3356 14.4398 22.3689 13.9754 22.2907 13.5233ZM21.0726 15.6113C20.8105 15.8744 20.499 16.0831 20.156 16.2255C19.8131 16.3679 19.4454 16.4413 19.074 16.4413C18.7026 16.4413 18.3349 16.3679 17.9919 16.2255C17.6489 16.0831 17.3375 15.8744 17.0753 15.6113L13.4307 11.9644L17.0777 8.3174C17.3398 8.05435 17.6513 7.84563 17.9943 7.70322C18.3373 7.5608 18.705 7.48749 19.0763 7.48749C19.4477 7.48749 19.8154 7.5608 20.1584 7.70322C20.5014 7.84563 20.8129 8.05435 21.075 8.3174C21.3484 8.59482 21.5468 8.93713 21.6517 9.31221C21.7565 9.6873 21.7644 10.0829 21.6746 10.4618C21.6231 10.7394 21.5004 10.9988 21.3187 11.2147C21.1369 11.4307 20.9023 11.5958 20.6376 11.694L19.9322 11.9291L20.6071 12.2277C20.8957 12.3521 21.1489 12.5461 21.3442 12.7923C21.5395 13.0385 21.6708 13.3292 21.7263 13.6385C21.785 13.9957 21.7562 14.3618 21.6423 14.7054C21.5285 15.049 21.333 15.3599 21.0726 15.6113Z" fill="#F5F5F7"/>
<path d="M12.2997 12.2865L8.24824 16.3403C7.61158 16.977 7.25391 17.8406 7.25391 18.741C7.25391 19.6414 7.61158 20.505 8.24824 21.1418C8.51073 21.4103 8.82365 21.6243 9.16905 21.7716C9.51446 21.9189 9.88554 21.9965 10.261 22C10.4188 22 10.5763 21.985 10.7313 21.9553C11.3507 21.8437 11.9031 21.4975 12.2738 20.9889C12.6087 21.4521 13.1041 21.774 13.6634 21.8918C14.1372 22.0042 14.6317 21.9943 15.1006 21.8631C15.5695 21.7319 15.9973 21.4837 16.344 21.1418C16.9807 20.505 17.3383 19.6414 17.3383 18.741C17.3383 17.8406 16.9807 16.977 16.344 16.3403L12.2997 12.2865ZM16.7673 18.741C16.7685 19.1103 16.6967 19.4763 16.5558 19.8177C16.415 20.1591 16.2079 20.4693 15.9466 20.7303C15.6695 21.004 15.3272 21.2027 14.952 21.3076C14.5768 21.4125 14.1811 21.4201 13.8022 21.3299C13.525 21.2794 13.2656 21.158 13.0493 20.9775C12.833 20.797 12.6671 20.5636 12.5677 20.3L12.3326 19.5946L12.0339 20.2694C11.9099 20.5582 11.716 20.8117 11.4698 21.0071C11.2235 21.2024 10.9326 21.3335 10.6231 21.3886C10.2656 21.4469 9.89918 21.4175 9.55553 21.3028C9.21187 21.1881 8.90123 20.9916 8.65033 20.7303C8.38728 20.4681 8.17856 20.1566 8.03614 19.8137C7.89373 19.4707 7.82042 19.103 7.82042 18.7316C7.82042 18.3602 7.89373 17.9925 8.03614 17.6495C8.17856 17.3066 8.38728 16.9951 8.65033 16.7329L12.2997 13.0954L15.9466 16.7329C16.211 16.9959 16.4204 17.3089 16.5625 17.6537C16.7046 17.9985 16.7766 18.3681 16.7743 18.741H16.7673Z" fill="#F5F5F7"/>
</g>
<defs>
<clipPath id="clip0_1824_9167">
<rect width="19.997" height="20" fill="white" transform="translate(2.33496 2)"/>
</clipPath>
</defs>
</svg>
