<svg width="37" height="37" viewBox="0 0 37 37" fill="none" xmlns="http://www.w3.org/2000/svg">
<g id="Cricket">
<path id="Vector" d="M12.3354 29.2831C12.3354 25.1956 15.6616 21.8694 19.7491 21.8694C21.8585 21.8694 23.7541 22.7638 25.1041 24.1831L27.8454 21.4419L15.5904 9.18689L2.26287 22.5144C1.22975 23.5475 0.661621 24.92 0.661621 26.3806C0.661621 27.8413 1.23162 29.2156 2.26287 30.2469L6.7835 34.7694C7.81662 35.8025 9.18912 36.3706 10.6497 36.3706C12.1104 36.3706 13.4829 35.8006 14.516 34.7694L14.6472 34.6381C13.2297 33.2863 12.3354 31.3925 12.3354 29.2831Z" fill="#E6E6E6"/>
<path id="Vector_2" d="M35.6792 1.35313C34.1942 -0.13187 31.7773 -0.13187 30.2886 1.35313L25.6404 6.005C23.5329 4.36063 20.3042 4.47125 18.3861 6.39125L18.2417 6.53563L30.4967 18.7906L30.6392 18.6481C31.6723 17.615 32.2404 16.2425 32.2404 14.7819C32.2404 13.5294 31.7998 12.3556 31.0311 11.3919L35.6773 6.74375C37.1642 5.25688 37.1642 2.84 35.6792 1.35313Z" fill="#E6E6E6"/>
<path id="Vector_3" d="M19.7492 25.6194C17.728 25.6194 16.0854 27.2619 16.0854 29.2831C16.0854 31.3044 17.728 32.9469 19.7492 32.9469C21.7705 32.9469 23.4148 31.3044 23.4148 29.2831C23.4148 27.2619 21.7686 25.6194 19.7492 25.6194Z" fill="#E6E6E6"/>
</g>
</svg>
