<svg width="26" height="20" viewBox="0 0 26 20" fill="none" xmlns="http://www.w3.org/2000/svg">
<path id="Vector" d="M11.8574 15.5L15.8574 11.5L19.8574 15.5L21.3931 13.9643L17.3574 10L21.3216 6.03571L19.7859 4.5L15.8574 8.5L11.8574 4.5L10.3216 6.03571L14.3574 10L10.3216 13.9643L11.8574 15.5ZM0.143066 10L6.17878 1.46429C6.4883 1.03571 6.85735 0.684524 7.28592 0.410714C7.7145 0.136905 8.19069 0 8.7145 0H23.7145C24.3038 0 24.8082 0.209821 25.2279 0.629464C25.6475 1.04911 25.8574 1.55357 25.8574 2.14286V17.8571C25.8574 18.4464 25.6475 18.9509 25.2279 19.3705C24.8082 19.7902 24.3038 20 23.7145 20H8.7145C8.19069 20 7.7145 19.8631 7.28592 19.5893C6.85735 19.3155 6.4883 18.9643 6.17878 18.5357L0.143066 10ZM2.82164 10L8.32164 17.8571H23.7145V2.14286H8.32164L2.82164 10ZM23.7145 10V2.14286V17.8571V10Z" fill="#F5F5F7"/>
</svg>
