<svg width="38" height="31" viewBox="0 0 38 31" fill="none" xmlns="http://www.w3.org/2000/svg">
<g id="Football-Field">
<path id="Vector" d="M23.35 15.3013C23.35 13.4731 22.2569 11.9038 20.6931 11.1875V19.4169C22.2569 18.7006 23.35 17.1313 23.35 15.3013Z" fill="#E6E6E6"/>
<path id="Vector_2" d="M3.87812 12.1063L0.0681152 12.1194V18.5001L3.87812 18.4888V12.1063Z" fill="#E6E6E6"/>
<path id="Vector_3" d="M37.5681 12.1007H33.7581V18.4813H37.5681V12.1007Z" fill="#E6E6E6"/>
<path id="Vector_4" d="M31.8832 22.2332C31.3844 22.2332 30.9082 22.0363 30.5576 21.6838C30.2069 21.3313 30.0082 20.855 30.0082 20.3582V10.2275C30.0082 9.19253 30.8463 8.35253 31.8832 8.35253L37.5682 8.34878V5.12378C37.5682 2.54003 35.4663 0.436279 32.8807 0.436279H20.6951V7.25378C24.3569 8.10878 27.1019 11.3825 27.1019 15.3013C27.1019 19.2219 24.3569 22.4975 20.6951 23.3507V30.1738H32.8807C35.4663 30.1738 37.5682 28.07 37.5682 25.4863V22.2294L31.8832 22.2332Z" fill="#E6E6E6"/>
<path id="Vector_5" d="M14.2861 15.3013C14.2861 17.1294 15.3793 18.7007 16.943 19.415V11.1857C15.3793 11.9019 14.2861 13.4732 14.2861 15.3013Z" fill="#E6E6E6"/>
<path id="Vector_6" d="M16.9431 23.3507C13.2794 22.4957 10.5362 19.2219 10.5362 15.3013C10.5362 11.3807 13.2812 8.1069 16.945 7.2519V0.436279H4.75561C2.17186 0.436279 0.0681152 2.53815 0.0681152 5.12378V8.3694L5.74749 8.35253H5.75312C6.24999 8.35253 6.72624 8.5494 7.07686 8.90003C7.42936 9.25253 7.62811 9.72878 7.62811 10.2275V20.3582C7.62811 21.3913 6.79186 22.2313 5.75874 22.2332L0.0681152 22.25V25.4863C0.0681152 28.07 2.17186 30.1738 4.75561 30.1738H16.9412L16.9431 23.3507Z" fill="#E6E6E6"/>
</g>
</svg>
