<svg xmlns="http://www.w3.org/2000/svg" width="16" height="17" viewBox="0 0 16 17" fill="none">
  <path fill-rule="evenodd" clip-rule="evenodd" d="M6.97158 0.805453C6.88951 0.813888 6.81275 0.849973 6.75389 0.90779C6.69504 0.965608 6.6576 1.04172 6.64771 1.12363L6.47158 2.47018C5.80195 2.63119 5.17375 2.89311 4.60225 3.24289L3.52273 2.41337C3.45251 2.36036 3.36545 2.3346 3.27769 2.34087C3.18994 2.34714 3.10743 2.38501 3.04545 2.44746L2.34091 3.1463L1.64204 3.85083C1.57958 3.9128 1.54171 3.9953 1.53544 4.08306C1.52918 4.17082 1.55493 4.25788 1.60795 4.32809L2.43749 5.40761C2.08898 5.97828 1.82611 6.60704 1.66476 7.27688L0.318182 7.453C0.230789 7.46402 0.150365 7.50638 0.0918461 7.57222C0.0333272 7.63805 0.000691285 7.72288 0 7.81096V8.80525V9.79954C0.000691285 9.88761 0.0333272 9.97245 0.0918461 10.0383C0.150365 10.1041 0.230789 10.1465 0.318182 10.1575L1.66476 10.3336C1.82578 11.0033 2.08769 11.6314 2.43749 12.2029L1.60795 13.2824C1.55493 13.3526 1.52918 13.4397 1.53544 13.5274C1.54171 13.6152 1.57958 13.6977 1.64204 13.7597L2.34091 14.4585H2.34655L3.04542 15.163C3.10739 15.2255 3.1899 15.2634 3.27766 15.2696C3.36542 15.2759 3.45247 15.2501 3.52269 15.1971L4.60222 14.3676C5.17344 14.7175 5.80162 14.979 6.47155 15.1403L6.64767 16.4869C6.65869 16.5743 6.70105 16.6547 6.76688 16.7132C6.83272 16.7717 6.91755 16.8044 7.00564 16.8051H7.99996H8.99427C9.08235 16.8044 9.16718 16.7717 9.23302 16.7132C9.29885 16.6547 9.3412 16.5743 9.35222 16.4869L9.5284 15.1403C10.1983 14.979 10.8265 14.7175 11.3977 14.3676L12.4773 15.1971C12.5475 15.2501 12.6345 15.2759 12.7223 15.2696C12.8101 15.2634 12.8926 15.2255 12.9545 15.163L13.6534 14.4585L14.3579 13.7597C14.4204 13.6977 14.4583 13.6152 14.4645 13.5274C14.4708 13.4397 14.445 13.3526 14.392 13.2824L13.5625 12.2029C13.9123 11.6314 14.1742 11.0033 14.3352 10.3336L15.6818 10.1575C15.7692 10.1465 15.8496 10.1041 15.9082 10.0383C15.9667 9.97245 15.9993 9.88761 16 9.79954V8.80525V7.81096C15.9993 7.72288 15.9667 7.63805 15.9082 7.57222C15.8496 7.50638 15.7692 7.46402 15.6818 7.453L14.3352 7.27688C14.1742 6.60846 13.9123 5.97902 13.5625 5.40761L14.392 4.32809C14.445 4.25788 14.4708 4.17082 14.4645 4.08306C14.4583 3.9953 14.4204 3.9128 14.3579 3.85083L13.6534 3.1463L12.9545 2.44746C12.8926 2.38501 12.8101 2.34714 12.7223 2.34087C12.6345 2.3346 12.5475 2.36036 12.4773 2.41337L11.3977 3.24289C10.8262 2.8931 10.1981 2.63119 9.5284 2.47018L9.35225 1.12363C9.34124 1.03624 9.29888 0.955821 9.23305 0.897303C9.16722 0.838786 9.08239 0.806149 8.99431 0.805453H8H7.00567C6.99432 0.80492 6.98294 0.80492 6.97158 0.805453ZM8 5.16898C10.0038 5.16898 11.6364 6.80146 11.6364 8.80525C11.6364 10.809 10.0038 12.4415 8 12.4415C5.99451 12.4415 4.36364 10.8088 4.36364 8.80525C4.36364 6.80169 5.99451 5.16898 8 5.16898Z" fill="#E6E6E6"/>
</svg>