<svg width="39" height="39" viewBox="0 0 39 39" fill="none" xmlns="http://www.w3.org/2000/svg">
<g id="Ice-Skating">
<path id="Vector" d="M36.5112 28.682C35.4762 28.682 34.6362 29.522 34.6362 30.557C34.6362 32.6251 32.9544 34.307 30.8862 34.307H27.8825V30.5626H29.3825C32.2794 30.5626 34.6981 28.5339 35.3262 25.8264H12.2581C11.7537 25.8264 11.2737 25.6239 10.9212 25.2658L8.89061 23.1976H0.88623V28.6876C0.88623 29.7226 1.72623 30.5626 2.76123 30.5626H7.63998V34.307H2.76123C1.72623 34.307 0.88623 35.147 0.88623 36.182C0.88623 37.217 1.72623 38.057 2.76123 38.057H30.8862C35.0225 38.057 38.3862 34.6933 38.3862 30.557C38.3862 29.522 37.5462 28.682 36.5112 28.682ZM11.39 30.5626H24.1325V34.307H11.39V30.5626Z" fill="#E6E6E6"/>
<path id="Vector_2" d="M11.015 20.0101L13.0456 22.0782H35.4987V20.0007C35.4912 14.2594 31.025 12.0751 27.9762 12.0057L25.0287 12.0226C23.6394 11.9026 23.3937 10.8901 23.4369 9.9488V9.24943H17.195C16.16 9.24943 15.32 8.40943 15.32 7.37443C15.32 6.33943 16.16 5.49943 17.195 5.49943H23.4369V2.43193C23.4369 1.39693 22.5969 0.556929 21.5619 0.556929L9.53748 0.555054V8.77505C9.48498 11.0607 8.82498 12.8326 7.57436 14.0813C6.29373 15.3601 4.49561 16.0613 2.71436 16.0163H0.88623V19.4513H9.67623C10.1806 19.4494 10.6625 19.6519 11.015 20.0101Z" fill="#E6E6E6"/>
<path id="Vector_3" d="M4.92123 11.4282C5.47436 10.8751 5.75748 9.99197 5.78748 8.7301V0.553223H2.76123C2.26436 0.553223 1.78623 0.750098 1.43561 1.1026C1.08498 1.4551 0.88623 1.92947 0.88623 2.42822V12.2663H2.76498C3.61061 12.3038 4.36061 11.9907 4.92123 11.4282Z" fill="#E6E6E6"/>
</g>
</svg>
