<svg width="16" height="14" viewBox="0 0 16 14" fill="none" xmlns="http://www.w3.org/2000/svg">
<g id="Mask group">
<mask id="mask0_1862_18415" style="mask-type:luminance" maskUnits="userSpaceOnUse" x="0" y="0" width="16" height="14">
<g id="Group">
<g id="Group_2">
<path id="Vector" d="M14.6667 9.33334C14.6667 11.1743 13.1743 12.6667 11.3333 12.6667C10.7367 12.6667 10.176 12.51 9.69133 12.235C9.17804 11.9441 8.75108 11.5222 8.45396 11.0125C8.15684 10.5028 8.0002 9.92334 8 9.33334C8 8.47734 8.32267 7.69667 8.85267 7.10667C9.16496 6.75799 9.54736 6.47917 9.97484 6.28846C10.4023 6.09776 10.8652 5.99946 11.3333 6C13.1743 6 14.6667 7.49234 14.6667 9.33334Z" fill="white" stroke="white" stroke-linecap="round" stroke-linejoin="round"/>
<path id="Vector_2" d="M11.333 3V6C10.8649 5.99946 10.402 6.09776 9.97451 6.28846C9.54703 6.47917 9.16464 6.75798 8.85234 7.10667C8.30229 7.71775 7.99847 8.51115 7.99967 9.33333C7.99987 9.92334 8.15652 10.5027 8.45363 11.0125C8.75075 11.5222 9.17772 11.9441 9.69101 12.235C8.80367 12.5033 7.62567 12.6667 6.33301 12.6667C3.57167 12.6667 1.33301 11.9203 1.33301 11V3" stroke="white" stroke-linecap="round" stroke-linejoin="round"/>
<path id="Vector_3" d="M11.333 3.00004C11.333 3.92037 9.09434 4.66671 6.33301 4.66671C3.57167 4.66671 1.33301 3.92037 1.33301 3.00004C1.33301 2.07971 3.57167 1.33337 6.33301 1.33337C9.09434 1.33337 11.333 2.07971 11.333 3.00004Z" fill="white" stroke="white" stroke-linecap="round" stroke-linejoin="round"/>
<path id="Vector_4" d="M1.33301 8.33341C1.33301 9.25375 3.57167 10.0001 6.33301 10.0001C6.93534 10.0001 7.51301 9.96475 8.04767 9.89942M1.33301 5.66675C1.33301 6.58708 3.57167 7.33341 6.33301 7.33341C7.25167 7.33341 8.11267 7.25075 8.85234 7.10675" stroke="white" stroke-linecap="round" stroke-linejoin="round"/>
<path id="Vector_5" d="M12.333 10.3334L11.333 9.33337M11.333 9.33337L12.333 8.33337M11.333 9.33337L10.333 8.33337M11.333 9.33337L10.333 10.3334" stroke="black" stroke-linecap="round" stroke-linejoin="round"/>
</g>
</g>
</mask>
<g mask="url(#mask0_1862_18415)">
<path id="Vector_6" d="M0 -1H16V15H0V-1Z" fill="#FFDC7E"/>
</g>
</g>
</svg>
