<svg width="39" height="33" viewBox="0 0 39 33" fill="none" xmlns="http://www.w3.org/2000/svg">
<g id="Champion-Belt">
<path id="Vector" d="M19.3597 11.6757C18.7429 13.2375 17.5841 14.7075 15.8179 14.9025L14.6929 15.0657L15.5085 15.8607C16.8304 17.0644 16.8922 18.9263 16.476 20.5519C17.3347 20.0813 18.3604 19.5075 19.3597 19.5582C20.3554 19.5057 21.3885 20.0813 22.2454 20.5519L22.0541 19.4269C21.6904 17.6775 22.7366 16.1344 24.0285 15.0638L22.9016 14.9007C21.1279 14.7075 19.9785 13.2357 19.3597 11.6757Z" fill="#E6E6E6"/>
<path id="Vector_2" d="M33.8441 18.18C32.8072 18.18 31.9691 17.34 31.9691 16.305C31.9691 15.27 32.8072 14.43 33.8441 14.43H38.1097V9.3825C38.1097 8.53312 37.5378 7.78875 36.7184 7.57125L31.7234 6.24C30.8778 6.015 30.0959 5.54062 29.4641 4.87312C26.8072 2.0625 23.2203 0.515625 19.3634 0.515625C15.5047 0.515625 11.9178 2.0625 9.26281 4.87125C8.63094 5.53875 7.84906 6.01312 7.00531 6.23812L2.00844 7.56938C1.18906 7.78875 0.617188 8.53125 0.617188 9.3825V14.43H4.72531C5.76031 14.43 6.60031 15.27 6.60031 16.305C6.60031 17.34 5.76031 18.18 4.72531 18.18H0.617188V23.2219C0.617188 24.0713 1.18906 24.8156 2.00844 25.0331L6.99781 26.3625C7.84531 26.5894 8.62719 27.0637 9.25906 27.7312C11.9159 30.5437 15.5047 32.0925 19.3653 32.0925C23.2278 32.0925 26.8166 30.5437 29.4697 27.7331C30.1034 27.0637 30.8853 26.5894 31.7309 26.3644L36.7203 25.0331C37.5416 24.8138 38.1116 24.0713 38.1116 23.2219V18.18H33.8441ZM27.3659 17.0475L25.8322 18.5437C25.5922 18.6206 26.1322 20.745 26.1097 20.9119C26.5016 22.8319 24.8459 24.7612 22.9072 24.7162C21.6659 24.8587 20.2147 23.4206 19.2303 23.34L17.3309 24.3394C15.0584 25.6331 12.0828 23.4731 12.6097 20.9119C12.5834 20.7319 13.1328 18.6262 12.8909 18.5437L11.3572 17.0456C9.42406 15.2887 10.5584 11.7844 13.1572 11.4975C13.3166 11.415 15.5009 11.295 15.4991 11.0287L16.4422 9.1125C17.5166 6.7275 21.2009 6.72563 22.2772 9.11063C22.4028 9.2475 23.1941 11.2594 23.4378 11.19L25.5622 11.4975C28.1628 11.7863 29.3009 15.2869 27.3659 17.0475Z" fill="#E6E6E6"/>
</g>
</svg>
