<svg width="38" height="38" viewBox="0 0 38 38" fill="none" xmlns="http://www.w3.org/2000/svg">
<g id="Racket">
<path id="Vector" d="M8.54587 31.5582L6.92212 29.9326L10.014 26.8407C9.16462 25.862 8.44462 24.7988 7.88587 23.6476C7.85962 23.6738 7.84274 23.7076 7.81649 23.7338L1.95524 29.5932C0.0464941 31.5038 0.0464941 34.6107 1.95524 36.5213C2.90962 37.4757 4.16399 37.952 5.41837 37.952C6.67274 37.952 7.92712 37.4757 8.88337 36.5195L14.7427 30.6601C14.7952 30.6076 14.859 30.5738 14.9134 30.5232C13.734 29.9776 12.6334 29.2932 11.6396 28.4588L8.54587 31.5582Z" fill="#E6E6E6"/>
<path id="Vector_2" d="M30.7366 28.4007C32.8791 28.4007 34.6159 26.6639 34.6159 24.5213C34.6159 22.3788 32.8791 20.642 30.7366 20.642C28.594 20.642 26.8572 22.3788 26.8572 24.5213C26.8572 26.6639 28.594 28.4007 30.7366 28.4007Z" fill="#E6E6E6"/>
<path id="Vector_3" d="M34.4285 3.90944C29.5235 -0.999306 20.8029 -0.269931 14.9941 5.53882C12.2285 8.30444 10.5129 11.8107 10.1641 15.4126C9.80036 19.1513 10.9385 22.5469 13.3666 24.9732C15.5529 27.1594 18.491 28.2263 21.5941 28.2263C22.3854 28.2263 23.186 28.1382 23.9866 27.9994C23.4447 26.9513 23.1091 25.7813 23.1091 24.5232C23.1091 20.3157 26.5329 16.8938 30.7385 16.8938C32.7522 16.8938 34.5747 17.6926 35.9397 18.9732C38.606 13.7363 38.2141 7.69694 34.4285 3.90944Z" fill="#E6E6E6"/>
</g>
</svg>
