<svg width="36" height="29" viewBox="0 0 36 29" fill="none" xmlns="http://www.w3.org/2000/svg">
<g id="Football-Boot">
<path id="Vector" d="M29.1785 25.0112V26.3425C29.1785 27.3737 30.0222 28.2175 31.0535 28.2175C32.0847 28.2175 32.9285 27.3737 32.9285 26.3425V24.58C32.2722 24.7675 31.5785 24.8987 30.8285 24.955C30.716 24.9925 30.116 25.0112 29.1785 25.0112Z" fill="#E6E6E6"/>
<path id="Vector_2" d="M23.5535 26.3425C23.5535 27.3737 24.3972 28.2175 25.4285 28.2175C26.4597 28.2175 27.3035 27.3737 27.3035 26.3425V25.03C26.216 25.03 24.941 25.03 23.5535 25.0112V26.3425Z" fill="#E6E6E6"/>
<path id="Vector_3" d="M17.9285 26.3426C17.9285 27.3738 18.7722 28.2176 19.8035 28.2176C20.8347 28.2176 21.6785 27.3738 21.6785 26.3426V25.0113C20.4597 25.0113 19.2035 25.0113 17.9285 24.9926V26.3426Z" fill="#E6E6E6"/>
<path id="Vector_4" d="M8.55347 26.3425C8.55347 27.3737 9.39722 28.2175 10.4285 28.2175C11.4597 28.2175 12.3035 27.3737 12.3035 26.3425V24.9737C10.916 24.9737 9.64097 24.955 8.55347 24.955V26.3425Z" fill="#E6E6E6"/>
<path id="Vector_5" d="M2.92847 24.7112V26.3424C2.92847 27.3737 3.77222 28.2174 4.80347 28.2174C5.83472 28.2174 6.67847 27.3737 6.67847 26.3424V24.9549C5.70347 24.9549 5.08472 24.9549 4.99097 24.9737C4.28034 24.9737 3.58472 24.8799 2.92847 24.7112Z" fill="#E6E6E6"/>
<path id="Vector_6" d="M20.0248 21.2293L16.6048 17.7625C15.7179 16.9525 14.4785 16.4706 13.1867 16.4706H0.35791C0.35791 16.4725 0.35791 16.6 0.35791 16.6C0.35791 19.1518 2.43353 21.2275 4.98728 21.2275L20.0248 21.2293Z" fill="#E6E6E6"/>
<path id="Vector_7" d="M33.551 10.9844L30.2623 8.71374L27.3204 12.5331C26.6923 13.3525 25.511 13.5062 24.6917 12.8744C23.8704 12.2425 23.7185 11.065 24.3504 10.2437L27.1723 6.57999L25.1848 5.20937L22.136 9.16937C21.506 9.98874 20.3267 10.1425 19.5073 9.51062C18.6879 8.87874 18.5342 7.70124 19.166 6.87999L22.0948 3.07749L18.446 0.55937C18.0935 0.31562 17.6154 0.339994 17.2929 0.628744C17.036 0.857494 10.9254 6.13749 6.00166 1.18187C5.46166 0.803119 4.17166 0.300619 2.34166 1.08437C1.33666 1.59437 0.566035 2.69874 0.35791 4.06374C0.35791 4.06374 0.35791 9.02125 0.35791 12.7225H13.1867C15.4198 12.7225 17.5573 13.5531 19.2073 15.0644L25.2935 21.2312H30.3598C34.0498 21.1169 36.2848 18.0587 35.9792 15.6119C35.9792 13.7631 35.0698 12.0344 33.551 10.9844Z" fill="#E6E6E6"/>
</g>
</svg>
