<svg width="36" height="38" viewBox="0 0 36 38" fill="none" xmlns="http://www.w3.org/2000/svg">
<g id="Football-Helmet">
<path id="Vector" d="M33.1922 25.1832H26.1984V20.567H31.3359C32.1047 20.567 32.7422 19.9482 32.7422 19.1607V17.1582C32.7422 8.13948 25.3922 0.808228 16.3734 0.808228C7.35469 0.808228 0.0234375 8.13948 0.0234375 17.1582C0.0234375 20.477 1.01719 23.6457 2.87344 26.3832V29.6832C2.87344 33.9957 6.39844 37.5207 10.7297 37.5207C14.8359 37.5207 18.2484 34.2957 18.5297 30.077V28.9332L13.5066 28.9726C13.5066 30.0039 12.6628 30.8476 11.6316 30.8476C10.6003 30.8476 9.75656 30.0039 9.75656 28.9726V25.3914C9.75656 24.3601 10.6003 23.5164 11.6316 23.5164C12.6066 23.5164 13.4128 24.2664 13.4878 25.2226L18.5278 25.1832V20.567H22.4466V25.1832H18.5278L18.5297 28.9332H22.4466V35.927C22.4466 36.9582 23.2903 37.802 24.3216 37.802C30.2466 37.802 35.0653 32.9832 35.0653 27.0582C35.0672 26.027 34.2234 25.1832 33.1922 25.1832ZM26.1984 33.7895V28.9332H31.0547C30.3984 31.277 28.5609 33.1332 26.1984 33.7895Z" fill="#E6E6E6"/>
</g>
</svg>
