<svg width="20" height="20" viewBox="0 0 20 20" fill="none" xmlns="http://www.w3.org/2000/svg">
<g id="Group">
<path id="Vector" d="M1.15861 14.6875L1.52104 15.3124C1.80035 15.8012 2.24649 16.1729 2.77751 16.3595C3.30851 16.5464 3.88919 16.5356 4.4127 16.329L5.41686 15.9375C5.94467 16.343 6.52333 16.6778 7.13776 16.9333L7.3043 18.004H7.30459C7.38597 18.5629 7.6676 19.073 8.09662 19.4398C8.52561 19.8069 9.07318 20.006 9.63791 19.9999H10.3628C10.926 20.0039 11.4715 19.804 11.8989 19.4372C12.3261 19.0704 12.6066 18.5614 12.6879 18.004L12.8545 16.9332C13.4724 16.6792 14.0539 16.3444 14.5838 15.9375L15.5963 16.3293L15.596 16.329C16.1198 16.5356 16.7005 16.5464 17.2315 16.3595C17.7625 16.1729 18.2083 15.8012 18.4876 15.3123L18.8501 14.6875H18.8503C19.1352 14.1992 19.2337 13.6246 19.1282 13.0695C19.0224 12.5143 18.7196 12.0159 18.2752 11.6666L17.4419 10.9873V10.9876C17.5308 10.3267 17.5308 9.65675 17.4419 8.99582L18.2752 8.31658C18.7161 7.96636 19.016 7.46934 19.12 6.91599C19.2241 6.3629 19.1252 5.79063 18.8419 5.3041L18.4794 4.67922C18.2001 4.19036 17.754 3.81866 17.223 3.63205C16.692 3.44546 16.1113 3.45621 15.5878 3.66257L14.5836 4.06249C14.0558 3.65705 13.4772 3.32223 12.8627 3.06674L12.6962 1.99598H12.6959C12.6145 1.43708 12.3329 0.927015 11.9039 0.560201C11.4749 0.193119 10.9273 -0.0059721 10.3626 0.000136508H9.6377C9.07444 -0.00393245 8.52893 0.196029 8.10162 0.56282C7.67438 0.929612 7.39391 1.43856 7.31256 1.996L7.14603 3.06675C6.5287 3.32165 5.94715 3.65647 5.41672 4.06251L4.40415 3.67072L4.40444 3.67101C3.8807 3.46437 3.29998 3.45361 2.76903 3.6405C2.23803 3.82709 1.79217 4.19882 1.51286 4.68766L1.15043 5.31254H1.15014C0.865309 5.80082 0.766782 6.37541 0.87228 6.93054C0.978075 7.48567 1.28092 7.98411 1.72533 8.33344L2.55858 9.01267V9.01238C2.46965 9.6733 2.46965 10.3432 2.55858 11.0042L1.72533 11.6834C1.28646 12.0331 0.987964 12.5289 0.883887 13.0802C0.78013 13.6316 0.87756 14.2018 1.15861 14.6875ZM2.76701 12.975L3.99208 11.9917H3.99179C4.24029 11.7923 4.35364 11.4689 4.2836 11.1582C4.12811 10.3827 4.12811 9.58377 4.2836 8.80833C4.35364 8.49763 4.24029 8.17415 3.99179 7.97507L2.76672 6.99182L2.76701 6.99153C2.50049 6.78082 2.42957 6.40617 2.60018 6.11266L2.96261 5.48779V5.4875C3.1306 5.19831 3.48344 5.07304 3.79617 5.19162L5.26714 5.76244H5.26685C5.55197 5.86678 5.87139 5.80778 6.1004 5.6084C6.68954 5.08466 7.37808 4.68504 8.12532 4.43333C8.42207 4.33539 8.63947 4.07962 8.68772 3.77096L8.92517 2.21688V2.21659C8.99143 1.88061 9.29603 1.64576 9.63782 1.66669H10.3627C10.7022 1.66698 10.9905 1.91461 11.0419 2.25001L11.2794 3.80409C11.3279 4.11304 11.545 4.36881 11.8421 4.46676C12.589 4.71845 13.2778 5.11808 13.867 5.64182C14.096 5.84092 14.4151 5.90021 14.7002 5.79586L16.1712 5.22504C16.4839 5.10646 16.8365 5.23143 17.0045 5.52092L17.3628 6.1458C17.5343 6.43847 17.4651 6.81311 17.2003 7.02496L15.9753 8.00821C15.7268 8.20759 15.6134 8.53108 15.6835 8.84177C15.8393 9.61721 15.8393 10.4162 15.6835 11.1916C15.6134 11.5023 15.7268 11.8258 15.9753 12.0249L17.2003 13.0081V13.0084C17.4651 13.22 17.5357 13.5935 17.3669 13.8873L17.0045 14.5122V14.5124C16.8365 14.8016 16.4839 14.9269 16.1712 14.8083L14.7002 14.2375C14.4151 14.1332 14.096 14.1922 13.867 14.3915C13.2781 14.9161 12.5893 15.3158 11.8421 15.5666C11.545 15.6645 11.3279 15.9203 11.2794 16.229L11.0419 17.7499C10.9905 18.0853 10.7022 18.3329 10.3627 18.3332H9.63782C9.29835 18.3329 9.01003 18.0853 8.95859 17.7499L8.72114 16.1958C8.6726 15.8868 8.45549 15.6311 8.15845 15.5331C7.41151 15.2814 6.72267 14.8818 6.13354 14.3581C5.90451 14.159 5.58538 14.0997 5.30028 14.204L3.82931 14.7748C3.51658 14.8917 3.16519 14.767 2.99605 14.479L2.63362 13.8541C2.45517 13.5681 2.51183 13.195 2.76701 12.975Z" fill="#F5F5F7"/>
<path id="Vector_2" d="M10.0004 13.3333C10.8845 13.3333 11.7323 12.9819 12.3575 12.357C12.9824 11.7319 13.3338 10.884 13.3338 9.9999C13.3338 9.11575 12.9824 8.26799 12.3575 7.64276C11.7323 7.01789 10.8845 6.6665 10.0004 6.6665C9.11624 6.6665 8.26847 7.01789 7.64325 7.64276C7.01837 8.26793 6.66699 9.11575 6.66699 9.9999C6.66699 10.884 7.01838 11.7318 7.64325 12.357C8.26842 12.9819 9.11624 13.3333 10.0004 13.3333ZM10.0004 8.33339C10.4425 8.33339 10.8662 8.50894 11.179 8.82138C11.4914 9.13411 11.6669 9.55786 11.6669 9.99994C11.6669 10.442 11.4914 10.8658 11.179 11.1785C10.8662 11.4909 10.4425 11.6665 10.0004 11.6665C9.5583 11.6665 9.13454 11.4909 8.82182 11.1785C8.50938 10.8658 8.33383 10.442 8.33383 9.99994C8.33383 9.55786 8.50938 9.1341 8.82182 8.82138C9.13455 8.50894 9.5583 8.33339 10.0004 8.33339Z" fill="#F5F5F7"/>
</g>
</svg>
