<svg width="100" height="101" viewBox="0 0 100 101" fill="none" xmlns="http://www.w3.org/2000/svg">
<g id="fluent-emoji:ticket">
<g id="Group">
<g id="Group_2" filter="url(#filter0_ii_467_16408)">
<path id="Vector" d="M87.0532 27.9144H71.0845C70.3032 27.9144 69.647 28.4457 69.4282 29.1957C68.8345 31.2269 66.9282 32.7269 64.7095 32.7269C62.4907 32.7269 60.5845 31.2582 59.9907 29.1957C59.892 28.8308 59.6768 28.5082 59.3778 28.2769C59.0788 28.0456 58.7124 27.9183 58.3345 27.9144H13.2407C9.45947 27.9144 6.39697 30.9769 6.39697 34.7582V66.8519C6.39697 70.6332 9.45947 73.6957 13.2407 73.6957H58.3345C59.1157 73.6957 59.772 73.1644 59.9907 72.4144C60.5845 70.3832 62.4907 68.8832 64.7095 68.8832C66.9282 68.8832 68.8345 70.3519 69.4282 72.4144C69.647 73.1644 70.3032 73.6957 71.0845 73.6957H87.0532C90.8345 73.6957 93.897 70.6332 93.897 66.8519V34.7582C93.897 30.9769 90.8345 27.9144 87.0532 27.9144ZM64.7095 63.4457C61.9907 63.4457 59.772 61.2269 59.772 58.5082C59.772 55.7894 61.9907 53.5707 64.7095 53.5707C67.4282 53.5707 69.647 55.7894 69.647 58.5082C69.647 61.2269 67.4282 63.4457 64.7095 63.4457ZM64.7095 48.0707C61.9907 48.0707 59.772 45.8519 59.772 43.1332C59.772 40.4144 61.9907 38.1957 64.7095 38.1957C67.4282 38.1957 69.647 40.4144 69.647 43.1332C69.647 45.8519 67.4282 48.0707 64.7095 48.0707Z" fill="#FFDC7E"/>
</g>
<path id="Vector_2" d="M49.0532 57.4144H19.5532C19.3234 57.4144 19.0958 57.3692 18.8835 57.2812C18.6712 57.1933 18.4783 57.0644 18.3158 56.9019C18.1533 56.7394 18.0244 56.5464 17.9364 56.3341C17.8485 56.1218 17.8032 55.8942 17.8032 55.6644C17.8032 55.4346 17.8485 55.207 17.9364 54.9947C18.0244 54.7824 18.1533 54.5895 18.3158 54.427C18.4783 54.2645 18.6712 54.1356 18.8835 54.0476C19.0958 53.9597 19.3234 53.9144 19.5532 53.9144H49.022C49.9907 53.9144 50.772 54.6957 50.772 55.6644C50.7761 55.8928 50.7347 56.1196 50.6502 56.3318C50.5657 56.5439 50.4398 56.7371 50.2797 56.9C50.1197 57.0629 49.9289 57.1923 49.7183 57.2807C49.5077 57.369 49.2816 57.4145 49.0532 57.4144ZM49.0532 64.3207H19.5532C19.0891 64.3207 18.644 64.1363 18.3158 63.8081C17.9876 63.4799 17.8032 63.0348 17.8032 62.5707C17.8032 62.1065 17.9876 61.6614 18.3158 61.3332C18.644 61.0051 19.0891 60.8207 19.5532 60.8207H49.022C49.9907 60.8207 50.772 61.6019 50.772 62.5707C50.8032 63.5082 49.9907 64.3207 49.0532 64.3207Z" fill="#9E68FF"/>
<path id="Vector_3" d="M33.1782 42.8207H20.4595C20.1106 42.8207 19.7652 42.752 19.443 42.6185C19.1207 42.485 18.8279 42.2893 18.5812 42.0427C18.3346 41.796 18.1389 41.5032 18.0054 41.1809C17.8719 40.8587 17.8032 40.5133 17.8032 40.1644C17.8032 39.8156 17.8719 39.4702 18.0054 39.1479C18.1389 38.8257 18.3346 38.5328 18.5812 38.2862C18.8279 38.0395 19.1207 37.8439 19.443 37.7104C19.7652 37.5769 20.1106 37.5082 20.4595 37.5082H33.1782C34.647 37.5082 35.8345 38.6957 35.8345 40.1644C35.8345 41.6644 34.647 42.8207 33.1782 42.8207ZM85.897 52.8832H78.9595C77.8345 52.8832 76.9282 53.7894 76.9282 54.9144V61.8519C76.9282 62.9769 77.8345 63.8832 78.9595 63.8832H85.897C87.022 63.8832 87.9282 62.9769 87.9282 61.8519V54.9144C87.9282 53.7894 87.022 52.8832 85.897 52.8832Z" fill="#6600FF"/>
</g>
</g>
<defs>
<filter id="filter0_ii_467_16408" x="6.39697" y="27.6144" width="87.5" height="46.3813" filterUnits="userSpaceOnUse" color-interpolation-filters="sRGB">
<feFlood flood-opacity="0" result="BackgroundImageFix"/>
<feBlend mode="normal" in="SourceGraphic" in2="BackgroundImageFix" result="shape"/>
<feColorMatrix in="SourceAlpha" type="matrix" values="0 0 0 0 0 0 0 0 0 0 0 0 0 0 0 0 0 0 127 0" result="hardAlpha"/>
<feOffset dy="0.3"/>
<feGaussianBlur stdDeviation="0.5"/>
<feComposite in2="hardAlpha" operator="arithmetic" k2="-1" k3="1"/>
<feColorMatrix type="matrix" values="0 0 0 0 0.866667 0 0 0 0 0.745098 0 0 0 0 0.270588 0 0 0 1 0"/>
<feBlend mode="normal" in2="shape" result="effect1_innerShadow_467_16408"/>
<feColorMatrix in="SourceAlpha" type="matrix" values="0 0 0 0 0 0 0 0 0 0 0 0 0 0 0 0 0 0 127 0" result="hardAlpha"/>
<feOffset dy="-0.3"/>
<feGaussianBlur stdDeviation="0.5"/>
<feComposite in2="hardAlpha" operator="arithmetic" k2="-1" k3="1"/>
<feColorMatrix type="matrix" values="0 0 0 0 0.815686 0 0 0 0 0.588235 0 0 0 0 0.286275 0 0 0 1 0"/>
<feBlend mode="normal" in2="effect1_innerShadow_467_16408" result="effect2_innerShadow_467_16408"/>
</filter>
</defs>
</svg>
