<svg width="14" height="14" viewBox="0 0 14 14" fill="none" xmlns="http://www.w3.org/2000/svg">
<g id="Trophy">
<path id="Vector" d="M13.0002 1.39471H11.4215V1.00004C11.4215 0.632041 11.1228 0.333374 10.7548 0.333374H3.24816C2.88016 0.333374 2.5815 0.632041 2.5815 1.00004V1.39471H1.00016C0.632163 1.39471 0.333496 1.69337 0.333496 2.06137V5.15404C0.333496 6.39137 1.34083 7.39871 2.57883 7.39871H2.97083C3.43883 8.44004 4.29683 9.26737 5.36016 9.69471V10.8267H4.88816C3.7715 10.8267 2.86216 11.7354 2.86216 12.8527C2.81016 13.2667 3.0915 13.6707 3.52883 13.6667H10.4742C10.8422 13.6667 11.1408 13.368 11.1408 13C11.2135 11.834 10.2908 10.822 9.11483 10.8267H8.64283V9.69471C9.7055 9.26737 10.5635 8.44004 11.0322 7.39871H11.4222C12.6595 7.39871 13.6668 6.39137 13.6668 5.15404V2.06137C13.6668 1.69337 13.3682 1.39471 13.0002 1.39471ZM2.57883 6.06537C2.07616 6.06537 1.66683 5.65671 1.66683 5.15404V2.72804H2.5815V5.59404C2.5815 5.75337 2.59083 5.91071 2.6075 6.06537H2.57883ZM12.3335 5.15404C12.3335 5.65671 11.9248 6.06537 11.4222 6.06537H11.3962C11.4128 5.91071 11.4222 5.75337 11.4222 5.59404V2.72804H12.3335V5.15404Z" fill="#B9FF6E"/>
</g>
</svg>
