<svg width="18" height="20" viewBox="0 0 18 20" fill="none" xmlns="http://www.w3.org/2000/svg">
<g id="Group 51">
<path id="binancedex" d="M10.9255 16.6069V18.8526L8.97082 20.0019L7.07453 18.8526V16.6069L8.97082 17.7562L10.9255 16.6069ZM0.465332 8.84749L2.36162 9.99768V13.8477L5.63795 15.8024V18.0435L0.465332 14.997V8.84749ZM17.4772 8.84749V14.997L12.2472 18.0435V15.8024L15.5226 13.8477V9.99768L17.4772 8.84749ZM12.2472 5.80194L14.2009 6.9512V9.1932L10.9255 11.1469V15.0526L9.02829 16.2019L7.132 15.0526V11.1469L3.74167 9.1932V6.9512L5.69542 5.80194L8.97082 7.75569L12.2472 5.80194ZM3.74167 10.8022L5.63795 11.9514V14.1925L3.74167 13.0432V10.8022ZM14.2009 10.8022V13.0432L12.3046 14.1925V11.9514L14.2009 10.8022ZM2.36162 3.85097L4.31908 4.99745L2.3644 6.14672V8.38778L0.468112 7.23852V4.99745L2.36162 3.85097ZM15.58 3.85097L17.5347 5.00023V7.2413L15.58 8.39056V6.14672L13.68 4.99745L15.58 3.85097ZM8.97082 3.85097L10.9255 5.00023L8.97082 6.1495L7.07453 5.00023L8.97082 3.85097ZM8.97082 0L14.2009 3.04648L12.3046 4.19574L9.02829 2.24107L5.69171 4.19574L3.79542 3.04648L8.97082 0Z" fill="#F3BA2F"/>
</g>
</svg>
