<svg width="24" height="20" viewBox="0 0 24 20" fill="none" xmlns="http://www.w3.org/2000/svg">
<g clip-path="url(#clip0_1420_7710)">
<path d="M23.37 5.57744C23.4136 5.61653 23.4012 5.68819 23.3513 5.71425L17.1845 8.54812C17.0473 8.60676 16.8977 8.63933 16.748 8.63933H7.06446C6.92104 8.63933 6.77139 8.60676 6.64045 8.54812L0.448711 5.67516C0.398828 5.6491 0.386357 5.57744 0.430005 5.53835L3.90311 2.37223C3.99665 2.28754 4.36453 2.06604 4.36453 2.06604L7.56329 4.03998C7.69423 4.09861 7.83764 4.12467 7.98729 4.12467H15.6443C15.7815 4.12467 15.9187 4.09861 16.0496 4.0465L19.6599 2.26148C19.6599 2.26148 19.7223 2.25497 19.7472 2.27451L23.37 5.57093V5.57744Z" fill="#00E5E7"/>
<path d="M11.8349 19.7273L0.60498 6.3397L6.64083 8.6068H17.3033L23.015 6.30712L11.8349 19.7273ZM16.1373 0.385299H7.56367L4.61433 2.22243C4.61433 2.22243 7.73203 4.46347 11.81 4.46347C15.8879 4.46347 19.1615 3.42113 19.1615 2.18334C19.1615 1.81852 16.1373 0.378784 16.1373 0.378784V0.385299Z" fill="#00AEF1"/>
<path d="M11.8409 18.8869L6.59072 8.79571C6.57201 8.76313 6.59072 8.71753 6.63437 8.71753H17.3156C17.353 8.71753 17.3779 8.76313 17.3592 8.79571L11.9282 18.8869C11.9095 18.926 11.8596 18.9195 11.8409 18.8869Z" fill="#00F2B8"/>
<path d="M16.6921 3.65567L10.6001 0.235474L12.6391 0.248503L17.6586 3.25176L16.6921 3.65567Z" fill="#FAFCFF"/>
<path d="M3.49818 7.41458L2.09521 6.45693L4.38984 2.14423L5.78656 3.10188L3.49818 7.41458Z" fill="#FAFCFF"/>
<path d="M12.5706 18.8348H11.124L12.9946 8.71753H14.4412L12.5706 18.8348Z" fill="#FAFCFF"/>
<path d="M19.9594 10.2289L19.0054 11.1279L19.71 7.78592L20.8698 7.1084L19.9594 10.2289Z" fill="#FAFCFF"/>
<path d="M17.1845 8.5416L15.4573 8.64584L14.4409 4.46343L16.112 4.26147L17.1845 8.5416Z" fill="#FAFCFF"/>
<path d="M22.2789 6.30708L21.4122 6.84128L18.6499 3.10838L19.4605 2.73053L22.2789 6.30708Z" fill="#FAFCFF"/>
<path d="M16.3802 0.0856061C16.2742 0.0269742 16.1619 0.000915527 16.0435 0.000915527H7.6444C7.53216 0.000915527 7.41992 0.0269742 7.32016 0.0790914L4.48306 1.59701L0.423822 4.65238L0.348998 4.73056C-0.0874795 5.31688 -0.0563026 6.15075 0.405116 6.71101L11.3919 19.7859C11.5041 19.9227 11.6662 19.9944 11.8346 19.9944C12.0029 19.9944 12.1651 19.9227 12.2773 19.7859L23.2765 6.69147C23.7255 6.15727 23.7753 5.36899 23.3887 4.78267C23.3576 4.73707 23.3202 4.69147 23.2578 4.63935L19.4106 1.81851L16.3802 0.0856061ZM5.0006 2.15727L7.6444 0.769645H16.0435L18.6997 2.18333L18.8057 2.23544L18.7496 2.26802L16.0746 3.85108C15.5883 3.89017 13.1128 4.07258 11.8159 4.07258C10.5189 4.07258 8.14323 3.7729 7.88758 3.74033L4.99436 2.1703L5.0193 2.15727H5.0006ZM7.99982 4.54163C8.72312 4.63284 10.6249 4.85434 11.8096 4.85434C12.9944 4.85434 14.9585 4.71753 15.8065 4.65238L16.9039 8.33316H7.03957L8.00605 4.54163H7.99982ZM0.910182 5.24521L4.39576 2.61981C4.45812 2.71101 7.30145 4.30059 7.30145 4.30059L6.27261 8.32665L0.804181 5.49929C0.829122 5.40808 0.860299 5.32339 0.910182 5.24521ZM1.32795 6.62632L6.06061 9.07583C6.21026 9.1475 6.3225 9.27127 6.40356 9.42763L10.6623 17.7338L1.32795 6.62632ZM11.8221 18.3853L7.07074 9.10841H16.8728L11.8221 18.3853ZM13.038 17.7143L17.5524 9.4146C17.6273 9.27127 17.7395 9.16052 17.8954 9.08235L22.2788 6.71753L13.0442 17.7078L13.038 17.7143ZM17.6709 8.32665L16.5236 4.46997C16.5236 4.46997 19.3046 2.80222 19.3607 2.73056L22.7901 5.2387C22.84 5.32339 22.8774 5.4146 22.8899 5.51232L17.6647 8.32665H17.6709Z" fill="#212330"/>
</g>
<defs>
<clipPath id="clip0_1420_7710">
<rect width="24" height="20" fill="white" transform="translate(0 0.000915527)"/>
</clipPath>
</defs>
</svg>
