<svg width="21" height="21" viewBox="0 0 21 21" fill="none" xmlns="http://www.w3.org/2000/svg">
<path d="M18.75 7.6765C18.7497 7.40656 18.6423 7.14778 18.4514 6.9569C18.2605 6.76603 18.0018 6.65865 17.7318 6.65832H17.0045V4.05463C17.0046 3.80106 16.9444 3.55111 16.8288 3.32539C16.7133 3.09967 16.5458 2.90465 16.3401 2.7564C16.1343 2.60815 15.8963 2.51092 15.6457 2.47272C15.395 2.43453 15.1388 2.45646 14.8983 2.53672L11.9892 3.50632C11.6867 3.60757 11.4216 3.79718 11.228 4.05067C11.0344 4.30416 10.9212 4.60988 10.9031 4.92834C10.852 4.92338 10.8024 4.91287 10.75 4.91287C10.6976 4.91287 10.648 4.92338 10.5969 4.92835C10.5788 4.60989 10.4656 4.30417 10.272 4.05068C10.0784 3.79719 9.81327 3.60758 9.5108 3.50633L6.60171 2.53673C6.36118 2.45647 6.10501 2.43454 5.85434 2.47273C5.60367 2.51093 5.36566 2.60816 5.15995 2.75641C4.95424 2.90466 4.78671 3.09968 4.67117 3.3254C4.55564 3.55111 4.49541 3.80106 4.49545 4.05463V6.65832H3.76818C3.49824 6.65865 3.23946 6.76603 3.04858 6.9569C2.85771 7.14778 2.75033 7.40656 2.75 7.6765V10.0038C2.75033 10.2737 2.85771 10.5325 3.04858 10.7234C3.23946 10.9143 3.49824 11.0216 3.76818 11.022H17.7318C18.0018 11.0216 18.2605 10.9143 18.4514 10.7234C18.6423 10.5325 18.7497 10.2737 18.75 10.0038V7.6765ZM11.7682 5.02423C11.7681 4.87158 11.8161 4.72277 11.9053 4.59892C11.9945 4.47506 12.1205 4.38244 12.2653 4.3342L15.1744 3.3646C15.2838 3.32809 15.4002 3.3181 15.5142 3.33545C15.6281 3.3528 15.7363 3.397 15.8299 3.4644C15.9234 3.5318 15.9995 3.62047 16.052 3.7231C16.1045 3.82572 16.1319 3.93935 16.1318 4.05463V6.65832H12.35V6.51287C12.3492 6.27859 12.2966 6.0474 12.196 5.83581C12.0954 5.62423 11.9493 5.43748 11.7682 5.28893V5.02423ZM5.36818 4.05463C5.36812 3.93935 5.39547 3.82572 5.44797 3.72309C5.50048 3.62047 5.57663 3.5318 5.67014 3.4644C5.76366 3.397 5.87186 3.3528 5.98582 3.33544C6.09978 3.31809 6.21623 3.32808 6.32557 3.36459L9.23466 4.33419C9.37949 4.38244 9.50545 4.47506 9.59469 4.59891C9.68392 4.72277 9.7319 4.87157 9.73182 5.02423V5.28892C9.55067 5.43748 9.40458 5.62423 9.304 5.83581C9.20342 6.0474 9.15083 6.27859 9.15 6.51287V6.65832H5.36818V4.05463Z" fill="#FFDC7E"/>
<path d="M3.91364 17.5674C3.91493 17.837 4.02261 18.0953 4.21328 18.2859C4.40395 18.4766 4.66218 18.5843 4.93182 18.5856H10.3136V11.6038H3.91364V17.5674Z" fill="#FFDC7E"/>
<path d="M17.5864 17.5674V11.6038H11.1864V18.5856H16.5682C16.8378 18.5843 17.0961 18.4766 17.2867 18.2859C17.4774 18.0953 17.5851 17.837 17.5864 17.5674Z" fill="#FFDC7E"/>
</svg>
