<svg width="17" height="17" viewBox="0 0 17 17" fill="none" xmlns="http://www.w3.org/2000/svg">
<path d="M0.546125 11.5969L1.54086 12.5916C1.67574 12.7265 1.89491 12.7602 2.06351 12.659C2.63675 12.305 3.37858 12.4062 3.86752 12.8782C4.33959 13.3503 4.44075 14.0921 4.08669 14.6822C3.98553 14.8508 4.0024 15.07 4.15414 15.2049L5.16573 16.2165C5.36805 16.4188 5.6378 16.52 5.90756 16.52C6.17731 16.52 6.44707 16.4188 6.64939 16.2165L12.8032 10.0626L6.68311 3.9425L0.52927 10.0963C0.141493 10.5347 0.141489 11.1922 0.546125 11.5969Z" fill="#FFDC7E"/>
<path d="M12.3818 2.35775C12.483 2.18915 12.4661 1.96997 12.3144 1.81823L11.3196 0.823497C10.915 0.41886 10.2406 0.41886 9.83598 0.823497L7.30701 3.35247L13.4271 9.4726L15.9561 6.94362C16.3607 6.53898 16.3607 5.86459 15.9561 5.45996L14.9614 4.46523C14.8265 4.33035 14.5905 4.29663 14.4219 4.39779C13.8318 4.7687 13.0899 4.6844 12.601 4.19547C12.0952 3.68967 12.0109 2.94784 12.3818 2.35775Z" fill="#FFDC7E"/>
</svg>
