<svg width="21" height="20" viewBox="0 0 21 20" fill="none" xmlns="http://www.w3.org/2000/svg">
<g id="Tether (USDT)">
<path id="Tether (USDT)_2" d="M20.2982 12.419C18.9626 17.7762 13.5366 21.0365 8.1788 19.7006C2.82322 18.365 -0.437064 12.9387 0.899095 7.58197C2.23408 2.22419 7.66005 -1.03634 13.0162 0.299234C18.3737 1.63481 21.6338 7.0617 20.298 12.4191L20.2981 12.419H20.2982Z" fill="#50AF95"/>
<path id="Tether (USDT)_3" fill-rule="evenodd" clip-rule="evenodd" d="M11.8652 11.1339C11.7945 11.1392 11.4292 11.161 10.6142 11.161C9.96607 11.161 9.50588 11.1415 9.34442 11.1339C6.83955 11.0237 4.96989 10.5877 4.96989 10.0656C4.96989 9.54352 6.83955 9.10807 9.34442 8.99611V10.6996C9.50823 10.7114 9.97727 10.7391 10.6254 10.7391C11.4032 10.7391 11.7927 10.7067 11.8628 10.7002V8.99729C14.3624 9.10866 16.2279 9.5447 16.2279 10.0656C16.2279 10.5865 14.363 11.0225 11.8628 11.1333L11.8652 11.1339ZM11.8655 8.8211V7.29673H15.3538V4.97217H5.85644V7.29673H9.34416V8.82051C6.50932 8.95073 4.37744 9.51228 4.37744 10.1852C4.37744 10.8581 6.50932 11.4191 9.34416 11.5499V16.4347H11.8649V11.5481C14.6933 11.4179 16.8216 10.8569 16.8216 10.1846C16.8216 9.51228 14.6951 8.95132 11.8649 8.82051L11.8655 8.8211Z" fill="white"/>
</g>
</svg>
