<svg width="20" height="20" viewBox="0 0 20 20" fill="none" xmlns="http://www.w3.org/2000/svg">
<path fill-rule="evenodd" clip-rule="evenodd" d="M4.31041 0.313846C8.09191 -0.104615 11.9081 -0.104615 15.6896 0.313846C17.7555 0.544093 19.4211 2.16777 19.6637 4.23781C20.1121 8.06583 20.1121 11.933 19.6637 15.761C19.4211 17.8311 17.7555 19.4547 15.6907 19.6861C11.9089 20.1046 8.09226 20.1046 4.31041 19.6861C2.24452 19.4547 0.578975 17.8311 0.336377 15.7621C-0.112126 11.9337 -0.112126 8.06619 0.336377 4.23781C0.578975 2.16777 2.24452 0.544093 4.31041 0.313846ZM14.7976 6.71948L15.7114 5.84737V5.65514H12.5544L10.3035 11.2593L7.74485 5.65514H4.43334V5.84737L5.49946 7.12893C5.55125 7.17527 5.59135 7.23316 5.61649 7.29789C5.64164 7.36263 5.65111 7.43237 5.64415 7.50145V12.5419C5.65938 12.6314 5.65333 12.7233 5.6265 12.8101C5.59967 12.8968 5.5528 12.9761 5.48967 13.0415L4.28865 14.4968V14.6869H7.69045V14.4957L6.49052 13.0426C6.42679 12.9773 6.37878 12.8984 6.35013 12.8118C6.32148 12.7253 6.31294 12.6333 6.32516 12.543V8.18351L9.3114 14.688H9.65952L12.2237 8.18351V13.3673C12.2237 13.5052 12.2237 13.5313 12.1323 13.6225L11.2097 14.5164V14.7075H15.6886V14.5164L14.7987 13.6432C14.76 13.614 14.73 13.5747 14.712 13.5298C14.6939 13.4848 14.6886 13.4358 14.6964 13.3879V6.97471C14.6886 6.9269 14.6939 6.87787 14.712 6.83289C14.73 6.78791 14.7589 6.7487 14.7976 6.71948Z" fill="#E6E6E6"/>
</svg>
