<svg width="20" height="20" viewBox="0 0 20 20" fill="none" xmlns="http://www.w3.org/2000/svg">
<g id="Group">
<path id="Vector" d="M8.23157 0H1.36836C0.610456 0 0 0.610456 0 1.36836V8.23157C0 8.98947 0.610456 9.59992 1.36836 9.59992H8.23157C8.98947 9.59992 9.59992 8.98947 9.59992 8.23157L9.60007 1.36836C9.60007 0.610456 8.98961 0 8.23171 0H8.23157ZM2.61047 1.53682C3.22093 1.53682 3.70525 2.02099 3.70525 2.6316C3.70525 3.24205 3.22108 3.72638 2.61047 3.72638C2.00002 3.72638 1.51569 3.24221 1.51569 2.6316C1.53669 2.02114 2.02099 1.53682 2.61047 1.53682ZM2.61047 8.06318C2.00002 8.06318 1.51569 7.579 1.51569 6.9684C1.51569 6.35794 1.99986 5.87362 2.61047 5.87362C3.22093 5.87362 3.70525 6.35779 3.70525 6.9684C3.70511 7.579 3.22093 8.06318 2.61047 8.06318ZM4.79989 5.89474C4.18943 5.89474 3.7051 5.41057 3.7051 4.79996C3.7051 4.18951 4.18928 3.70518 4.79989 3.70518C5.41034 3.70518 5.89467 4.18935 5.89467 4.79996C5.89467 5.41057 5.41049 5.89474 4.79989 5.89474ZM6.96832 8.06318C6.35787 8.06318 5.87354 7.579 5.87354 6.9684C5.87354 6.35794 6.35772 5.87362 6.96832 5.87362C7.57878 5.87362 8.06311 6.35779 8.06311 6.9684C8.06311 7.579 7.57893 8.06318 6.96832 8.06318ZM6.96832 3.70525C6.35787 3.70525 5.87354 3.22108 5.87354 2.61047C5.87354 2.00002 6.35772 1.51569 6.96832 1.51569C7.57878 1.51569 8.06311 1.99986 8.06311 2.61047C8.06311 3.22108 7.57893 3.70525 6.96832 3.70525Z" fill="#6F6C75"/>
<path id="Vector_2" d="M18.6317 10.4001H11.7684C11.0105 10.4001 10.4001 11.0105 10.4001 11.7684V18.6316C10.4001 19.3896 11.0105 20 11.7684 20H18.6317C19.3896 20 20 19.3896 20 18.6316V11.7684C20 11.0105 19.3896 10.4001 18.6317 10.4001ZM13.0316 18.4633C12.4212 18.4633 11.9368 17.9791 11.9368 17.3685C11.9368 16.7581 12.421 16.2737 13.0316 16.2737C13.6421 16.2737 14.1264 16.7579 14.1264 17.3685C14.1052 17.979 13.6211 18.4633 13.0316 18.4633ZM13.0316 14.1054C12.4212 14.1054 11.9368 13.6212 11.9368 13.0106C11.9368 12.4001 12.421 11.9158 13.0316 11.9158C13.6421 11.9158 14.1264 12.4 14.1264 13.0106C14.1052 13.6212 13.6211 14.1054 13.0316 14.1054ZM17.3895 18.4633C16.7791 18.4633 16.2948 17.9791 16.2948 17.3685C16.2948 16.7581 16.7789 16.2737 17.3895 16.2737C18 16.2737 18.4843 16.7579 18.4843 17.3685C18.4633 17.979 17.979 18.4633 17.3895 18.4633ZM17.3895 14.1054C16.7791 14.1054 16.2948 13.6212 16.2948 13.0106C16.2948 12.4001 16.7789 11.9158 17.3895 11.9158C18 11.9158 18.4843 12.4 18.4843 13.0106C18.4633 13.6212 17.979 14.1054 17.3895 14.1054Z" fill="#6F6C75"/>
<path id="Vector_3" d="M7.13681 16.4212C6.77893 16.4212 6.50519 16.7159 6.50519 17.0528V18.6949C6.50519 19.0528 6.79992 19.3266 7.13681 19.3266C7.47369 19.3266 7.76843 19.0318 7.76843 18.6949V17.0528C7.76843 16.7159 7.4737 16.4212 7.13681 16.4212Z" fill="#6F6C75"/>
<path id="Vector_4" d="M3.72626 15.3896L2.56832 16.5475C2.31573 16.8001 2.31573 17.2001 2.56832 17.4527C2.69461 17.579 2.86305 17.6422 3.0105 17.6422C3.15795 17.6422 3.34738 17.579 3.45268 17.4527L4.61063 16.2948C4.86321 16.0422 4.86321 15.6422 4.61063 15.3896C4.37889 15.137 3.95788 15.137 3.7263 15.3896H3.72626Z" fill="#6F6C75"/>
<path id="Vector_5" d="M3.5789 12.8632C3.5789 12.5054 3.28416 12.2316 2.94727 12.2316H1.28418C0.9263 12.2316 0.652557 12.5264 0.652557 12.8632C0.652557 13.2001 0.947289 13.4949 1.28418 13.4949H2.9263C3.28418 13.5159 3.5789 13.2211 3.5789 12.8632Z" fill="#6F6C75"/>
<path id="Vector_6" d="M12.8632 3.57899C13.2211 3.57899 13.4948 3.28426 13.4948 2.94737V1.28427C13.4948 0.926392 13.2001 0.652649 12.8632 0.652649C12.5263 0.652649 12.2316 0.94738 12.2316 1.28427V2.92639C12.2316 3.28427 12.5263 3.57899 12.8632 3.57899Z" fill="#6F6C75"/>
<path id="Vector_7" d="M15.8316 4.80005C16.0001 4.80005 16.1685 4.73691 16.2738 4.61061L17.4317 3.45267C17.6843 3.20008 17.6843 2.80007 17.4317 2.54748C17.1792 2.29488 16.7791 2.29489 16.5266 2.54748L15.3686 3.70542C15.116 3.95801 15.116 4.35802 15.3686 4.61061C15.4948 4.73691 15.6632 4.80005 15.8316 4.80005Z" fill="#6F6C75"/>
<path id="Vector_8" d="M16.4211 7.13689C16.4211 7.49477 16.7158 7.76851 17.0527 7.76851H18.6949C19.0527 7.76851 19.3265 7.47378 19.3265 7.13689C19.3265 6.80001 19.0317 6.50527 18.6949 6.50527H17.0527C16.7159 6.48427 16.4211 6.779 16.4211 7.13689Z" fill="#6F6C75"/>
</g>
</svg>
