<svg width="20" height="20" viewBox="0 0 20 20" fill="none" xmlns="http://www.w3.org/2000/svg">
<path d="M5.40665 12.9842C6.05832 13.635 6.05832 14.6908 5.40665 15.3417C4.75499 15.9925 3.69915 15.9925 3.04832 15.3417C2.39665 14.6908 2.39665 13.635 3.04832 12.9842C3.69915 12.3333 4.75499 12.3333 5.40665 12.9842" stroke="#E6E6E6" stroke-width="1.5" stroke-linecap="round" stroke-linejoin="round"/>
<path d="M11.1791 2.98834C11.8308 3.63917 11.8308 4.69501 11.1791 5.34584C10.5275 5.99667 9.47164 5.99667 8.82081 5.34584C8.16915 4.69501 8.16915 3.63917 8.82081 2.98834C9.47164 2.33751 10.5283 2.33751 11.1791 2.98834" stroke="#E6E6E6" stroke-width="1.5" stroke-linecap="round" stroke-linejoin="round"/>
<path d="M16.9525 12.9833C17.6042 13.6342 17.6042 14.69 16.9525 15.3408C16.3008 15.9917 15.245 15.9917 14.5942 15.3408C13.9425 14.69 13.9425 13.6342 14.5942 12.9833C15.245 12.3325 16.3008 12.3325 16.9525 12.9833" stroke="#E6E6E6" stroke-width="1.5" stroke-linecap="round" stroke-linejoin="round"/>
<path fill-rule="evenodd" clip-rule="evenodd" d="M9.99945 8.33585L12.5012 10.8369L10.0002 13.3386L7.49844 10.8376L9.99945 8.33585Z" stroke="#E6E6E6" stroke-width="1.49999" stroke-linecap="round" stroke-linejoin="round"/>
<path d="M14.7675 15.4842C13.5575 16.7258 11.8717 17.5 10 17.5C9.045 17.5 8.14083 17.295 7.32083 16.9333" stroke="#E6E6E6" stroke-width="1.5" stroke-linecap="round" stroke-linejoin="round"/>
<path d="M3.57749 12.6267C3.11082 10.9608 3.28415 9.11832 4.21832 7.50082C4.69665 6.67166 5.32999 5.98916 6.05582 5.45999" stroke="#E6E6E6" stroke-width="1.5" stroke-linecap="round" stroke-linejoin="round"/>
<path d="M11.6458 4.37833C13.3266 4.80499 14.8408 5.87749 15.7766 7.49749C16.2508 8.31833 16.5258 9.19833 16.625 10.0833" stroke="#E6E6E6" stroke-width="1.5" stroke-linecap="round" stroke-linejoin="round"/>
</svg>
