<svg width="20" height="18" viewBox="0 0 20 18" fill="none" xmlns="http://www.w3.org/2000/svg">
<path id="Vector" d="M19.9999 14.3046V3.66941C19.9999 2.87469 19.6982 2.1122 19.1608 1.54939C18.6234 0.986619 17.8943 0.66918 17.1333 0.666843H9.27499C8.9266 0.66218 8.58415 0.762229 8.28878 0.955134C7.99321 1.14804 7.75698 1.42564 7.60837 1.75472C7.54866 1.88236 7.45454 1.98901 7.33754 2.06166C7.22073 2.13432 7.08606 2.16987 6.95009 2.16385C6.81672 2.16793 6.68484 2.13238 6.56989 2.06147C6.45475 1.99076 6.36138 1.88741 6.30018 1.76347C6.15193 1.43341 5.91607 1.15445 5.62067 0.960196C5.3253 0.765735 4.98269 0.663943 4.63356 0.666858H2.86685C2.10591 0.669189 1.37674 0.986619 0.839378 1.5494C0.302012 2.11217 0.000305792 2.87466 0.000305792 3.66942V6.4284C-0.00453026 6.95934 0.127535 7.48212 0.382547 7.94135C0.63775 8.40078 1.00643 8.77997 1.45023 9.03933C1.62117 9.12675 1.76589 9.26137 1.86875 9.42844C1.97161 9.5957 2.02853 9.78919 2.03355 9.98792C2.02834 10.1876 1.97124 10.3821 1.86856 10.5507C1.76589 10.7193 1.62136 10.8557 1.45023 10.9452C1.00474 11.2023 0.634398 11.5811 0.379024 12.0409C0.123636 12.5009 -0.00731312 13.0246 0.000315237 13.5562V14.3307C0.000315237 15.1256 0.302016 15.8879 0.839387 16.4507C1.37675 17.0137 2.10592 17.3309 2.86685 17.3333H4.60843C4.95552 17.3356 5.29593 17.2355 5.59073 17.0446C5.88555 16.8538 6.12291 16.5797 6.27505 16.2541C6.33233 16.1255 6.42441 16.0175 6.53992 15.9431C6.65562 15.8689 6.78954 15.8318 6.92514 15.8364C7.05906 15.829 7.19224 15.863 7.30776 15.9343C7.42345 16.0054 7.51627 16.1107 7.57505 16.2366C7.72422 16.5661 7.96026 16.8443 8.25546 17.0385C8.55065 17.2328 8.89272 17.3352 9.24167 17.3332H17.1C17.871 17.3402 18.6126 17.0234 19.158 16.454C19.7032 15.8844 20.0065 15.11 19.9999 14.3046ZM6.94167 12.9729C6.73799 12.9729 6.5425 12.8882 6.39873 12.7375C6.25477 12.5867 6.17441 12.3821 6.17515 12.1694C6.1759 11.9565 6.25774 11.7527 6.40264 11.6031C6.54754 11.4533 6.74359 11.37 6.94743 11.3716C7.15111 11.3731 7.34604 11.4594 7.4887 11.6113C7.63156 11.7632 7.71061 11.9681 7.70838 12.1811C7.70838 12.3926 7.62728 12.5952 7.48331 12.744C7.33934 12.8928 7.14423 12.9752 6.94167 12.9729ZM6.94167 9.78772C6.73837 9.78772 6.54343 9.70322 6.39964 9.55305C6.25586 9.40288 6.17513 9.19929 6.17513 8.98695C6.17513 8.77461 6.25586 8.57103 6.39964 8.42085C6.54342 8.27068 6.73836 8.18618 6.94167 8.18618C7.14516 8.18618 7.3401 8.27068 7.48389 8.42085C7.62768 8.57102 7.7084 8.77461 7.7084 8.98695C7.7084 9.19929 7.62768 9.40287 7.48389 9.55305C7.34011 9.70321 7.14517 9.78772 6.94167 9.78772ZM6.94167 6.59359C6.73837 6.59359 6.54343 6.50928 6.39964 6.35911C6.25586 6.20895 6.17513 6.00536 6.17513 5.79282C6.17513 5.58049 6.25586 5.37689 6.39964 5.22672C6.54342 5.07654 6.73836 4.99224 6.94167 4.99224C7.14516 4.99224 7.3401 5.07655 7.48389 5.22672C7.62768 5.37688 7.7084 5.58048 7.7084 5.79282C7.7084 6.00534 7.62768 6.20893 7.48389 6.35911C7.34011 6.50928 7.14517 6.59359 6.94167 6.59359ZM15.0914 13.5559L11.0168 13.5561C10.719 13.5561 10.4439 13.3902 10.2951 13.1209C10.1463 12.8517 10.1463 12.5198 10.2951 12.2506C10.4439 11.9813 10.719 11.8154 11.0168 11.8154H15.0916C15.3892 11.8154 15.6643 11.9813 15.8133 12.2506C15.9621 12.5199 15.9621 12.8517 15.8133 13.1209C15.6643 13.3902 15.3892 13.5561 15.0916 13.5561L15.0914 13.5559ZM15.0914 9.83104L11.0168 9.83124C10.719 9.83124 10.4439 9.66534 10.2951 9.39608C10.1463 9.12664 10.1463 8.79502 10.2951 8.52577C10.4439 8.25633 10.719 8.09062 11.0168 8.09062H15.0916C15.3892 8.09062 15.6643 8.25633 15.8133 8.52577C15.9621 8.79503 15.9621 9.12664 15.8133 9.39608C15.6643 9.66534 15.3892 9.83124 15.0916 9.83124L15.0914 9.83104ZM15.0914 6.10622H11.0168C10.719 6.10622 10.4439 5.94032 10.2951 5.67107C10.1463 5.40181 10.1463 5.07001 10.2951 4.80076C10.4439 4.53151 10.719 4.3656 11.0168 4.3656H15.0916C15.3892 4.3656 15.6643 4.53151 15.8133 4.80076C15.9621 5.07001 15.9621 5.40182 15.8133 5.67107C15.6643 5.94032 15.3892 6.10622 15.0916 6.10622H15.0914Z" fill="#E6E6E6"/>
</svg>
