<svg width="20" height="20" viewBox="0 0 20 20" fill="none" xmlns="http://www.w3.org/2000/svg">
<path d="M8.33249 11.6666L11.6658 8.33331" stroke="#E6E6E6" stroke-width="1.5" stroke-linecap="round" stroke-linejoin="round"/>
<path d="M14.1667 14.1667L15.8333 12.5" stroke="#E6E6E6" stroke-width="1.5" stroke-linecap="round" stroke-linejoin="round"/>
<path d="M15.8333 16.6667V12.5" stroke="#E6E6E6" stroke-width="1.5" stroke-linecap="round" stroke-linejoin="round"/>
<path d="M12.5 17.5H6.66667C4.36548 17.5 2.5 15.6345 2.5 13.3333V6.66667C2.5 4.36548 4.36548 2.5 6.66667 2.5H13.3333C15.6345 2.5 17.5 4.36548 17.5 6.66667V9.16667" stroke="#E6E6E6" stroke-width="1.5" stroke-linecap="round" stroke-linejoin="round"/>
<path d="M17.5 14.1667L15.8333 12.5" stroke="#E6E6E6" stroke-width="1.5" stroke-linecap="round" stroke-linejoin="round"/>
<path d="M11.875 11.7708C11.8748 11.8281 11.8283 11.8743 11.771 11.8742C11.7138 11.8741 11.6674 11.8277 11.6674 11.7704C11.6674 11.7132 11.7138 11.6667 11.771 11.6666C11.8283 11.6665 11.8748 11.7128 11.875 11.77V11.7708" stroke="#E6E6E6" stroke-width="1.5" stroke-linecap="round" stroke-linejoin="round"/>
<path d="M8.12499 8.22915C8.1252 8.17191 8.17172 8.12564 8.22896 8.12575C8.2862 8.12586 8.33255 8.17229 8.33255 8.22953C8.33255 8.28678 8.2862 8.33321 8.22896 8.33332C8.17172 8.33342 8.1252 8.28716 8.12499 8.22992V8.22915" stroke="#E6E6E6" stroke-width="1.5" stroke-linecap="round" stroke-linejoin="round"/>
</svg>
