<svg width="24" height="20" viewBox="0 0 24 20" fill="none" xmlns="http://www.w3.org/2000/svg">
<g id="Group">
<path id="Vector" d="M21.5391 5.10154C22.4765 4.39841 23.3204 3.55466 23.9765 2.57028C23.1328 2.94528 22.1485 3.22653 21.1641 3.32028C22.1954 2.71091 22.9454 1.77341 23.3204 0.601533C22.3828 1.16403 21.3047 1.58591 20.2265 1.82028C19.2891 0.835907 18.0235 0.273407 16.6172 0.273407C13.8985 0.273407 11.6953 2.47654 11.6953 5.19528C11.6953 5.57028 11.7422 5.94528 11.836 6.32028C7.75784 6.08591 4.1016 4.11716 1.6641 1.16403C1.24221 1.86716 1.00784 2.71091 1.00784 3.64841C1.00784 5.33591 1.8516 6.83591 3.21097 7.72654C2.4141 7.67966 1.61721 7.49216 0.960968 7.11716V7.16404C0.960968 9.55466 2.64847 11.5234 4.89847 11.9921C4.52347 12.0859 4.05472 12.1797 3.63284 12.1797C3.30472 12.1797 3.02347 12.1327 2.69534 12.0859C3.30472 14.0547 5.13284 15.4609 7.2891 15.5077C5.6016 16.8203 3.49221 17.6171 1.19534 17.6171C0.773468 17.6171 0.398468 17.5703 0.023468 17.5234C2.17972 18.9297 4.75784 19.7266 7.57034 19.7266C16.6172 19.7266 21.5391 12.2734 21.5391 5.75778C21.5391 5.52341 21.5391 5.33591 21.5391 5.10154Z" fill="#E6E6E6"/>
</g>
</svg>
