<svg width="20" height="20" viewBox="0 0 20 20" fill="none" xmlns="http://www.w3.org/2000/svg">
<g id="Frame 427320882">
<circle id="Ellipse 27" cx="10" cy="10" r="10" fill="#9E68FF"/>
<path id="Vector" d="M14.8458 5.83106C13.9591 5.44366 12.9991 5.16249 11.999 5.00003C11.9903 4.99977 11.9815 5.00131 11.9735 5.00455C11.9654 5.00779 11.9582 5.01264 11.9524 5.01877C11.8324 5.22497 11.6923 5.49365 11.599 5.69985C10.5383 5.54988 9.45962 5.54988 8.39892 5.69985C8.30559 5.4874 8.16558 5.22497 8.03891 5.01877C8.03225 5.00628 8.01225 5.00003 7.99225 5.00003C6.99222 5.16249 6.03886 5.44366 5.1455 5.83106C5.13883 5.83106 5.13217 5.83731 5.1255 5.84356C3.31212 8.38664 2.8121 10.861 3.05878 13.3104C3.05878 13.3228 3.06544 13.3353 3.07878 13.3416C4.27881 14.1664 5.43218 14.6662 6.57221 14.9974C6.59221 15.0037 6.61221 14.9974 6.61888 14.9849C6.88555 14.6413 7.12556 14.2788 7.33223 13.8977C7.34556 13.8727 7.33223 13.8477 7.30556 13.8415C6.92555 13.704 6.56554 13.5415 6.2122 13.3541C6.18553 13.3416 6.18553 13.3041 6.20553 13.2854C6.27887 13.2354 6.3522 13.1791 6.42554 13.1292C6.43887 13.1167 6.45887 13.1167 6.4722 13.1229C8.7656 14.1039 11.239 14.1039 13.5057 13.1229C13.5191 13.1167 13.5391 13.1167 13.5524 13.1292C13.6257 13.1854 13.6991 13.2354 13.7724 13.2916C13.7991 13.3104 13.7991 13.3478 13.7657 13.3603C13.4191 13.554 13.0524 13.7102 12.6724 13.8477C12.6457 13.854 12.639 13.8852 12.6457 13.9039C12.859 14.2851 13.0991 14.6475 13.3591 14.9912C13.3791 14.9974 13.3991 15.0037 13.4191 14.9974C14.5658 14.6662 15.7191 14.1664 16.9192 13.3416C16.9325 13.3353 16.9392 13.3228 16.9392 13.3104C17.2325 10.4798 16.4525 8.02424 14.8724 5.84356C14.8658 5.83731 14.8591 5.83106 14.8458 5.83106ZM7.6789 11.817C6.99222 11.817 6.41887 11.2234 6.41887 10.4923C6.41887 9.76128 6.97889 9.16769 7.6789 9.16769C8.38559 9.16769 8.94561 9.76753 8.93894 10.4923C8.93894 11.2234 8.37892 11.817 7.6789 11.817ZM12.3257 11.817C11.639 11.817 11.0657 11.2234 11.0657 10.4923C11.0657 9.76128 11.6257 9.16769 12.3257 9.16769C13.0324 9.16769 13.5924 9.76753 13.5857 10.4923C13.5857 11.2234 13.0324 11.817 12.3257 11.817Z" fill="#251F2D"/>
</g>
</svg>
