<svg width="32" height="33" viewBox="0 0 32 33" fill="none" xmlns="http://www.w3.org/2000/svg">
<path d="M19.4286 19.0917H32L27.9117 24.425H19.4286V19.0917Z" fill="#282D3D"/>
<path d="M12.1904 19.0917H-4.673e-05L3.96434 24.425H12.1904V19.0917Z" fill="#282D3D"/>
<path d="M14.8572 25.5679H27.0477L23.0833 30.9012H14.8572V25.5679Z" fill="#282D3D"/>
<path d="M17.1428 25.5679H4.57139L8.65966 30.9012H17.1428V25.5679Z" fill="#282D3D"/>
<mask id="mask0_1776_57944" style="mask-type:alpha" maskUnits="userSpaceOnUse" x="0" y="19" width="32" height="12">
<path d="M0 19.0917H12.4V24.3857H4.03252L0 19.0917Z" fill="#282D3D"/>
<path d="M32 19.0917H19.6V24.3857H27.9675L32 19.0917Z" fill="#282D3D"/>
<path d="M27.2 25.6073L23.1675 30.9013H8.83252L4.8 25.6073H27.2Z" fill="#282D3D"/>
</mask>
<g mask="url(#mask0_1776_57944)">
<path d="M3.04761 23.6631H28.9524V24.425H3.04761V23.6631Z" fill="url(#paint0_linear_1776_57944)"/>
<path d="M7.61902 30.1393H24.3809V30.9012H7.61902V30.1393Z" fill="#FFD71B"/>
<path d="M7.61902 30.1393H24.3809V30.9012H7.61902V30.1393Z" fill="url(#paint1_linear_1776_57944)"/>
</g>
<path d="M30.0952 1.94889L26.2856 3.75841L28.3809 6.13937L30.0952 1.94889Z" fill="#343A4C"/>
<path d="M1.52385 1.94889L5.33337 3.75841L3.23814 6.13937L1.52385 1.94889Z" fill="#343A4C"/>
<path d="M6.73103 0.80603C6.28966 2.4271 4.32552 5.74706 0 6.05831C0 11.8293 3.2 25.2583 16 32.806C28.8 25.2583 32 11.8293 32 6.05831C27.6745 5.74706 25.7103 2.4271 25.269 0.80603H6.73103Z" fill="url(#paint2_linear_1776_57944)"/>
<g style="mix-blend-mode:overlay" opacity="0.8">
<mask id="mask1_1776_57944" style="mask-type:alpha" maskUnits="userSpaceOnUse" x="0" y="0" width="32" height="33">
<path d="M6.73103 0.80603C6.28966 2.4271 4.32552 5.74706 0 6.05831C0 11.8293 3.2 25.2583 16 32.806C28.8 25.2583 32 11.8293 32 6.05831C27.6745 5.74706 25.7103 2.4271 25.269 0.80603H6.73103Z" fill="#FFD71B"/>
</mask>
<g mask="url(#mask1_1776_57944)">
<path d="M29.8479 -1.46796L34.2962 6.23677L0.395417 25.8094L-4.05291 18.1047L29.8479 -1.46796Z" fill="white"/>
<path d="M26.0618 -6.05111L28.2859 -2.19874L-5.61488 17.3739L-7.83904 13.5215L26.0618 -6.05111Z" fill="white"/>
</g>
</g>
<g style="mix-blend-mode:soft-light">
<path fill-rule="evenodd" clip-rule="evenodd" d="M0.202268 8.86932C0.252228 9.24627 0.31215 9.63729 0.382803 10.0408C1.54478 16.6764 5.60931 26.679 16 32.806C26.3907 26.679 30.4552 16.6764 31.6172 10.0408C31.6878 9.63729 31.7478 9.24627 31.7977 8.86933C31.9383 7.80881 32 6.85972 32 6.05831C27.6745 5.74706 25.7103 2.4271 25.269 0.80603H6.73103C6.28966 2.4271 4.32552 5.74706 0 6.05831C0 6.85972 0.0617098 7.80881 0.202268 8.86932ZM9.2246 4.80603C8.18353 6.4065 6.57403 8.05799 4.27239 9.07771C5.13104 14.3418 8.20138 22.5032 16 28.0437C23.7986 22.5032 26.869 14.3418 27.7276 9.07771C25.426 8.05799 23.8165 6.4065 22.7754 4.80603H9.2246Z" fill="black"/>
</g>
<path fill-rule="evenodd" clip-rule="evenodd" d="M2.51553 8.02333C3.13465 13.7113 6.39794 23.6897 16 29.9806C25.6021 23.6897 28.8654 13.7113 29.4845 8.02333C26.5006 7.11309 24.6551 5.01263 23.6804 3.20603H8.31962C7.3449 5.01263 5.49936 7.11309 2.51553 8.02333ZM6.73103 0.80603C6.28966 2.4271 4.32552 5.74706 0 6.05831C0 11.8293 3.2 25.2583 16 32.806C28.8 25.2583 32 11.8293 32 6.05831C27.6745 5.74706 25.7103 2.4271 25.269 0.80603H6.73103Z" fill="#41485A"/>
<path d="M15.8099 8.04418L17.87 12.1824L22.4765 12.846L19.1432 16.0672L19.9301 20.6156L15.8099 18.4682L11.6896 20.6156L12.4765 16.0672L9.14319 12.846L13.7497 12.1824L15.8099 8.04418Z" fill="#FCFDFF"/>
<mask id="mask2_1776_57944" style="mask-type:alpha" maskUnits="userSpaceOnUse" x="9" y="8" width="14" height="13">
<path d="M15.8101 8.04424L17.8702 12.1825L22.4768 12.8461L19.1434 16.0673L19.9303 20.6157L15.8101 18.4682L11.6899 20.6157L12.4768 16.0673L9.14343 12.8461L13.75 12.1825L15.8101 8.04424Z" fill="#BCD5EC"/>
</mask>
<g mask="url(#mask2_1776_57944)">
<path d="M16.0006 14.9014V8.04424L18.6673 11.3776L16.0006 14.9014Z" fill="#BCD5EC"/>
<path d="M16.0006 15.0554L24.7625 12.2347L20.5763 21.3776L16.0006 15.0554Z" fill="#BCD5EC"/>
<path d="M16.0006 14.9014L11.0482 21.3776H16.0006V14.9014Z" fill="#BCD5EC"/>
<path d="M16.0005 15.11L8.38147 12.6157L10.8552 16.8061L16.0005 15.11Z" fill="#BCD5EC"/>
</g>
<path d="M15.0287 25.2339L15.8741 24.3884L16.7195 25.2339L15.8741 26.0793L15.0287 25.2339Z" fill="#343A4C"/>
<path d="M5.9104 10.3372L6.75582 9.49177L7.60124 10.3372L6.75582 11.1826L5.9104 10.3372Z" fill="#343A4C"/>
<path d="M24.2429 10.3372L25.0883 9.49177L25.9338 10.3372L25.0883 11.1826L24.2429 10.3372Z" fill="#343A4C"/>
<defs>
<linearGradient id="paint0_linear_1776_57944" x1="6.73603" y1="24.0441" x2="27.5799" y2="24.0441" gradientUnits="userSpaceOnUse">
<stop stop-color="#FFEA2F"/>
<stop offset="0.338542" stop-color="#FF20E9"/>
<stop offset="0.703125" stop-color="#8F36FF"/>
<stop offset="1" stop-color="#00E0FF"/>
</linearGradient>
<linearGradient id="paint1_linear_1776_57944" x1="10.0056" y1="30.5203" x2="23.4929" y2="30.5203" gradientUnits="userSpaceOnUse">
<stop stop-color="#FFEA2F"/>
<stop offset="0.338542" stop-color="#FF20E9"/>
<stop offset="0.703125" stop-color="#8F36FF"/>
<stop offset="1" stop-color="#00E0FF"/>
</linearGradient>
<linearGradient id="paint2_linear_1776_57944" x1="6.3" y1="5.80603" x2="22" y2="22.406" gradientUnits="userSpaceOnUse">
<stop stop-color="#FFEA2F"/>
<stop offset="0.333333" stop-color="#FF20E9"/>
<stop offset="0.666667" stop-color="#8F36FF"/>
<stop offset="1" stop-color="#00E0FF"/>
</linearGradient>
</defs>
</svg>
