<svg width="32" height="33" viewBox="0 0 32 33" fill="none" xmlns="http://www.w3.org/2000/svg">
<path d="M19.6 19.206H32L27.9675 24.406H19.6V19.206Z" fill="#282D3D"/>
<path d="M12.4 19.206H2.47955e-05L4.03255 24.406H12.4V19.206Z" fill="#282D3D"/>
<path d="M14.8 25.606H27.2L23.1675 30.806H14.8V25.606Z" fill="#282D3D"/>
<path d="M17.2 25.606H4.79995L8.83247 30.806H17.2V25.606Z" fill="#282D3D"/>
<mask id="mask0_1776_57979" style="mask-type:alpha" maskUnits="userSpaceOnUse" x="0" y="19" width="32" height="12">
<path d="M0 19.206H12.4V24.406H4.03252L0 19.206Z" fill="#282D3D"/>
<path d="M32 19.206H19.6V24.406H27.9675L32 19.206Z" fill="#282D3D"/>
<path d="M27.2 25.606L23.1675 30.806H8.83252L4.8 25.606H27.2Z" fill="#282D3D"/>
</mask>
<g mask="url(#mask0_1776_57979)">
<path d="M-0.400024 23.606H29.8V24.406H-0.400024V23.606Z" fill="#87ACFF"/>
<path d="M-0.400024 30.006H29.8V30.806H-0.400024V30.006Z" fill="#87ACFF"/>
</g>
<path d="M30.3999 1.80603L26.3999 3.70603L28.5999 6.20603L30.3999 1.80603Z" fill="#343A4C"/>
<path d="M1.59998 1.80603L5.59998 3.70603L3.39998 6.20603L1.59998 1.80603Z" fill="#343A4C"/>
<path d="M6.73103 0.80603C6.28966 2.4271 4.32552 5.74706 0 6.05831C0 11.8293 3.2 25.2583 16 32.806C28.8 25.2583 32 11.8293 32 6.05831C27.6745 5.74706 25.7103 2.4271 25.269 0.80603H6.73103Z" fill="#87ACFF"/>
<mask id="mask1_1776_57979" style="mask-type:alpha" maskUnits="userSpaceOnUse" x="0" y="0" width="32" height="33">
<path d="M6.73103 0.80603C6.28966 2.4271 4.32552 5.74706 0 6.05831C0 11.8293 3.2 25.2583 16 32.806C28.8 25.2583 32 11.8293 32 6.05831C27.6745 5.74706 25.7103 2.4271 25.269 0.80603H6.73103Z" fill="#D9EAFF"/>
</mask>
<g mask="url(#mask1_1776_57979)">
<path d="M30.0254 -1.59397L34.4901 6.13909L0.464625 25.7837L-4.00006 18.0506L30.0254 -1.59397Z" fill="#D9EAFF"/>
<path d="M26.2253 -6.19397L28.4577 -2.32744L-5.56776 17.3172L-7.80011 13.4506L26.2253 -6.19397Z" fill="#D9EAFF"/>
</g>
<path fill-rule="evenodd" clip-rule="evenodd" d="M0.202268 8.86932C0.252228 9.24627 0.31215 9.63729 0.382803 10.0408C1.54478 16.6764 5.60931 26.679 16 32.806C26.3907 26.679 30.4552 16.6764 31.6172 10.0408C31.6878 9.63729 31.7478 9.24627 31.7977 8.86933C31.9383 7.80881 32 6.85972 32 6.05831C27.6745 5.74706 25.7103 2.4271 25.269 0.80603H6.73103C6.28966 2.4271 4.32552 5.74706 0 6.05831C0 6.85972 0.0617098 7.80881 0.202268 8.86932ZM9.2246 4.80603C8.18353 6.4065 6.57403 8.05799 4.27239 9.07771C5.13104 14.3418 8.20138 22.5032 16 28.0437C23.7986 22.5032 26.869 14.3418 27.7276 9.07771C25.426 8.05799 23.8165 6.4065 22.7754 4.80603H9.2246Z" fill="#5C8CFB"/>
<path fill-rule="evenodd" clip-rule="evenodd" d="M2.51553 8.02333C3.13465 13.7113 6.39794 23.6897 16 29.9806C25.6021 23.6897 28.8654 13.7113 29.4845 8.02333C26.5006 7.11309 24.6551 5.01263 23.6804 3.20603H8.31962C7.3449 5.01263 5.49936 7.11309 2.51553 8.02333ZM6.73103 0.80603C6.28966 2.4271 4.32552 5.74706 0 6.05831C0 11.8293 3.2 25.2583 16 32.806C28.8 25.2583 32 11.8293 32 6.05831C27.6745 5.74706 25.7103 2.4271 25.269 0.80603H6.73103Z" fill="#41485A"/>
<path d="M15.9999 8.00603L18.0572 12.1745L22.6573 12.8429L19.3286 16.0876L20.1144 20.6691L15.9999 18.506L11.8854 20.6691L12.6712 16.0876L9.34253 12.8429L13.9427 12.1745L15.9999 8.00603Z" fill="#555B6C"/>
<mask id="mask2_1776_57979" style="mask-type:alpha" maskUnits="userSpaceOnUse" x="9" y="8" width="14" height="13">
<path d="M15.9999 8.00603L18.0572 12.1745L22.6573 12.8429L19.3286 16.0876L20.1144 20.6691L15.9999 18.506L11.8854 20.6691L12.6712 16.0876L9.34253 12.8429L13.9427 12.1745L15.9999 8.00603Z" fill="#343A4C"/>
</mask>
<g mask="url(#mask2_1776_57979)">
<path d="M15.9998 15.0061V7.80608L18.6998 11.3061L15.9998 15.0061Z" fill="#282D3D"/>
<path d="M15.9998 15.0061L24.9998 12.1061L20.6998 21.5061L15.9998 15.0061Z" fill="#282D3D"/>
<path d="M15.9998 15.0061L11.2998 21.5061H15.9998V15.0061Z" fill="#282D3D"/>
<path d="M15.9998 15.0061L8.2998 12.5061L10.7998 16.7061L15.9998 15.0061Z" fill="#282D3D"/>
</g>
<path d="M15.1516 25.206L16.0001 24.3575L16.8487 25.206L16.0001 26.0546L15.1516 25.206Z" fill="#343A4C"/>
<path d="M6 10.2546L6.84853 9.40604L7.69706 10.2546L6.84853 11.1031L6 10.2546Z" fill="#343A4C"/>
<path d="M24.3999 10.2546L25.2484 9.40604L26.097 10.2546L25.2484 11.1031L24.3999 10.2546Z" fill="#343A4C"/>
</svg>
