<svg width="40" height="41" viewBox="0 0 40 41" fill="none" xmlns="http://www.w3.org/2000/svg">
<g id="coin-icon">
<g id="Vector">
<path d="M36.1678 24.8361C33.9416 33.7648 24.8974 39.1986 15.9667 36.9721C7.03979 34.7461 1.6054 25.7022 3.83257 16.7743C6.05778 7.84468 15.102 2.41047 24.0299 4.63642C32.9599 6.86237 38.3942 15.907 36.1678 24.8361Z" fill="#F3BA2F"/>
<path fill-rule="evenodd" clip-rule="evenodd" d="M20.0018 14.7155L15.6856 19.0312L13.1744 16.5199L20.0018 9.69325L26.8314 16.522L24.32 19.0331L20.0018 14.7155ZM11.401 18.2928L8.88952 20.8044L11.4008 23.315L13.9123 20.8038L11.401 18.2928ZM15.6856 22.5778L20.0018 26.8933L24.32 22.5757L26.8327 25.0855L26.8314 25.0869L20.0018 31.9155L13.1709 25.0853L15.6856 22.5778ZM28.6028 18.2942L26.0913 20.8054L28.6027 23.3165L31.1141 20.8053L28.6028 18.2942Z" fill="white"/>
<path d="M22.5489 20.803L20.0018 18.2549L17.4557 20.8005L17.4521 20.8039L17.4557 20.8076L20.0018 23.3538L22.5502 20.8057L22.5514 20.8043L22.5489 20.803Z" fill="white"/>
</g>
</g>
</svg>
