<svg width="21" height="20" viewBox="0 0 21 20" fill="none" xmlns="http://www.w3.org/2000/svg">
<g id="Tether (USDT)">
<path id="Tether (USDT)_2" d="M20.2982 12.419C18.9626 17.7762 13.5366 21.0365 8.1788 19.7006C2.82322 18.365 -0.437064 12.9387 0.899095 7.58197C2.23408 2.22419 7.66005 -1.03634 13.0162 0.299234C18.3737 1.63481 21.6338 7.0617 20.298 12.4191L20.2981 12.419H20.2982Z" fill="#50AF95"/>
<path id="Tether (USDT)_3" fill-rule="evenodd" clip-rule="evenodd" d="M11.8657 11.1338C11.795 11.1391 11.4296 11.1609 10.6147 11.1609C9.96656 11.1609 9.50636 11.1414 9.34491 11.1338C6.84004 11.0236 4.97038 10.5875 4.97038 10.0655C4.97038 9.5434 6.84004 9.10795 9.34491 8.99599V10.6995C9.50872 10.7113 9.97776 10.739 10.6259 10.739C11.4037 10.739 11.7932 10.7066 11.8633 10.7001V8.99717C14.3629 9.10854 16.2284 9.54458 16.2284 10.0655C16.2284 10.5864 14.3635 11.0224 11.8633 11.1332L11.8657 11.1338ZM11.866 8.82098V7.29661H15.3543V4.97205H5.85693V7.29661H9.34465V8.82039C6.50981 8.95061 4.37793 9.51216 4.37793 10.1851C4.37793 10.858 6.50981 11.4189 9.34465 11.5498V16.4346H11.8654V11.548C14.6938 11.4178 16.8221 10.8568 16.8221 10.1845C16.8221 9.51216 14.6956 8.9512 11.8654 8.82039L11.866 8.82098Z" fill="#F5F5F7"/>
</g>
</svg>
