<svg width="50" height="50" viewBox="0 0 50 50" fill="none" xmlns="http://www.w3.org/2000/svg">
<path d="M9.375 0C6.8886 0 4.50403 0.98772 2.74587 2.74587C0.98772 4.50403 0 6.8886 0 9.375L0 40.625C0 43.1114 0.98772 45.496 2.74587 47.2541C4.50403 49.0123 6.8886 50 9.375 50H40.625C43.1114 50 45.496 49.0123 47.2541 47.2541C49.0123 45.496 50 43.1114 50 40.625V9.375C50 6.8886 49.0123 4.50403 47.2541 2.74587C45.496 0.98772 43.1114 0 40.625 0L9.375 0ZM12.5 17.1875C11.2568 17.1875 10.0645 16.6936 9.18544 15.8146C8.30636 14.9355 7.8125 13.7432 7.8125 12.5C7.8125 11.2568 8.30636 10.0645 9.18544 9.18544C10.0645 8.30636 11.2568 7.8125 12.5 7.8125C13.7432 7.8125 14.9355 8.30636 15.8146 9.18544C16.6936 10.0645 17.1875 11.2568 17.1875 12.5C17.1875 13.7432 16.6936 14.9355 15.8146 15.8146C14.9355 16.6936 13.7432 17.1875 12.5 17.1875ZM37.5 17.1875C36.2568 17.1875 35.0645 16.6936 34.1854 15.8146C33.3064 14.9355 32.8125 13.7432 32.8125 12.5C32.8125 11.2568 33.3064 10.0645 34.1854 9.18544C35.0645 8.30636 36.2568 7.8125 37.5 7.8125C38.7432 7.8125 39.9355 8.30636 40.8146 9.18544C41.6936 10.0645 42.1875 11.2568 42.1875 12.5C42.1875 13.7432 41.6936 14.9355 40.8146 15.8146C39.9355 16.6936 38.7432 17.1875 37.5 17.1875ZM42.1875 37.5C42.1875 38.7432 41.6936 39.9355 40.8146 40.8146C39.9355 41.6936 38.7432 42.1875 37.5 42.1875C36.2568 42.1875 35.0645 41.6936 34.1854 40.8146C33.3064 39.9355 32.8125 38.7432 32.8125 37.5C32.8125 36.2568 33.3064 35.0645 34.1854 34.1854C35.0645 33.3064 36.2568 32.8125 37.5 32.8125C38.7432 32.8125 39.9355 33.3064 40.8146 34.1854C41.6936 35.0645 42.1875 36.2568 42.1875 37.5ZM12.5 42.1875C11.2568 42.1875 10.0645 41.6936 9.18544 40.8146C8.30636 39.9355 7.8125 38.7432 7.8125 37.5C7.8125 36.2568 8.30636 35.0645 9.18544 34.1854C10.0645 33.3064 11.2568 32.8125 12.5 32.8125C13.7432 32.8125 14.9355 33.3064 15.8146 34.1854C16.6936 35.0645 17.1875 36.2568 17.1875 37.5C17.1875 38.7432 16.6936 39.9355 15.8146 40.8146C14.9355 41.6936 13.7432 42.1875 12.5 42.1875Z" fill="#F5F5F7"/>
<path d="M12.5 17.1875C11.2568 17.1875 10.0645 16.6936 9.18544 15.8146C8.30636 14.9355 7.8125 13.7432 7.8125 12.5C7.8125 11.2568 8.30636 10.0645 9.18544 9.18544C10.0645 8.30636 11.2568 7.8125 12.5 7.8125C13.7432 7.8125 14.9355 8.30636 15.8146 9.18544C16.6936 10.0645 17.1875 11.2568 17.1875 12.5C17.1875 13.7432 16.6936 14.9355 15.8146 15.8146C14.9355 16.6936 13.7432 17.1875 12.5 17.1875Z" fill="#6600FF"/>
<path d="M37.5 17.1875C36.2568 17.1875 35.0645 16.6936 34.1854 15.8146C33.3064 14.9355 32.8125 13.7432 32.8125 12.5C32.8125 11.2568 33.3064 10.0645 34.1854 9.18544C35.0645 8.30636 36.2568 7.8125 37.5 7.8125C38.7432 7.8125 39.9355 8.30636 40.8146 9.18544C41.6936 10.0645 42.1875 11.2568 42.1875 12.5C42.1875 13.7432 41.6936 14.9355 40.8146 15.8146C39.9355 16.6936 38.7432 17.1875 37.5 17.1875Z" fill="#6600FF"/>
<path d="M42.1875 37.5C42.1875 38.7432 41.6936 39.9355 40.8146 40.8146C39.9355 41.6936 38.7432 42.1875 37.5 42.1875C36.2568 42.1875 35.0645 41.6936 34.1854 40.8146C33.3064 39.9355 32.8125 38.7432 32.8125 37.5C32.8125 36.2568 33.3064 35.0645 34.1854 34.1854C35.0645 33.3064 36.2568 32.8125 37.5 32.8125C38.7432 32.8125 39.9355 33.3064 40.8146 34.1854C41.6936 35.0645 42.1875 36.2568 42.1875 37.5Z" fill="#6600FF"/>
<path d="M12.5 42.1875C11.2568 42.1875 10.0645 41.6936 9.18544 40.8146C8.30636 39.9355 7.8125 38.7432 7.8125 37.5C7.8125 36.2568 8.30636 35.0645 9.18544 34.1854C10.0645 33.3064 11.2568 32.8125 12.5 32.8125C13.7432 32.8125 14.9355 33.3064 15.8146 34.1854C16.6936 35.0645 17.1875 36.2568 17.1875 37.5C17.1875 38.7432 16.6936 39.9355 15.8146 40.8146C14.9355 41.6936 13.7432 42.1875 12.5 42.1875Z" fill="#6600FF"/>
</svg>
