<svg width="50" height="50" viewBox="0 0 50 50" fill="none" xmlns="http://www.w3.org/2000/svg">
<path d="M0 9.375C0 6.8886 0.98772 4.50403 2.74587 2.74587C4.50403 0.98772 6.8886 0 9.375 0L40.625 0C43.1114 0 45.496 0.98772 47.2541 2.74587C49.0123 4.50403 50 6.8886 50 9.375V40.625C50 43.1114 49.0123 45.496 47.2541 47.2541C45.496 49.0123 43.1114 50 40.625 50H9.375C6.8886 50 4.50403 49.0123 2.74587 47.2541C0.98772 45.496 0 43.1114 0 40.625L0 9.375ZM17.1875 12.5C17.1875 11.2568 16.6936 10.0645 15.8146 9.18544C14.9355 8.30636 13.7432 7.8125 12.5 7.8125C11.2568 7.8125 10.0645 8.30636 9.18544 9.18544C8.30636 10.0645 7.8125 11.2568 7.8125 12.5C7.8125 13.7432 8.30636 14.9355 9.18544 15.8146C10.0645 16.6936 11.2568 17.1875 12.5 17.1875C13.7432 17.1875 14.9355 16.6936 15.8146 15.8146C16.6936 14.9355 17.1875 13.7432 17.1875 12.5ZM37.5 42.1875C38.7432 42.1875 39.9355 41.6936 40.8146 40.8146C41.6936 39.9355 42.1875 38.7432 42.1875 37.5C42.1875 36.2568 41.6936 35.0645 40.8146 34.1854C39.9355 33.3064 38.7432 32.8125 37.5 32.8125C36.2568 32.8125 35.0645 33.3064 34.1854 34.1854C33.3064 35.0645 32.8125 36.2568 32.8125 37.5C32.8125 38.7432 33.3064 39.9355 34.1854 40.8146C35.0645 41.6936 36.2568 42.1875 37.5 42.1875Z" fill="#F5F5F7"/>
<path d="M37.5 42.1875C38.7432 42.1875 39.9355 41.6936 40.8146 40.8146C41.6936 39.9355 42.1875 38.7432 42.1875 37.5C42.1875 36.2568 41.6936 35.0645 40.8146 34.1854C39.9355 33.3064 38.7432 32.8125 37.5 32.8125C36.2568 32.8125 35.0645 33.3064 34.1854 34.1854C33.3064 35.0645 32.8125 36.2568 32.8125 37.5C32.8125 38.7432 33.3064 39.9355 34.1854 40.8146C35.0645 41.6936 36.2568 42.1875 37.5 42.1875Z" fill="#6600FF"/>
<path d="M17.1875 12.5C17.1875 11.2568 16.6936 10.0645 15.8146 9.18544C14.9355 8.30636 13.7432 7.8125 12.5 7.8125C11.2568 7.8125 10.0645 8.30636 9.18544 9.18544C8.30636 10.0645 7.8125 11.2568 7.8125 12.5C7.8125 13.7432 8.30636 14.9355 9.18544 15.8146C10.0645 16.6936 11.2568 17.1875 12.5 17.1875C13.7432 17.1875 14.9355 16.6936 15.8146 15.8146C16.6936 14.9355 17.1875 13.7432 17.1875 12.5Z" fill="#6600FF"/>
</svg>
