<svg width="50" height="50" viewBox="0 0 50 50" fill="none" xmlns="http://www.w3.org/2000/svg">
<path d="M9.375 0C6.8886 0 4.50403 0.98772 2.74587 2.74587C0.98772 4.50403 0 6.8886 0 9.375L0 40.625C0 43.1114 0.98772 45.496 2.74587 47.2541C4.50403 49.0123 6.8886 50 9.375 50H40.625C43.1114 50 45.496 49.0123 47.2541 47.2541C49.0123 45.496 50 43.1114 50 40.625V9.375C50 6.8886 49.0123 4.50403 47.2541 2.74587C45.496 0.98772 43.1114 0 40.625 0L9.375 0ZM25 29.6875C23.7568 29.6875 22.5645 29.1936 21.6854 28.3146C20.8064 27.4355 20.3125 26.2432 20.3125 25C20.3125 23.7568 20.8064 22.5645 21.6854 21.6854C22.5645 20.8064 23.7568 20.3125 25 20.3125C26.2432 20.3125 27.4355 20.8064 28.3146 21.6854C29.1936 22.5645 29.6875 23.7568 29.6875 25C29.6875 26.2432 29.1936 27.4355 28.3146 28.3146C27.4355 29.1936 26.2432 29.6875 25 29.6875Z" fill="#F5F5F7"/>
<path d="M25 29.6875C23.7568 29.6875 22.5645 29.1936 21.6854 28.3146C20.8064 27.4355 20.3125 26.2432 20.3125 25C20.3125 23.7568 20.8064 22.5645 21.6854 21.6854C22.5645 20.8064 23.7568 20.3125 25 20.3125C26.2432 20.3125 27.4355 20.8064 28.3146 21.6854C29.1936 22.5645 29.6875 23.7568 29.6875 25C29.6875 26.2432 29.1936 27.4355 28.3146 28.3146C27.4355 29.1936 26.2432 29.6875 25 29.6875Z" fill="#6600FF"/>
</svg>
