<svg width="140" height="140" viewBox="0 0 140 140" fill="none" xmlns="http://www.w3.org/2000/svg">
<g id="flame, fire, heat, light, 07 3">
<path id="Vector" d="M90.9552 63.966C97.8124 61.2038 102.666 54.5146 102.666 46.6676C109.425 53.4072 113.709 62.5912 114.229 72.7664C118.699 71.1662 122.718 68.6252 126 65.3338V70C126 100.926 100.926 126 70 126C39.074 126 14 100.926 14 70V65.3338C17.283 68.6252 21.3024 71.1676 25.7712 72.772C26.2892 62.5912 30.5718 53.4072 37.3324 46.6676C37.3324 53.3764 40.901 59.2088 46.2126 62.5002C47.9696 56.6762 50.9432 51.1938 55.2062 46.5682L58.9162 42.5306C66.1668 34.6556 69.7984 24.3376 69.79 14.0028C82.6966 26.8198 90.699 44.4612 90.9552 63.966Z" fill="#FF6600"/>
</g>
</svg>
