<svg width="140" height="140" viewBox="0 0 140 140" fill="none" xmlns="http://www.w3.org/2000/svg">
<g id="flame, fire, heat, light, 24">
<path id="Vector" d="M118.713 126.001C130.29 105.62 128.082 78.4126 112.024 60.6676C112.024 72.9442 104.103 83.349 93.1084 87.1276C96.2276 80.5056 98.0238 73.136 98.0238 65.3338C98.0238 36.974 75.0261 14 46.6747 14C62.3701 29.694 64.3959 53.8664 52.7829 71.764C50.7711 60.2476 45.2733 49.9296 37.3367 42C37.3367 51.1196 34.3323 59.3726 29.4673 65.3338L21.8681 74.6676C17.0031 80.6274 13.9987 88.8804 14.0001 98.0014C13.9861 107.736 16.7119 117.456 22.0739 126.001H118.713Z" fill="#FF6600"/>
</g>
</svg>
