<svg width="140" height="140" viewBox="0 0 140 140" fill="none" xmlns="http://www.w3.org/2000/svg">
<g id="flame, fire, heat, light, 16">
<path id="Vector" d="M99.8005 42C105.259 47.46 106.74 54.852 103.099 58.4976C99.4575 62.1432 92.0613 60.6578 86.5971 55.1992C80.3629 48.9692 77.2494 40.817 77.2634 32.6676C68.6044 41.2986 63.2634 53.2532 63.2634 66.465V70C63.2634 77.7252 59.0843 84 53.9295 84C48.7775 84 44.5958 77.7252 44.5958 70C44.5958 63.3962 46.2687 57.0934 49.2619 51.3338C55.2427 39.8048 55.7187 26.46 49.2619 14C49.2619 21.2912 46.3093 27.8908 41.5241 32.6662C41.5283 32.6662 27.5283 46.6662 27.5283 46.6662C19.1591 55.0158 14.0001 66.563 14.0001 79.3338C13.9777 95.7488 19.1801 112.123 29.4085 126H110.592C120.819 112.123 126.024 95.7488 126 79.3338C126 58.716 114.269 42 99.8005 42Z" fill="#FF6600"/>
</g>
</svg>
