<svg width="140" height="140" viewBox="0 0 140 140" fill="none" xmlns="http://www.w3.org/2000/svg">
<g id="flame, fire, heat, light, 18">
<path id="Vector" d="M112.556 126C120.996 114.146 126 99.6772 126 84C126 73.6918 117.636 65.3338 107.334 65.3338C113.103 68.9164 116.666 73.8696 116.666 79.3338C116.666 84.483 112.489 88.6662 107.334 88.6662C102.183 88.6662 98.0001 84.483 98.0001 79.3338C98.0001 66.563 103.345 55.0158 112 46.6676C98.1233 46.6676 85.6857 52.7674 77.1373 62.3938C77.7757 54.9528 80.8333 47.6938 86.3339 42L91.0001 37.3338C97.2244 30.8896 100.342 22.4504 100.334 14C93.8883 20.2342 85.4393 23.3422 77.0001 23.3338C60.9673 23.3338 47.6603 34.8866 44.8897 50.1214C37.7707 47.488 32.6677 40.6924 32.6677 32.6676C23.3325 41.6864 23.3325 56.315 32.6677 65.338C38.4385 70.1092 42.0001 76.7088 42.0001 84C42.0001 91.7252 37.8169 98 32.6663 98C27.5115 98 23.3325 93.8168 23.3325 88.6662C23.3325 83.2034 26.8969 78.2488 32.6663 74.6662C22.3623 74.6662 14.0001 83.0256 14.0001 93.3338C13.9847 104.727 17.2453 116.119 23.7693 126H112.556Z" fill="#FF6600"/>
</g>
</svg>
