<svg width="140" height="140" viewBox="0 0 140 140" fill="none" xmlns="http://www.w3.org/2000/svg">
<g id="flame, fire, heat, light, 08 3">
<path id="Vector" d="M25.5318 126H114.474C115.29 119.93 117.177 114.11 120.007 108.674C127.69 93.8434 128.302 76.6892 120.007 60.6662C120.007 70.0448 116.985 78.526 112.104 84.6692L106.239 92.0514C108.963 75.6294 106.516 58.4332 97.9986 42C97.9986 56.5838 93.3142 69.7816 85.7136 79.3338L78.3132 88.6578C77.6888 80.2228 78.9418 71.8956 81.9406 64.3076C90.5632 44.4612 81.2378 21.9338 61.1142 14C65.807 25.3022 66.1612 38.4006 61.1142 50.6002L51.1 74.7852C45.4104 65.7748 42 54.3998 42 42C33.4824 58.4332 31.0338 75.6294 33.7582 92.0528C30.6614 88.1524 27.895 84.6706 27.895 84.6706C23.0146 78.5316 19.999 70.0462 19.999 60.6676C11.6956 76.6906 12.3102 93.8448 19.999 108.675C22.827 114.11 24.7156 119.93 25.5318 126Z" fill="#FF6600"/>
</g>
</svg>
