<svg width="140" height="140" viewBox="0 0 140 140" fill="none" xmlns="http://www.w3.org/2000/svg">
<g id="flame, fire, heat, light, 22">
<path id="Vector" d="M110.414 125.999C120.249 111.315 126 93.6698 126 74.6662C126 61.7778 115.555 51.3338 102.666 51.3338C108.427 56.1092 112 62.7088 112 70C112 75.1506 107.817 79.3338 102.666 79.3338C97.5184 79.3338 93.3352 75.1506 93.3352 70C93.3352 66.7002 93.8896 63.5474 94.8934 60.6662C96.88 54.9066 98 48.6038 98 42C98 26.5384 85.4686 14 70.0014 14C77.21 21.1638 81.6676 31.0618 81.6676 42C81.6676 48.44 76.4456 53.6662 70.0014 53.6662C63.5572 53.6662 58.3324 48.44 58.3324 42C58.3324 36.5316 61.005 31.5826 65.3352 28C55.027 28 46.6676 36.358 46.6676 46.6662C46.6676 53.27 47.7834 59.5714 49.7756 65.3324C50.7738 68.2136 51.3338 71.3664 51.3338 74.6662C51.3338 81.102 46.1048 86.3338 39.6676 86.3338C33.222 86.3338 28 81.102 28 74.6662C28 67.375 31.5672 60.7768 37.3338 56C24.4412 56 14 66.4454 14 79.3338C14 96.81 19.7204 112.904 29.3104 125.999H110.414Z" fill="#FF6600"/>
</g>
</svg>
