<svg width="140" height="140" viewBox="0 0 140 140" fill="none" xmlns="http://www.w3.org/2000/svg">
<g id="flame, fire, heat, light, 15">
<path id="Vector" d="M115.741 126.001C122.483 113.105 125.943 98.7714 125.983 84.3962C122.658 92.4406 117.736 99.9978 111.201 106.533C107.558 110.176 101.643 110.179 98.0015 106.533C94.3559 102.892 94.3559 96.9766 98.0015 93.3338L112.001 79.3338C130.663 61.2948 130.663 32.0362 112.001 13.9986C114.887 18.7754 116.669 25.3736 116.669 32.6662C116.669 40.3956 112.49 46.6662 107.335 46.6662C102.185 46.6662 98.0015 42.483 98.0015 37.3324C98.0015 33.6868 99.7823 30.387 102.668 28C92.3651 28 84.0015 38.4454 84.0015 51.3338V60.6676C84.0015 65.8182 79.8225 70.0014 74.6677 70.0014C69.5171 70.0014 65.3339 65.8182 65.3339 60.6676C65.3339 53.0656 68.3061 46.193 73.1095 41.2258C80.8893 33.7064 80.8893 21.5152 73.1095 14C73.1179 20.1208 70.7799 26.236 66.1123 30.9078L51.3339 45.6862C45.5617 51.8966 42.0015 60.4926 42.0015 70C42.0015 76.44 38.8655 81.6676 35.0015 81.6676C31.1417 81.6676 28.0015 76.44 28.0015 70C28.0015 59.0576 31.5645 49.1526 37.3353 42C22.9055 50.3524 14.0001 61.8968 14.0001 74.6662C13.9749 92.7598 19.3551 110.807 29.9405 126.001H115.741Z" fill="#FF6600"/>
</g>
</svg>
