<svg width="25" height="20" viewBox="0 0 25 20" fill="none" xmlns="http://www.w3.org/2000/svg">
<path d="M21.847 4.51548L20.9581 5.40438L18.9784 3.42465L19.8673 2.53575C20.3593 2.0437 21.1994 2.09004 21.7473 2.63798C22.02 2.91069 22.1686 3.25895 22.1857 3.59737C22.2026 3.93608 22.0931 4.26974 21.847 4.51548Z" fill="#6F6C75"/>
<path d="M17.7308 8.63081L14.2511 12.1134L12.2719 14.0926L7.62041 18.7415C7.12836 19.2336 6.28833 19.1872 5.74179 18.6435C5.46992 18.3688 5.32051 18.0208 5.30141 17.681C5.28231 17.3384 5.39381 17.0095 5.64124 16.7621L10.2927 12.1134L12.2719 10.1342L15.7517 6.65164L17.7308 8.63081Z" fill="#6F6C75"/>
<path d="M24.5 8.40248L21.273 11.6295L18.0027 8.35895L16.0236 6.38006L13.7888 4.1425L17.0158 0.918312L19.2506 3.15306L21.2297 5.13223L24.5 8.40248Z" fill="#6F6C75"/>
<path d="M2.42266 4.24362L3.31156 5.13252L5.29129 3.15278L4.40239 2.26388C3.91034 1.77183 3.07031 1.81817 2.52237 2.36611C2.24966 2.63882 2.10109 2.98708 2.08395 3.32551C2.0671 3.66422 2.17692 3.99787 2.42266 4.24362Z" fill="#6F6C75"/>
<path d="M8.51724 6.38008L6.53809 8.35924L10.0206 11.8417L11.9997 9.86257L8.51724 6.38008Z" fill="#6F6C75"/>
<path d="M19.5115 17.9529C19.4924 18.2927 19.343 18.6407 19.0711 18.9154C18.5246 19.4591 17.6846 19.5054 17.1925 19.0134L12.5438 14.3644L14.523 12.3853L19.1717 17.0339C19.4191 17.2816 19.5306 17.6105 19.5115 17.9529Z" fill="#6F6C75"/>
<path d="M0.5 8.86168L2.26544 10.6274L6.09066 8.26318L10.4818 3.87204L7.25507 0.645325L3.03975 4.86065L0.5 8.86168Z" fill="#6F6C75"/>
</svg>
