<svg width="25" height="20" viewBox="0 0 25 20" fill="none" xmlns="http://www.w3.org/2000/svg">
<path d="M21.8471 4.51549L20.9582 5.40439L18.9784 3.42466L19.8673 2.53576C20.3594 2.0437 21.1994 2.09004 21.7474 2.63799C22.0201 2.9107 22.1686 3.25895 22.1858 3.59738C22.2026 3.93609 22.0931 4.26974 21.8471 4.51549Z" fill="#6600FF"/>
<path d="M17.7309 8.63084L14.2511 12.1134L12.272 14.0926L7.62047 18.7415C7.12842 19.2336 6.28839 19.1873 5.74185 18.6435C5.46998 18.3689 5.32057 18.0209 5.30147 17.681C5.28237 17.3384 5.39387 17.0095 5.6413 16.7621L10.2928 12.1134L12.272 10.1342L15.7517 6.65167L17.7309 8.63084Z" fill="#6600FF"/>
<path d="M24.5 8.4025L21.273 11.6295L18.0028 8.35897L16.0236 6.38008L13.7888 4.14253L17.0158 0.918335L19.2506 3.15308L21.2298 5.13225L24.5 8.4025Z" fill="#6600FF"/>
<path d="M2.42272 4.24364L3.31162 5.13254L5.29135 3.15281L4.40246 2.26391C3.9104 1.77185 3.07037 1.81819 2.52243 2.36614C2.24972 2.63885 2.10115 2.9871 2.08402 3.32553C2.06716 3.66424 2.17698 3.99789 2.42272 4.24364Z" fill="#6600FF"/>
<path d="M8.51727 6.38009L6.53812 8.35925L10.0206 11.8417L11.9998 9.86259L8.51727 6.38009Z" fill="#6600FF"/>
<path d="M19.5115 17.9529C19.4924 18.2927 19.343 18.6407 19.0711 18.9154C18.5246 19.4591 17.6846 19.5054 17.1925 19.0134L12.5438 14.3644L14.523 12.3853L19.1717 17.0339C19.4191 17.2816 19.5306 17.6105 19.5115 17.9529Z" fill="#6600FF"/>
<path d="M0.5 8.86168L2.26544 10.6274L6.09066 8.26318L10.4818 3.87204L7.25507 0.645325L3.03975 4.86065L0.5 8.86168Z" fill="#6600FF"/>
</svg>
