<svg
width="24"
height="24"
viewBox="0 0 21 21"
fill="none"
xmlns="http://www.w3.org/2000/svg"
>
<path
  d="M0.5 2.80505C0.5 1.70048 1.39543 0.805054 2.5 0.805054H18.5C19.6046 0.805054 20.5 1.70048 20.5 2.80505V18.8051C20.5 19.9096 19.6046 20.8051 18.5 20.8051H2.5C1.39543 20.8051 0.5 19.9096 0.5 18.8051V2.80505Z"
  fill="#FF6600"
/>
<path
  d="M12.6747 9.06049C12.3647 10.3005 10.4347 9.67049 9.83469 9.50049L10.3847 7.32049C11.0047 7.50049 12.9947 7.76049 12.6747 9.06049ZM9.56469 10.6205L8.96469 13.0305C9.70469 13.2205 11.9947 13.9505 12.3347 12.5905C12.6947 11.1705 10.3047 10.8005 9.56469 10.6205ZM12.6447 6.55049L13.0947 4.75049L11.9947 4.50049L11.5547 6.23049C11.2647 6.16049 10.9747 6.09049 10.6747 6.03049L11.1147 4.26049L10.0247 4.00049L9.57469 5.79049C9.33469 5.73049 9.09469 5.68049 8.87469 5.62049L7.36469 5.24049L7.06469 6.41049C7.06469 6.41049 7.88469 6.60049 7.86469 6.61049C8.31469 6.72049 8.39469 7.00049 8.37469 7.25049L7.14469 12.1805C7.09469 12.3205 6.93469 12.5005 6.64469 12.4505C6.65469 12.4605 5.84469 12.2505 5.84469 12.2505L5.30469 13.5005L6.72469 13.8605C6.99469 13.9305 7.25469 14.0005 7.51469 14.0605L7.05469 15.8805L8.15469 16.1605L8.60469 14.3505C8.90469 14.4305 9.19469 14.5005 9.47469 14.5805L9.02469 16.3705L10.1247 16.6505L10.5847 14.8305C12.4347 15.1805 13.8547 15.0405 14.4347 13.3505C14.9347 12.0005 14.4347 11.2005 13.4347 10.6905C14.1547 10.5005 14.6947 10.0505 14.8447 9.07049C15.0447 7.74049 14.0247 7.03049 12.6447 6.55049Z"
  fill="FF6600"
/>
<path
  fill-rule="evenodd"
  clip-rule="evenodd"
  d="M12.6447 6.55049L13.0947 4.75049L11.9947 4.50049L11.5547 6.23049C11.2647 6.16049 10.9747 6.09049 10.6747 6.03049L11.1147 4.26049L10.0247 4.00049L9.57469 5.79049C9.33469 5.73049 9.09469 5.68049 8.87469 5.62049L7.36469 5.24049L7.06469 6.41049C7.06469 6.41049 7.88469 6.60049 7.86469 6.61049C8.31469 6.72049 8.39469 7.00049 8.37469 7.25049L7.14469 12.1805C7.09469 12.3205 6.93469 12.5005 6.64469 12.4505C6.65469 12.4605 5.84469 12.2505 5.84469 12.2505L5.30469 13.5005L6.72469 13.8605C6.99469 13.9305 7.25469 14.0005 7.51469 14.0605L7.05469 15.8805L8.15469 16.1605L8.60469 14.3505C8.90469 14.4305 9.19469 14.5005 9.47469 14.5805L9.02469 16.3705L10.1247 16.6505L10.5847 14.8305C12.4347 15.1805 13.8547 15.0405 14.4347 13.3505C14.9347 12.0005 14.4347 11.2005 13.4347 10.6905C14.1547 10.5005 14.6947 10.0505 14.8447 9.07049C15.0447 7.74049 14.0247 7.03049 12.6447 6.55049ZM9.83469 9.50049C10.4347 9.67049 12.3647 10.3005 12.6747 9.06049C12.9947 7.76049 11.0047 7.50049 10.3847 7.32049L9.83469 9.50049ZM8.96469 13.0305L9.56469 10.6205C10.3047 10.8005 12.6947 11.1705 12.3347 12.5905C11.9947 13.9505 9.70469 13.2205 8.96469 13.0305Z"
  fill="#F5F5F7"
/>
</svg>