<svg
            width="24"
            height="25"
            viewBox="0 0 24 25"
            fill="none"
            xmlns="http://www.w3.org/2000/svg"
          >
            <path
              d="M2 4.80505C2 3.70048 2.89543 2.80505 4 2.80505H20C21.1046 2.80505 22 3.70048 22 4.80505V20.8051C22 21.9096 21.1046 22.8051 20 22.8051H4C2.89543 22.8051 2 21.9096 2 20.8051V4.80505Z"
              fill="#6600FF"
            />
            <path
              d="M12.2604 12.7816C12.5122 12.5316 12.7053 12.2465 12.8398 11.9261C12.9744 11.6058 13.0417 11.2738 13.0417 10.9301C13.0417 10.5863 12.9744 10.2543 12.8398 9.93396C12.7053 9.61365 12.5122 9.32849 12.2604 9.07849C12.7812 9.14099 13.2153 9.34802 13.5625 9.69958C13.9097 10.0511 14.0833 10.4613 14.0833 10.9301C14.0833 11.3988 13.9097 11.809 13.5625 12.1605C13.2153 12.5121 12.7812 12.7191 12.2604 12.7816ZM15.125 16.5551V15.1488C15.125 14.8676 15.0556 14.6 14.9167 14.3461C14.7778 14.0922 14.5955 13.8676 14.3698 13.6722C14.8125 13.8129 15.2227 13.9945 15.6003 14.2172C15.9779 14.4398 16.1667 14.7504 16.1667 15.1488V16.5551H15.125ZM16.1667 13.2738V12.3363H15.125V11.3988H16.1667V10.4613H17.2083V11.3988H18.25V12.3363H17.2083V13.2738H16.1667ZM9.91667 12.8051C9.34375 12.8051 8.8533 12.6215 8.44531 12.2543C8.03733 11.8871 7.83333 11.4457 7.83333 10.9301C7.83333 10.4144 8.03733 9.97302 8.44531 9.60583C8.8533 9.23865 9.34375 9.05505 9.91667 9.05505C10.4896 9.05505 10.98 9.23865 11.388 9.60583C11.796 9.97302 12 10.4144 12 10.9301C12 11.4457 11.796 11.8871 11.388 12.2543C10.98 12.6215 10.4896 12.8051 9.91667 12.8051ZM5.75 16.5551V15.2426C5.75 14.9769 5.82595 14.7328 5.97786 14.5101C6.12977 14.2875 6.3316 14.1176 6.58333 14.0004C7.12153 13.7582 7.6684 13.5765 8.22396 13.4554C8.77951 13.3344 9.34375 13.2738 9.91667 13.2738C10.4896 13.2738 11.0538 13.3344 11.6094 13.4554C12.1649 13.5765 12.7118 13.7582 13.25 14.0004C13.5017 14.1176 13.7036 14.2875 13.8555 14.5101C14.0074 14.7328 14.0833 14.9769 14.0833 15.2426V16.5551H5.75ZM9.91667 11.8676C10.2031 11.8676 10.4484 11.7758 10.6523 11.5922C10.8563 11.4086 10.9583 11.1879 10.9583 10.9301C10.9583 10.6722 10.8563 10.4515 10.6523 10.2679C10.4484 10.0844 10.2031 9.99255 9.91667 9.99255C9.63021 9.99255 9.38498 10.0844 9.18099 10.2679C8.977 10.4515 8.875 10.6722 8.875 10.9301C8.875 11.1879 8.977 11.4086 9.18099 11.5922C9.38498 11.7758 9.63021 11.8676 9.91667 11.8676ZM6.79167 15.6176H13.0417V15.2426C13.0417 15.1566 13.0178 15.0785 12.9701 15.0082C12.9223 14.9379 12.8594 14.8832 12.7812 14.8441C12.3125 14.6332 11.8394 14.475 11.362 14.3695C10.8845 14.264 10.4028 14.2113 9.91667 14.2113C9.43056 14.2113 8.94879 14.264 8.47135 14.3695C7.99392 14.475 7.52083 14.6332 7.05208 14.8441C6.97396 14.8832 6.91102 14.9379 6.86328 15.0082C6.81554 15.0785 6.79167 15.1566 6.79167 15.2426V15.6176Z"
              fill="#F5F5F7"
            />
            <path
              d="M9.91667 11.8676C10.2031 11.8676 10.4484 11.7758 10.6523 11.5922C10.8563 11.4086 10.9583 11.1879 10.9583 10.9301C10.9583 10.6722 10.8563 10.4515 10.6523 10.2679C10.4484 10.0844 10.2031 9.99255 9.91667 9.99255C9.63021 9.99255 9.38498 10.0844 9.18099 10.2679C8.977 10.4515 8.875 10.6722 8.875 10.9301C8.875 11.1879 8.977 11.4086 9.18099 11.5922C9.38498 11.7758 9.63021 11.8676 9.91667 11.8676Z"
              fill="#F5F5F7"
            />
            <path
              d="M6.79167 15.6176H13.0417V15.2426C13.0417 15.1566 13.0178 15.0785 12.9701 15.0082C12.9223 14.9379 12.8594 14.8832 12.7812 14.8441C12.3125 14.6332 11.8394 14.475 11.362 14.3695C10.8845 14.264 10.4028 14.2113 9.91667 14.2113C9.43056 14.2113 8.94879 14.264 8.47135 14.3695C7.99392 14.475 7.52083 14.6332 7.05208 14.8441C6.97396 14.8832 6.91102 14.9379 6.86328 15.0082C6.81554 15.0785 6.79167 15.1566 6.79167 15.2426V15.6176Z"
              fill="#F5F5F7"
            />
          </svg>