<svg xmlns="http://www.w3.org/2000/svg" width="21" height="21" viewBox="0 0 21 21" fill="none">
<path fill-rule="evenodd" clip-rule="evenodd" d="M10.3333 20.3337C15.8561 20.3337 20.3333 15.8566 20.3333 10.3337C20.3333 4.81089 15.8561 0.33374 10.3333 0.33374C4.8104 0.33374 0.333252 4.81089 0.333252 10.3337C0.333252 15.8566 4.8104 20.3337 10.3333 20.3337Z" fill="#F7931A"/>
<path fill-rule="evenodd" clip-rule="evenodd" d="M13.6659 12.0611C13.4805 11.6161 13.0663 11.2418 13.0663 11.2418C13.0663 11.2418 13.6021 11.2375 13.9013 11.0968C14.2006 10.9562 14.4927 10.6392 14.6155 10.4581C14.7382 10.2768 15.2278 9.50243 14.8823 8.6945C14.6151 8.06944 14.1561 7.6176 13.4576 7.15347L14.3813 5.55348L13.4088 4.99201L12.496 6.5731C12.279 6.44782 12.0254 6.30142 11.7552 6.14544L12.6681 4.56435L11.6957 4.00293L10.7828 5.58402C9.79012 5.01087 8.86967 4.47945 8.86967 4.47945L8.2782 5.50389C8.2782 5.50389 8.68718 5.74002 8.84054 5.82856C8.99385 5.91707 9.25653 6.09178 9.29645 6.29022C9.33654 6.48845 9.31703 6.56946 9.1694 6.82517C9.02171 7.08097 6.86857 10.8104 6.81267 10.9072C6.7568 11.004 6.66946 11.1133 6.54232 11.1445C6.41531 11.1757 6.32298 11.1468 6.12749 11.034C5.93204 10.9211 5.54588 10.6982 5.54588 10.6982L4.66187 11.7676C4.66187 11.7676 5.61263 12.3165 6.57504 12.8721L5.66478 14.4488L6.63723 15.0102L7.54749 13.4336C7.84629 13.6061 8.10646 13.7563 8.28822 13.8613L7.37796 15.4379L8.35046 15.9993L9.27573 14.3967C9.53572 14.527 9.78127 14.643 9.92848 14.7037C10.227 14.827 10.8966 15.1153 11.7225 15.0389C12.5482 14.9624 13.0552 14.3884 13.4468 13.7417C13.8385 13.0951 13.851 12.506 13.6659 12.0611ZM11.109 7.26137C11.109 7.26137 11.4339 7.41215 11.7358 7.59246C12.0378 7.77287 12.3004 7.93686 12.6285 8.2923C12.9565 8.64769 13.0169 9.08827 12.8186 9.45321C12.6201 9.81802 12.327 9.96833 11.9667 9.96314C11.6062 9.95785 11.1813 9.82319 10.8188 9.63214C10.4564 9.44141 10.0099 9.16512 10.0099 9.16512L11.109 7.26137ZM10.5672 13.2342C10.2726 13.2301 9.76335 13.0836 9.31316 12.8666C8.86274 12.6496 8.22545 12.2633 8.22545 12.2633L9.4471 10.1473C9.4471 10.1473 10.0837 10.4719 10.5469 10.7823C11.0099 11.0928 11.3425 11.4506 11.4708 11.6478C11.5994 11.8449 11.8006 12.2314 11.5211 12.7155C11.2417 13.1995 10.8615 13.2382 10.5672 13.2342Z" fill="white"/>
</svg>