<svg xmlns="http://www.w3.org/2000/svg" width="20" height="20" viewBox="0 0 20 20" fill="none">
<path d="M6.50624 0C6.07267 0 5.72187 0.372948 5.72187 0.834374V1.24375C5.69408 1.20417 5.66515 1.16101 5.63124 1.125L4.8625 0.309375C4.48393 -0.0934987 3.87541 -0.0934987 3.49687 0.309375L0.574999 3.425C0.19643 3.82787 0.19643 4.47525 0.574999 4.87812L1.34062 5.69687C1.44438 5.80724 1.56488 5.88135 1.69375 5.93124C0.678879 6.55127 0 7.72285 0 9.06249V16.3969C0 18.3912 1.51039 20 3.38437 20H16.6031C18.4771 20 19.9906 18.3912 19.9906 16.3969V9.27187C19.9959 9.2294 20 9.1878 20 9.14374V6.40937C20 6.36531 19.9959 6.32371 19.9906 6.28124V4.32812C19.9906 3.63607 19.6 3.15625 19.6 3.15625L17.825 0.4C17.822 0.394676 17.8186 0.389622 17.8156 0.384375C17.811 0.379277 17.8079 0.3737 17.8031 0.36875C17.6638 0.146275 17.4303 0 17.1593 0H6.50624ZM9.36874 2.4875L15.4937 2.49375C15.6356 2.47483 15.7831 2.54701 15.8594 2.6875L16.6469 4.1375C16.7485 4.32481 16.6885 4.56372 16.5125 4.67187C13.729 4.6978 10.7166 4.70776 8.27187 4.70937C8.25516 4.70937 8.24073 4.70652 8.22499 4.70312C8.22339 4.70283 8.22029 4.70341 8.21869 4.70312C8.20909 4.70517 8.1999 4.70707 8.19057 4.70937V4.69375C8.09842 4.65757 8.03119 4.56083 8.03119 4.45V3.91562C8.03119 3.82268 8.07769 3.74193 8.14682 3.69687C8.15733 3.67749 8.16872 3.66034 8.18432 3.64375L9.19369 2.56562C9.24092 2.51533 9.30704 2.4875 9.36874 2.4875ZM9.99374 6.25937C10.7986 9.07448 13.6888 11.8372 13.6562 14.1094C13.6315 15.8367 12.4472 18.0844 10.1031 18.0844C8.02687 18.0844 6.31786 16.2594 6.34374 14.1625C6.37579 11.5656 9.00671 9.01415 9.99374 6.25937Z" fill="black"/>
<path d="M6.50694 0C6.07337 0 5.72222 0.371907 5.72222 0.833333V1.24306C5.69443 1.20347 5.66585 1.16101 5.63194 1.125L4.86111 0.3125C4.48254 -0.0903734 3.87854 -0.0903734 3.5 0.3125L0.576389 3.42361C0.197819 3.82649 0.197819 4.47213 0.576389 4.875L1.34028 5.69444C1.44404 5.80481 1.56557 5.88066 1.69444 5.93056C0.679576 6.55058 0 7.72286 0 9.0625V16.3958C0 18.3902 1.50797 20 3.38194 20H16.6042C18.4782 20 19.9931 18.3902 19.9931 16.3958V9.27083C19.9984 9.22837 20 9.1899 20 9.14583V6.40972C20 6.36566 19.9984 6.32719 19.9931 6.28472V4.32639C19.9931 3.63434 19.5972 3.15972 19.5972 3.15972L17.8264 0.402778C17.8234 0.397454 17.8155 0.387192 17.8125 0.381944C17.8079 0.376846 17.8104 0.373006 17.8056 0.368056C17.6663 0.14558 17.4307 0 17.1597 0H6.50694ZM9.36806 2.48611L15.4931 2.49306C15.6349 2.47414 15.7849 2.54702 15.8611 2.6875L16.6458 4.13889C16.7475 4.3262 16.6899 4.56547 16.5139 4.67361C13.7304 4.69954 10.7155 4.70672 8.27083 4.70833C8.25412 4.70833 8.23796 4.70479 8.22222 4.70139C8.22062 4.7011 8.21688 4.70168 8.21528 4.70139C8.20568 4.70343 8.19683 4.70604 8.1875 4.70833V4.69444C8.09535 4.65827 8.02778 4.56223 8.02778 4.45139V3.91667C8.02778 3.82373 8.0767 3.7395 8.14583 3.69444C8.15634 3.67506 8.1719 3.66243 8.1875 3.64583L9.19444 2.5625C9.24167 2.51221 9.30636 2.48611 9.36806 2.48611ZM9.99306 7.34028C10.6512 9.64213 13.0196 11.8991 12.9931 13.7569C12.9729 15.1694 12.0001 17.0069 10.0833 17.0069C8.38562 17.0069 6.98578 15.5132 7.00694 13.7986C7.03315 11.6752 9.18599 9.5928 9.99306 7.34028Z" fill="#9E68FF"/>
</svg>