<svg xmlns="http://www.w3.org/2000/svg" width="20" height="20" viewBox="0 0 20 20" fill="none">
<path fill-rule="evenodd" clip-rule="evenodd" d="M10 0C4.49144 0 0 4.49144 0 10C1.11111e-07 15.5086 4.49144 20 10 20C15.5086 20 20 15.5086 20 10C20 4.49144 15.5086 0 10 0ZM9.36372 3.9579H10.9062V5.34635C11.8576 5.42349 12.7961 5.68036 13.5161 6.1046L12.7318 7.99436C11.8704 7.53155 11.0221 7.30035 10.2378 7.30035C9.17081 7.30035 8.78516 7.66029 8.78516 8.11024C8.78516 9.48582 13.8889 8.4575 13.8889 11.7743C13.8889 13.137 12.9118 14.3198 10.9062 14.6155V16.0421H9.36372V14.6667C8.07813 14.5767 6.85675 14.2039 6.11111 13.6897L6.94661 11.8125C7.74368 12.3396 8.87491 12.6997 9.91623 12.6997C10.9704 12.6997 11.3819 12.4041 11.3819 11.967C11.3819 10.54 6.26519 11.5812 6.26519 8.23872C6.26519 6.82457 7.28107 5.62908 9.36372 5.37196V3.9579Z" fill="#FF6600"/>
</svg>