<svg xmlns="http://www.w3.org/2000/svg" width="21" height="20" viewBox="0 0 21 20" fill="none">
<path d="M20.2982 12.419C18.9626 17.7762 13.5366 21.0365 8.1788 19.7006C2.82322 18.365 -0.437064 12.9387 0.899095 7.58197C2.23408 2.22419 7.66005 -1.03634 13.0162 0.299234C18.3737 1.63481 21.6338 7.0617 20.298 12.4191L20.2981 12.419H20.2982Z" fill="#50AF95"/>
<path fill-rule="evenodd" clip-rule="evenodd" d="M11.8654 11.1339C11.7947 11.1392 11.4294 11.161 10.6145 11.161C9.96632 11.161 9.50612 11.1415 9.34467 11.1339C6.8398 11.0237 4.97013 10.5877 4.97013 10.0656C4.97013 9.54352 6.8398 9.10807 9.34467 8.99611V10.6996C9.50848 10.7114 9.97751 10.7391 10.6257 10.7391C11.4035 10.7391 11.793 10.7067 11.8631 10.7002V8.99729C14.3627 9.10866 16.2282 9.5447 16.2282 10.0656C16.2282 10.5865 14.3632 11.0225 11.8631 11.1333L11.8654 11.1339ZM11.8658 8.8211V7.29673H15.3541V4.97217H5.85668V7.29673H9.34441V8.82051C6.50956 8.95073 4.37769 9.51228 4.37769 10.1852C4.37769 10.8581 6.50956 11.4191 9.34441 11.5499V16.4347H11.8652V11.5481C14.6935 11.4179 16.8219 10.8569 16.8219 10.1846C16.8219 9.51228 14.6953 8.95132 11.8652 8.82051L11.8658 8.8211Z" fill="white"/>
</svg>