<svg width="24" height="24" viewBox="0 0 24 24" fill="none" xmlns="http://www.w3.org/2000/svg">
<g id="uefa-champions-league-2 1" clip-path="url(#clip0_1379_63259)">
<path id="Vector" fill-rule="evenodd" clip-rule="evenodd" d="M0 0H24V24H0V0Z" fill="white"/>
<path id="Vector_2" fill-rule="evenodd" clip-rule="evenodd" d="M16.075 5.91525C16.0809 5.90106 16.2447 7.17753 16.2582 7.17504C16.4503 7.13918 17.0976 6.89116 17.2202 6.81658C17.2309 6.81023 16.8885 7.67744 16.3375 8.14248C16.3222 8.15543 16.3829 8.85256 16.39 9.18164C16.3903 9.19721 15.8108 8.96811 15.5371 8.81409C15.1391 9.07108 14.1986 9.36106 14.1991 9.37799L14.2232 10.319C14.2234 10.3289 15.6275 10.1617 15.6134 10.1732C14.4612 11.1316 13.4034 11.5672 12.0531 11.5746C12.0254 11.5747 12.6408 11.1938 12.7556 10.9459C12.6561 10.8476 12.2032 10.4675 12.0978 10.3412C12.1116 10.3165 12.9293 10.3906 13.3156 10.3894C13.5822 10.1117 13.8361 9.82025 14.054 9.50213C14.3119 9.12574 14.5775 8.75208 14.7791 8.3412C14.7886 8.32153 14.0833 7.74916 13.8236 7.4075C13.8122 7.39256 14.7825 7.4349 15.2473 7.39144C15.3068 7.38571 15.8753 6.38951 16.075 5.91525ZM13.0935 1.30516C12.8216 1.48495 12.1048 2.10538 12.1336 2.11522C12.4945 2.23886 12.872 2.36162 13.2216 2.54864C13.2326 2.55436 13.2403 2.56457 13.2525 2.58387C12.7248 2.62147 12.2207 2.60479 11.6822 2.71598C11.4426 3.02501 11.2058 3.60037 11.1241 3.99183C11.37 4.39076 11.6123 4.78545 11.882 5.1611C11.9195 5.17629 13.0986 4.85617 13.6659 4.69879C13.6659 4.69879 12.6111 6.1141 12.6175 6.12157C12.6175 6.12157 13.7401 7.35845 13.7269 7.35658C13.1549 7.27415 12.0048 6.99438 11.9939 7.01281L11.2141 8.32203C11.1199 8.7669 11.0474 9.23792 10.9965 9.71442C11.0139 9.74854 12.0283 10.2913 12.0283 10.2913C12.0421 10.2987 11.3445 10.3888 11.007 10.3814C10.9765 10.3808 10.9899 11.124 11.0498 11.4562C11.0527 11.4724 10.8797 11.4669 10.81 11.4522C10.6104 11.2681 9.89869 10.33 9.87504 10.3276C9.29856 10.271 8.72195 10.1805 8.17884 9.97091C8.16452 9.96543 9.38708 9.47212 9.38821 9.46864C9.39592 9.44635 9.02377 8.71523 8.91955 8.35565C8.59794 8.1649 7.95647 7.78639 7.94427 7.8032C7.71616 8.12269 7.26233 8.77898 7.25946 8.77474C7.19422 8.67688 7.15363 8.57852 7.11752 8.4885C7.13445 8.07376 7.22908 7.21875 7.20567 7.20082C7.03012 7.06772 6.66094 6.70054 6.68684 6.67041C6.95479 6.57105 7.22198 6.49796 7.4984 6.42027C7.62216 6.10936 8.03204 5.38061 8.06927 5.31026C8.06604 5.26544 7.71156 4.87261 7.59589 4.69232C7.57634 4.66169 6.74586 5.44909 6.74723 5.44037C6.99264 3.84989 8.01947 2.72967 8.59421 2.3483C8.60392 2.34182 8.37245 3.01331 8.31418 3.35596C8.31082 3.37625 8.84086 3.38098 9.0839 3.39692C9.08702 3.41821 8.33012 3.97987 8.15332 4.12804C8.12406 4.68535 8.107 5.4395 8.21246 6.21644C8.23973 6.2452 8.98417 6.21482 9.5223 6.1385C9.82137 5.97079 10.7389 5.61207 10.8602 5.57223C10.88 5.56576 10.9852 4.50033 11.1026 3.99245C11.0565 3.92646 10.4087 3.00633 10.4087 3.00633C10.3937 2.98417 9.59676 3.22049 9.23058 3.34712C9.21414 3.35284 9.8088 2.63617 10.0977 2.46272C10.1238 2.40333 9.80444 1.64756 9.80444 1.64756C9.79996 1.63137 10.7038 1.71641 11.1289 1.83806C11.7126 1.5279 13.1067 1.29669 13.0935 1.30516ZM8.50929 7.11005C8.48626 7.13707 8.45637 7.16695 8.46646 7.20493C8.5703 7.59763 8.73926 7.9683 8.93549 8.34083L9.09374 8.46671C9.38509 8.68759 9.6752 8.91071 9.97813 9.1164C9.99777 9.12986 10.021 9.13714 10.0448 9.13729C10.0686 9.13745 10.0919 9.13048 10.1117 9.11727C10.4869 8.87112 10.8641 8.62446 11.1962 8.31219C11.0703 7.78564 10.9518 7.24863 10.929 6.70041C10.9281 6.67962 10.9171 6.6531 10.9031 6.64812L9.52654 6.16191C9.15961 6.45575 8.80923 6.75806 8.50929 7.11005Z" fill="black"/>
<path id="Vector_3" fill-rule="evenodd" clip-rule="evenodd" d="M15.144 2.18955C15.1514 2.17922 15.548 2.98978 15.665 3.40165C16.4843 3.95871 16.9116 4.48003 16.9264 4.4946C16.906 4.51228 15.9553 4.45625 15.9578 4.47194C16.0235 4.89963 16.0811 5.33305 16.0936 5.76958C16.088 5.76958 16.0663 5.77107 16.0653 5.76958C16.0653 5.76958 15.1035 4.39997 15.0615 4.42637C14.6063 4.46086 14.1777 4.55312 13.7388 4.65385C13.7419 4.6531 13.7309 4.65036 13.7228 4.64065C13.9689 4.34407 14.2234 4.0577 14.4431 3.74393C14.4612 3.71791 13.2712 2.57454 13.2824 2.57528C13.8072 2.60492 14.305 2.77886 14.7967 2.94769C14.8192 2.95541 15.1348 2.20225 15.144 2.18955ZM8.56881 17.51C8.6917 17.5268 8.81584 17.5394 8.93972 17.5375L9.3084 17.513L9.93904 19.0815C9.9495 19.1078 9.98312 19.0815 9.98947 19.064L10.5504 17.5081C10.7917 17.541 11.0327 17.5367 11.2708 17.5045C11.2876 17.502 11.3074 17.5055 11.3125 17.5227C11.314 17.5278 11.3142 17.5331 11.3132 17.5384C11.3122 17.5436 11.3099 17.5484 11.3066 17.5526C11.3034 17.5568 11.2991 17.5601 11.2943 17.5623C11.2895 17.5645 11.2842 17.5655 11.2789 17.5653C11.2183 17.5614 11.1615 17.6068 11.1638 17.6669C11.1904 18.3405 11.2501 19.0124 11.3095 19.6853C11.3578 19.7414 11.4288 19.7592 11.4902 19.7657C11.5014 19.7932 11.4959 19.8203 11.4803 19.8195C11.2647 19.809 11.0459 19.7922 10.8274 19.8022C10.7406 19.8061 10.6535 19.8137 10.5679 19.818C10.5488 19.8188 10.5417 19.7665 10.5646 19.7647C10.6087 19.7614 10.6555 19.7467 10.6992 19.7282C10.7739 19.6966 10.7857 19.6113 10.7828 19.5384C10.7638 19.0579 10.718 18.5793 10.6797 18.1002C10.6789 18.0894 10.6473 18.077 10.6423 18.0917L10.2497 19.1992L10.0425 19.7993C10.0347 19.8222 9.98897 19.8193 9.95884 19.8198L9.75713 19.8195C9.73933 19.819 9.72513 19.8047 9.71878 19.7881C9.50488 19.2191 9.26831 18.6593 9.04419 18.0946C9.03921 18.0819 9.01319 18.0765 9.01157 18.0879C9.00422 18.1397 8.997 18.1935 8.99725 18.2474C8.99937 18.7175 8.95018 19.1866 8.97509 19.6497C9.00671 19.7129 9.06299 19.7484 9.12537 19.7508C9.15824 19.752 9.19422 19.7602 9.21078 19.787C9.21763 19.7977 9.20456 19.8215 9.18688 19.8199C8.93264 19.7949 8.67659 19.7944 8.42226 19.8184C8.4067 19.8199 8.40122 19.7714 8.41728 19.7691C8.45712 19.7635 8.49622 19.7472 8.53519 19.7326C8.56657 19.7209 8.60392 19.6908 8.60691 19.6494C8.65323 18.9958 8.70116 18.3321 8.7105 17.667C8.711 17.6295 8.68274 17.5979 8.63804 17.5843C8.6089 17.5877 8.57329 17.5734 8.54964 17.5514C8.5342 17.537 8.5515 17.5075 8.56881 17.51ZM5.39493 17.5148C5.40763 17.5128 5.4222 17.5182 5.42656 17.526C5.42952 17.5312 5.43104 17.5371 5.43095 17.5431C5.43086 17.5491 5.42918 17.5549 5.42606 17.5601C5.42295 17.5652 5.41852 17.5693 5.41325 17.5722C5.40797 17.575 5.40203 17.5763 5.39605 17.5761C5.34015 17.5751 5.28686 17.6072 5.26893 17.66C5.24975 17.7172 5.24988 17.7787 5.25 17.8392C5.25137 18.4484 5.24975 19.058 5.27105 19.667C5.27291 19.7183 5.32222 19.7548 5.37439 19.7543C5.39145 19.7543 5.40801 19.7594 5.42183 19.7693C5.43104 19.7762 5.43552 19.7888 5.42855 19.8017C5.42544 19.8073 5.41647 19.8214 5.40726 19.8206C5.14204 19.7966 4.87504 19.8005 4.61065 19.8323C4.59807 19.8338 4.5769 19.8357 4.56097 19.8234C4.55188 19.8163 4.54727 19.8037 4.55574 19.791C4.56968 19.7701 4.60293 19.7678 4.62372 19.7616C4.69208 19.7409 4.73117 19.6823 4.73142 19.6162C4.73242 19.3419 4.74213 19.0678 4.73702 18.7933C4.7369 18.7857 4.72345 18.7729 4.71511 18.7729C4.42102 18.7797 4.12605 18.7792 3.83458 18.7744C3.81378 18.7739 3.80868 18.8053 3.80893 18.8259L3.81316 19.6311C3.81266 19.6878 3.8469 19.7365 3.90679 19.7602C3.92983 19.7692 3.97166 19.77 3.98685 19.7967C3.99631 19.8135 3.97477 19.8356 3.95535 19.8337C3.68131 19.8048 3.40452 19.7962 3.14093 19.8204C3.11777 19.8224 3.1103 19.802 3.11342 19.7888C3.11591 19.7788 3.12251 19.7617 3.13496 19.7637C3.20481 19.7742 3.28138 19.7224 3.283 19.6431C3.29632 18.9925 3.30192 18.3418 3.28138 17.6915C3.27926 17.6254 3.21701 17.5765 3.15114 17.5841C3.13122 17.5863 3.11093 17.5659 3.11566 17.5468C3.12126 17.5244 3.1499 17.5206 3.17318 17.5234C3.43913 17.5565 3.7082 17.555 3.96394 17.5229C3.98884 17.5198 3.99744 17.5671 3.97552 17.5689C3.9373 17.572 3.88363 17.5829 3.8489 17.6207C3.82424 17.6474 3.81154 17.6844 3.81117 17.7209L3.80457 18.4225C3.80447 18.4326 3.80837 18.4423 3.81542 18.4495C3.82247 18.4567 3.83209 18.4608 3.84217 18.461L4.71586 18.4576C4.7237 18.4576 4.73939 18.4438 4.73926 18.4347L4.73055 17.6779C4.72308 17.6001 4.63169 17.5758 4.56682 17.5775C4.55536 17.5489 4.56134 17.5213 4.57653 17.5229C4.73852 17.5402 4.90474 17.5492 5.07083 17.5448C5.17941 17.5419 5.28761 17.5311 5.39493 17.5148ZM21.0144 17.4934C21.0466 17.4886 21.0792 17.4863 21.1088 17.4883C21.117 17.511 21.1091 17.5367 21.0889 17.544C21.0588 17.5547 21.0208 17.5534 20.9921 17.5753C20.9367 17.6179 20.9333 17.695 20.9421 17.7616C20.9447 17.7805 20.9237 17.8366 20.928 17.8504C20.9518 17.9272 20.9357 18.0065 20.9354 18.0838L20.9344 19.7944C20.8076 19.8007 20.681 19.7934 20.5584 19.789L19.502 18.2316C19.4469 18.1521 19.3926 18.0726 19.3333 18.0004C19.3257 17.9915 19.3063 18.0009 19.306 18.0119C19.2882 18.5382 19.307 19.0651 19.3199 19.5917C19.3218 19.668 19.3941 19.7228 19.4711 19.7223C19.4787 19.7223 19.5015 19.7235 19.5086 19.7254C19.5326 19.7322 19.538 19.7848 19.5142 19.7818C19.2938 19.755 19.0621 19.7604 18.8363 19.7866C18.8202 19.7886 18.8158 19.7521 18.8334 19.7277C18.8964 19.7338 18.9596 19.6966 18.9915 19.6222L18.9989 17.6614C18.9804 17.5841 18.9014 17.5486 18.843 17.5466C18.8198 17.5458 18.8277 17.495 18.8532 17.4986C19.0874 17.5308 19.3357 17.531 19.5839 17.5035L20.5841 18.9971C20.5912 19.0076 20.6028 19.018 20.6143 19.0137C20.623 19.0101 20.6337 19.0001 20.6337 18.993C20.6352 18.5514 20.6388 18.1102 20.6204 17.6698C20.597 17.5838 20.5068 17.5356 20.4305 17.5522C20.4083 17.5568 20.395 17.5218 20.4065 17.4996C20.4123 17.4884 20.4327 17.4853 20.4505 17.4884C20.6365 17.5199 20.8273 17.5222 21.0144 17.4934ZM22.4746 17.4549C22.7913 17.4242 23.1109 17.4509 23.4181 17.5338C23.4314 17.5374 23.4492 17.5481 23.449 17.5618C23.4456 17.7687 23.4633 17.9776 23.4816 18.178C23.4838 18.2025 23.4295 18.2178 23.4249 18.1991C23.4038 18.1142 23.3571 18.0257 23.2946 17.9516C23.1616 17.7929 22.9616 17.7121 22.7567 17.7077C22.5867 17.7038 22.4026 17.7143 22.2747 17.8381C22.1782 17.9314 22.1731 18.0832 22.2513 18.1938C22.3845 18.3158 22.5674 18.3351 22.7325 18.3888C22.8966 18.4421 23.063 18.4887 23.2252 18.5483C23.537 18.6628 23.7233 18.9965 23.6179 19.3172C23.5136 19.6356 23.1975 19.7919 22.8854 19.8387C22.5124 19.8948 22.131 19.8635 21.7743 19.7394C21.7475 19.73 21.7539 19.6894 21.7534 19.6655C21.747 19.445 21.7465 19.2272 21.7254 19.022C21.7228 18.9958 21.7494 18.9863 21.7657 18.9929C21.7874 19.0016 21.7981 19.0233 21.8025 19.0459C21.8635 19.3702 22.1561 19.5917 22.4824 19.5833C22.6763 19.603 22.8856 19.579 23.0243 19.4313C23.0713 19.3809 23.0971 19.3144 23.0963 19.2455C23.0955 19.1766 23.0681 19.1106 23.0199 19.0614C22.9499 18.9904 22.8543 18.957 22.7614 18.9271C22.4813 18.8371 22.1863 18.7822 21.9337 18.6232C21.6699 18.4569 21.6042 18.114 21.7454 17.845C21.7541 17.8285 21.7817 17.7787 21.7934 17.7643C21.9615 17.5595 22.2202 17.4793 22.4746 17.4549ZM1.59178 17.2595C1.87711 17.2297 2.16549 17.2533 2.44218 17.3291C2.45003 17.3313 2.46136 17.342 2.46123 17.3492C2.45538 17.5893 2.47157 17.8286 2.48402 18.0677C2.48526 18.0908 2.43521 18.1105 2.4255 18.0786C2.39948 17.9929 2.35914 17.8901 2.28431 17.8097C2.05633 17.5643 1.70148 17.5482 1.40651 17.6635C1.34226 17.6888 1.28287 17.7258 1.23195 17.7712C0.826919 18.135 0.801021 18.7486 1.13857 19.1717C1.42033 19.525 1.90692 19.5922 2.30261 19.4074C2.40097 19.3614 2.50021 19.314 2.5835 19.2464C2.59795 19.2349 2.60965 19.2617 2.60791 19.2758L2.56669 19.6162C2.56408 19.6371 2.54578 19.6522 2.52722 19.6629C2.19354 19.8567 1.80332 19.9255 1.42158 19.8621C0.763419 19.7529 0.323153 19.1556 0.355152 18.5005C0.383664 17.9167 0.801519 17.4322 1.36567 17.2989C1.44011 17.2809 1.51564 17.2677 1.59178 17.2595ZM12.0081 17.5219C12.4484 17.5436 12.8929 17.5132 13.3358 17.5506C13.6889 17.5807 14.0126 17.8427 14.0043 18.2181C14.0379 18.5852 13.7621 18.8912 13.4088 18.9549C13.1937 18.9938 12.9679 18.9722 12.7801 18.8549C12.7567 18.8404 12.7505 18.8092 12.7701 18.7822C12.9513 18.8184 13.1449 18.8065 13.3064 18.707C13.5123 18.5297 13.5367 18.2362 13.4154 18.0035C13.3332 17.8941 13.2013 17.844 13.0693 17.8349C12.9516 17.8275 12.8336 17.8255 12.7157 17.8288C12.6989 17.8293 12.6977 17.8518 12.6976 17.8714C12.6937 18.4646 12.6791 19.0635 12.7088 19.6525C12.7633 19.726 12.8415 19.7546 12.9187 19.7605C12.9462 19.7627 12.9544 19.8181 12.9352 19.8169C12.6319 19.7988 12.3265 19.7934 12.0238 19.8266C12.0045 19.8288 11.9815 19.7977 11.9979 19.784C12.023 19.7636 12.0561 19.7444 12.0917 19.7391C12.1605 19.6899 12.169 19.6072 12.1703 19.5326C12.1761 19.1912 12.1727 18.8501 12.1739 18.5083L12.1726 17.6939C12.1675 17.6234 12.089 17.574 12.0279 17.5844C12.0025 17.5888 11.9926 17.5553 11.9983 17.5357C11.9989 17.5335 12.0034 17.5217 12.0081 17.5219ZM16.9229 17.4623C17.3011 17.4181 17.6972 17.5202 17.955 17.8188C18.356 18.2834 18.3735 18.9641 17.9917 19.443C17.5866 19.8865 16.9127 20.0176 16.4108 19.6606C15.8763 19.2805 15.734 18.5515 16.0692 17.9915C16.2511 17.6875 16.5749 17.5029 16.9229 17.4623ZM16.8925 17.7833C16.5805 17.8453 16.4246 18.1483 16.4057 18.4438C16.4014 18.5103 16.4031 18.5771 16.4108 18.6433C16.4448 18.9558 16.5529 19.2738 16.8198 19.4618C17.0929 19.6213 17.4455 19.5394 17.6133 19.2712C17.8083 18.9591 17.768 18.58 17.6483 18.2471C17.5394 17.9435 17.247 17.7116 16.9143 17.7807C16.9101 17.7814 16.8969 17.7823 16.8925 17.7833ZM15.8062 20.8832C15.8266 20.8806 15.849 20.8758 15.8674 20.8868C15.8796 20.8941 15.8769 20.9259 15.8608 20.9233C15.8175 20.9156 15.7677 20.9501 15.7483 20.9985C15.7289 21.4228 15.7485 21.8484 15.7228 22.277C15.7062 22.4589 15.5949 22.551 15.5199 22.5887C15.2554 22.7225 14.9507 22.712 14.6664 22.6561L14.5037 22.6004C14.307 22.5107 14.1965 22.3037 14.2029 22.0873L14.1978 21.0226C14.1978 20.9869 14.173 20.955 14.1424 20.9402V20.8991C14.2603 20.9101 14.3792 20.9176 14.4972 20.9086L14.686 20.8828C14.6786 20.9115 14.6566 20.9275 14.6342 20.9374C14.6055 20.9498 14.5816 20.9794 14.5824 21.0093C14.5901 21.4278 14.5447 21.8466 14.585 22.2646C14.6195 22.4274 14.7822 22.5154 14.9403 22.495C15.0414 22.5044 15.1452 22.4894 15.2251 22.4353C15.2925 22.3901 15.3294 22.3147 15.3414 22.2374C15.3641 22.0927 15.3643 21.9458 15.3606 21.7996C15.3532 21.4973 15.3792 21.1948 15.3458 20.891C15.4982 20.907 15.653 20.9034 15.8062 20.8832ZM17.6537 20.8848C17.6695 20.8843 17.6868 20.8734 17.7011 20.8766C17.7108 20.8788 17.7223 20.8909 17.7223 20.899C17.7231 21.0307 17.7309 21.1623 17.7458 21.2932C17.7475 21.3068 17.7368 21.3231 17.7269 21.3246C17.6945 21.3284 17.6733 21.2963 17.6707 21.2646C17.6649 21.1928 17.61 21.1332 17.538 21.1311C17.3189 21.1245 17.1 21.1391 16.8659 21.1433C16.8681 21.1433 16.8445 21.1494 16.8445 21.1571L16.8416 21.6184C16.8416 21.6296 16.8589 21.6434 16.8671 21.6427C17.0108 21.6298 17.1572 21.6369 17.3007 21.6144C17.3571 21.6057 17.3977 21.5532 17.3977 21.496C17.3979 21.469 17.4577 21.4629 17.4546 21.48C17.4249 21.6458 17.4403 21.8173 17.4574 21.9704C17.4606 21.9964 17.4385 22.0044 17.4256 22.0008C17.4027 21.9944 17.3908 21.9728 17.3868 21.9502C17.3795 21.9079 17.3467 21.8709 17.3039 21.8691L16.8592 21.8754C16.8556 21.8754 16.837 21.889 16.8375 21.8997C16.848 22.0696 16.8455 22.2413 16.8439 22.4118C16.8439 22.4198 16.8579 22.4317 16.8648 22.4317C17.1026 22.4391 17.3393 22.4269 17.5776 22.4172C17.594 22.4157 17.6096 22.4095 17.6225 22.3993C17.7055 22.3305 17.7439 22.2245 17.7553 22.1302C17.7581 22.1073 17.8236 22.1226 17.8224 22.1375C17.8086 22.3087 17.7961 22.4707 17.7944 22.6329C17.7941 22.6526 17.7752 22.6618 17.7559 22.6621L16.3197 22.6725C16.3019 22.6728 16.2973 22.6477 16.3024 22.6287C16.3405 22.6201 16.3768 22.605 16.4098 22.584C16.4256 22.5738 16.4307 22.5509 16.4307 22.5383C16.4327 22.0369 16.4558 21.5376 16.429 21.0388C16.4279 21.0255 16.4242 21.0126 16.418 21.0008C16.4118 20.9889 16.4033 20.9785 16.393 20.97C16.3827 20.9615 16.3708 20.9552 16.358 20.9514C16.3452 20.9476 16.3318 20.9464 16.3185 20.9479C16.3035 20.9502 16.3005 20.8966 16.3137 20.8979C16.6291 20.9247 16.9482 20.9064 17.2662 20.8935L17.6537 20.8848ZM7.98225 20.9021L9.37252 20.9041C9.38597 20.9041 9.40577 20.9126 9.40539 20.9225C9.40091 21.0595 9.41585 21.1958 9.42892 21.3316C9.43042 21.3461 9.37899 21.3512 9.377 21.3321C9.36966 21.2591 9.32907 21.1803 9.24814 21.1475C9.02962 21.1398 8.80712 21.1189 8.5835 21.1332C8.56732 21.1345 8.52648 21.1276 8.52635 21.1475C8.52561 21.2968 8.52909 21.4542 8.51751 21.6037C8.51652 21.6183 8.53694 21.6266 8.54727 21.6269L8.97994 21.6266C9.03273 21.624 9.07307 21.5777 9.07843 21.5255C9.08054 21.5034 9.09848 21.4827 9.11342 21.4852C9.14118 21.4893 9.1362 21.5192 9.13508 21.5377C9.12562 21.6868 9.12288 21.8349 9.13508 21.9825C9.13595 21.9944 9.12537 22.0047 9.11317 22.0044C9.09922 22.0042 9.08416 21.9954 9.08304 21.9822C9.07743 21.9123 9.01804 21.8592 8.94782 21.8575C8.81325 21.8542 8.67863 21.8536 8.54403 21.8557C8.52548 21.8562 8.51988 21.8808 8.51888 21.8991C8.50955 22.0701 8.51058 22.2415 8.52199 22.4124L8.7354 22.4249C8.91918 22.43 9.10296 22.4254 9.28636 22.4124C9.31637 22.4102 9.33977 22.3871 9.35683 22.3626C9.40253 22.297 9.41436 22.2169 9.43565 22.146C9.46391 22.1416 9.48296 22.1435 9.50699 22.1518C9.48707 22.3121 9.47063 22.4723 9.46951 22.6331C9.46939 22.6509 9.45445 22.6668 9.43689 22.6667C8.95566 22.6603 8.47456 22.6472 7.99656 22.6504C7.98025 22.6504 7.97141 22.6317 7.97116 22.6095C8.01287 22.5998 8.05359 22.582 8.0897 22.558C8.11759 22.5037 8.10987 22.4447 8.11124 22.3885C8.12244 21.9387 8.11734 21.4884 8.10501 21.0388C8.10327 20.9771 8.04002 20.9428 7.9881 20.9464C7.97328 20.921 7.98038 20.9021 7.98225 20.9021ZM12.747 20.8613C12.9651 20.8381 13.183 20.8817 13.3871 20.9664C13.4165 20.9977 13.4063 21.0434 13.4068 21.084C13.4093 21.1956 13.4155 21.3068 13.4269 21.4162C13.3994 21.4213 13.3731 21.4086 13.3654 21.3848C13.3216 21.2438 13.2169 21.1229 13.0692 21.0876L12.8847 21.0536C12.8257 21.0577 12.7671 21.0667 12.7096 21.0807C12.403 21.1531 12.2294 21.4488 12.23 21.7525C12.231 22.0495 12.3625 22.3666 12.6743 22.446C12.8246 22.4845 12.9845 22.4448 13.085 22.3415C13.1081 22.2917 13.122 22.2382 13.1259 22.1836C13.1323 22.0918 13.1253 21.9995 13.1049 21.9098C13.1008 21.892 13.0874 21.8769 13.0707 21.8582C13.2595 21.8713 13.4422 21.8672 13.622 21.8363C13.6325 21.8346 13.6437 21.8361 13.6573 21.8463C13.6093 21.8796 13.5654 21.9108 13.5245 21.9302C13.498 21.9429 13.4896 21.9807 13.4896 22.0065L13.4891 22.6174C13.4691 22.6298 13.446 22.6361 13.4226 22.6356C13.3991 22.6351 13.3763 22.6278 13.357 22.6145C13.3307 22.5719 13.322 22.5257 13.3103 22.4823C13.2954 22.4823 13.258 22.4767 13.2519 22.4823C13.0585 22.6642 12.7855 22.717 12.5286 22.6662C12.0987 22.5808 11.791 22.1852 11.8561 21.7457C11.8276 21.3486 12.1167 21.0261 12.4808 20.9135C12.5676 20.8875 12.6568 20.87 12.747 20.8613ZM14.4975 17.5067C14.7543 17.5452 15.0154 17.5448 15.272 17.5055C15.2835 17.5038 15.2945 17.5132 15.2859 17.523C15.263 17.5491 15.2348 17.5702 15.2103 17.5963C15.1932 17.6143 15.1733 17.6442 15.1733 17.6721L15.1731 19.6402C15.1733 19.6698 15.2029 19.6961 15.2317 19.7178C15.2154 19.7413 15.1855 19.7467 15.1741 19.7477C14.9706 19.7621 14.7668 19.7732 14.563 19.7808C14.5591 19.7701 14.5607 19.753 14.5759 19.7497C14.6 19.7437 14.6215 19.7301 14.6372 19.7108C14.6529 19.6916 14.662 19.6678 14.6629 19.643C14.6734 19.1257 14.6578 17.6911 14.6578 17.6911C14.6562 17.6579 14.6421 17.6264 14.6183 17.6031C14.5945 17.5798 14.5628 17.5663 14.5295 17.5654C14.5105 17.5649 14.4925 17.5564 14.4838 17.5396C14.4784 17.5294 14.4825 17.5046 14.4975 17.5067ZM6.23326 20.8834C6.44978 20.9156 6.68224 20.9123 6.9081 20.8798C6.9218 20.8778 6.93562 20.8988 6.93163 20.9117C6.92877 20.9212 6.91756 20.9334 6.90822 20.9334C6.86888 20.9341 6.83028 20.9507 6.79467 20.9735C6.77438 20.9865 6.76529 21.0194 6.76454 21.0469C6.75309 21.4965 6.7608 21.9465 6.76143 22.3852C6.76143 22.414 6.7933 22.4155 6.82119 22.416C7.01107 22.418 7.20929 22.4081 7.40714 22.3995C7.51073 22.3749 7.57049 22.2806 7.59477 22.1836C7.60149 22.1571 7.60822 22.1274 7.63013 22.115C7.6452 22.1065 7.66325 22.1111 7.68629 22.1221C7.65628 22.2902 7.61917 22.4584 7.61432 22.6313C7.61407 22.641 7.59539 22.6505 7.58182 22.6502C7.13035 22.6487 6.67838 22.6423 6.22728 22.6568C6.21184 22.6573 6.20188 22.6209 6.21906 22.6175C6.25343 22.6099 6.29053 22.589 6.31979 22.5679C6.33535 22.5567 6.34034 22.5348 6.34071 22.5222C6.35627 22.012 6.3498 21.5037 6.34718 21.0075C6.33685 20.9844 6.3202 20.9647 6.29915 20.9507C6.27811 20.9368 6.25354 20.929 6.22828 20.9284C6.20574 20.9279 6.20997 20.88 6.23326 20.8834ZM6.59147 17.5151C6.80936 17.5536 7.03921 17.5511 7.26109 17.5189C7.4857 18.2344 7.72862 18.9316 7.98025 19.6251C8.00864 19.7035 8.08708 19.7487 8.16166 19.7642C8.16851 19.7949 8.15855 19.8214 8.13763 19.8191C7.84479 19.7865 7.5426 19.7934 7.24353 19.8176C7.22423 19.8191 7.21265 19.7738 7.24527 19.7656C7.28574 19.7556 7.345 19.7422 7.38734 19.6997C7.4085 19.6786 7.41784 19.6487 7.41411 19.619C7.39257 19.4454 7.32197 19.2844 7.27466 19.1174C7.27164 19.1079 7.26562 19.0997 7.25751 19.0939C7.2494 19.0882 7.23964 19.0852 7.22971 19.0855C7.0021 19.0904 6.7745 19.0663 6.54702 19.088C6.53836 19.089 6.53016 19.0925 6.52336 19.0979C6.51656 19.1034 6.51143 19.1107 6.50855 19.1189C6.44567 19.2794 6.37669 19.4378 6.32863 19.6036C6.31319 19.6566 6.33996 19.7148 6.39201 19.7332C6.42973 19.7463 6.46696 19.7615 6.49983 19.7756C6.51291 19.7814 6.49697 19.8203 6.48053 19.8179C6.24681 19.782 6.00912 19.7799 5.77481 19.8118C5.75564 19.8144 5.74393 19.7916 5.7473 19.7822C5.75614 19.7571 5.77917 19.7459 5.80183 19.7418C5.83137 19.7372 5.85805 19.7215 5.87654 19.698C5.98673 19.5487 6.03168 19.3673 6.10277 19.1987C6.31394 18.6982 6.52984 18.1995 6.7176 17.6898C6.72063 17.6809 6.72187 17.6716 6.72127 17.6623C6.72066 17.6529 6.71822 17.6438 6.71407 17.6355C6.70993 17.6271 6.70417 17.6196 6.69712 17.6135C6.69008 17.6074 6.68189 17.6027 6.67303 17.5997C6.63804 17.5883 6.60479 17.5725 6.58051 17.5513C6.56968 17.5419 6.57852 17.5128 6.59147 17.5151ZM6.64439 18.7719C6.63605 18.7935 6.63169 18.8321 6.64377 18.8319C6.81223 18.8294 6.97795 18.8409 7.15002 18.8382C7.15413 18.838 7.17903 18.8202 7.17629 18.8115C7.09052 18.5474 7.02055 18.2784 6.96674 18.006C6.96363 17.9897 6.93213 17.9831 6.92653 18.0012C6.84522 18.2599 6.74288 18.5153 6.64439 18.7719ZM10.3578 20.898C10.5212 20.9279 10.6938 20.9327 10.8671 20.9014C10.8905 20.943 10.9052 20.9909 10.9207 21.0383L11.4177 22.5151C11.4333 22.5567 11.4703 22.5891 11.5085 22.6129C11.5194 22.6202 11.5035 22.6389 11.502 22.6389L11.0451 22.6514C10.9899 22.6587 10.9359 22.6796 10.8777 22.6845C10.8661 22.6855 10.8522 22.6811 10.8477 22.6697C10.8417 22.6543 10.8462 22.636 10.8602 22.6342C10.9097 22.6281 10.9555 22.6033 10.9976 22.5566C10.9906 22.4119 10.9228 22.2738 10.873 22.1216C10.6866 22.1203 10.4975 22.1242 10.3017 22.1282C10.2513 22.2539 10.1986 22.3823 10.1597 22.5153C10.1515 22.5435 10.1534 22.5814 10.1739 22.5946C10.2076 22.6167 10.2413 22.6357 10.2748 22.6398C10.2933 22.6418 10.2875 22.686 10.2679 22.6831C10.0878 22.6579 9.90504 22.6577 9.72488 22.6826C9.70782 22.6851 9.69799 22.6639 9.69774 22.6398C9.74742 22.6196 9.80644 22.6011 9.83022 22.5464C10.0469 22.0476 10.2466 21.5419 10.4541 21.0428C10.4504 20.9923 10.4113 20.9548 10.3676 20.9555C10.3492 20.9558 10.34 20.9321 10.3448 20.9135C10.3448 20.9128 10.3517 20.8968 10.3578 20.898ZM10.397 21.8755C10.392 21.8882 10.3913 21.9242 10.4135 21.9247L10.768 21.925C10.7815 21.9247 10.8024 21.9109 10.7982 21.8984C10.7332 21.7035 10.6771 21.5014 10.6414 21.3042C10.6387 21.2893 10.6095 21.2998 10.6054 21.3129C10.546 21.5011 10.4734 21.6847 10.397 21.8755Z" fill="black"/>
<path id="Vector_4" d="M16.0589 15.2361C15.5263 14.6894 14.8899 14.2548 14.1869 13.9579C13.4848 13.6624 12.7306 13.5107 11.969 13.5119C11.2074 13.5107 10.4534 13.6622 9.75144 13.9576C9.04842 14.2545 8.41189 14.689 7.87931 15.2356L7.74023 15.1004C8.29103 14.5353 8.94927 14.0861 9.67624 13.7792C10.4019 13.4735 11.1815 13.3165 11.969 13.3174C12.7815 13.3174 13.5563 13.4817 14.2621 13.7794C14.9891 14.0863 15.6474 14.5356 16.1981 15.1009L16.0589 15.2361ZM14.4037 16.8739C14.0939 16.5358 13.7172 16.2656 13.2975 16.0806C12.8786 15.8967 12.426 15.802 11.9686 15.8027C11.4952 15.8027 11.0455 15.9022 10.6388 16.0811C10.2189 16.2663 9.84211 16.5368 9.5323 16.8754L9.38874 16.7438C9.7169 16.3854 10.116 16.0992 10.5606 15.9033C11.0043 15.708 11.4838 15.6075 11.9686 15.6081C12.4687 15.6081 12.9449 15.7135 13.3755 15.9028C13.8198 16.0986 14.2185 16.3845 14.5464 16.7425L14.4037 16.8739Z" fill="black"/>
<path id="Vector_5" fill-rule="evenodd" clip-rule="evenodd" d="M9.26257 14.6693L9.68591 15.2171C9.93306 15.5371 9.80045 15.8159 9.53562 16.0206C9.25535 16.2373 8.95217 16.2633 8.72133 15.9647L8.29688 15.4154L8.53768 15.2293L8.96649 15.7843C9.07369 15.9231 9.23879 15.929 9.3775 15.8218C9.50499 15.7233 9.57111 15.5659 9.43763 15.3933L9.02202 14.8554L9.26257 14.6693ZM11.6177 15.1512L10.7378 15.3395L10.4819 14.1465L11.3499 13.9607L11.3967 14.1794L10.8263 14.3014L10.8798 14.5516L11.4239 14.4352L11.4709 14.6537L10.9268 14.7703L10.9882 15.0573L11.5709 14.9325L11.6177 15.1512ZM13.4137 14.3398L12.8868 14.2372L12.8348 14.5042L13.3617 14.6065L13.3192 14.8262L12.7922 14.7238L12.6967 15.2155L12.398 15.1576L12.6307 13.9597L13.4563 14.1202L13.4137 14.3398ZM14.7345 15.61L14.4257 15.3959L14.8431 15.1082L14.7345 15.61ZM15.1504 14.9665L14.8608 14.7657L13.7611 15.4879L14.0257 15.6716L14.2382 15.5249L14.6867 15.836L14.6316 16.0916L14.9005 16.2783L15.1504 14.9665Z" fill="black"/>
</g>
<defs>
<clipPath id="clip0_1379_63259">
<rect width="24" height="24" fill="white"/>
</clipPath>
</defs>
</svg>
