<svg width="24" height="24" viewBox="0 0 24 24" fill="none" xmlns="http://www.w3.org/2000/svg">
<g clip-path="url(#clip0_1379_63687)">
<rect width="24" height="24" fill="white"/>
<path fill-rule="evenodd" clip-rule="evenodd" d="M22.5702 11.5328C22.479 11.3504 22.3878 11.2592 22.2054 11.2592C21.8406 11.168 21.4758 11.168 21.111 11.0768C20.0166 10.8944 18.2838 10.5296 16.3686 9.70884C14.271 8.88804 11.8086 7.52004 10.7126 6.15204C10.2566 5.69604 9.98301 5.14884 9.98301 4.60164C9.98301 4.60164 9.70941 2.04804 14.2694 3.41604C14.2694 3.50724 15.911 7.97604 21.2934 8.61444C21.6582 8.61444 21.9318 8.61444 22.023 8.43204C19.5926 1.27524 10.0374 -0.961557 4.60221 4.41924C2.57501 6.40964 3.51261 8.13124 6.42621 9.52644C6.42621 9.52644 10.0742 11.2592 12.5382 11.8976C12.7206 11.8976 12.7206 11.9888 12.7206 11.9888C12.7206 12.0496 12.6902 12.08 12.6294 12.08C10.2582 12.536 6.42621 14.36 6.42621 14.36C6.42621 14.36 3.50781 15.6368 3.50781 17.2784C3.50781 18.1904 4.23741 19.0112 4.41981 19.376C6.33021 21.3872 9.07901 22.5712 11.991 22.6592C16.551 22.6592 20.4742 19.7408 22.0246 15.6352C22.0246 15.4528 21.6598 15.4528 21.295 15.4528C15.823 16 14.271 20.56 14.1798 20.56C9.61981 21.928 9.98461 19.3744 9.98461 19.3744C9.98461 17.5504 13.5414 15.1792 16.3702 13.9936C16.735 13.8112 19.1974 12.8992 22.2998 12.5344C22.7142 12.52 22.5366 11.7872 22.5734 11.5312L22.5702 11.5328Z" fill="#FA5500"/>
<path fill-rule="evenodd" clip-rule="evenodd" d="M7.52072 12.08C7.69032 12.0464 7.61192 11.8848 7.42952 11.8976C6.79112 11.624 5.78792 11.2592 4.96712 10.8944C3.50792 10.1648 2.32232 9.16162 2.32232 8.15842C2.29992 7.99842 2.12392 8.07842 2.13992 8.15842C1.17992 10.4896 1.17992 13.488 2.13992 15.8208L2.23112 15.912C2.23112 15.912 2.32232 15.912 2.32232 15.8208C2.32232 14.7264 3.50792 13.8144 5.05832 12.9936C5.87912 12.72 6.69992 12.264 7.52072 12.0816V12.08Z" fill="#FA5500"/>
</g>
<defs>
<clipPath id="clip0_1379_63687">
<rect width="24" height="24" fill="white"/>
</clipPath>
</defs>
</svg>
