<svg width="24" height="24" viewBox="0 0 24 24" fill="none" xmlns="http://www.w3.org/2000/svg">
<g clip-path="url(#clip0_1368_30572)">
<path d="M9.60039 0H24.0004V24H9.5957L9.60039 0Z" fill="#FF0000"/>
<path d="M0.00078125 0H9.60078V24H-0.00390625L0.00078125 0Z" fill="#006600"/>
<path fill-rule="evenodd" clip-rule="evenodd" d="M13.7715 15.3094C12.159 15.2625 4.77148 10.65 4.72461 9.91406L5.12773 9.23438C5.85898 10.2984 13.4152 14.7844 14.1559 14.625L13.7715 15.3094Z" fill="#FFFF00" stroke="black" stroke-width="0.0875" stroke-linecap="round" stroke-linejoin="round"/>
<path fill-rule="evenodd" clip-rule="evenodd" d="M5.04275 9.14048C4.89744 9.52954 6.96931 10.8092 9.46306 12.328C11.9568 13.842 14.1037 14.7795 14.2677 14.6483L14.3381 14.5124C14.3099 14.5592 14.2349 14.5733 14.1224 14.5405C13.4474 14.3436 11.6896 13.5374 9.51462 12.2202C7.33962 10.903 5.44587 9.68423 5.15525 9.1686C5.1313 9.12068 5.12 9.06743 5.12244 9.01392H5.11306L5.05212 9.12173L5.04275 9.14048ZM13.8084 15.328C13.7802 15.3795 13.7287 15.3795 13.6349 15.3749C13.0302 15.3045 11.1974 14.4139 9.04119 13.1202C6.51931 11.6108 4.43806 10.2374 4.66775 9.8811L4.72869 9.7686L4.73806 9.77329C4.5365 10.3827 8.84431 12.8436 9.09744 13.003C11.5865 14.5499 13.6912 15.4499 13.8787 15.2155L13.8084 15.328Z" fill="#FFFF00" stroke="black" stroke-width="0.0875" stroke-linecap="round" stroke-linejoin="round"/>
<path fill-rule="evenodd" clip-rule="evenodd" d="M9.60781 10.3592C11.2156 10.3452 13.2078 10.1389 14.3516 9.68423L14.1078 9.2811C13.4281 9.6561 11.4313 9.90454 9.59375 9.93735C7.41875 9.9186 5.88594 9.71704 5.11719 9.20142L4.88281 9.62798C6.29844 10.2233 7.74219 10.3545 9.60781 10.3592Z" fill="#FFFF00" stroke="black" stroke-width="0.0875" stroke-linecap="round" stroke-linejoin="round"/>
<path fill-rule="evenodd" clip-rule="evenodd" d="M14.4223 9.69365C14.3801 9.75459 13.6348 10.0124 12.5332 10.1999C11.5619 10.3456 10.581 10.4177 9.59883 10.4155C8.65838 10.4197 7.71873 10.3602 6.78633 10.2374C5.63789 10.0546 5.03789 9.80146 4.81758 9.7124L4.87383 9.60459C5.49718 9.85028 6.14678 10.0233 6.80977 10.1202C7.73445 10.2412 8.66628 10.2991 9.59883 10.2937C10.5732 10.2943 11.5462 10.2222 12.5098 10.078C13.6348 9.89521 14.2535 9.66084 14.3379 9.55303L14.4223 9.69365ZM14.202 9.28115C14.0801 9.3749 13.4707 9.59522 12.402 9.76397C11.4782 9.89657 10.5461 9.96236 9.61289 9.96084C8.71302 9.96767 7.81382 9.90971 6.92227 9.7874C5.83008 9.64678 5.25352 9.38896 5.04727 9.31396L5.1082 9.20615C5.26758 9.29053 5.83008 9.51553 6.93633 9.6749C7.82379 9.78993 8.71802 9.84474 9.61289 9.83896C10.5383 9.84024 11.4626 9.77444 12.3785 9.64209C13.4566 9.49209 14.0379 9.22021 14.127 9.1499L14.202 9.28115ZM4.31133 12.2999C5.30508 12.8343 7.50352 13.1062 9.58945 13.1249C11.4879 13.1249 13.9629 12.8296 14.8863 12.3374L14.8582 11.803C14.5723 12.2577 11.9238 12.6937 9.5707 12.6749C7.21758 12.6562 5.0332 12.2905 4.30664 11.8218V12.2999" fill="#FFFF00"/>
<path d="M4.31133 12.2999C5.30508 12.8343 7.50352 13.1062 9.58945 13.1249C11.4879 13.1249 13.9629 12.8296 14.8863 12.3374L14.8582 11.803C14.5723 12.2577 11.9238 12.6937 9.5707 12.6749C7.21758 12.6562 5.0332 12.2905 4.30664 11.8218V12.2999M14.4223 9.69365C14.3801 9.75459 13.6348 10.0124 12.5332 10.1999C11.5619 10.3456 10.581 10.4177 9.59883 10.4155C8.65838 10.4197 7.71873 10.3602 6.78633 10.2374C5.63789 10.0546 5.03789 9.80146 4.81758 9.7124L4.87383 9.60459C5.49718 9.85028 6.14678 10.0233 6.80977 10.1202C7.73445 10.2412 8.66628 10.2991 9.59883 10.2937C10.5732 10.2943 11.5462 10.2222 12.5098 10.078C13.6348 9.89521 14.2535 9.66084 14.3379 9.55303L14.4223 9.69365ZM14.202 9.28115C14.0801 9.3749 13.4707 9.59522 12.402 9.76397C11.4782 9.89657 10.5461 9.96236 9.61289 9.96084C8.71302 9.96767 7.81382 9.90971 6.92227 9.7874C5.83008 9.64678 5.25352 9.38896 5.04727 9.31396L5.1082 9.20615C5.26758 9.29053 5.83008 9.51553 6.93633 9.6749C7.82379 9.78993 8.71802 9.84474 9.61289 9.83896C10.5383 9.84024 11.4626 9.77444 12.3785 9.64209C13.4566 9.49209 14.0379 9.22021 14.127 9.1499L14.202 9.28115Z" stroke="black" stroke-width="0.0875" stroke-linecap="round" stroke-linejoin="round"/>
<path fill-rule="evenodd" clip-rule="evenodd" d="M14.9383 12.2249V12.3514C14.7977 12.5202 13.9258 12.7733 12.8336 12.9467C11.7517 13.1039 10.6596 13.1791 9.56641 13.1717C8.28203 13.1717 7.26016 13.078 6.46328 12.9561C5.69869 12.8692 4.95138 12.6686 4.24609 12.3608V12.2108C4.73359 12.5342 6.04141 12.7686 6.48203 12.8389C7.26953 12.9608 8.28672 13.0499 9.56641 13.0499C10.9117 13.0499 11.9898 12.9561 12.8148 12.8295C13.6023 12.717 14.718 12.4217 14.9383 12.2249ZM14.9383 11.7702V11.9014C14.7977 12.0655 13.9258 12.3186 12.8336 12.492C11.7517 12.6492 10.6596 12.7244 9.56641 12.717C8.28203 12.717 7.26016 12.6233 6.46797 12.5061C5.70157 12.418 4.95265 12.2158 4.24609 11.9061V11.7561C4.73359 12.0795 6.04141 12.3186 6.48203 12.3842C7.27422 12.5061 8.29141 12.5999 9.56641 12.5999C10.9117 12.5999 11.9898 12.5061 12.8148 12.3749C13.6023 12.2624 14.718 11.967 14.9383 11.7702ZM9.58516 15.2155C7.30703 15.2014 5.35234 14.5967 4.93984 14.4936L5.23984 14.9624C5.96641 15.2717 7.87422 15.7311 9.60859 15.6795C11.343 15.628 12.857 15.492 13.9211 14.9764L14.2305 14.4842C13.5039 14.8264 11.0289 15.2155 9.58984 15.2155" fill="#FFFF00"/>
<path d="M9.58516 15.2155C7.30703 15.2014 5.35234 14.5967 4.93984 14.4936L5.23984 14.9624C5.96641 15.2717 7.87422 15.7311 9.60859 15.6795C11.343 15.628 12.857 15.492 13.9211 14.9764L14.2305 14.4842C13.5039 14.8264 11.0289 15.2155 9.58984 15.2155M14.9383 12.2249V12.3514C14.7977 12.5202 13.9258 12.7733 12.8336 12.9467C11.7517 13.1039 10.6596 13.1791 9.56641 13.1717C8.28203 13.1717 7.26016 13.078 6.46328 12.9561C5.69869 12.8692 4.95138 12.6686 4.24609 12.3608V12.2108C4.73359 12.5342 6.04141 12.7686 6.48203 12.8389C7.26953 12.9608 8.28672 13.0499 9.56641 13.0499C10.9117 13.0499 11.9898 12.9561 12.8148 12.8295C13.6023 12.717 14.718 12.4217 14.9383 12.2249ZM14.9383 11.7702V11.9014C14.7977 12.0655 13.9258 12.3186 12.8336 12.492C11.7517 12.6492 10.6596 12.7244 9.56641 12.717C8.28203 12.717 7.26016 12.6233 6.46797 12.5061C5.70157 12.418 4.95265 12.2158 4.24609 11.9061V11.7561C4.73359 12.0795 6.04141 12.3186 6.48203 12.3842C7.27422 12.5061 8.29141 12.5999 9.56641 12.5999C10.9117 12.5999 11.9898 12.5061 12.8148 12.3749C13.6023 12.2624 14.718 11.967 14.9383 11.7702Z" stroke="black" stroke-width="0.0875" stroke-linecap="round" stroke-linejoin="round"/>
<path fill-rule="evenodd" clip-rule="evenodd" d="M14.0379 14.864C13.9922 14.9335 13.9453 15.0023 13.8973 15.0702C13.3654 15.2467 12.8219 15.3861 12.2707 15.4874C11.3862 15.6501 10.4888 15.7317 9.58945 15.7312C7.56914 15.703 5.91445 15.3093 5.13633 14.9718L5.0707 14.864L5.08477 14.8452L5.18789 14.8874C6.6111 15.359 8.09955 15.6042 9.59883 15.614C10.5363 15.6187 11.4738 15.5062 12.2285 15.3749C13.391 15.1405 13.8598 14.9671 14.0051 14.8874L14.0379 14.864ZM14.3051 14.4233H14.3098C14.2758 14.483 14.2414 14.5423 14.2066 14.6015C13.9395 14.6952 13.2082 14.9108 12.1441 15.0608C11.441 15.1546 11.0051 15.2483 9.61289 15.2765C8.01776 15.2593 6.43258 15.0227 4.90195 14.5733L4.8457 14.4562C6.4004 14.8828 8.00121 15.1189 9.61289 15.1593C10.8879 15.1312 11.4316 15.0374 12.1254 14.939C13.3676 14.7515 13.991 14.5452 14.1785 14.4843C14.1771 14.4811 14.1755 14.478 14.1738 14.4749L14.3051 14.4233Z" fill="#FFFF00" stroke="black" stroke-width="0.075" stroke-linecap="round" stroke-linejoin="round"/>
<path fill-rule="evenodd" clip-rule="evenodd" d="M14.334 11.878C14.3434 13.378 13.5746 14.728 12.9559 15.3233C12.047 16.2073 10.8345 16.7104 9.5668 16.7295C8.05273 16.7577 6.62773 15.7686 6.24336 15.3374C5.49336 14.4889 4.88398 13.4155 4.86523 11.9624C4.95898 10.3217 5.60117 9.18267 6.53398 8.39985C7.43662 7.65741 8.57152 7.25588 9.74023 7.26548C10.9309 7.29829 12.3277 7.88423 13.2887 9.04673C13.9168 9.8061 14.1934 10.6311 14.334 11.8827V11.878ZM9.58086 6.74048C12.4871 6.74048 14.8777 9.10767 14.8777 12.0045C14.8691 13.4037 14.3072 14.7425 13.3148 15.7288C12.3223 16.7151 10.98 17.2686 9.58086 17.2686C6.67461 17.2686 4.30273 14.9061 4.30273 12.0045C4.30273 9.10298 6.67461 6.74048 9.58086 6.74048Z" fill="#FFFF00" stroke="black" stroke-width="0.0875" stroke-linecap="round" stroke-linejoin="round"/>
<path fill-rule="evenodd" clip-rule="evenodd" d="M9.59531 6.72173C12.5016 6.72173 14.8734 9.09829 14.8734 12.0045C14.8734 14.9108 12.5016 17.2874 9.59531 17.2874C8.19455 17.2836 6.8523 16.7252 5.86225 15.7343C4.8722 14.7434 4.31497 13.4006 4.3125 11.9999C4.31621 10.5999 4.87398 9.25836 5.8639 8.26844C6.85382 7.27852 8.19536 6.72075 9.59531 6.71704V6.72173ZM4.42969 12.0045C4.42969 14.8452 6.76406 17.1702 9.59531 17.1702C12.4266 17.1702 14.7562 14.8452 14.7562 12.0045C14.7562 9.16392 12.4266 6.8436 9.59531 6.8436C8.22763 6.84854 6.91731 7.39371 5.94977 8.36037C4.98223 9.32704 4.43586 10.6369 4.42969 12.0045Z" fill="#FFFF00" stroke="black" stroke-width="0.0875" stroke-linecap="round" stroke-linejoin="round"/>
<path fill-rule="evenodd" clip-rule="evenodd" d="M9.6 7.16235C12.2484 7.16235 14.4328 9.34204 14.4328 11.9999C14.4328 14.6624 12.2484 16.8374 9.6 16.8374C8.31772 16.8337 7.08895 16.3229 6.1818 15.4167C5.27465 14.5104 4.76276 13.2821 4.75781 11.9999C4.75781 9.34204 6.94219 7.16235 9.59531 7.16235H9.6ZM4.875 11.9999C4.875 14.5967 7.00781 16.7202 9.6 16.7202C12.1875 16.7202 14.3203 14.5967 14.3203 11.9999C14.3203 9.40298 12.1875 7.27954 9.59531 7.27954C7.00312 7.27954 4.875 9.40298 4.875 11.9999Z" fill="#FFFF00" stroke="black" stroke-width="0.0875" stroke-linecap="round" stroke-linejoin="round"/>
<path fill-rule="evenodd" clip-rule="evenodd" d="M9.81016 6.70312H9.35547V17.3156H9.81016V6.70312Z" fill="#FFFF00" stroke="black" stroke-width="0.0875" stroke-linecap="round" stroke-linejoin="round"/>
<path fill-rule="evenodd" clip-rule="evenodd" d="M9.7625 6.64209H9.87969V17.3765H9.7625V6.64209ZM9.3125 6.64209H9.42969V17.3765H9.3125V6.64209Z" fill="#FFFF00" stroke="black" stroke-width="0.0875" stroke-linecap="round" stroke-linejoin="round"/>
<path fill-rule="evenodd" clip-rule="evenodd" d="M14.8773 12.2108V11.8124L14.5586 11.5171L12.7445 11.0343L10.1289 10.7671L6.98828 10.9265L4.74297 11.4608L4.29297 11.7983V12.1874L5.43672 11.6718L8.15547 11.2499H10.7711L12.693 11.4608L14.0242 11.7843L14.8773 12.2108Z" fill="#FFFF00" stroke="black" stroke-width="0.0875" stroke-linecap="round" stroke-linejoin="round"/>
<path fill-rule="evenodd" clip-rule="evenodd" d="M9.59453 11.1889C10.7406 11.1843 11.8846 11.2863 13.0117 11.4936C14.0008 11.6905 14.6992 11.9389 14.9336 12.2155V12.3561C14.6523 12.0093 13.7148 11.7561 12.9883 11.6061C12.0367 11.4233 10.832 11.3061 9.59453 11.3061C8.28203 11.3061 7.06328 11.4327 6.12578 11.6155C5.37578 11.7655 4.37266 12.0608 4.24609 12.3561V12.2155C4.31641 12.0093 5.06172 11.7046 6.11172 11.4936C7.26081 11.2852 8.42669 11.1832 9.59453 11.1889ZM9.59453 10.7343C10.7421 10.7298 11.8877 10.8318 13.0164 11.0389C14.0008 11.2358 14.7039 11.4843 14.9383 11.7655V11.9014C14.6523 11.5546 13.7102 11.3014 12.9883 11.1561C12.0367 10.9686 10.832 10.8514 9.59453 10.8514C8.43434 10.8479 7.2763 10.9514 6.13516 11.1608C5.40859 11.3014 4.36328 11.6108 4.24609 11.9014V11.7608C4.31641 11.5593 5.08047 11.2452 6.11172 11.0436C7.26067 10.8336 8.42655 10.73 9.59453 10.7343ZM9.57109 8.42332C11.5352 8.41394 13.2508 8.69988 14.0336 9.10301L14.3195 9.59519C13.6398 9.22957 11.7883 8.84519 9.57109 8.90613C7.76641 8.91551 5.83984 9.10301 4.86953 9.61863L5.21172 9.04676C6.00859 8.63426 7.88359 8.42801 9.57109 8.42332Z" fill="#FFFF00" stroke="black" stroke-width="0.0875" stroke-linecap="round" stroke-linejoin="round"/>
<path fill-rule="evenodd" clip-rule="evenodd" d="M9.59375 8.83106C10.7188 8.83106 11.7969 8.892 12.6594 9.04668C13.4609 9.19668 14.2297 9.42168 14.3375 9.54356L14.4219 9.69356C14.1547 9.52012 13.4938 9.32325 12.6406 9.16387C11.6333 9.00341 10.6136 8.93282 9.59375 8.95293C8.32812 8.95293 7.34375 9.01387 6.5 9.16387C5.60938 9.32793 4.99062 9.567 4.83594 9.6795L4.92031 9.52481C5.21563 9.37012 5.68906 9.18731 6.48125 9.04668C7.35313 8.88731 8.34219 8.84043 9.59375 8.83106ZM9.59375 8.38106C10.5838 8.36548 11.5733 8.43448 12.5516 8.58731C13.2031 8.71387 13.8453 8.91075 14.0844 9.08418L14.2063 9.28106C13.9953 9.04668 13.2031 8.82637 12.5 8.7045C11.6844 8.56387 10.6672 8.50762 9.59375 8.49825C8.46875 8.49825 7.42813 8.56856 6.62188 8.71387C5.85313 8.86387 5.35625 9.03731 5.14531 9.17325L5.25313 9.0045C5.54375 8.8545 6.0125 8.71387 6.60312 8.59668C7.41406 8.45137 8.46406 8.38106 9.59375 8.38106ZM12.2188 14.1982C11.3521 14.0488 10.473 13.9829 9.59375 14.0014C6.31719 14.0389 5.2625 14.6717 5.13125 14.8639L4.8875 14.4654C5.71719 13.8607 7.49844 13.5232 9.60781 13.5561C10.7 13.5748 11.6422 13.6498 12.4391 13.7998L12.2141 14.1982" fill="#FFFF00"/>
<path d="M12.2188 14.1982C11.3521 14.0488 10.473 13.9829 9.59375 14.0014C6.31719 14.0389 5.2625 14.6717 5.13125 14.8639L4.8875 14.4654C5.71719 13.8607 7.49844 13.5232 9.60781 13.5561C10.7 13.5748 11.6422 13.6498 12.4391 13.7998L12.2141 14.1982M9.59375 8.83106C10.7188 8.83106 11.7969 8.892 12.6594 9.04668C13.4609 9.19668 14.2297 9.42168 14.3375 9.54356L14.4219 9.69356C14.1547 9.52012 13.4938 9.32325 12.6406 9.16387C11.6333 9.00341 10.6136 8.93282 9.59375 8.95293C8.32812 8.95293 7.34375 9.01387 6.5 9.16387C5.60938 9.32793 4.99062 9.567 4.83594 9.6795L4.92031 9.52481C5.21563 9.37012 5.68906 9.18731 6.48125 9.04668C7.35313 8.88731 8.34219 8.84043 9.59375 8.83106ZM9.59375 8.38106C10.5838 8.36548 11.5733 8.43448 12.5516 8.58731C13.2031 8.71387 13.8453 8.91075 14.0844 9.08418L14.2063 9.28106C13.9953 9.04668 13.2031 8.82637 12.5 8.7045C11.6844 8.56387 10.6672 8.50762 9.59375 8.49825C8.46875 8.49825 7.42813 8.56856 6.62188 8.71387C5.85313 8.86387 5.35625 9.03731 5.14531 9.17325L5.25313 9.0045C5.54375 8.8545 6.0125 8.71387 6.60312 8.59668C7.41406 8.45137 8.46406 8.38106 9.59375 8.38106Z" stroke="black" stroke-width="0.0875" stroke-linecap="round" stroke-linejoin="round"/>
<path fill-rule="evenodd" clip-rule="evenodd" d="M9.57617 13.9452C10.4855 13.9593 11.3809 13.9921 12.248 14.1562L12.1824 14.2687C11.3234 14.1204 10.4524 14.0529 9.58086 14.0671C8.37148 14.0577 7.14336 14.1702 6.08398 14.4749C5.74648 14.5687 5.19336 14.7843 5.13242 14.9624L5.07148 14.8593C5.09023 14.7562 5.42773 14.5359 6.05586 14.3624C7.27461 14.0109 8.41367 13.9546 9.57148 13.9405L9.57617 13.9452ZM9.61836 13.4859C10.5785 13.485 11.5368 13.5681 12.4824 13.7343L12.4168 13.8515C11.4952 13.6829 10.5599 13.6013 9.62305 13.6077C8.40898 13.6077 7.12461 13.6968 5.95273 14.0343C5.57773 14.1468 4.92148 14.3812 4.90273 14.5687L4.8418 14.4609C4.85586 14.2921 5.41836 14.0671 5.9293 13.9171C7.13291 13.6023 8.37459 13.4571 9.61836 13.4859Z" fill="#FFFF00" stroke="black" stroke-width="0.075" stroke-linecap="round" stroke-linejoin="round"/>
<path fill-rule="evenodd" clip-rule="evenodd" d="M14.268 14.5264L13.8742 15.1358L12.7445 14.1327L9.81016 12.1639L6.50547 10.3452L4.78516 9.75923L5.15078 9.07954L5.27734 9.01392L6.34609 9.2811L9.86172 11.0952L11.8914 12.3749L13.593 13.5936L14.2867 14.3952L14.268 14.5264Z" fill="#FFFF00" stroke="black" stroke-width="0.0875" stroke-linecap="round" stroke-linejoin="round"/>
<path fill-rule="evenodd" clip-rule="evenodd" d="M4.72383 9.77334C5.02852 9.57178 7.24102 10.5562 9.55195 11.953C11.8629 13.3546 14.0707 14.9343 13.8738 15.2343L13.8082 15.3327L13.7754 15.3562C13.7848 15.3562 13.8176 15.3093 13.7754 15.2015C13.6723 14.878 12.1113 13.6312 9.50977 12.0608C6.97852 10.5515 4.86914 9.64209 4.6582 9.90459L4.72383 9.77334ZM14.3473 14.5171C14.5348 14.1421 12.4863 12.5952 9.94102 11.0905C7.33945 9.61397 5.45977 8.74678 5.11758 9.00459L5.04258 9.14522C5.04258 9.1499 5.04258 9.13584 5.06133 9.12178C5.12227 9.07022 5.22539 9.0749 5.27227 9.0749C5.86289 9.07959 7.55039 9.85303 9.91289 11.2124C10.9488 11.8124 14.291 13.9593 14.277 14.5593C14.277 14.6108 14.2816 14.6202 14.2629 14.6483L14.3473 14.5171Z" fill="#FFFF00" stroke="black" stroke-width="0.0875" stroke-linecap="round" stroke-linejoin="round"/>
<path d="M6.42969 12.5846C6.43048 12.9986 6.51338 13.4083 6.67358 13.7901C6.83379 14.1718 7.06813 14.518 7.36302 14.8086C7.65433 15.1044 8.00128 15.3396 8.38389 15.5007C8.76651 15.6618 9.17722 15.7456 9.59236 15.7472C10.4325 15.7472 11.2383 15.4134 11.8324 14.8192C12.1262 14.5271 12.3595 14.1797 12.5187 13.7971C12.678 13.4146 12.7601 13.0043 12.7604 12.5899V8.36589L6.42969 8.35522V12.5846Z" fill="white" stroke="black" stroke-width="0.0995558"/>
<path d="M6.54688 12.5899C6.548 12.987 6.62776 13.38 6.78154 13.7462C6.93533 14.1123 7.16009 14.4444 7.44288 14.7232C8.0107 15.294 8.78176 15.6163 9.58688 15.6192C10.3906 15.6197 11.1617 15.3013 11.7309 14.7339C12.0127 14.4546 12.2365 14.1224 12.3893 13.7562C12.5422 13.3901 12.6211 12.9973 12.6216 12.6006V8.4939H6.55754V12.5899M11.4109 9.7259V12.3339L11.4056 12.6059C11.4073 12.8442 11.361 13.0803 11.2694 13.3003C11.1778 13.5202 11.0427 13.7194 10.8722 13.8859C10.5331 14.2262 10.0727 14.4181 9.59221 14.4192C9.09088 14.4192 8.64821 14.2059 8.31755 13.8752C7.97721 13.5361 7.78539 13.0757 7.78421 12.5952V9.71523L11.4109 9.7259Z" fill="#FF0000"/>
<path d="M6.54688 12.5899C6.548 12.987 6.62776 13.38 6.78154 13.7462C6.93533 14.1123 7.16009 14.4444 7.44288 14.7232C8.0107 15.294 8.78176 15.6163 9.58688 15.6192C10.3906 15.6197 11.1617 15.3013 11.7309 14.7339C12.0127 14.4546 12.2365 14.1224 12.3893 13.7562C12.5422 13.3901 12.6211 12.9973 12.6216 12.6006V8.4939H6.55754V12.5899M11.4109 9.7259V12.3339L11.4056 12.6059C11.4073 12.8442 11.361 13.0803 11.2694 13.3003C11.1778 13.5202 11.0427 13.7194 10.8722 13.8859C10.5331 14.2262 10.0727 14.4181 9.59221 14.4192C9.09088 14.4192 8.64821 14.2059 8.31755 13.8752C7.97721 13.5361 7.78539 13.0757 7.78421 12.5952V9.71523L11.4109 9.7259Z" stroke="black" stroke-width="0.0711113"/>
<path d="M6.94336 9.56604C6.94869 9.2727 7.15669 9.20337 7.15669 9.20337C7.16203 9.20337 7.38603 9.27804 7.38603 9.57137H6.94336" fill="#FFFF00"/>
<path d="M6.76112 9.2087L6.72378 9.5447H6.94778C6.94778 9.26737 7.16112 9.2247 7.16112 9.2247C7.16645 9.2247 7.37445 9.28337 7.37978 9.5447H7.60378L7.56112 9.20337H6.76112V9.2087ZM6.70778 9.55004H7.61445C7.63045 9.55004 7.64645 9.56604 7.64645 9.58737C7.64645 9.61404 7.63045 9.63004 7.61445 9.63004H6.70778C6.69178 9.63004 6.67578 9.61404 6.67578 9.58737C6.67578 9.56604 6.69178 9.55004 6.71311 9.55004H6.70778Z" fill="#FFFF00" stroke="black" stroke-width="0.0711113"/>
<path d="M7.0386 9.54464C7.0386 9.36864 7.16127 9.32064 7.16127 9.32064C7.16127 9.32064 7.28393 9.37398 7.28393 9.54464H7.0386ZM6.72927 9.06464H7.5986C7.6146 9.06464 7.6306 9.08598 7.6306 9.10731C7.6306 9.12331 7.6146 9.13931 7.5986 9.13931H6.72927C6.71327 9.13931 6.69727 9.12331 6.69727 9.10198C6.69727 9.08598 6.71327 9.06998 6.72927 9.06998V9.06464ZM6.7506 9.14464H7.57193C7.58793 9.14464 7.60393 9.16064 7.60393 9.18198C7.60393 9.20331 7.58793 9.21931 7.57193 9.21931H6.74527C6.72393 9.21931 6.71327 9.20331 6.71327 9.18198C6.71327 9.16064 6.72393 9.14464 6.74527 9.14464H6.7506ZM7.01727 8.57931H7.08127V8.62197H7.12927V8.57931H7.1986V8.62731H7.2466V8.57397H7.3106V8.68064C7.3106 8.70197 7.29993 8.71264 7.28393 8.71264H7.04927C7.03327 8.71264 7.01727 8.70197 7.01727 8.68597V8.57931ZM7.2626 8.72331L7.2786 9.06464H7.04927L7.06527 8.71797H7.2626" fill="#FFFF00"/>
<path d="M7.2626 8.72331L7.2786 9.06464H7.04927L7.06527 8.71797H7.2626M7.0386 9.54464C7.0386 9.36864 7.16127 9.32064 7.16127 9.32064C7.16127 9.32064 7.28393 9.37398 7.28393 9.54464H7.0386ZM6.72927 9.06464H7.5986C7.6146 9.06464 7.6306 9.08598 7.6306 9.10731C7.6306 9.12331 7.6146 9.13931 7.5986 9.13931H6.72927C6.71327 9.13931 6.69727 9.12331 6.69727 9.10198C6.69727 9.08598 6.71327 9.06998 6.72927 9.06998V9.06464ZM6.7506 9.14464H7.57193C7.58793 9.14464 7.60393 9.16064 7.60393 9.18198C7.60393 9.20331 7.58793 9.21931 7.57193 9.21931H6.74527C6.72393 9.21931 6.71327 9.20331 6.71327 9.18198C6.71327 9.16064 6.72393 9.14464 6.74527 9.14464H6.7506ZM7.01727 8.57931H7.08127V8.62197H7.12927V8.57931H7.1986V8.62731H7.2466V8.57397H7.3106V8.68064C7.3106 8.70197 7.29993 8.71264 7.28393 8.71264H7.04927C7.03327 8.71264 7.01727 8.70197 7.01727 8.68597V8.57931Z" stroke="black" stroke-width="0.0711113"/>
<path d="M6.98482 8.8833V9.06463H6.77148V8.8833H6.98482Z" fill="#FFFF00" stroke="black" stroke-width="0.0711113"/>
<path d="M7.55122 8.8833V9.06463H7.33789V8.8833H7.55122Z" fill="#FFFF00" stroke="black" stroke-width="0.0711113"/>
<path d="M6.73438 8.74463H6.79837V8.79796H6.84637V8.74463H6.91038V8.79796H6.95838V8.74463H7.02238V8.8513C7.02238 8.87263 7.01171 8.8833 6.99571 8.8833H6.76637C6.75789 8.8833 6.74975 8.87992 6.74375 8.87392C6.73775 8.86792 6.73438 8.85978 6.73438 8.8513V8.74463Z" fill="#FFFF00" stroke="black" stroke-width="0.0711113"/>
<path d="M7.29883 8.74463H7.36283V8.79796H7.41083V8.74463H7.47483V8.79796H7.52283V8.74463H7.58683V8.8513C7.58683 8.87263 7.57616 8.8833 7.56016 8.8833H7.33083C7.32234 8.8833 7.3142 8.87992 7.3082 8.87392C7.3022 8.86792 7.29883 8.85978 7.29883 8.8513V8.74463Z" fill="#FFFF00" stroke="black" stroke-width="0.0711113"/>
<path d="M7.14062 8.82991C7.14062 8.79791 7.18863 8.79791 7.18863 8.82991V8.91524H7.14062V8.82991Z" fill="black"/>
<path d="M6.85742 8.94734C6.85742 8.91534 6.90009 8.91534 6.90009 8.94734V9.01134H6.85742V8.94734Z" fill="black"/>
<path d="M7.42188 8.94734C7.42188 8.91534 7.46454 8.91534 7.46454 8.94734V9.01134H7.42188V8.94734Z" fill="black"/>
<path d="M6.94336 12.0353C6.94869 11.7419 7.15669 11.6726 7.15669 11.6726C7.16203 11.6726 7.38603 11.7473 7.38603 12.0406H6.94336" fill="#FFFF00"/>
<path d="M6.76112 11.6779L6.72378 12.0139H6.94778C6.94778 11.7366 7.16112 11.6939 7.16112 11.6939C7.16645 11.6939 7.37445 11.7526 7.37978 12.0139H7.60378L7.56112 11.6726H6.76112V11.6779ZM6.70778 12.0193H7.61445C7.63045 12.0193 7.64645 12.0353 7.64645 12.0566C7.64645 12.0833 7.63045 12.0993 7.61445 12.0993H6.70778C6.69178 12.0993 6.67578 12.0833 6.67578 12.0566C6.67578 12.0353 6.69178 12.0193 6.71311 12.0193H6.70778Z" fill="#FFFF00" stroke="black" stroke-width="0.0711113"/>
<path d="M7.0386 12.0139C7.0386 11.8379 7.16127 11.7899 7.16127 11.7899C7.16127 11.7899 7.28393 11.8432 7.28393 12.0139H7.0386ZM6.72927 11.5339H7.5986C7.6146 11.5339 7.6306 11.5552 7.6306 11.5765C7.6306 11.5925 7.6146 11.6085 7.5986 11.6085H6.72927C6.71327 11.6085 6.69727 11.5925 6.69727 11.5712C6.69727 11.5552 6.71327 11.5392 6.72927 11.5392V11.5339ZM6.7506 11.6139H7.57193C7.58793 11.6139 7.60393 11.6299 7.60393 11.6512C7.60393 11.6725 7.58793 11.6885 7.57193 11.6885H6.74527C6.72393 11.6885 6.71327 11.6725 6.71327 11.6512C6.71327 11.6299 6.72393 11.6139 6.74527 11.6139H6.7506ZM7.01727 11.0485H7.08127V11.0912H7.12927V11.0485H7.1986V11.0965H7.2466V11.0432H7.3106V11.1499C7.3106 11.1712 7.29993 11.1819 7.28393 11.1819H7.04927C7.03327 11.1819 7.01727 11.1712 7.01727 11.1552V11.0485ZM7.2626 11.1925L7.2786 11.5339H7.04927L7.06527 11.1872H7.2626" fill="#FFFF00"/>
<path d="M7.2626 11.1925L7.2786 11.5339H7.04927L7.06527 11.1872H7.2626M7.0386 12.0139C7.0386 11.8379 7.16127 11.7899 7.16127 11.7899C7.16127 11.7899 7.28393 11.8432 7.28393 12.0139H7.0386ZM6.72927 11.5339H7.5986C7.6146 11.5339 7.6306 11.5552 7.6306 11.5765C7.6306 11.5925 7.6146 11.6085 7.5986 11.6085H6.72927C6.71327 11.6085 6.69727 11.5925 6.69727 11.5712C6.69727 11.5552 6.71327 11.5392 6.72927 11.5392V11.5339ZM6.7506 11.6139H7.57193C7.58793 11.6139 7.60393 11.6299 7.60393 11.6512C7.60393 11.6725 7.58793 11.6885 7.57193 11.6885H6.74527C6.72393 11.6885 6.71327 11.6725 6.71327 11.6512C6.71327 11.6299 6.72393 11.6139 6.74527 11.6139H6.7506ZM7.01727 11.0485H7.08127V11.0912H7.12927V11.0485H7.1986V11.0965H7.2466V11.0432H7.3106V11.1499C7.3106 11.1712 7.29993 11.1819 7.28393 11.1819H7.04927C7.03327 11.1819 7.01727 11.1712 7.01727 11.1552V11.0485Z" stroke="black" stroke-width="0.0711113"/>
<path d="M6.98482 11.3525V11.5339H6.77148V11.3525H6.98482Z" fill="#FFFF00" stroke="black" stroke-width="0.0711113"/>
<path d="M7.55122 11.3525V11.5339H7.33789V11.3525H7.55122Z" fill="#FFFF00" stroke="black" stroke-width="0.0711113"/>
<path d="M6.73438 11.2139H6.79837V11.2672H6.84637V11.2139H6.91038V11.2672H6.95838V11.2139H7.02238V11.3205C7.02238 11.3419 7.01171 11.3525 6.99571 11.3525H6.76637C6.75789 11.3525 6.74975 11.3492 6.74375 11.3432C6.73775 11.3372 6.73438 11.329 6.73438 11.3205V11.2139Z" fill="#FFFF00" stroke="black" stroke-width="0.0711113"/>
<path d="M7.29883 11.2139H7.36283V11.2672H7.41083V11.2139H7.47483V11.2672H7.52283V11.2139H7.58683V11.3205C7.58683 11.3419 7.57616 11.3525 7.56016 11.3525H7.33083C7.32234 11.3525 7.3142 11.3492 7.3082 11.3432C7.3022 11.3372 7.29883 11.329 7.29883 11.3205V11.2139Z" fill="#FFFF00" stroke="black" stroke-width="0.0711113"/>
<path d="M7.14062 11.2991C7.14062 11.2671 7.18863 11.2671 7.18863 11.2991V11.3845H7.14062V11.2991Z" fill="black"/>
<path d="M6.85742 11.4166C6.85742 11.3846 6.90009 11.3846 6.90009 11.4166V11.4806H6.85742V11.4166Z" fill="black"/>
<path d="M7.42188 11.4166C7.42188 11.3846 7.46454 11.3846 7.46454 11.4166V11.4806H7.42188V11.4166Z" fill="black"/>
<path d="M7.90578 14.6089C7.70139 14.3985 7.79876 14.202 7.79876 14.202C7.80252 14.1982 8.01334 14.0919 8.22148 14.2986L7.90956 14.6127" fill="#FFFF00"/>
<path d="M7.52485 14.4858L7.73696 14.7491L7.8948 14.5901C7.69801 14.3947 7.81806 14.2133 7.81806 14.2133C7.82182 14.2095 8.01001 14.1032 8.1992 14.2836L8.35704 14.1246L8.08478 13.9144L7.52107 14.4821L7.52485 14.4858ZM7.72947 14.7642L8.36834 14.1208C8.37961 14.1095 8.40224 14.1094 8.41738 14.1244C8.4363 14.1432 8.43638 14.1658 8.42511 14.1772L7.78624 14.8205C7.77496 14.8319 7.75234 14.832 7.73341 14.8132C7.71828 14.7982 7.7182 14.7755 7.73323 14.7604L7.72947 14.7642Z" fill="#FFFF00" stroke="black" stroke-width="0.0711113"/>
<path d="M7.95857 14.5258C7.83369 14.4017 7.88606 14.2809 7.88606 14.2809C7.88606 14.2809 8.01034 14.2314 8.13144 14.3517L7.95857 14.5258ZM7.40001 14.407L8.01257 13.7902C8.02385 13.7788 8.05026 13.7825 8.0654 13.7975C8.07675 13.8088 8.07683 13.8314 8.06555 13.8428L7.45299 14.4596C7.44172 14.471 7.41909 14.4711 7.40395 14.456C7.3926 14.4448 7.39252 14.4221 7.40379 14.4108L7.40001 14.407ZM7.47181 14.4483L8.05055 13.8655C8.06182 13.8541 8.08445 13.854 8.09959 13.8691C8.11472 13.8841 8.1148 13.9067 8.10353 13.9181L7.52103 14.5046C7.506 14.5198 7.48713 14.5161 7.47199 14.501C7.45685 14.486 7.45302 14.4672 7.46805 14.452L7.47181 14.4483ZM7.25856 13.8607L7.30366 13.8153L7.33394 13.8453L7.36776 13.8113L7.33748 13.7812L7.38634 13.732L7.4204 13.7658L7.45422 13.7318L7.41638 13.6942L7.46147 13.6488L7.53716 13.7239C7.5523 13.739 7.55235 13.7541 7.54108 13.7654L7.37572 13.9319C7.36445 13.9433 7.34561 13.9471 7.33425 13.9358L7.25856 13.8607ZM7.53361 13.7881L7.78709 14.0172L7.62549 14.18L7.39078 13.9243L7.52983 13.7843" fill="#FFFF00"/>
<path d="M7.53361 13.7881L7.78709 14.0172L7.62549 14.18L7.39078 13.9243L7.52983 13.7843M7.95857 14.5258C7.83369 14.4017 7.88606 14.2809 7.88606 14.2809C7.88606 14.2809 8.01034 14.2314 8.13144 14.3517L7.95857 14.5258ZM7.40001 14.407L8.01257 13.7902C8.02385 13.7788 8.05026 13.7825 8.0654 13.7975C8.07675 13.8088 8.07683 13.8314 8.06555 13.8428L7.45299 14.4596C7.44172 14.471 7.41909 14.4711 7.40395 14.456C7.3926 14.4448 7.39252 14.4221 7.40379 14.4108L7.40001 14.407ZM7.47181 14.4483L8.05055 13.8655C8.06182 13.8541 8.08445 13.854 8.09959 13.8691C8.11472 13.8841 8.1148 13.9067 8.10353 13.9181L7.52103 14.5046C7.506 14.5198 7.48713 14.5161 7.47199 14.501C7.45685 14.486 7.45302 14.4672 7.46805 14.452L7.47181 14.4483ZM7.25856 13.8607L7.30366 13.8153L7.33394 13.8453L7.36776 13.8113L7.33748 13.7812L7.38634 13.732L7.4204 13.7658L7.45422 13.7318L7.41638 13.6942L7.46147 13.6488L7.53716 13.7239C7.5523 13.739 7.55235 13.7541 7.54108 13.7654L7.37572 13.9319C7.36445 13.9433 7.34561 13.9471 7.33425 13.9358L7.25856 13.8607Z" stroke="black" stroke-width="0.0711113"/>
<path d="M7.4511 14.0976L7.57977 14.2254L7.42945 14.3768L7.30078 14.249L7.4511 14.0976Z" fill="#FFFF00" stroke="black" stroke-width="0.0711113"/>
<path d="M7.84954 13.6964L7.97821 13.8242L7.82789 13.9756L7.69922 13.8478L7.84954 13.6964Z" fill="#FFFF00" stroke="black" stroke-width="0.0711113"/>
<path d="M7.17578 14.1777L7.22088 14.1323L7.25872 14.1699L7.29254 14.1358L7.2547 14.0983L7.2998 14.0528L7.33764 14.0904L7.37146 14.0564L7.33362 14.0188L7.37872 13.9734L7.4544 14.0485C7.46954 14.0636 7.46959 14.0787 7.45832 14.09L7.29672 14.2527C7.29074 14.2588 7.28262 14.2622 7.27413 14.2622C7.26564 14.2622 7.25749 14.2589 7.25147 14.2529L7.17578 14.1777Z" fill="#FFFF00" stroke="black" stroke-width="0.0711113"/>
<path d="M7.57422 13.7766L7.61932 13.7312L7.65716 13.7688L7.69098 13.7347L7.65314 13.6971L7.69823 13.6517L7.73608 13.6893L7.7699 13.6552L7.73206 13.6177L7.77715 13.5723L7.85284 13.6474C7.86798 13.6624 7.86803 13.6775 7.85676 13.6889L7.69516 13.8516C7.68918 13.8576 7.68105 13.861 7.67257 13.8611C7.66408 13.8611 7.65593 13.8578 7.64991 13.8518L7.57422 13.7766Z" fill="#FFFF00" stroke="black" stroke-width="0.0711113"/>
<path d="M7.52289 13.9503C7.50018 13.9277 7.53401 13.8937 7.55671 13.9162L7.61726 13.9763L7.58344 14.0104L7.52289 13.9503Z" fill="black"/>
<path d="M7.4057 14.2335C7.383 14.2109 7.41306 14.1806 7.43577 14.2032L7.48118 14.2483L7.45111 14.2786L7.4057 14.2335Z" fill="black"/>
<path d="M7.80414 13.8323C7.78143 13.8098 7.8115 13.7795 7.8342 13.8021L7.87962 13.8472L7.84955 13.8774L7.80414 13.8323Z" fill="black"/>
<path d="M9.38086 9.56604C9.38619 9.2727 9.59419 9.20337 9.59419 9.20337C9.59953 9.20337 9.82353 9.27804 9.82353 9.57137H9.38086" fill="#FFFF00"/>
<path d="M9.19862 9.2087L9.16128 9.5447H9.38528C9.38528 9.26737 9.59862 9.2247 9.59862 9.2247C9.60395 9.2247 9.81195 9.28337 9.81728 9.5447H10.0413L9.99862 9.20337H9.19862V9.2087ZM9.14528 9.55004H10.052C10.068 9.55004 10.0839 9.56604 10.0839 9.58737C10.0839 9.61404 10.068 9.63004 10.052 9.63004H9.14528C9.12928 9.63004 9.11328 9.61404 9.11328 9.58737C9.11328 9.56604 9.12928 9.55004 9.15061 9.55004H9.14528Z" fill="#FFFF00" stroke="black" stroke-width="0.0711113"/>
<path d="M9.4761 9.54464C9.4761 9.36864 9.59877 9.32064 9.59877 9.32064C9.59877 9.32064 9.72143 9.37398 9.72143 9.54464H9.4761ZM9.16677 9.06464H10.0361C10.0521 9.06464 10.0681 9.08598 10.0681 9.10731C10.0681 9.12331 10.0521 9.13931 10.0361 9.13931H9.16677C9.15077 9.13931 9.13477 9.12331 9.13477 9.10198C9.13477 9.08598 9.15077 9.06998 9.16677 9.06998V9.06464ZM9.1881 9.14464H10.0094C10.0254 9.14464 10.0414 9.16064 10.0414 9.18198C10.0414 9.20331 10.0254 9.21931 10.0094 9.21931H9.18277C9.16143 9.21931 9.15077 9.20331 9.15077 9.18198C9.15077 9.16064 9.16143 9.14464 9.18277 9.14464H9.1881ZM9.45477 8.57931H9.51877V8.62197H9.56677V8.57931H9.6361V8.62731H9.6841V8.57397H9.7481V8.68064C9.7481 8.70197 9.73743 8.71264 9.72143 8.71264H9.48677C9.47077 8.71264 9.45477 8.70197 9.45477 8.68597V8.57931ZM9.7001 8.72331L9.7161 9.06464H9.48677L9.50277 8.71797H9.7001" fill="#FFFF00"/>
<path d="M9.7001 8.72331L9.7161 9.06464H9.48677L9.50277 8.71797H9.7001M9.4761 9.54464C9.4761 9.36864 9.59877 9.32064 9.59877 9.32064C9.59877 9.32064 9.72143 9.37398 9.72143 9.54464H9.4761ZM9.16677 9.06464H10.0361C10.0521 9.06464 10.0681 9.08598 10.0681 9.10731C10.0681 9.12331 10.0521 9.13931 10.0361 9.13931H9.16677C9.15077 9.13931 9.13477 9.12331 9.13477 9.10198C9.13477 9.08598 9.15077 9.06998 9.16677 9.06998V9.06464ZM9.1881 9.14464H10.0094C10.0254 9.14464 10.0414 9.16064 10.0414 9.18198C10.0414 9.20331 10.0254 9.21931 10.0094 9.21931H9.18277C9.16143 9.21931 9.15077 9.20331 9.15077 9.18198C9.15077 9.16064 9.16143 9.14464 9.18277 9.14464H9.1881ZM9.45477 8.57931H9.51877V8.62197H9.56677V8.57931H9.6361V8.62731H9.6841V8.57397H9.7481V8.68064C9.7481 8.70197 9.73743 8.71264 9.72143 8.71264H9.48677C9.47077 8.71264 9.45477 8.70197 9.45477 8.68597V8.57931Z" stroke="black" stroke-width="0.0711113"/>
<path d="M9.42232 8.8833V9.06463H9.20898V8.8833H9.42232Z" fill="#FFFF00" stroke="black" stroke-width="0.0711113"/>
<path d="M9.98872 8.8833V9.06463H9.77539V8.8833H9.98872Z" fill="#FFFF00" stroke="black" stroke-width="0.0711113"/>
<path d="M9.17188 8.74463H9.23587V8.79796H9.28387V8.74463H9.34788V8.79796H9.39588V8.74463H9.45988V8.8513C9.45988 8.87263 9.44921 8.8833 9.43321 8.8833H9.20387C9.19539 8.8833 9.18725 8.87992 9.18125 8.87392C9.17525 8.86792 9.17188 8.85978 9.17188 8.8513V8.74463Z" fill="#FFFF00" stroke="black" stroke-width="0.0711113"/>
<path d="M9.73633 8.74463H9.80033V8.79796H9.84833V8.74463H9.91233V8.79796H9.96033V8.74463H10.0243V8.8513C10.0243 8.87263 10.0137 8.8833 9.99766 8.8833H9.76833C9.75984 8.8833 9.7517 8.87992 9.7457 8.87392C9.7397 8.86792 9.73633 8.85978 9.73633 8.8513V8.74463Z" fill="#FFFF00" stroke="black" stroke-width="0.0711113"/>
<path d="M9.57812 8.82991C9.57812 8.79791 9.62613 8.79791 9.62613 8.82991V8.91524H9.57812V8.82991Z" fill="black"/>
<path d="M9.29492 8.94734C9.29492 8.91534 9.33759 8.91534 9.33759 8.94734V9.01134H9.29492V8.94734Z" fill="black"/>
<path d="M9.85938 8.94734C9.85938 8.91534 9.90204 8.91534 9.90204 8.94734V9.01134H9.85938V8.94734Z" fill="black"/>
<path d="M12.2422 9.56604C12.2369 9.2727 12.0289 9.20337 12.0289 9.20337C12.0235 9.20337 11.7995 9.27804 11.7995 9.57137H12.2422" fill="#FFFF00"/>
<path d="M12.4244 9.2087L12.4618 9.5447H12.2378C12.2378 9.26737 12.0244 9.2247 12.0244 9.2247C12.0191 9.2247 11.8111 9.28337 11.8058 9.5447H11.5818L11.6244 9.20337H12.4244V9.2087ZM12.4778 9.55004H11.5711C11.5551 9.55004 11.5391 9.56604 11.5391 9.58737C11.5391 9.61404 11.5551 9.63004 11.5711 9.63004H12.4778C12.4938 9.63004 12.5098 9.61404 12.5098 9.58737C12.5098 9.56604 12.4938 9.55004 12.4724 9.55004H12.4778Z" fill="#FFFF00" stroke="black" stroke-width="0.0711113"/>
<path d="M12.1469 9.54464C12.1469 9.36864 12.0243 9.32064 12.0243 9.32064C12.0243 9.32064 11.9016 9.37398 11.9016 9.54464H12.1469ZM12.4563 9.06464H11.5869C11.5709 9.06464 11.5549 9.08598 11.5549 9.10731C11.5549 9.12331 11.5709 9.13931 11.5869 9.13931H12.4563C12.4723 9.13931 12.4883 9.12331 12.4883 9.10198C12.4883 9.08598 12.4723 9.06998 12.4563 9.06998V9.06464ZM12.4349 9.14464H11.6136C11.5976 9.14464 11.5816 9.16064 11.5816 9.18198C11.5816 9.20331 11.5976 9.21931 11.6136 9.21931H12.4403C12.4616 9.21931 12.4723 9.20331 12.4723 9.18198C12.4723 9.16064 12.4616 9.14464 12.4403 9.14464H12.4349ZM12.1683 8.57931H12.1043V8.62197H12.0563V8.57931H11.9869V8.62731H11.9389V8.57397H11.8749V8.68064C11.8749 8.70197 11.8856 8.71264 11.9016 8.71264H12.1363C12.1523 8.71264 12.1683 8.70197 12.1683 8.68597V8.57931ZM11.9229 8.72331L11.9069 9.06464H12.1363L12.1203 8.71797H11.9229" fill="#FFFF00"/>
<path d="M11.9229 8.72331L11.9069 9.06464H12.1363L12.1203 8.71797H11.9229M12.1469 9.54464C12.1469 9.36864 12.0243 9.32064 12.0243 9.32064C12.0243 9.32064 11.9016 9.37398 11.9016 9.54464H12.1469ZM12.4563 9.06464H11.5869C11.5709 9.06464 11.5549 9.08598 11.5549 9.10731C11.5549 9.12331 11.5709 9.13931 11.5869 9.13931H12.4563C12.4723 9.13931 12.4883 9.12331 12.4883 9.10198C12.4883 9.08598 12.4723 9.06998 12.4563 9.06998V9.06464ZM12.4349 9.14464H11.6136C11.5976 9.14464 11.5816 9.16064 11.5816 9.18198C11.5816 9.20331 11.5976 9.21931 11.6136 9.21931H12.4403C12.4616 9.21931 12.4723 9.20331 12.4723 9.18198C12.4723 9.16064 12.4616 9.14464 12.4403 9.14464H12.4349ZM12.1683 8.57931H12.1043V8.62197H12.0563V8.57931H11.9869V8.62731H11.9389V8.57397H11.8749V8.68064C11.8749 8.70197 11.8856 8.71264 11.9016 8.71264H12.1363C12.1523 8.71264 12.1683 8.70197 12.1683 8.68597V8.57931Z" stroke="black" stroke-width="0.0711113"/>
<path d="M12.2007 8.8833V9.06463H12.4141V8.8833H12.2007Z" fill="#FFFF00" stroke="black" stroke-width="0.0711113"/>
<path d="M11.6343 8.8833V9.06463H11.8477V8.8833H11.6343Z" fill="#FFFF00" stroke="black" stroke-width="0.0711113"/>
<path d="M12.4512 8.74463H12.3872V8.79796H12.3392V8.74463H12.2752V8.79796H12.2272V8.74463H12.1632V8.8513C12.1632 8.87263 12.1738 8.8833 12.1898 8.8833H12.4192C12.4277 8.8833 12.4358 8.87992 12.4418 8.87392C12.4478 8.86792 12.4512 8.85978 12.4512 8.8513V8.74463Z" fill="#FFFF00" stroke="black" stroke-width="0.0711113"/>
<path d="M11.8867 8.74463H11.8227V8.79796H11.7747V8.74463H11.7107V8.79796H11.6627V8.74463H11.5987V8.8513C11.5987 8.87263 11.6094 8.8833 11.6254 8.8833H11.8547C11.8632 8.8833 11.8713 8.87992 11.8773 8.87392C11.8833 8.86792 11.8867 8.85978 11.8867 8.8513V8.74463Z" fill="#FFFF00" stroke="black" stroke-width="0.0711113"/>
<path d="M12.0449 8.82991C12.0449 8.79791 11.9969 8.79791 11.9969 8.82991V8.91524H12.0449V8.82991Z" fill="black"/>
<path d="M12.3281 8.94734C12.3281 8.91534 12.2855 8.91534 12.2855 8.94734V9.01134H12.3281V8.94734Z" fill="black"/>
<path d="M11.7637 8.94734C11.7637 8.91534 11.721 8.91534 11.721 8.94734V9.01134H11.7637V8.94734Z" fill="black"/>
<path d="M12.2422 12.0353C12.2369 11.7419 12.0289 11.6726 12.0289 11.6726C12.0235 11.6726 11.7995 11.7473 11.7995 12.0406H12.2422" fill="#FFFF00"/>
<path d="M12.4244 11.6779L12.4618 12.0139H12.2378C12.2378 11.7366 12.0244 11.6939 12.0244 11.6939C12.0191 11.6939 11.8111 11.7526 11.8058 12.0139H11.5818L11.6244 11.6726H12.4244V11.6779ZM12.4778 12.0193H11.5711C11.5551 12.0193 11.5391 12.0353 11.5391 12.0566C11.5391 12.0833 11.5551 12.0993 11.5711 12.0993H12.4778C12.4938 12.0993 12.5098 12.0833 12.5098 12.0566C12.5098 12.0353 12.4938 12.0193 12.4724 12.0193H12.4778Z" fill="#FFFF00" stroke="black" stroke-width="0.0711113"/>
<path d="M12.1469 12.0139C12.1469 11.8379 12.0243 11.7899 12.0243 11.7899C12.0243 11.7899 11.9016 11.8432 11.9016 12.0139H12.1469ZM12.4563 11.5339H11.5869C11.5709 11.5339 11.5549 11.5552 11.5549 11.5765C11.5549 11.5925 11.5709 11.6085 11.5869 11.6085H12.4563C12.4723 11.6085 12.4883 11.5925 12.4883 11.5712C12.4883 11.5552 12.4723 11.5392 12.4563 11.5392V11.5339ZM12.4349 11.6139H11.6136C11.5976 11.6139 11.5816 11.6299 11.5816 11.6512C11.5816 11.6725 11.5976 11.6885 11.6136 11.6885H12.4403C12.4616 11.6885 12.4723 11.6725 12.4723 11.6512C12.4723 11.6299 12.4616 11.6139 12.4403 11.6139H12.4349ZM12.1683 11.0485H12.1043V11.0912H12.0563V11.0485H11.9869V11.0965H11.9389V11.0432H11.8749V11.1499C11.8749 11.1712 11.8856 11.1819 11.9016 11.1819H12.1363C12.1523 11.1819 12.1683 11.1712 12.1683 11.1552V11.0485ZM11.9229 11.1925L11.9069 11.5339H12.1363L12.1203 11.1872H11.9229" fill="#FFFF00"/>
<path d="M11.9229 11.1925L11.9069 11.5339H12.1363L12.1203 11.1872H11.9229M12.1469 12.0139C12.1469 11.8379 12.0243 11.7899 12.0243 11.7899C12.0243 11.7899 11.9016 11.8432 11.9016 12.0139H12.1469ZM12.4563 11.5339H11.5869C11.5709 11.5339 11.5549 11.5552 11.5549 11.5765C11.5549 11.5925 11.5709 11.6085 11.5869 11.6085H12.4563C12.4723 11.6085 12.4883 11.5925 12.4883 11.5712C12.4883 11.5552 12.4723 11.5392 12.4563 11.5392V11.5339ZM12.4349 11.6139H11.6136C11.5976 11.6139 11.5816 11.6299 11.5816 11.6512C11.5816 11.6725 11.5976 11.6885 11.6136 11.6885H12.4403C12.4616 11.6885 12.4723 11.6725 12.4723 11.6512C12.4723 11.6299 12.4616 11.6139 12.4403 11.6139H12.4349ZM12.1683 11.0485H12.1043V11.0912H12.0563V11.0485H11.9869V11.0965H11.9389V11.0432H11.8749V11.1499C11.8749 11.1712 11.8856 11.1819 11.9016 11.1819H12.1363C12.1523 11.1819 12.1683 11.1712 12.1683 11.1552V11.0485Z" stroke="black" stroke-width="0.0711113"/>
<path d="M12.2007 11.3525V11.5339H12.4141V11.3525H12.2007Z" fill="#FFFF00" stroke="black" stroke-width="0.0711113"/>
<path d="M11.6343 11.3525V11.5339H11.8477V11.3525H11.6343Z" fill="#FFFF00" stroke="black" stroke-width="0.0711113"/>
<path d="M12.4512 11.2139H12.3872V11.2672H12.3392V11.2139H12.2752V11.2672H12.2272V11.2139H12.1632V11.3205C12.1632 11.3419 12.1738 11.3525 12.1898 11.3525H12.4192C12.4277 11.3525 12.4358 11.3492 12.4418 11.3432C12.4478 11.3372 12.4512 11.329 12.4512 11.3205V11.2139Z" fill="#FFFF00" stroke="black" stroke-width="0.0711113"/>
<path d="M11.8867 11.2139H11.8227V11.2672H11.7747V11.2139H11.7107V11.2672H11.6627V11.2139H11.5987V11.3205C11.5987 11.3419 11.6094 11.3525 11.6254 11.3525H11.8547C11.8632 11.3525 11.8713 11.3492 11.8773 11.3432C11.8833 11.3372 11.8867 11.329 11.8867 11.3205V11.2139Z" fill="#FFFF00" stroke="black" stroke-width="0.0711113"/>
<path d="M12.0449 11.2991C12.0449 11.2671 11.9969 11.2671 11.9969 11.2991V11.3845H12.0449V11.2991Z" fill="black"/>
<path d="M12.3281 11.4166C12.3281 11.3846 12.2855 11.3846 12.2855 11.4166V11.4806H12.3281V11.4166Z" fill="black"/>
<path d="M11.7637 11.4166C11.7637 11.3846 11.721 11.3846 11.721 11.4166V11.4806H11.7637V11.4166Z" fill="black"/>
<path d="M11.2798 14.6089C11.4842 14.3985 11.3868 14.202 11.3868 14.202C11.383 14.1982 11.1722 14.0919 10.9641 14.2986L11.276 14.6127" fill="#FFFF00"/>
<path d="M11.6607 14.4858L11.4486 14.7491L11.2907 14.5901C11.4875 14.3947 11.3675 14.2133 11.3675 14.2133C11.3637 14.2095 11.1755 14.1032 10.9863 14.2836L10.8285 14.1246L11.1008 13.9144L11.6645 14.4821L11.6607 14.4858ZM11.4561 14.7642L10.8172 14.1208C10.8059 14.1095 10.7833 14.1094 10.7682 14.1244C10.7492 14.1432 10.7492 14.1658 10.7604 14.1772L11.3993 14.8205C11.4106 14.8319 11.4332 14.832 11.4521 14.8132C11.4673 14.7982 11.4674 14.7755 11.4523 14.7604L11.4561 14.7642Z" fill="#FFFF00" stroke="black" stroke-width="0.0711113"/>
<path d="M11.227 14.5258C11.3519 14.4017 11.2995 14.2809 11.2995 14.2809C11.2995 14.2809 11.1752 14.2314 11.0541 14.3517L11.227 14.5258ZM11.7855 14.407L11.173 13.7902C11.1617 13.7788 11.1353 13.7825 11.1202 13.7975C11.1088 13.8088 11.1087 13.8314 11.12 13.8428L11.7326 14.4596C11.7438 14.471 11.7665 14.4711 11.7816 14.456C11.7929 14.4448 11.793 14.4221 11.7818 14.4108L11.7855 14.407ZM11.7137 14.4483L11.135 13.8655C11.1237 13.8541 11.1011 13.854 11.086 13.8691C11.0708 13.8841 11.0707 13.9067 11.082 13.9181L11.6645 14.5046C11.6795 14.5198 11.6984 14.5161 11.7136 14.501C11.7287 14.486 11.7325 14.4672 11.7175 14.452L11.7137 14.4483ZM11.927 13.8607L11.8819 13.8153L11.8516 13.8453L11.8178 13.8113L11.8481 13.7812L11.7992 13.732L11.7651 13.7658L11.7313 13.7318L11.7692 13.6942L11.7241 13.6488L11.6484 13.7239C11.6332 13.739 11.6332 13.7541 11.6445 13.7654L11.8098 13.9319C11.8211 13.9433 11.8399 13.9471 11.8513 13.9358L11.927 13.8607ZM11.6519 13.7881L11.3985 14.0172L11.5601 14.18L11.7948 13.9243L11.6557 13.7843" fill="#FFFF00"/>
<path d="M11.6519 13.7881L11.3985 14.0172L11.5601 14.18L11.7948 13.9243L11.6557 13.7843M11.227 14.5258C11.3519 14.4017 11.2995 14.2809 11.2995 14.2809C11.2995 14.2809 11.1752 14.2314 11.0541 14.3517L11.227 14.5258ZM11.7855 14.407L11.173 13.7902C11.1617 13.7788 11.1353 13.7825 11.1202 13.7975C11.1088 13.8088 11.1087 13.8314 11.12 13.8428L11.7326 14.4596C11.7438 14.471 11.7665 14.4711 11.7816 14.456C11.7929 14.4448 11.793 14.4221 11.7818 14.4108L11.7855 14.407ZM11.7137 14.4483L11.135 13.8655C11.1237 13.8541 11.1011 13.854 11.086 13.8691C11.0708 13.8841 11.0707 13.9067 11.082 13.9181L11.6645 14.5046C11.6795 14.5198 11.6984 14.5161 11.7136 14.501C11.7287 14.486 11.7325 14.4672 11.7175 14.452L11.7137 14.4483ZM11.927 13.8607L11.8819 13.8153L11.8516 13.8453L11.8178 13.8113L11.8481 13.7812L11.7992 13.732L11.7651 13.7658L11.7313 13.7318L11.7692 13.6942L11.7241 13.6488L11.6484 13.7239C11.6332 13.739 11.6332 13.7541 11.6445 13.7654L11.8098 13.9319C11.8211 13.9433 11.8399 13.9471 11.8513 13.9358L11.927 13.8607Z" stroke="black" stroke-width="0.0711113"/>
<path d="M11.7344 14.0976L11.6058 14.2254L11.7561 14.3768L11.8848 14.249L11.7344 14.0976Z" fill="#FFFF00" stroke="black" stroke-width="0.0711113"/>
<path d="M11.336 13.6964L11.2073 13.8242L11.3577 13.9756L11.4863 13.8478L11.336 13.6964Z" fill="#FFFF00" stroke="black" stroke-width="0.0711113"/>
<path d="M12.0098 14.1777L11.9647 14.1323L11.9268 14.1699L11.893 14.1358L11.9308 14.0983L11.8857 14.0528L11.8479 14.0904L11.8141 14.0564L11.8519 14.0188L11.8068 13.9734L11.7311 14.0485C11.716 14.0636 11.716 14.0787 11.7272 14.09L11.8888 14.2527C11.8948 14.2588 11.9029 14.2622 11.9114 14.2622C11.9199 14.2622 11.9281 14.2589 11.9341 14.2529L12.0098 14.1777Z" fill="#FFFF00" stroke="black" stroke-width="0.0711113"/>
<path d="M11.6113 13.7766L11.5662 13.7312L11.5284 13.7688L11.4946 13.7347L11.5324 13.6971L11.4873 13.6517L11.4495 13.6893L11.4156 13.6552L11.4535 13.6177L11.4084 13.5723L11.3327 13.6474C11.3176 13.6624 11.3175 13.6775 11.3288 13.6889L11.4904 13.8516C11.4964 13.8576 11.5045 13.861 11.513 13.8611C11.5215 13.8611 11.5296 13.8578 11.5356 13.8518L11.6113 13.7766Z" fill="#FFFF00" stroke="black" stroke-width="0.0711113"/>
<path d="M11.6627 13.9503C11.6854 13.9277 11.6515 13.8937 11.6288 13.9162L11.5683 13.9763L11.6021 14.0104L11.6627 13.9503Z" fill="black"/>
<path d="M11.7798 14.2335C11.8026 14.2109 11.7725 14.1806 11.7498 14.2032L11.7044 14.2483L11.7344 14.2786L11.7798 14.2335Z" fill="black"/>
<path d="M11.3814 13.8323C11.4041 13.8098 11.3741 13.7795 11.3513 13.8021L11.3059 13.8472L11.336 13.8774L11.3814 13.8323Z" fill="black"/>
<path d="M9.20314 12.1258C9.20218 12.2384 9.24413 12.3471 9.32047 12.4298C9.35609 12.4696 9.39963 12.5016 9.4483 12.5236C9.49698 12.5457 9.54971 12.5573 9.60314 12.5578C9.71514 12.5578 9.81648 12.5045 9.88581 12.4298C9.96215 12.3471 10.0041 12.2384 10.0031 12.1258V11.5498H9.20314V12.1258Z" fill="#003399"/>
<path d="M9.39055 11.8485C9.43473 11.8485 9.47055 11.8127 9.47055 11.7685C9.47055 11.7243 9.43473 11.6885 9.39055 11.6885C9.34636 11.6885 9.31055 11.7243 9.31055 11.7685C9.31055 11.8127 9.34636 11.8485 9.39055 11.8485Z" fill="white"/>
<path d="M9.83195 11.8485C9.87614 11.8485 9.91195 11.8127 9.91195 11.7685C9.91195 11.7243 9.87614 11.6885 9.83195 11.6885C9.78777 11.6885 9.75195 11.7243 9.75195 11.7685C9.75195 11.8127 9.78777 11.8485 9.83195 11.8485Z" fill="white"/>
<path d="M9.6093 12.0619C9.65348 12.0619 9.6893 12.026 9.6893 11.9819C9.6893 11.9377 9.65348 11.9019 9.6093 11.9019C9.56511 11.9019 9.5293 11.9377 9.5293 11.9819C9.5293 12.026 9.56511 12.0619 9.6093 12.0619Z" fill="white"/>
<path d="M9.39055 12.2859C9.43473 12.2859 9.47055 12.25 9.47055 12.2059C9.47055 12.1617 9.43473 12.1259 9.39055 12.1259C9.34636 12.1259 9.31055 12.1617 9.31055 12.2059C9.31055 12.25 9.34636 12.2859 9.39055 12.2859Z" fill="white"/>
<path d="M9.83195 12.2859C9.87614 12.2859 9.91195 12.25 9.91195 12.2059C9.91195 12.1617 9.87614 12.1259 9.83195 12.1259C9.78777 12.1259 9.75195 12.1617 9.75195 12.2059C9.75195 12.25 9.78777 12.2859 9.83195 12.2859Z" fill="white"/>
<path d="M9.20314 10.7393C9.20218 10.8519 9.24413 10.9606 9.32047 11.0433C9.35609 11.0832 9.39963 11.1151 9.4483 11.1372C9.49698 11.1592 9.54971 11.1708 9.60314 11.1713C9.71514 11.1713 9.81648 11.118 9.88581 11.0433C9.96215 10.9606 10.0041 10.8519 10.0031 10.7393V10.1633H9.20314V10.7393Z" fill="#003399"/>
<path d="M9.39055 10.462C9.43473 10.462 9.47055 10.4262 9.47055 10.382C9.47055 10.3378 9.43473 10.302 9.39055 10.302C9.34636 10.302 9.31055 10.3378 9.31055 10.382C9.31055 10.4262 9.34636 10.462 9.39055 10.462Z" fill="white"/>
<path d="M9.83195 10.462C9.87614 10.462 9.91195 10.4262 9.91195 10.382C9.91195 10.3378 9.87614 10.302 9.83195 10.302C9.78777 10.302 9.75195 10.3378 9.75195 10.382C9.75195 10.4262 9.78777 10.462 9.83195 10.462Z" fill="white"/>
<path d="M9.6093 10.6754C9.65348 10.6754 9.6893 10.6396 9.6893 10.5954C9.6893 10.5512 9.65348 10.5154 9.6093 10.5154C9.56511 10.5154 9.5293 10.5512 9.5293 10.5954C9.5293 10.6396 9.56511 10.6754 9.6093 10.6754Z" fill="white"/>
<path d="M9.39055 10.8993C9.43473 10.8993 9.47055 10.8634 9.47055 10.8193C9.47055 10.7751 9.43473 10.7393 9.39055 10.7393C9.34636 10.7393 9.31055 10.7751 9.31055 10.8193C9.31055 10.8634 9.34636 10.8993 9.39055 10.8993Z" fill="white"/>
<path d="M9.83195 10.8993C9.87614 10.8993 9.91195 10.8634 9.91195 10.8193C9.91195 10.7751 9.87614 10.7393 9.83195 10.7393C9.78777 10.7393 9.75195 10.7751 9.75195 10.8193C9.75195 10.8634 9.78777 10.8993 9.83195 10.8993Z" fill="white"/>
<path d="M8.09377 12.1258C8.0928 12.2384 8.13476 12.3471 8.2111 12.4298C8.24672 12.4696 8.29026 12.5016 8.33893 12.5236C8.3876 12.5457 8.44034 12.5573 8.49377 12.5578C8.60577 12.5578 8.7071 12.5045 8.77643 12.4298C8.85278 12.3471 8.89473 12.2384 8.89377 12.1258V11.5498H8.09377V12.1258Z" fill="#003399"/>
<path d="M8.28117 11.8485C8.32535 11.8485 8.36117 11.8127 8.36117 11.7685C8.36117 11.7243 8.32535 11.6885 8.28117 11.6885C8.23699 11.6885 8.20117 11.7243 8.20117 11.7685C8.20117 11.8127 8.23699 11.8485 8.28117 11.8485Z" fill="white"/>
<path d="M8.72258 11.8485C8.76676 11.8485 8.80258 11.8127 8.80258 11.7685C8.80258 11.7243 8.76676 11.6885 8.72258 11.6885C8.6784 11.6885 8.64258 11.7243 8.64258 11.7685C8.64258 11.8127 8.6784 11.8485 8.72258 11.8485Z" fill="white"/>
<path d="M8.49992 12.0619C8.5441 12.0619 8.57992 12.026 8.57992 11.9819C8.57992 11.9377 8.5441 11.9019 8.49992 11.9019C8.45574 11.9019 8.41992 11.9377 8.41992 11.9819C8.41992 12.026 8.45574 12.0619 8.49992 12.0619Z" fill="white"/>
<path d="M8.28117 12.2859C8.32535 12.2859 8.36117 12.25 8.36117 12.2059C8.36117 12.1617 8.32535 12.1259 8.28117 12.1259C8.23699 12.1259 8.20117 12.1617 8.20117 12.2059C8.20117 12.25 8.23699 12.2859 8.28117 12.2859Z" fill="white"/>
<path d="M8.72258 12.2859C8.76676 12.2859 8.80258 12.25 8.80258 12.2059C8.80258 12.1617 8.76676 12.1259 8.72258 12.1259C8.6784 12.1259 8.64258 12.1617 8.64258 12.2059C8.64258 12.25 8.6784 12.2859 8.72258 12.2859Z" fill="white"/>
<path d="M10.3125 12.1258C10.3116 12.2384 10.3535 12.3471 10.4298 12.4298C10.4655 12.4696 10.509 12.5016 10.5577 12.5236C10.6064 12.5457 10.6591 12.5573 10.7125 12.5578C10.8245 12.5578 10.9259 12.5045 10.9952 12.4298C11.0715 12.3471 11.1135 12.2384 11.1125 12.1258V11.5498H10.3125V12.1258Z" fill="#003399"/>
<path d="M10.4999 11.8485C10.5441 11.8485 10.5799 11.8127 10.5799 11.7685C10.5799 11.7243 10.5441 11.6885 10.4999 11.6885C10.4557 11.6885 10.4199 11.7243 10.4199 11.7685C10.4199 11.8127 10.4557 11.8485 10.4999 11.8485Z" fill="white"/>
<path d="M10.9413 11.8485C10.9855 11.8485 11.0213 11.8127 11.0213 11.7685C11.0213 11.7243 10.9855 11.6885 10.9413 11.6885C10.8971 11.6885 10.8613 11.7243 10.8613 11.7685C10.8613 11.8127 10.8971 11.8485 10.9413 11.8485Z" fill="white"/>
<path d="M10.7187 12.0619C10.7629 12.0619 10.7987 12.026 10.7987 11.9819C10.7987 11.9377 10.7629 11.9019 10.7187 11.9019C10.6745 11.9019 10.6387 11.9377 10.6387 11.9819C10.6387 12.026 10.6745 12.0619 10.7187 12.0619Z" fill="white"/>
<path d="M10.4999 12.2859C10.5441 12.2859 10.5799 12.25 10.5799 12.2059C10.5799 12.1617 10.5441 12.1259 10.4999 12.1259C10.4557 12.1259 10.4199 12.1617 10.4199 12.2059C10.4199 12.25 10.4557 12.2859 10.4999 12.2859Z" fill="white"/>
<path d="M10.9413 12.2859C10.9855 12.2859 11.0213 12.25 11.0213 12.2059C11.0213 12.1617 10.9855 12.1259 10.9413 12.1259C10.8971 12.1259 10.8613 12.1617 10.8613 12.2059C10.8613 12.25 10.8971 12.2859 10.9413 12.2859Z" fill="white"/>
<path d="M9.20314 13.5019C9.20218 13.6145 9.24413 13.7232 9.32047 13.8059C9.35609 13.8457 9.39963 13.8777 9.4483 13.8997C9.49698 13.9218 9.54971 13.9334 9.60314 13.9339C9.71514 13.9339 9.81648 13.8806 9.88581 13.8059C9.96215 13.7232 10.0041 13.6145 10.0031 13.5019V12.9259H9.20314V13.5019Z" fill="#003399"/>
<path d="M9.39055 13.2246C9.43473 13.2246 9.47055 13.1888 9.47055 13.1446C9.47055 13.1004 9.43473 13.0646 9.39055 13.0646C9.34636 13.0646 9.31055 13.1004 9.31055 13.1446C9.31055 13.1888 9.34636 13.2246 9.39055 13.2246Z" fill="white"/>
<path d="M9.83195 13.2246C9.87614 13.2246 9.91195 13.1888 9.91195 13.1446C9.91195 13.1004 9.87614 13.0646 9.83195 13.0646C9.78777 13.0646 9.75195 13.1004 9.75195 13.1446C9.75195 13.1888 9.78777 13.2246 9.83195 13.2246Z" fill="white"/>
<path d="M9.6093 13.438C9.65348 13.438 9.6893 13.4021 9.6893 13.358C9.6893 13.3138 9.65348 13.278 9.6093 13.278C9.56511 13.278 9.5293 13.3138 9.5293 13.358C9.5293 13.4021 9.56511 13.438 9.6093 13.438Z" fill="white"/>
<path d="M9.39055 13.662C9.43473 13.662 9.47055 13.6261 9.47055 13.582C9.47055 13.5378 9.43473 13.502 9.39055 13.502C9.34636 13.502 9.31055 13.5378 9.31055 13.582C9.31055 13.6261 9.34636 13.662 9.39055 13.662Z" fill="white"/>
<path d="M9.83195 13.662C9.87614 13.662 9.91195 13.6261 9.91195 13.582C9.91195 13.5378 9.87614 13.502 9.83195 13.502C9.78777 13.502 9.75195 13.5378 9.75195 13.582C9.75195 13.6261 9.78777 13.662 9.83195 13.662Z" fill="white"/>
</g>
<defs>
<clipPath id="clip0_1368_30572">
<rect width="24" height="24" fill="white"/>
</clipPath>
</defs>
</svg>
