<svg width="24" height="24" viewBox="0 0 24 24" fill="none" xmlns="http://www.w3.org/2000/svg">
<mask id="mask0_1372_47560" style="mask-type:luminance" maskUnits="userSpaceOnUse" x="0" y="0" width="24" height="24">
<path d="M0 0H24V24H0V0Z" fill="white"/>
</mask>
<g mask="url(#mask0_1372_47560)">
<path fill-rule="evenodd" clip-rule="evenodd" d="M-6 0H30V24H-6V0Z" fill="#165D31"/>
<path fill-rule="evenodd" clip-rule="evenodd" d="M3.07284 6.80327C3.03413 7.36456 2.9809 8.35166 3.45994 8.45327C4.03574 8.50649 3.71639 7.47585 3.92445 7.29198C3.968 7.1952 4.04058 7.1952 4.04542 7.31617V8.18714C4.04058 8.47746 4.22445 8.55488 4.36961 8.61778C4.52445 8.60327 4.62123 8.60811 4.68413 8.75327L4.75187 10.2678C4.75187 10.2678 5.1051 10.3646 5.11961 9.41617C5.13897 8.85972 5.00832 8.39036 5.08574 8.28391C5.08574 8.17746 5.22123 8.17262 5.318 8.22101C5.468 8.32746 5.53574 8.46295 5.768 8.40488C6.12607 8.30811 6.33897 8.13391 6.34865 7.86295C6.33634 7.59607 6.28078 7.33297 6.18413 7.08391C6.19865 7.03553 6.11155 6.91456 6.1309 6.86617C6.19381 6.96295 6.29058 6.95811 6.31477 6.86617C6.25187 6.66295 6.15994 6.47424 6.0051 6.39198C5.87929 6.28069 5.69542 6.30488 5.62768 6.53714C5.61974 6.84214 5.72292 7.13964 5.918 7.37424C5.97884 7.50572 6.00388 7.65094 5.99058 7.7952C5.88897 7.85811 5.78736 7.82907 5.70026 7.74198C5.70026 7.74198 5.41477 7.52424 5.41477 7.48069C5.49219 6.99682 5.43413 6.94359 5.39058 6.80811C5.36155 6.62424 5.27445 6.56617 5.20187 6.44037C5.12929 6.36295 5.03736 6.36295 4.98897 6.44037C4.86316 6.65811 4.92123 7.12262 5.01316 7.33069C5.0809 7.52424 5.17768 7.6452 5.12929 7.6452C5.09058 7.75166 5.01316 7.72746 4.9551 7.60166C4.88328 7.33514 4.84908 7.0599 4.85348 6.78391C4.82929 6.56617 4.8051 6.10649 4.65994 5.99037C4.57284 5.87424 4.44219 5.9323 4.39865 6.03875C4.38641 6.24848 4.39126 6.45885 4.41316 6.66778C4.50994 7.00649 4.53897 7.31617 4.58736 7.6694C4.60187 8.14359 4.31155 7.87746 4.32607 7.64036C4.39381 7.33553 4.37445 6.85166 4.31639 6.73069C4.268 6.60972 4.21478 6.58069 4.10348 6.60004C4.00671 6.59036 3.77929 6.84198 3.71639 7.26778C3.71639 7.26778 3.65832 7.48553 3.63413 7.67424C3.60026 7.89198 3.45994 8.04682 3.35832 7.6452C3.27123 7.35488 3.218 6.63391 3.07284 6.80327Z" fill="white"/>
<path fill-rule="evenodd" clip-rule="evenodd" d="M4.64062 9.10639L3.14062 9.82736C3.15514 9.48865 3.85192 8.8693 4.32611 8.85962C4.63579 8.8693 4.55837 8.98059 4.64062 9.10155V9.10639Z" fill="white"/>
<path fill-rule="evenodd" clip-rule="evenodd" d="M4.37838 9.57587C3.58483 11.613 6.22676 11.8984 6.52192 9.65813C6.55096 9.56619 6.66709 9.47426 6.6816 9.62426C6.6187 11.6565 4.63967 11.792 4.30096 11.1533C4.2187 11.0081 4.19451 10.6694 4.18483 10.4662C4.13644 10.0694 3.92354 10.2243 3.89451 10.621C3.86063 10.8388 3.86547 10.9017 3.86547 11.1146C3.97192 12.7114 6.52676 12.0243 6.94289 10.7033C7.16063 9.97264 6.90418 9.43071 7.02515 9.43071C7.27676 9.70651 7.63483 9.46942 7.71225 9.37264C7.74612 9.32426 7.82838 9.29522 7.88644 9.35813C8.07999 9.50329 8.43321 9.43071 8.5058 9.18393C8.54451 8.93716 8.57838 8.68555 8.58805 8.42426C8.42838 8.47264 8.30741 8.50651 8.29773 8.56942L8.26386 8.792C8.24934 8.85974 8.10902 8.86458 8.10418 8.77264C8.04128 8.49684 7.78967 8.45813 7.63483 8.88877C7.53321 8.97587 7.34451 8.98555 7.32515 8.86458C7.34934 8.57426 7.23322 8.53555 7.00096 8.67103L6.77354 6.97748C6.87031 6.97748 6.96225 7.04522 7.04935 6.93393C6.95257 6.62909 6.74451 6.01458 6.63322 5.96619C6.57515 5.89845 6.5316 5.942 6.45902 5.95651C6.33322 5.99522 6.21709 6.10167 6.2558 6.30974L6.64289 8.73877C6.66225 8.84039 6.57515 8.98071 6.46386 8.96619C6.27515 8.83555 6.22676 8.57909 5.90741 8.58877C5.67031 8.58877 5.40418 8.84522 5.37515 9.092C5.3316 9.28555 5.31709 9.49845 5.37515 9.6678C5.53483 9.86135 5.73322 9.84684 5.90741 9.79845C6.04773 9.74038 6.16386 9.60006 6.21709 9.63393C6.25096 9.67748 6.22193 10.142 5.54451 10.5049C5.13805 10.6888 4.80902 10.7275 4.63483 10.3936C4.52838 10.1855 4.64451 9.392 4.37838 9.57103V9.57587Z" fill="white"/>
<path fill-rule="evenodd" clip-rule="evenodd" d="M7.73273 7.50002C7.89241 7.4468 8.64241 6.58067 8.64241 6.58067L8.53112 6.49357C8.48757 6.45486 8.49241 6.42099 8.53112 6.38228C8.71499 6.27583 8.65693 6.0339 8.56015 5.92744C8.49705 5.89593 8.42747 5.87952 8.35693 5.87952C8.28639 5.87952 8.21681 5.89593 8.1537 5.92744C8.02306 6.05809 7.99402 6.25648 8.09564 6.38228C8.19241 6.43067 8.29886 6.52744 8.23112 6.58551C7.92144 6.91454 7.07951 7.48067 7.17628 7.50486C7.19564 7.52906 7.71822 7.52906 7.73273 7.50486V7.50002ZM3.18919 10.5484C2.90854 10.9984 2.88435 11.671 3.04403 11.8694C3.12144 11.9662 3.25693 12.0049 3.35854 11.9758C3.53757 11.8984 3.61499 11.5403 3.57145 11.4097C3.51338 11.3129 3.46499 11.3033 3.40693 11.3807C3.28112 11.6323 3.2279 11.4581 3.21822 11.3178C3.19886 11.0516 3.22306 10.8 3.25209 10.6065C3.28596 10.4081 3.25209 10.4662 3.18919 10.5484ZM15.2424 9.82261C14.9714 9.23712 14.594 8.65648 14.4731 8.4339C14.1082 7.85605 13.7208 7.29271 13.3118 6.74519C13.0214 6.3968 13.7908 6.89035 13.215 6.19841C12.9973 6.00486 12.9827 6.00002 12.7989 5.84519C12.7069 5.77744 12.4843 5.66132 12.4456 5.85486C12.4264 5.99358 12.433 6.13466 12.465 6.27099C12.4843 6.36777 12.6247 6.52744 12.6973 6.62422C13.6166 7.85809 14.4343 9.11131 15.2182 10.6791C15.344 10.621 15.315 9.92422 15.2424 9.82261Z" fill="white"/>
<path fill-rule="evenodd" clip-rule="evenodd" d="M14.0463 11.792C13.9931 11.8549 14.177 12.1113 14.4189 12.1113C14.8254 12.063 15.1786 11.8355 15.5076 11.2404C15.5947 11.0952 15.7496 10.8049 15.7544 10.5678C15.7883 9.21295 15.6867 8.15812 15.4834 7.1807C15.4738 7.08392 15.4834 6.96779 15.498 6.93876C15.5221 6.90973 15.6092 6.93876 15.6576 6.86618C15.7254 6.7936 15.4738 6.20812 15.3334 5.98553C15.2802 5.88392 15.2609 5.81618 15.1786 5.99521C15.0867 6.14037 15.0334 6.39683 15.0334 6.63392C15.227 7.96941 15.2899 9.14037 15.4157 10.471C15.4254 10.6017 15.406 10.7904 15.3189 10.863C14.965 11.2589 14.5313 11.5755 14.0463 11.792ZM19.5044 11.7871C19.2141 11.9517 19.2141 12.1452 19.4512 12.1549C19.8528 12.1065 20.3318 12.0726 20.6609 11.5742C20.748 11.4339 20.8544 11.0565 20.8592 10.8291C20.8883 9.47424 20.8399 8.45812 20.6367 7.4807C20.627 7.38392 20.5834 7.16618 20.598 7.13715C20.627 7.06941 20.7576 7.14199 20.806 7.06457C20.8738 6.99683 20.4673 6.46941 20.3221 6.24199C20.2689 6.14521 20.2496 6.07747 20.1673 6.2565C20.0754 6.40166 20.0463 6.66295 20.0802 6.89037C20.298 8.34199 20.4576 9.4307 20.4867 10.713C20.4721 10.8388 20.4673 10.9065 20.4092 11.0565C20.2834 11.221 20.1431 11.4242 20.0076 11.521C19.877 11.6178 19.5963 11.7146 19.5044 11.7871Z" fill="white"/>
<path fill-rule="evenodd" clip-rule="evenodd" d="M19.7229 10.4855V9.59998C19.7192 9.37934 19.6697 9.16186 19.5777 8.96127C19.4906 8.76773 19.5439 8.61773 19.5052 8.40966C19.4664 8.20644 19.4761 7.89676 19.4181 7.65482C19.3987 7.55805 19.3503 7.25805 19.3697 7.22902C19.389 7.16127 19.481 7.22902 19.5245 7.1516C19.5922 7.07902 19.2922 6.30482 19.1422 6.08708C19.089 5.99031 18.9923 6.01934 18.8664 6.18386C18.7552 6.28547 18.7987 6.5274 18.8423 6.75482C19.1326 8.26934 19.3455 9.64353 19.3019 11.0806C19.2874 11.2064 19.7277 10.7177 19.7229 10.4855ZM17.5793 8.60805C17.4003 8.60805 17.0181 8.24998 16.9019 8.04676C16.8852 7.99777 16.8787 7.94585 16.8828 7.89424C16.887 7.84263 16.9017 7.79243 16.9261 7.74676C16.9939 7.69837 17.1003 7.64998 17.1777 7.69837C17.1777 7.69837 17.2552 7.8145 17.2406 7.82902C17.3374 7.8774 17.3858 7.84837 17.3955 7.80482C17.4003 7.73708 17.3616 7.69353 17.3616 7.61127C17.41 7.40321 17.6519 7.36934 17.739 7.50482C17.8068 7.58708 17.831 7.76127 17.8406 7.88224C17.8406 7.94031 17.7439 7.86773 17.6858 7.88224C17.6326 7.9016 17.6181 7.9645 17.6132 8.02257C17.6035 8.1774 17.5842 8.42418 17.5793 8.60321V8.60805ZM14.2116 10.8629C14.26 10.3984 14.1971 9.58063 14.1922 9.30966C14.1729 8.66611 14.0664 7.42256 14.0181 7.21934C13.96 6.8274 14.1777 7.26289 14.1487 7.03547C14.0761 6.64837 13.8584 6.3774 13.6068 6.01934C13.5245 5.90805 13.5293 5.88386 13.3987 6.04837C13.2632 6.36773 13.3842 6.58547 13.4181 6.83224C13.6019 7.64031 13.7084 8.38063 13.7568 9.11611C13.811 9.88109 13.8175 10.6487 13.7761 11.4145C13.9164 11.4242 14.139 11.1919 14.2116 10.8629Z" fill="white"/>
<path fill-rule="evenodd" clip-rule="evenodd" d="M20.3462 10.1226C20.022 9.5855 19.5381 9.00001 19.4075 8.78227C18.9742 8.17406 18.5191 7.58174 18.043 7.00647C17.6413 6.5855 18.2268 6.93872 17.9655 6.61453C17.743 6.37259 17.6752 6.29518 17.4913 6.15001C17.3946 6.08711 17.3365 5.97098 17.3075 6.16937C17.293 6.34356 17.2833 6.54679 17.293 6.69679C17.293 6.77905 17.3801 6.92905 17.4526 7.02098C18.4204 8.21614 19.4849 9.44034 20.3413 10.9742C20.4623 10.9065 20.4236 10.2194 20.3413 10.1226H20.3462Z" fill="white"/>
<path fill-rule="evenodd" clip-rule="evenodd" d="M5.74776 9.12582C5.72357 9.16936 5.67035 9.22259 5.6897 9.27098C5.72841 9.31936 5.75744 9.33388 5.81551 9.33872C5.86389 9.33872 5.94131 9.3484 5.95583 9.31936C5.97327 9.29804 5.98471 9.27245 5.98896 9.24523C5.99321 9.21801 5.99013 9.19015 5.98002 9.16453C5.93164 9.02904 5.7768 9.07743 5.74776 9.12582Z" fill="#165D31"/>
<path fill-rule="evenodd" clip-rule="evenodd" d="M16.606 16.9983C17.0366 17.0129 17.3173 17.0177 17.6995 17.0612L18.1447 17.0129C18.6431 16.9645 18.6673 17.7242 18.6673 17.7242C18.6624 18.1693 18.4883 18.1887 18.2705 18.2371C18.1447 18.2564 18.077 18.1645 18.0141 18.0677C17.9318 18.1016 17.8205 18.1064 17.6802 18.0871C17.5012 18.0774 17.3221 18.0774 17.1479 18.0629C16.9544 18.0483 16.8528 18.0871 16.6641 18.0677C16.6205 18.1306 16.5673 18.2129 16.456 18.1887C16.3592 18.179 16.2431 17.9032 16.277 17.7C16.3447 17.55 16.3254 17.5983 16.3205 17.5306C14.5592 17.4871 12.7883 17.4096 11.0608 17.4338C9.706 17.4338 8.37535 17.4919 7.04471 17.55C6.33342 17.5403 5.78664 17.4242 5.41406 16.8725C5.44793 16.8725 7.22858 16.979 7.74632 16.9451C8.71406 16.9306 9.58987 16.8532 10.5721 16.8242C12.5076 16.858 14.4189 16.858 16.3544 16.9935C16.1705 16.8677 16.1608 16.5677 16.4512 16.4951C16.4705 16.4806 16.485 16.6403 16.5286 16.6403C16.7512 16.6258 16.6544 16.9306 16.606 16.9983ZM8.84471 6.33867C8.55438 7.17576 9.00922 8.09028 9.32858 8.00318C9.56084 8.09996 9.706 7.65963 9.80277 7.1806C9.86568 7.04512 9.91406 7.0306 9.94793 7.09834C9.93826 7.73705 9.99632 7.87738 10.1608 8.07093C10.2555 8.15543 10.3773 8.20334 10.5041 8.206C10.631 8.20866 10.7546 8.1659 10.8528 8.08544L11.1383 7.79512C11.2012 7.73222 11.2834 7.72738 11.3754 7.78544C11.4624 7.8677 11.4479 8.00318 11.6366 8.09996C11.7915 8.16286 12.1302 8.11447 12.2076 7.97899C12.3092 7.79996 12.3383 7.73705 12.3866 7.66931C12.4592 7.57254 12.585 7.61125 12.585 7.64512C12.5754 7.69834 12.5028 7.75641 12.5512 7.85318C12.6383 7.92093 12.6624 7.87738 12.7157 7.86286C12.8995 7.77576 13.0399 7.36931 13.0399 7.36931C13.0447 7.22415 12.9624 7.23383 12.9092 7.26286L12.7641 7.36447C12.6673 7.37899 12.4931 7.43705 12.406 7.30157C12.3189 7.14189 12.3141 6.91447 12.2463 6.74996C12.2463 6.74028 12.1302 6.49351 12.2415 6.47899C12.2947 6.48867 12.4157 6.5177 12.435 6.42093C12.4931 6.32415 12.3092 6.04834 12.1834 5.90802C12.077 5.79189 11.9221 5.77738 11.777 5.89835C11.6802 5.99512 11.6899 6.09189 11.6705 6.19351C11.6538 6.26411 11.6538 6.33764 11.6706 6.40823C11.6874 6.47881 11.7205 6.54447 11.7673 6.59996C11.8689 6.79834 12.0576 7.0548 11.9947 7.42254C11.9947 7.42254 11.8834 7.59189 11.6947 7.5677C11.6173 7.54834 11.4915 7.51931 11.4237 7.01609C11.3754 6.63383 11.4334 6.10157 11.2737 5.8548C11.2157 5.69996 11.177 5.5548 11.0318 5.81609C10.9931 5.91286 10.8286 6.0677 10.9447 6.38705C11.0554 6.66829 11.0888 6.97403 11.0415 7.27254C10.9737 7.37415 10.9592 7.41286 10.8673 7.51447C10.7463 7.64512 10.6108 7.61125 10.5092 7.56286C10.4124 7.49996 10.335 7.46609 10.2915 7.25802C10.3012 6.92899 10.3157 6.39189 10.2576 6.27576C10.1705 6.10157 10.0254 6.16447 9.96245 6.2177C9.68168 6.52907 9.49392 6.91298 9.42051 7.32576C9.33826 7.59189 9.25116 7.51931 9.18826 7.40802C9.03826 7.26286 9.02858 6.1548 8.84471 6.33867Z" fill="white"/>
<path fill-rule="evenodd" clip-rule="evenodd" d="M9.7256 8.16287C9.86108 8.06609 9.79818 8.00319 9.99657 8.20158C10.2519 8.65056 10.4009 9.15212 10.4321 9.6677C10.4175 9.78867 10.5046 9.86125 10.5433 9.83706C10.5627 9.55641 11.2546 9.15964 11.8837 9.10158C11.9804 9.08222 11.932 8.89835 11.9466 8.80158C11.9079 8.45319 12.1401 8.13383 12.474 8.10964C12.9191 8.17738 13.0691 8.41448 13.0788 8.77738C13.0304 9.47899 12.2998 9.59996 11.8885 9.64835C11.8256 9.67738 11.8014 9.70641 11.8885 9.74029L13.6062 9.74512L13.6933 9.79351C13.703 9.8419 13.6691 9.80319 13.5966 9.91448C13.524 10.0258 13.432 10.2871 13.4272 10.4564C12.9122 10.6067 12.384 10.7072 11.8498 10.7564C11.6659 10.8532 11.574 10.979 11.6079 11.1193C11.6708 11.279 12.0869 11.4338 12.0869 11.4435C12.1643 11.4919 12.2562 11.608 12.0627 11.8403C11.2256 11.8064 10.5772 11.4483 10.3546 10.9451C10.2869 10.8967 10.2095 10.9451 10.1659 11.0129C9.8746 11.4607 9.45458 11.8099 8.96108 12.0145C8.62721 12.0967 8.2885 11.9661 8.12882 11.7483C8.02237 11.6225 8.02721 11.4871 7.98366 11.458C7.80463 11.5354 6.26108 12.1935 6.45947 11.8887C6.83205 11.4822 7.48528 11.1871 8.05624 10.7903C8.10463 10.6596 8.17721 10.2096 8.40463 10.0645C8.41431 10.0645 8.36592 10.3258 8.37076 10.4371C8.37076 10.529 8.36592 10.5629 8.38528 10.5387C8.42399 10.5145 9.12076 9.9677 9.17399 9.79835C9.24173 9.70158 9.19334 9.45964 9.19334 9.44996C9.06753 9.11125 8.88366 9.08706 8.81592 8.9177C8.75302 8.69512 8.78205 8.44351 8.90786 8.37093C9.01915 8.26932 9.14979 8.27899 9.2756 8.39029C9.42076 8.51609 9.54173 8.76287 9.58044 8.94674C9.55624 9.01932 9.39657 8.89835 9.3385 8.93706C9.43528 9.03383 9.48366 9.1548 9.51753 9.29996C9.61431 9.68706 9.58044 9.83222 9.49334 10.0838C9.18366 10.7322 8.78689 10.9306 8.4385 11.1677C8.42882 11.1725 8.42399 11.3371 8.55463 11.4242C8.60302 11.4725 8.78205 11.4919 8.99011 11.4242C9.44269 11.1743 9.80882 10.793 10.0401 10.3306C10.103 9.98222 10.0159 9.61448 9.92399 9.29512C9.81851 9.04041 9.72168 8.78219 9.63366 8.52093C9.62399 8.32738 9.6385 8.25964 9.73044 8.16287H9.7256ZM5.23528 6.35319C5.42882 6.44512 5.80141 6.40158 5.78689 6.08706L5.77721 5.93706C5.7385 5.84029 5.62721 5.86448 5.60302 5.96609C5.59334 5.99512 5.61753 6.04835 5.5885 6.06287C5.56915 6.07738 5.50624 6.0677 5.51108 5.98061C5.51108 5.95158 5.49173 5.92254 5.47721 5.90319C5.4627 5.89835 5.45786 5.89351 5.43366 5.89351C5.40463 5.89351 5.40947 5.90319 5.39011 5.92738L5.3756 5.99996C5.3756 6.03383 5.36108 6.04351 5.33689 6.04835C5.3127 6.04835 5.31753 6.04835 5.29818 6.03867C5.28366 6.02416 5.26915 6.01932 5.26915 5.99512L5.25947 5.9177C5.24658 5.90344 5.22974 5.89333 5.21108 5.88867C5.09979 5.88867 5.09495 6.01448 5.09979 6.06287C5.09011 6.0677 5.08528 6.29029 5.23528 6.35319Z" fill="white"/>
<path fill-rule="evenodd" clip-rule="evenodd" d="M11.022 8.80158C11.2155 8.89835 11.6897 8.84029 11.5736 8.53545L11.5639 8.39029C11.5252 8.29351 11.4188 8.31771 11.3897 8.41448C11.3849 8.44351 11.4042 8.49674 11.3752 8.51125C11.3607 8.53061 11.2978 8.52093 11.2978 8.43383C11.2978 8.4048 11.2784 8.37577 11.2639 8.35642C11.2542 8.34674 11.2446 8.34674 11.2204 8.34674C11.1962 8.34674 11.1962 8.35158 11.1817 8.37577L11.1671 8.44835C11.1623 8.48222 11.1478 8.49674 11.1284 8.49674C11.0994 8.49674 11.1091 8.49674 11.0849 8.48706C11.0752 8.47254 11.0559 8.46771 11.0559 8.44351C11.0559 8.41932 11.0559 8.38061 11.0462 8.36609C11.0365 8.35158 11.0171 8.34674 10.9978 8.3419C10.8913 8.3419 10.8817 8.46287 10.8865 8.51125C10.8817 8.52093 10.8768 8.73867 11.022 8.80158ZM14.3994 7.78545C14.593 7.88222 14.9655 7.83867 14.951 7.52416L14.9413 7.37416C14.9026 7.27738 14.7913 7.30158 14.7671 7.39835C14.7575 7.43222 14.7817 7.48061 14.7526 7.49512C14.7333 7.51448 14.6704 7.5048 14.6752 7.41771C14.6752 7.38867 14.651 7.35964 14.6413 7.34029C14.6268 7.33545 14.622 7.33061 14.593 7.33061C14.5688 7.33061 14.5688 7.34029 14.5542 7.36448L14.5397 7.43706C14.5397 7.46609 14.5252 7.48061 14.501 7.48545C14.4768 7.48545 14.4817 7.48545 14.4623 7.47093C14.4478 7.46125 14.4333 7.45158 14.4333 7.43222C14.4333 7.40803 14.4284 7.36932 14.4188 7.34996C14.4091 7.33545 14.3946 7.33061 14.3704 7.32577C14.2639 7.32577 14.2591 7.45158 14.2639 7.49512C14.2542 7.5048 14.2494 7.72738 14.3994 7.78545ZM16.1413 10.3354C15.8026 10.7225 15.9526 11.3613 16.0301 11.4967C16.1462 11.729 16.2333 11.8742 16.4559 11.9854C16.6591 12.1306 16.8139 12.0387 16.901 11.9371C17.1042 11.729 17.1042 11.1919 17.201 11.0854C17.2688 10.8919 17.4333 10.9258 17.5155 11.0129C17.5902 11.118 17.69 11.2029 17.8059 11.2596C17.9946 11.4242 18.2171 11.4532 18.4397 11.308C18.5897 11.2209 18.6913 11.1096 18.7784 10.8919C18.8752 10.6258 18.8268 9.40642 18.8026 8.68545C18.7978 8.62738 18.6091 7.68867 18.6091 7.679C18.6091 7.66932 18.5801 7.19996 18.5607 7.08867C18.5607 7.04513 18.5462 7.03061 18.5946 7.04029C18.643 7.079 18.6526 7.08383 18.6817 7.09835C18.7301 7.10803 18.7784 7.02093 18.7494 6.93867L18.2752 6.06771C18.2413 6.03383 18.193 5.99512 18.1301 6.08222C18.0934 6.11414 18.0641 6.15356 18.0441 6.19781C18.024 6.24206 18.0138 6.2901 18.0139 6.33867C18.0284 6.54674 18.0623 6.7548 18.0768 6.96287L18.2704 8.01771C18.3284 8.77254 18.343 9.38706 18.401 10.1467C18.3913 10.4613 18.2946 10.7419 18.1978 10.7758C18.1978 10.7758 18.0575 10.8629 17.9655 10.7758C17.893 10.7419 17.6171 10.3113 17.6171 10.3113C17.472 10.1806 17.3849 10.2145 17.2784 10.3113C17.0075 10.5774 16.8817 11.0806 16.693 11.4242C16.6446 11.5016 16.5042 11.5693 16.3542 11.4193C15.9671 10.8871 16.1946 10.1419 16.1462 10.3354H16.1413ZM14.4865 5.93706C14.6655 6.00964 14.7865 6.37254 14.7478 6.54674C14.7139 6.75964 14.6171 6.99674 14.5542 6.96287C14.4768 6.93867 14.6026 6.74996 14.5301 6.55158C14.4913 6.42577 14.2494 6.18867 14.2736 6.12093C14.2252 5.97577 14.3801 5.91287 14.4865 5.93706Z" fill="white"/>
<path fill-rule="evenodd" clip-rule="evenodd" d="M16.7175 10.5484C16.7514 10.1129 16.6885 9.85164 16.6788 9.60003C16.6691 9.34841 16.3885 7.42261 16.3401 7.22906C16.2675 6.86615 16.6062 7.18067 16.5675 6.96777C16.4514 6.70164 16.1659 6.31454 16.074 6.08712C16.0208 5.99035 16.0401 5.89841 15.9191 6.05809C15.8147 6.34586 15.7783 6.6539 15.8127 6.95809C16.103 8.47261 16.3982 9.73067 16.3498 11.1726C16.4901 11.1726 16.6498 10.8581 16.7175 10.5436V10.5484ZM19.7369 6.5468C19.9014 6.62906 19.9933 7.07906 19.9788 7.20486C19.945 7.44196 19.8579 7.68874 19.795 7.6597C19.732 7.63067 19.8095 7.31132 19.7756 7.21454C19.7417 7.07422 19.524 6.82261 19.5433 6.74519C19.4998 6.59035 19.6401 6.52261 19.7369 6.55164V6.5468ZM7.7514 9.73067C7.90624 9.79357 7.99334 10.1178 7.97882 10.2145C7.94979 10.3887 7.86753 10.5726 7.80947 10.5533C7.74656 10.5291 7.81914 10.2968 7.79011 10.2242C7.7756 10.0452 7.56269 9.95325 7.56753 9.88067C7.52882 9.73551 7.65947 9.71132 7.7514 9.73551V9.73067Z" fill="white"/>
<path fill-rule="evenodd" clip-rule="evenodd" d="M11.4821 10.229C11.6756 10.2387 11.7772 10.3983 11.5934 10.4612C11.4095 10.5241 11.2305 10.5725 11.2305 10.8387C11.2982 11.2112 11.1337 11.0806 11.0369 11.0322C10.9256 10.95 10.6063 10.7564 10.5627 10.3306C10.5579 10.2338 10.6353 10.1467 10.7611 10.1467C10.9547 10.1951 11.2353 10.2048 11.4772 10.229H11.4821Z" fill="#165D31"/>
<path fill-rule="evenodd" clip-rule="evenodd" d="M3.62863 5.8306C3.85605 5.89834 3.87057 6.23221 3.85121 6.33383C3.82218 6.51286 3.73992 6.70157 3.68186 6.67738C3.61895 6.65802 3.68186 6.41609 3.65282 6.33867C3.61895 6.23221 3.4254 6.03867 3.4496 5.9806C3.40121 5.86447 3.53669 5.81125 3.62863 5.83544V5.8306ZM8.12379 7.40802C7.9496 7.5048 7.88186 7.78544 7.98831 7.94996C8.08992 8.09512 8.2496 8.04189 8.27379 8.04189C8.44315 8.06125 8.54476 7.7177 8.54476 7.7177C8.54476 7.7177 8.5496 7.62092 8.35121 7.8048C8.26411 7.81931 8.25444 7.79028 8.23024 7.74189C8.20961 7.65085 8.21982 7.55553 8.25927 7.47092C8.28831 7.38867 8.22056 7.34996 8.12379 7.40802ZM9.43024 5.69996C9.34798 5.76286 9.16895 5.94189 9.16411 6.14996C9.16411 6.26609 9.13992 6.26609 9.2125 6.34351C9.27056 6.42092 9.32863 6.41609 9.43992 6.35802C9.46762 6.34007 9.49135 6.31665 9.50965 6.28919C9.52796 6.26173 9.54046 6.23081 9.54637 6.19834C9.5754 6.06286 9.40605 6.26125 9.38669 6.11125C9.34798 5.97576 9.45444 5.9177 9.55605 5.78221C9.55605 5.69028 9.55605 5.62738 9.43508 5.69996H9.43024ZM10.4899 5.89351C10.4477 6.06323 10.4218 6.2366 10.4125 6.41125C10.3835 6.54189 10.548 6.59512 10.6254 6.42576C10.7367 6.12092 10.7367 5.99028 10.7464 5.85963C10.7125 5.66609 10.577 5.66609 10.4899 5.88867V5.89351ZM17.1431 9.27576C17.1625 9.25157 18.0819 8.59834 18.0819 8.59834C18.1738 8.56931 18.1544 8.93705 18.1109 8.93705C17.8269 9.21228 17.5001 9.43944 17.1431 9.60963C17.0948 9.63867 17.0512 9.35802 17.1431 9.27092V9.27576ZM17.9754 9.27092C18.1351 9.34834 18.2028 9.82254 18.1835 9.94834C18.1883 10.2 18.0286 10.3983 17.9657 10.3645C17.898 10.3354 17.9706 10.0548 17.9415 9.95802C17.9077 9.8177 17.7673 9.55641 17.7915 9.48383C17.7431 9.32415 17.8786 9.24189 17.9754 9.27092ZM12.5367 11.3032C12.5996 11.2064 12.7931 11.0758 12.798 11.0758C12.8899 11.0274 12.977 11.1096 12.9722 11.1048C12.9867 11.1967 12.9141 11.279 12.9383 11.4C12.9577 11.4483 12.9722 11.5016 13.0641 11.4822C13.2093 11.3709 13.3448 11.3612 13.4899 11.3516C13.6012 11.3612 13.6012 11.5451 13.5335 11.55C13.2625 11.608 13.1464 11.6806 12.9528 11.7532C12.8609 11.8064 12.7835 11.7387 12.7835 11.7338C12.7835 11.729 12.7351 11.6806 12.769 11.5596C12.7738 11.4629 12.7351 11.4145 12.6577 11.4241C12.5948 11.4532 12.5415 11.4725 12.5125 11.4048C12.498 11.3564 12.498 11.3322 12.5367 11.3032ZM18.9383 11.5548C18.977 11.6032 19.006 11.6516 18.9383 11.7338L18.7641 11.879C18.7302 11.9371 18.7157 12.0145 18.8077 12.0387C18.977 12.0871 19.3738 11.8306 19.3738 11.8258C19.4367 11.7774 19.4173 11.6854 19.4077 11.6854C19.3738 11.6419 19.2867 11.6661 19.2335 11.6612C19.2044 11.6612 19.1173 11.6467 19.156 11.5693C19.1948 11.5209 19.2044 11.4919 19.2286 11.429C19.2577 11.3709 19.2335 11.3322 19.1367 11.2983C19.0399 11.2838 19.0012 11.2935 18.8948 11.2983C18.8319 11.3129 18.8125 11.3371 18.798 11.4096C18.8077 11.5161 18.8706 11.5112 18.9431 11.5548H18.9383Z" fill="white"/>
<path fill-rule="evenodd" clip-rule="evenodd" d="M12.5713 8.89352C12.5471 8.94191 12.46 8.93707 12.3777 8.89352C12.2955 8.84998 12.2567 8.77256 12.2809 8.72901C12.3051 8.68546 12.3922 8.68546 12.4745 8.72901C12.5567 8.77256 12.5955 8.84998 12.5713 8.89352ZM8.39545 6.38707C8.34707 6.40159 8.28416 6.35804 8.25513 6.2903C8.2261 6.22256 8.24061 6.16933 8.289 6.15481C8.33739 6.1403 8.40029 6.18868 8.42932 6.25159C8.45836 6.31449 8.44384 6.37739 8.39545 6.38707ZM16.6551 17.579C17.0906 17.5984 17.5067 17.5838 17.9422 17.608C18.0245 17.6709 17.9664 17.8403 17.9132 17.8258L17.5455 17.8161C17.5455 17.6758 17.1825 17.7 17.1971 17.8209C17.0035 17.8451 16.8293 17.8161 16.6358 17.8064C16.5777 17.7338 16.5874 17.608 16.6551 17.579Z" fill="#165D31"/>
</g>
</svg>
