<svg width="24" height="24" viewBox="0 0 24 24" fill="none" xmlns="http://www.w3.org/2000/svg">
<g id="Group">
<path id="Vector" fill-rule="evenodd" clip-rule="evenodd" d="M0 0H24V24H0V0Z" fill="#E30A17"/>
<path id="Vector_2" fill-rule="evenodd" clip-rule="evenodd" d="M16.3492 12.375C16.3492 15.6843 13.6164 18.3703 10.2508 18.3703C6.88516 18.3703 4.15234 15.6843 4.15234 12.3703C4.15234 9.0562 6.88047 6.37964 10.2461 6.37964C13.6117 6.37964 16.3539 9.06089 16.3539 12.375H16.3492Z" fill="white"/>
<path id="Vector_3" fill-rule="evenodd" clip-rule="evenodd" d="M16.6551 12.3749C16.6551 15.0233 14.4707 17.1702 11.7754 17.1702C9.08008 17.1702 6.90039 15.0233 6.90039 12.3749C6.90039 9.72646 9.08008 7.57959 11.7754 7.57959C14.4707 7.57959 16.6504 9.72646 16.6504 12.3749H16.6551Z" fill="#E30A17"/>
<path id="Vector_4" fill-rule="evenodd" clip-rule="evenodd" d="M17.5367 9.57178L17.4898 11.789L15.418 12.3515L17.457 13.078L17.4102 15.1077L18.7367 13.5233L20.7477 14.2171L19.5852 12.5155L21.0008 10.8233L18.8258 11.4233L17.5367 9.57178Z" fill="white"/>
</g>
</svg>
