<svg width="24" height="24" viewBox="0 0 24 24" fill="none" xmlns="http://www.w3.org/2000/svg">
<g clip-path="url(#clip0_1368_31525)">
<path d="M44 44H-19.9998C-19.9998 44 -19.9999 40.8835 -19.9999 37.0435V-13.0435C-19.9999 -16.8835 -20 -20 -20 -20H44C44 -20 44 -16.8835 44 -13.0435V37.0435C44 40.8904 44 44 44 44Z" fill="#016CA2"/>
<path d="M12.0394 10.2413L12.0338 10.2432C11.9888 10.2601 11.9756 10.3163 12.0056 10.3538L12.1931 10.5807L12.3206 10.4719L12.1163 10.2582C12.1064 10.2483 12.0939 10.2414 12.0803 10.2384C12.0667 10.2354 12.0525 10.2364 12.0394 10.2413ZM8.99625 13.8319L8.50313 13.5751C8.46 13.5526 8.40938 13.5394 8.36063 13.5394H8.21813C8.20524 13.5391 8.19288 13.5342 8.18327 13.5256C8.17365 13.5171 8.1674 13.5053 8.16563 13.4926C8.15063 13.3351 8.0175 13.2132 7.86 13.2132H7.815C7.71938 13.2132 7.62938 13.1682 7.57125 13.0913L7.50375 13.0013C7.45125 12.9319 7.3725 12.8888 7.28625 12.8813L6.91875 12.8494C6.9098 12.8492 6.9012 12.8459 6.89438 12.8401L6.83438 12.7988C6.8175 12.7876 6.79688 12.7857 6.78 12.7969L6.5175 12.9451C6.47062 12.9713 6.42 12.9844 6.36563 12.9844H6.09562C6.08625 12.9844 6.07875 12.9826 6.07125 12.9788C6.04125 12.9619 5.97188 12.9094 5.97188 12.7932V12.6376C5.97188 12.6307 5.97052 12.6238 5.96788 12.6175C5.96524 12.6111 5.96137 12.6053 5.9565 12.6004C5.95162 12.5956 5.94584 12.5917 5.93947 12.5891C5.9331 12.5864 5.92627 12.5851 5.91938 12.5851H5.74875C5.73957 12.585 5.73058 12.5825 5.72266 12.5779C5.71475 12.5732 5.70819 12.5666 5.70363 12.5586C5.69908 12.5506 5.69669 12.5416 5.69672 12.5324C5.69674 12.5233 5.69916 12.5143 5.70375 12.5063L5.78438 12.3657C5.78813 12.3582 5.79188 12.3488 5.79188 12.3394V12.2157C5.79188 12.2018 5.78634 12.1884 5.7765 12.1786C5.76665 12.1687 5.7533 12.1632 5.73938 12.1632H5.64563C5.62875 12.1632 5.61188 12.1726 5.6025 12.1876L5.55 12.2701C5.49375 12.3582 5.39625 12.4107 5.29125 12.4107H5.21625C5.21625 12.4107 5.09438 12.3882 5.09438 12.2588V11.7882C5.09625 11.7732 5.1075 11.7263 5.15813 11.6944C5.20313 11.6663 5.30813 11.6101 5.36063 11.5819C5.37938 11.5726 5.40375 11.5744 5.42063 11.5894L5.52 11.6813C5.52938 11.6907 5.54063 11.6944 5.55375 11.6944C5.58563 11.6944 5.64375 11.6963 5.655 11.6907C5.67 11.6832 5.6325 11.6157 5.7225 11.5876C5.81438 11.5613 5.87438 11.6438 5.87438 11.6438L6.10688 11.9194C6.12375 11.9401 6.15375 11.9438 6.17625 11.9288L6.21 11.9063C6.2325 11.8913 6.24 11.8613 6.22688 11.8369L6.22312 11.8294C6.14813 11.7001 6.17625 11.5351 6.29063 11.4394L6.48375 11.2763C6.48375 11.2763 6.50625 11.2613 6.5175 11.1769C6.525 11.1263 6.53813 11.0513 6.5475 10.9988C6.56813 10.9651 6.585 10.9332 6.60563 10.8994L7.02188 10.5488C7.04625 10.5282 7.08188 10.5338 7.09875 10.5601C7.11938 10.5901 7.15313 10.6238 7.19625 10.6219C7.26188 10.6182 7.425 10.5301 7.48875 10.4926C7.49679 10.4881 7.50348 10.4816 7.50811 10.4737C7.51273 10.4658 7.51511 10.4567 7.515 10.4476V10.3819L7.31438 10.4232C7.28625 10.4288 7.25813 10.4101 7.2525 10.3801L7.23 10.2488C7.22791 10.2368 7.2217 10.226 7.21246 10.2181C7.20322 10.2103 7.19152 10.2059 7.17938 10.2057L6.97875 10.2282L7.00313 10.1682C7.01063 10.1476 7.02938 10.1344 7.05188 10.1307L7.54688 10.0782C7.59188 10.0594 7.65938 10.0332 7.70438 10.0144L7.80375 9.93756C7.82813 9.91881 7.83 9.88318 7.80938 9.86068L7.2525 9.29068C7.24477 9.28302 7.23492 9.27785 7.22423 9.27585C7.21353 9.27384 7.20248 9.27509 7.1925 9.27943L7.02563 9.35818C7.00875 9.36568 6.98813 9.36381 6.97313 9.35443L6.51188 9.03006C6.50646 9.02612 6.50032 9.02328 6.49381 9.02172C6.48729 9.02015 6.48054 9.01988 6.47392 9.02093C6.4673 9.02197 6.46096 9.02431 6.45525 9.02781C6.44953 9.0313 6.44456 9.03589 6.44063 9.04131L6.36938 9.13881C6.36375 9.14631 6.36 9.15568 6.36 9.16693L6.34688 9.40881C6.34688 9.42381 6.35063 9.43693 6.36188 9.44818L6.42938 9.51756C6.45188 9.54006 6.44813 9.57756 6.42188 9.59631L6.3225 9.66756C6.31583 9.6724 6.3081 9.67561 6.29996 9.67691C6.29182 9.67821 6.28348 9.67758 6.27563 9.67506L6.05063 9.71256C6.01875 9.62818 5.94938 9.56256 5.86313 9.53256L5.75063 9.49318C5.54625 9.42381 5.47688 9.17068 5.61375 9.00568L5.83313 8.74131C5.83876 8.73394 5.84256 8.72533 5.84419 8.7162C5.84582 8.70706 5.84524 8.69767 5.8425 8.68881L5.78063 8.52943L5.76938 8.51256L5.52188 8.24818C5.42438 8.14506 5.25 8.19756 5.2275 8.33818L5.22563 8.35318C5.2125 8.43568 5.13938 8.49756 5.05688 8.49756H4.32C4.27875 8.48818 4.2375 8.48068 4.19438 8.47131L3.69 8.24631C3.65438 8.23693 3.62063 8.22943 3.585 8.22006L3.12188 8.19006C3.07875 8.19756 3.03563 8.20318 2.9925 8.21068L2.78438 8.29131C2.72813 8.31193 2.66813 8.31756 2.61 8.30443L1.58063 8.08506C1.51875 8.07193 1.45313 8.07756 1.395 8.10381L0.909375 8.31193C0.87375 8.32693 0.86625 8.37381 0.89625 8.40006L1.02375 8.50693C1.05938 8.53693 1.03875 8.59693 0.991875 8.59881L0.800625 8.60256C0.7725 8.60256 0.75 8.62693 0.75 8.65506V8.68131C0.75 8.70943 0.7725 8.73193 0.800625 8.73381L0.965625 8.73568C1.02188 8.73756 1.03688 8.81256 0.98625 8.83506L0.84375 8.89881C0.823125 8.90818 0.811875 8.92881 0.81375 8.95131L0.826875 9.09381C0.84 9.23443 0.945 9.34693 1.08563 9.36943L1.18688 9.38631C1.23563 9.39381 1.24688 9.45756 1.20562 9.48193L1.17375 9.50068C1.14 9.52131 1.14 9.57006 1.17375 9.58881L1.19063 9.59818C1.20563 9.60756 1.2225 9.60756 1.23938 9.60193L2.1075 9.21006C2.22 9.15943 2.35125 9.18006 2.44125 9.26443L3.26813 10.0201C3.32813 10.0744 3.36375 10.1513 3.3675 10.2319L3.39563 10.8094C3.39938 10.8751 3.42188 10.9369 3.46312 10.9876L4.27688 12.0001C4.29188 12.0188 4.31813 12.0244 4.34063 12.0132C4.36875 11.9982 4.37813 11.9626 4.35938 11.9363C4.35938 11.9363 4.87313 12.4688 4.92188 12.4913L5.33813 12.6976C5.38125 12.7182 5.42625 12.7294 5.475 12.7294H5.68125C5.70188 12.7294 5.72063 12.7407 5.72813 12.7594L5.7975 12.9094C5.7975 12.9113 5.79938 12.9113 5.79938 12.9132C5.8125 12.9338 5.91938 13.1157 6.03375 13.1232C6.15563 13.1307 6.375 13.1232 6.375 13.1232C6.375 13.1232 6.45375 13.1213 6.45375 13.2076V13.3388C6.45375 13.3576 6.44438 13.3744 6.4275 13.3838C6.36 13.4213 6.18563 13.5319 6.18563 13.6576V13.9519C6.18563 13.9651 6.18938 13.9763 6.19688 13.9857C6.21938 14.0119 6.26813 14.0682 6.30938 14.1019C6.35438 14.1376 6.43313 14.2294 6.465 14.2651C6.4725 14.2744 6.47625 14.2857 6.47625 14.2988V14.4676C6.47813 14.4732 6.47813 14.4807 6.48 14.4863C6.48938 14.5088 6.51375 14.5651 6.55688 14.5857C6.58313 14.5988 6.64875 14.6513 6.70875 14.7038C6.78375 14.7676 6.82313 14.8632 6.81563 14.9626L6.77813 15.4426C6.77438 15.4613 6.7725 15.4801 6.76875 15.4988L6.60188 16.1251C6.59813 16.1626 6.59625 16.1982 6.5925 16.2357L6.60938 16.4926C6.61313 16.5376 6.60938 16.5826 6.59438 16.6257L6.5325 16.8001C6.51375 16.8563 6.51 16.9163 6.52313 16.9744L6.60188 17.2988C6.61125 17.3363 6.63188 17.3701 6.66375 17.3944L6.74438 17.4582C6.77438 17.4826 6.81938 17.5163 6.85125 17.4938C7.00688 17.3869 7.06313 16.9557 7.13063 16.7944C7.16438 16.7119 7.66313 16.0613 7.66125 15.9732L7.6575 15.8476C7.6575 15.8176 7.68 15.7951 7.71 15.7951H7.86938C7.88438 15.7951 7.8975 15.7894 7.90688 15.7782L8.28 15.3694C8.28938 15.3601 8.29313 15.3469 8.29313 15.3338V15.1669C8.29313 15.1369 8.3175 15.1144 8.3475 15.1144C8.41125 15.1182 8.51625 15.1182 8.55188 15.0882C8.59688 15.0507 8.73188 14.8932 8.775 14.8444C8.7825 14.8351 8.78813 14.8238 8.78813 14.8107V14.5463C8.78813 14.4694 8.81625 14.3963 8.86875 14.3382L9.05625 14.1319C9.10875 14.0757 9.12188 13.9913 9.08438 13.9163C9.06563 13.8807 9.03375 13.8507 8.99625 13.8319Z" fill="#BDCF46"/>
<path d="M21.9373 7.90501H21.4123C21.386 7.90501 21.3635 7.88814 21.356 7.86377L20.8535 7.76814C20.8104 7.76814 20.7673 7.75501 20.7298 7.73064L20.6154 7.65376C20.5779 7.62939 20.5348 7.61627 20.4916 7.61627C20.4916 7.61627 19.3216 7.01814 17.7898 7.07627C17.2141 7.09877 16.7079 7.38564 16.7079 7.38564C16.6929 7.39127 16.6816 7.40627 16.6798 7.42127L16.6741 7.46814C16.6704 7.49064 16.6516 7.50751 16.6273 7.50751L16.3966 7.50189C16.3704 7.50189 16.3498 7.52251 16.3498 7.54689L15.7048 7.56939C15.6485 7.56939 15.596 7.59752 15.5641 7.64252L15.506 7.72689C15.4629 7.78877 14.8854 7.80939 14.8854 7.80939C14.8704 7.80285 14.8577 7.79211 14.8487 7.77846C14.8397 7.76482 14.8349 7.74885 14.8348 7.73252V7.66501C14.8348 7.64064 14.8441 7.62002 14.8629 7.60314L15.1704 7.32564C15.2041 7.29564 15.2473 7.27501 15.2923 7.26939L15.4835 7.24502C15.4947 7.24343 15.5054 7.23963 15.5151 7.23383C15.5247 7.22803 15.5331 7.22036 15.5398 7.21127L15.5623 7.17752C15.5941 7.13252 15.5735 7.07064 15.5229 7.05189L15.5098 7.04627C15.4987 7.04251 15.487 7.04107 15.4754 7.04204C15.4638 7.04301 15.4525 7.04636 15.4423 7.05189L15.296 7.13626C15.2829 7.14376 15.2698 7.14752 15.2548 7.14752H15.1123C15.0523 7.14752 14.996 7.17189 14.9529 7.21501L14.6098 7.56564C14.5798 7.59564 14.5591 7.63502 14.5498 7.67627L14.5179 7.83002L14.5404 7.89564L14.4054 8.08314L14.2835 8.20502H14.1691V8.08314H14.0323L13.9929 8.23689C13.9741 8.30814 13.9235 8.36439 13.856 8.39064L13.7416 8.43376C13.6685 8.46189 13.5841 8.44876 13.5223 8.39814L13.3741 8.27814L13.7735 8.29877L13.8185 8.21252C13.8185 8.21252 13.4004 8.01939 13.1585 7.88251C12.9616 7.77189 12.7029 7.86564 12.6129 7.90501C12.5904 7.91439 12.5716 7.92751 12.5548 7.94251L11.6829 8.72814C11.5891 8.81252 11.5835 8.96064 11.6735 9.05064L11.756 9.13502L11.8723 9.03939C11.9041 9.01314 11.9491 9.01501 11.9791 9.04314L12.1966 9.24564H12.2529L12.4591 9.00189C12.4835 8.97189 12.4854 8.93064 12.461 8.90064L12.4348 8.86502C12.4248 8.852 12.4189 8.83631 12.4179 8.81994C12.4169 8.80357 12.4208 8.78727 12.4291 8.77314L12.716 8.30814C12.731 8.28376 12.7629 8.27439 12.7891 8.28564L12.8398 8.31001C12.8698 8.32314 12.881 8.35877 12.866 8.38877L12.6691 8.76189C12.6448 8.80689 12.641 8.85939 12.656 8.90626L12.6879 9.00564C12.7029 9.07689 12.6898 9.15189 12.6466 9.20814L12.5229 9.37501C12.4798 9.43314 12.4085 9.46689 12.3354 9.46501L11.9773 9.45189C11.9608 9.451 11.9453 9.44394 11.9339 9.43212C11.9224 9.42031 11.9158 9.4046 11.9154 9.38814V9.33002C11.9154 9.29439 11.8873 9.26627 11.8516 9.26627C11.8198 9.26627 11.7916 9.29064 11.7879 9.32439L11.7785 9.42752C11.7748 9.45939 11.7485 9.48564 11.7148 9.48564H11.681C11.6641 9.48564 11.6491 9.49126 11.6379 9.50251L11.0566 10.0388L11.141 10.1606V10.29C11.141 10.3331 11.1054 10.3688 11.0623 10.3688H10.8766C10.7773 10.3688 10.6985 10.4531 10.7041 10.5525L10.706 10.5769C10.7116 10.665 10.7829 10.7344 10.8729 10.7381L11.0716 10.7438C11.1466 10.7456 11.216 10.7119 11.261 10.65L11.4035 10.4494C11.4448 10.3913 11.5123 10.3556 11.5854 10.3556H11.7223C11.7673 10.3556 11.8123 10.3688 11.8498 10.395L12.0691 10.5488C12.1123 10.5788 12.116 10.6425 12.0748 10.6763L11.951 10.7831C11.9098 10.8188 11.8591 10.8375 11.8048 10.8375H11.0323C10.9629 10.8375 10.8954 10.8713 10.8541 10.9275L10.2579 11.7244C10.2298 11.7638 10.2129 11.8106 10.2129 11.8575V12.3863C10.2129 12.435 10.2279 12.4819 10.2579 12.5213L10.466 12.7969C10.4829 12.8194 10.4941 12.8475 10.5035 12.8738C10.5166 12.9188 10.5541 12.9844 10.6441 12.9844H11.6079C11.6079 12.9844 11.8498 12.9919 11.8498 13.1513C11.8498 13.2075 11.8479 13.2638 11.846 13.3125C11.8423 13.3988 11.8873 13.4756 11.9623 13.5188C12.0298 13.5581 12.101 13.6256 12.101 13.7344V14.0269C12.101 14.0494 12.0973 14.0719 12.0916 14.0944C12.0748 14.1488 12.0354 14.2594 11.981 14.3419C11.9304 14.4169 12.0016 14.5294 12.0541 14.595C12.086 14.6363 12.1029 14.6869 12.1029 14.7375V15.0281C12.1029 15.0281 12.1254 15.135 12.2266 15.18C12.3279 15.225 12.3635 15.2513 12.3635 15.2513V15.3675C12.3635 15.4913 12.4629 15.5906 12.5866 15.5906H12.8791C12.8791 15.5906 13.0104 15.6 13.0966 15.4688C13.1829 15.3375 13.4904 14.8613 13.4904 14.8613C13.4904 14.8613 13.5466 14.8013 13.4904 14.6944C13.4341 14.5875 13.4604 14.4919 13.4604 14.4919L13.7285 14.3381C13.7285 14.3381 13.8541 14.3175 13.8541 14.1431V13.9538C13.8541 13.9238 13.8466 13.8938 13.8298 13.8675L13.7829 13.7888C13.7323 13.7025 13.7454 13.5956 13.8129 13.5225L14.3679 12.9338C14.3679 12.9338 14.5141 12.7163 14.5141 12.6056H14.0885C14.0098 12.6056 13.9385 12.5644 13.8973 12.4988L13.4116 11.6981C13.4031 11.6841 13.3975 11.6685 13.3952 11.6522C13.3929 11.636 13.394 11.6194 13.3984 11.6036C13.4028 11.5878 13.4104 11.573 13.4208 11.5602C13.4311 11.5475 13.4439 11.537 13.4585 11.5294C13.5148 11.4994 13.5841 11.52 13.616 11.5725L14.0866 12.3394L14.0848 12.4088C14.0848 12.4313 14.1016 12.4481 14.1241 12.4481C14.2404 12.4481 14.5835 12.435 14.7748 12.2681C14.876 12.18 14.9379 12.09 14.9754 12.015C15.0204 11.925 14.9979 11.8163 14.9229 11.7506L14.8029 11.6456L14.6473 11.6794L14.3716 11.4038C14.3304 11.3625 14.3416 11.2913 14.3941 11.265C14.4088 11.2577 14.4252 11.2547 14.4414 11.2564C14.4577 11.258 14.4732 11.2643 14.486 11.2744L14.9173 11.6044C14.9173 11.6044 15.0054 11.6831 15.0954 11.6831H15.3485C15.4273 11.6831 15.5004 11.7244 15.5398 11.7919L16.1041 12.7406C16.1041 12.7406 16.1885 12.8194 16.2373 12.8156C16.286 12.8119 16.3516 12.6075 16.3516 12.6075C16.3516 12.4181 16.4435 12.2381 16.5991 12.1294L16.7941 11.9925C16.8823 11.9306 17.0004 11.94 17.0773 12.0131L17.1973 12.1294V12.2531C17.1973 12.2738 17.2141 12.2925 17.2366 12.2925H17.2891L17.3398 12.2419H17.3998V12.7406C17.3998 12.7969 17.4204 12.8513 17.4598 12.8925L17.8348 13.2938V13.1494C17.8348 13.0988 17.8179 13.05 17.786 13.0106L17.6098 12.7913C17.5779 12.7519 17.561 12.7031 17.561 12.6525V12.5006C17.561 12.4763 17.591 12.465 17.6079 12.4819L17.8348 12.7144L17.8404 12.8606C17.8423 12.8888 17.876 12.9019 17.8948 12.8813L18.2154 12.5344C18.2154 12.5344 18.3091 12.4181 18.2154 12.3225C18.1479 12.2531 18.0541 12.165 17.9941 12.1088C17.9866 12.1019 17.9807 12.0935 17.9768 12.0841C17.9729 12.0747 17.971 12.0646 17.9714 12.0545C17.9717 12.0443 17.9743 12.0343 17.9789 12.0253C17.9834 12.0162 17.9899 12.0082 17.9979 12.0019L18.0598 11.9494L18.311 11.9531C18.311 11.9531 18.476 11.955 18.5998 11.8275C18.7516 11.6719 18.9748 11.4263 18.9748 11.4263C18.9748 11.4263 19.0198 11.2519 18.9148 11.16C18.8079 11.0681 18.8548 10.9556 18.8548 10.9556L18.986 10.8413V10.7606H18.6429C18.6429 10.7606 18.6729 10.5788 18.9166 10.5675C18.9485 10.5656 18.9785 10.5656 19.0029 10.5638C19.0279 10.5631 19.0527 10.5675 19.0759 10.5767C19.0992 10.5858 19.1204 10.5996 19.1382 10.617C19.156 10.6345 19.1702 10.6554 19.1798 10.6785C19.1894 10.7015 19.1943 10.7263 19.1941 10.7513V11.0888L19.2448 11.0944C19.2448 11.0944 19.3404 11.1038 19.376 10.9781C19.376 10.9781 19.4398 10.9594 19.4398 10.8825V10.7906L19.3479 10.68L19.4979 10.4888C19.5241 10.455 19.5616 10.4325 19.6029 10.425L19.6798 10.41C19.7254 10.4014 19.7659 10.3751 19.7923 10.3369L20.1391 9.81751C20.1635 9.78001 20.1766 9.73689 20.1766 9.69376V9.55127C20.1766 9.53287 20.1693 9.51522 20.1563 9.50221C20.1433 9.4892 20.1257 9.48189 20.1073 9.48189H19.9048C19.9048 9.48189 19.8204 9.38251 19.9348 9.31501C20.0154 9.26626 20.1729 9.13689 20.261 9.06376C20.3004 9.03001 20.351 9.01127 20.4035 9.01127H20.8123C20.8591 9.01127 20.9041 8.99626 20.9416 8.97001L21.2098 8.77876C21.2195 8.77146 21.2313 8.76752 21.2435 8.76752C21.3598 8.76752 21.4198 8.90627 21.341 8.99252L21.0635 9.29064C21.026 9.33002 21.0035 9.38439 21.0035 9.43876L20.9998 9.67877C20.9998 9.72377 21.0354 9.76127 21.0823 9.76127H21.1498L21.5135 9.39002C21.5379 9.36564 21.5548 9.33189 21.5604 9.29814L21.5735 9.21939C21.5923 9.11252 21.6841 9.03376 21.7929 9.03376H21.9523C22.0066 9.03376 22.0591 9.01502 22.0985 8.97939L22.3216 8.78439C22.3329 8.77502 22.346 8.76939 22.361 8.76939H22.4773C22.511 8.76939 22.5373 8.74314 22.5373 8.70939V8.59689C22.5373 8.58002 22.5448 8.56502 22.556 8.55377L22.6423 8.47314C22.7116 8.40939 22.8129 8.39439 22.8973 8.43939L23.0435 8.51627C23.0791 8.53502 23.1241 8.52564 23.1504 8.49377L23.2216 8.40376C23.2297 8.39364 23.2353 8.38184 23.2382 8.36923C23.241 8.35662 23.241 8.34354 23.2382 8.33094C23.2353 8.31833 23.2296 8.30654 23.2215 8.29643C23.2135 8.28632 23.2033 8.27815 23.1916 8.27252L22.4848 7.92564C22.4473 7.91251 21.971 7.90501 21.9373 7.90501ZM12.0335 10.245L12.0391 10.2431C12.0522 10.2378 12.0665 10.2366 12.0802 10.2396C12.0939 10.2426 12.1064 10.2497 12.116 10.26L12.3204 10.4738L12.1929 10.5825L12.0054 10.3556C11.9754 10.3181 11.9885 10.2619 12.0335 10.245ZM13.2541 11.2669H13.1398C13.1248 11.2669 13.1098 11.265 13.0948 11.2613C12.971 11.2275 12.3523 11.055 12.2379 11.0025C12.2252 10.9969 12.2141 10.9883 12.2054 10.9775C12.1967 10.9667 12.1908 10.954 12.188 10.9404C12.1852 10.9268 12.1858 10.9128 12.1896 10.8994C12.1934 10.8861 12.2003 10.8739 12.2098 10.8638L12.3635 10.7006C12.416 10.6538 12.4985 10.6575 12.5473 10.7081L12.6879 10.8563L12.8098 10.8338L12.776 10.7456C12.776 10.7456 12.761 10.7044 12.746 10.6669C12.731 10.6294 12.8135 10.5825 12.8135 10.5825C12.8135 10.5825 12.8979 10.575 12.8979 10.7044C12.8979 10.8338 13.0348 10.9313 13.0348 10.9313H13.5016C13.5316 10.9313 13.5504 10.9631 13.5354 10.9875L13.4529 11.145C13.4135 11.22 13.3366 11.2669 13.2541 11.2669ZM13.841 10.5675H13.6816L13.5654 10.4775C13.5522 10.4681 13.5366 10.4629 13.5204 10.4625H13.3685C13.346 10.4625 13.3235 10.4719 13.3066 10.4869L13.196 10.5844L13.0873 10.6013C13.0771 10.603 13.0668 10.6027 13.0568 10.6003C13.0468 10.5979 13.0374 10.5935 13.0291 10.5874C13.0209 10.5812 13.014 10.5735 13.0088 10.5646C13.0037 10.5557 13.0004 10.5458 12.9991 10.5356L12.9841 10.4156C12.9804 10.38 12.9916 10.3463 13.0141 10.32L13.1941 10.1175L13.2748 10.1119L13.271 10.1475C13.2654 10.1906 13.2991 10.2281 13.3423 10.2281H13.3816C13.421 10.2281 13.4566 10.2056 13.4716 10.17L13.5091 10.0894L13.676 10.1175L13.691 10.2375C13.6948 10.2638 13.7079 10.2881 13.7285 10.305L13.9141 10.4606V10.4944C13.9141 10.5356 13.8823 10.5675 13.841 10.5675ZM14.6473 10.6969V10.8338H14.3585L14.3341 10.6969C14.3304 10.6781 14.3341 10.6575 14.3454 10.6425L14.3604 10.6219C14.381 10.5919 14.3773 10.5506 14.3491 10.5263L14.2141 10.4025V10.1756L14.411 10.0913H14.5123C14.5516 10.0913 14.5854 10.1175 14.5966 10.155L14.5985 10.1606C14.606 10.1888 14.5985 10.2169 14.5798 10.2394C14.5689 10.2515 14.5617 10.2665 14.5591 10.2825L14.5404 10.4006L14.6998 10.5469L14.5854 10.6219L14.6473 10.6969Z" fill="#BDCF46"/>
<path d="M18.8622 13.71L18.1797 13.6313C18.1623 13.6296 18.1452 13.6251 18.1291 13.6182L17.9641 13.5507C17.9397 13.5413 17.9153 13.5244 17.8966 13.5057L17.3472 12.93C17.3396 12.9225 17.3305 12.9168 17.3205 12.9132C17.3104 12.9097 17.2997 12.9084 17.2891 12.9094C17.2366 12.9169 17.2141 12.9788 17.2497 13.0182L17.8272 13.665C17.8516 13.6913 17.8816 13.71 17.9153 13.7213L18.2416 13.8188C18.2603 13.8244 18.2772 13.8263 18.296 13.8263H18.8547L18.8622 13.71ZM20.2197 14.0738L20.1916 14.1525C20.1353 14.31 19.9778 14.4094 19.811 14.3888C19.7996 14.3875 19.7887 14.3834 19.7793 14.3769C19.7699 14.3703 19.7622 14.3615 19.757 14.3513C19.7518 14.3411 19.7492 14.3298 19.7495 14.3183C19.7497 14.3069 19.7528 14.2956 19.7585 14.2857L19.8991 14.0269L19.5335 14.04C19.4847 14.0419 19.436 14.0532 19.3928 14.0738L19.256 14.1375C19.2203 14.1544 19.1866 14.1769 19.1585 14.205L18.9035 14.4525C18.8735 14.4825 18.8378 14.5069 18.7985 14.5238L18.626 14.6007C18.4966 14.6588 18.4122 14.7863 18.4122 14.9288V14.955C18.4122 15.0038 18.4216 15.0507 18.4403 15.0957L18.5753 15.4125C18.5791 15.42 18.581 15.4257 18.5828 15.4332C18.6053 15.5194 18.6991 15.57 18.7835 15.54L19.1285 15.4182C19.1772 15.4013 19.2297 15.3938 19.2803 15.3994L19.6928 15.4369C19.8053 15.4463 19.9047 15.5082 19.9647 15.6038L19.9928 15.6469C20.0585 15.7519 20.1728 15.8157 20.2985 15.8157H20.4653C20.561 15.8157 20.6528 15.7782 20.7203 15.7107L20.9041 15.5269C20.9716 15.4594 21.0091 15.3675 21.0091 15.2719V15.0319C21.0091 14.9307 20.966 14.835 20.8928 14.7675L20.516 14.4225C20.4803 14.3907 20.4522 14.3513 20.4335 14.3082L20.321 14.0644C20.2966 14.0269 20.2347 14.0288 20.2197 14.0738Z" fill="#BDCF46"/>
<path d="M18.5835 13.4325L18.6867 13.2469C18.7054 13.2131 18.7129 13.1756 18.711 13.1381L18.6942 12.9412C18.6904 12.8944 18.6342 12.87 18.5985 12.9019L18.3098 13.1456C18.3021 13.1518 18.2931 13.1563 18.2835 13.1588L18.1542 13.1831C18.1204 13.1888 18.0998 13.2225 18.1073 13.2544L18.1335 13.3612C18.1416 13.3933 18.1579 13.4227 18.181 13.4464C18.204 13.4701 18.233 13.4873 18.2648 13.4963L18.3642 13.5244C18.4504 13.5488 18.5404 13.5113 18.5835 13.4325ZM20.1473 13.8694C20.1754 13.8694 20.2035 13.8637 20.2298 13.8506L20.4285 13.755C20.4304 13.755 20.4304 13.755 20.4323 13.7569L20.5785 13.9369C20.586 13.9462 20.5973 13.9519 20.6104 13.9519H20.7079C20.7417 13.9519 20.7604 13.9144 20.7398 13.8881L20.5879 13.6912L20.5223 13.6369L19.986 13.3706H19.9842L19.8567 13.4212H19.7592C19.7573 13.4212 19.7573 13.4213 19.7573 13.4194L19.7217 13.3031C19.7192 13.2956 19.7144 13.289 19.708 13.2843C19.7017 13.2796 19.694 13.277 19.686 13.2769H19.5548C19.5499 13.2769 19.545 13.2778 19.5404 13.2797C19.5359 13.2816 19.5318 13.2844 19.5283 13.2879C19.5248 13.2913 19.522 13.2955 19.5201 13.3C19.5183 13.3046 19.5173 13.3095 19.5173 13.3144V13.4288H19.6017V13.4625C19.6017 13.5037 19.6335 13.5394 19.6748 13.545L19.866 13.5675C19.866 13.5675 19.8679 13.5675 19.8679 13.5694L19.971 13.6969C20.0029 13.7362 19.9973 13.8319 19.9635 13.8713L19.9617 13.8731H20.1473V13.8694ZM20.2579 10.2338L20.1904 10.2938C20.1154 10.3613 20.0704 10.4531 20.0592 10.5544C20.0498 10.6481 20.0085 10.7344 19.9429 10.8019C19.8473 10.8975 19.7273 10.9631 19.5979 10.9913L19.5717 10.9969L19.4648 11.0831C19.4648 11.0831 19.4348 11.235 19.4648 11.2706C19.4779 11.2875 19.5342 11.2838 19.551 11.2706C19.5735 11.2538 19.5754 11.16 19.5754 11.16L19.9148 11.0381C19.9148 11.0381 19.9992 11.1488 20.0404 11.1544C20.0592 11.1563 20.1004 11.1356 20.1117 11.1187C20.1567 11.0569 20.2073 10.83 20.2073 10.83C20.2242 10.7794 20.2354 10.725 20.241 10.6725L20.2598 10.4738L20.4117 10.4644L20.4717 10.3425L20.3142 10.3275L20.2579 10.2338ZM14.001 14.8856C14.001 14.8856 14.0517 14.985 14.1735 14.985C14.2954 14.985 14.346 14.8856 14.346 14.8856V14.4225C14.346 14.2875 14.1979 14.205 14.0835 14.2763C14.0329 14.3081 14.001 14.3625 14.001 14.4225V14.8856ZM10.1648 6.81375L10.3673 6.69563L10.371 6.68813C10.378 6.67446 10.3813 6.65923 10.3806 6.64391C10.3799 6.62859 10.3753 6.61371 10.3672 6.6007C10.3591 6.58769 10.3478 6.57699 10.3343 6.56964C10.3209 6.56229 10.3057 6.55854 10.2904 6.55875H9.82917L9.78042 6.50625C9.72417 6.4425 9.64354 6.405 9.55917 6.40313L8.87292 6.375C8.82792 6.3825 8.78292 6.39188 8.73792 6.39938L8.33104 6.57C8.29729 6.585 8.26167 6.5925 8.22417 6.59438L7.57167 6.62625C7.52292 6.62813 7.47604 6.64313 7.43292 6.66563L7.06729 6.87188C7.06127 6.87529 7.05621 6.88016 7.05257 6.88604C7.04892 6.89192 7.04682 6.89863 7.04644 6.90554C7.04607 6.91245 7.04744 6.91934 7.05043 6.92558C7.05342 6.93182 7.05793 6.93721 7.06354 6.94125C7.09167 6.96188 7.08229 7.00687 7.04854 7.01437L6.76354 7.08563C6.73542 7.09313 6.72417 7.125 6.73729 7.1475L6.83292 7.30313C6.83854 7.3125 6.84979 7.32 6.86104 7.32188L7.37292 7.41C7.45167 7.42313 7.52104 7.46625 7.56979 7.53L7.92229 7.99313L8.02542 8.13375C8.06292 8.18438 8.05729 8.25375 8.01604 8.29875L7.93729 8.38125C7.8998 8.42063 7.89229 8.47875 7.91667 8.5275L8.17354 9.04125C8.19604 9.08813 8.23917 9.12187 8.28792 9.13687C8.44729 9.18375 8.61604 9.0975 8.67229 8.94L8.73979 8.74875C8.74917 8.72062 8.76979 8.69625 8.79604 8.67938L9.08292 8.43563C9.11854 8.40563 9.1598 8.385 9.20292 8.37188L9.65292 8.25C9.74854 8.22375 9.82542 8.15625 9.86104 8.06438L10.0729 7.53938C10.1048 7.4625 10.1029 7.37625 10.071 7.29938L10.0298 7.20187C9.97167 7.06125 10.0279 6.89438 10.1648 6.81375ZM6.41479 7.26938L6.50104 7.1175C6.53104 7.065 6.5723 7.02375 6.62479 6.99563L7.33354 6.60375L7.25292 6.51187L6.44854 6.46313C6.42604 6.46125 6.40167 6.46313 6.37917 6.46688L5.59542 6.5925C5.54854 6.6 5.50354 6.61688 5.46417 6.645C5.30667 6.75188 5.27854 6.97313 5.40229 7.1175L5.57854 7.32188C5.63854 7.39313 5.72854 7.4325 5.82042 7.4325H6.13542C6.25167 7.4325 6.35854 7.37063 6.41479 7.26938ZM7.30917 8.7L7.38229 8.61563C7.40104 8.59313 7.39729 8.55938 7.37292 8.54437L7.14417 8.38313L6.34542 7.7925C6.31167 7.76813 6.27229 7.755 6.23104 7.755H5.91604C5.86542 7.755 5.81854 7.77375 5.78292 7.80938L5.61604 7.97063C5.60694 7.97889 5.60144 7.99039 5.60074 8.00267C5.60004 8.01495 5.60419 8.02701 5.61229 8.03625L5.70604 8.15438C5.71542 8.1675 5.73229 8.175 5.74917 8.17313L5.83917 8.16563C5.86729 8.16375 5.88979 8.18438 5.89167 8.21063L5.89542 8.26312C5.89542 8.27062 5.89542 8.27813 5.89167 8.28563L5.85042 8.38687C5.84292 8.40375 5.84667 8.42438 5.85792 8.4375L5.95729 8.55375C5.96667 8.565 5.98167 8.5725 5.99667 8.57063L6.0923 8.56688C6.11855 8.565 6.13917 8.54437 6.13917 8.51813V8.31375C6.13917 8.2875 6.15979 8.26688 6.18417 8.265L6.31729 8.25563C6.32854 8.25563 6.34167 8.2575 6.35104 8.265L6.59479 8.45062C6.61354 8.46563 6.61917 8.49 6.60979 8.51063L6.52917 8.67188C6.52167 8.68688 6.50667 8.69813 6.48792 8.69813L6.41104 8.70375C6.38854 8.70563 6.37167 8.72063 6.36604 8.74125C6.36042 8.77125 6.38104 8.79938 6.41104 8.80125L6.57604 8.81438C6.60979 8.81625 6.64355 8.82938 6.67167 8.84813L6.9623 9.05063C6.98105 9.06375 7.00542 9.06188 7.02229 9.04688L7.11417 8.97C7.12167 8.96438 7.12729 8.955 7.12917 8.94563L7.15917 8.82938C7.16292 8.81625 7.16105 8.80125 7.15354 8.79L7.05417 8.63625L7.08604 8.63063C7.09729 8.62875 7.11042 8.63063 7.11979 8.63625L7.24729 8.71125C7.26605 8.7225 7.29229 8.71875 7.30917 8.7ZM3.67354 8.1225V7.95563H3.77292L3.91917 8.16C3.93792 8.18438 3.96042 8.205 3.98854 8.22L4.17979 8.31563C4.20604 8.32875 4.23604 8.33625 4.26604 8.33625H4.85854V8.13937L4.63917 8.0625L4.38604 7.9275C4.35229 7.9275 4.32042 7.91813 4.29229 7.90313L3.88729 7.6725C3.85878 7.65616 3.82641 7.64775 3.79354 7.64813H3.54979C3.46729 7.64813 3.39417 7.70063 3.36792 7.77938L3.34729 7.845C3.32479 7.9125 3.34354 7.98938 3.39417 8.04L3.48042 8.12625H3.67354V8.1225ZM4.51542 7.79625L4.67104 7.71563C4.69729 7.7025 4.72729 7.695 4.75917 7.695H4.84354C4.91667 7.695 4.98417 7.73625 5.01604 7.80375L5.07792 7.93125V8.0625H4.79667V7.89563L4.67854 7.83563L4.53792 7.83938L4.51542 7.79625ZM5.05354 7.695L5.19417 7.92375L5.30479 7.98938H5.46792L5.63104 7.81688L5.50729 7.65563L5.19042 7.695H5.05354ZM4.14417 7.34625L4.36542 7.425C4.38042 7.43063 4.39354 7.43625 4.40667 7.44563L4.56042 7.54688C4.58667 7.56375 4.61479 7.575 4.64667 7.57687L4.92604 7.605L4.89229 7.4325L4.55854 7.24875C4.53042 7.23375 4.49854 7.22438 4.46667 7.22438H4.29604L4.14417 7.34625ZM11.2373 8.75625L11.3179 8.88375C11.3254 8.895 11.3254 8.91188 11.316 8.92313L11.2542 9.0075C11.2485 9.01688 11.2448 9.02813 11.2485 9.0375L11.2729 9.12188C11.2748 9.12938 11.2785 9.135 11.2842 9.13875L11.4135 9.23813C11.5017 9.30563 11.5129 9.435 11.4379 9.5175L11.436 9.51938C11.4004 9.55875 11.3479 9.58313 11.2935 9.58313H11.1398C11.1173 9.58313 11.1004 9.5625 11.106 9.54L11.1454 9.38625C11.1473 9.37688 11.1548 9.3675 11.1642 9.36375L11.2335 9.33C11.2467 9.32438 11.2542 9.30938 11.2523 9.29437L11.2485 9.25313C11.2475 9.24584 11.2442 9.23905 11.2392 9.23369C11.2342 9.22832 11.2276 9.22463 11.2204 9.22313L11.121 9.2025C11.1136 9.20097 11.1059 9.20199 11.0991 9.20539C11.0923 9.20879 11.0868 9.21438 11.0835 9.22125L11.061 9.27C11.061 9.27188 11.0592 9.27375 11.0592 9.27563L11.0104 9.44063C11.0067 9.45563 10.9917 9.465 10.9767 9.465L10.821 9.46125C10.8121 9.46125 10.8035 9.45769 10.7972 9.45136C10.7909 9.44504 10.7873 9.43645 10.7873 9.4275V9.25125C10.7873 9.2325 10.8023 9.2175 10.821 9.2175L10.9017 9.21563C10.9129 9.21563 10.9223 9.21 10.9298 9.20062L11.0048 9.09188C11.0085 9.08625 11.0104 9.07875 11.0104 9.07125V8.90625C11.0104 8.895 11.016 8.88563 11.0235 8.88L11.1867 8.74875C11.2017 8.73563 11.226 8.73938 11.2373 8.75625Z" fill="#BDCF46"/>
<path d="M9.47359 8.48996H9.34797L9.26922 8.58183L9.48484 8.75058C9.52422 8.78246 9.57484 8.79558 9.62547 8.78996L9.87109 8.75996V8.60058L9.82422 8.48808L9.56922 8.55371L9.47359 8.48996ZM11.8398 7.14183H12.1642C12.2036 7.14183 12.2411 7.15308 12.273 7.17558L12.6086 7.40996L12.5636 7.47746L12.2805 7.33308L12.1642 7.54496H12.0386L11.7611 7.19621L11.8398 7.14183ZM12.4342 6.89246H12.8542L12.9611 6.97308L12.8542 7.08371H12.6292C12.588 7.08371 12.5486 7.07058 12.5167 7.04621L12.3948 6.95621L12.4342 6.89246ZM4.74859 7.00496L5.02609 6.90183L5.18922 6.98621L5.26984 7.13808L5.16859 7.15683L4.86484 7.25246L4.48047 7.07246L4.74859 7.00496ZM5.42922 7.46058H5.54922L5.61109 7.52808H6.25234L6.30484 7.60496L6.27109 7.67621L5.67484 7.69496L5.60734 7.61996L5.50797 7.60496L5.49297 7.54308L5.42922 7.52058V7.46058ZM4.96234 7.47183L5.00922 7.60496L5.13109 7.61433L5.23047 7.49996L5.18734 7.46058L5.00922 7.44558L4.96234 7.47183ZM5.29234 7.30871L5.26984 7.38371L5.36359 7.41371L5.42922 7.36121H5.47047V7.32746L5.38984 7.29371L5.34109 7.27496L5.29234 7.30871ZM6.03672 12.1218L6.15297 12.0712H6.46422L6.70609 12.2531C6.70609 12.2531 6.82047 12.2681 6.82047 12.2981C6.82047 12.3281 6.70609 12.3431 6.70609 12.3431H6.53922L6.30484 12.1837L6.16047 12.2062L6.03672 12.1556C6.02172 12.1518 6.02172 12.1293 6.03672 12.1218ZM6.84297 12.4087C6.82984 12.3787 6.93484 12.3168 6.93484 12.3168C6.93484 12.3168 7.10359 12.2737 7.12797 12.3168C7.14109 12.3412 7.06797 12.4087 7.06797 12.4087C7.06797 12.4087 6.86547 12.4612 6.84297 12.4087ZM20.2623 16.0125H20.6561L20.4592 16.2412H20.3673L20.2623 16.0125Z" fill="#BDCF46"/>
</g>
<defs>
<clipPath id="clip0_1368_31525">
<rect width="24" height="24" fill="white"/>
</clipPath>
</defs>
</svg>
