<svg width="24" height="24" viewBox="0 0 24 24" fill="none" xmlns="http://www.w3.org/2000/svg">
<g id="Group">
<path id="Vector" d="M22.5627 12.9987C22.2535 12.7572 22.0757 12.3931 22.0757 11.9996C22.0757 11.6065 22.2535 11.243 22.5627 11.0015C23.5327 10.2444 23.8873 9.00631 23.4673 7.84738C23.0467 6.68948 21.9613 5.96806 20.7542 6.01616C20.3615 6.0234 19.9929 5.86567 19.7409 5.56469C19.4894 5.26319 19.3925 4.87016 19.4744 4.48591C19.7321 3.28044 19.2116 2.10341 18.1468 1.48645C17.084 0.871562 15.8084 1.00499 14.8956 1.83294C14.6044 2.0972 14.2163 2.20839 13.8308 2.14065C13.4448 2.07238 13.119 1.83398 12.935 1.48593C12.3604 0.395786 11.2079 -0.167906 9.99776 0.0441246C8.78811 0.258224 7.89647 1.18599 7.72742 2.40749C7.67381 2.79742 7.44858 3.13305 7.10996 3.32957C6.77135 3.52764 6.36727 3.55453 6.00391 3.40611C4.86591 2.94067 3.6207 3.25251 2.82956 4.19631C2.04048 5.14062 1.95131 6.42574 2.60536 7.47038C2.81358 7.80342 2.85636 8.20628 2.72184 8.57604C2.58783 8.94529 2.29715 9.22661 1.92503 9.34711C0.75558 9.72566 -0.00102975 10.7672 1.05195e-06 12.0006C1.05195e-06 13.2335 0.75558 14.2745 1.92503 14.6525C2.29715 14.7725 2.58783 15.0544 2.72184 15.4236C2.85636 15.7929 2.81358 16.1962 2.60536 16.5293C1.95131 17.5739 2.04048 18.8585 2.82956 19.8033C3.6207 20.7477 4.86694 21.0579 6.00391 20.5935C6.36727 20.4456 6.77135 20.4736 7.10996 20.6701C7.44858 20.8666 7.67381 21.2022 7.72742 21.5922C7.89647 22.8137 8.78811 23.7414 9.99776 23.9555C10.1678 23.985 10.3369 24 10.5029 24C11.5197 24 12.4413 23.4503 12.935 22.5137C13.119 22.1662 13.4448 21.9273 13.8308 21.859C14.2163 21.7923 14.6044 21.9024 14.8956 22.1667C15.8084 22.9941 17.084 23.1281 18.1468 22.5132C19.2116 21.8962 19.7321 20.7192 19.4744 19.5137C19.3925 19.1295 19.4894 18.7365 19.7409 18.435C19.9929 18.134 20.3403 17.9664 20.7542 17.984C21.9613 18.0207 23.0467 17.3102 23.4673 16.1523C23.8873 14.9933 23.5327 13.7558 22.5627 12.9987ZM16.9382 8.91684L10.5997 16.0928C10.4493 16.2624 10.241 16.3493 10.0318 16.3493C9.85293 16.3493 9.67409 16.2862 9.52977 16.159L6.76619 13.7124C6.45231 13.4347 6.4219 12.9532 6.69919 12.6382C6.97699 12.3223 7.45683 12.2938 7.76968 12.571L9.96529 14.5145L15.8022 7.90685C16.08 7.59243 16.5598 7.56347 16.8727 7.84169C17.1871 8.12095 17.216 8.6019 16.9382 8.91684Z" fill="#F5F5F7"/>
</g>
</svg>
