<svg width="41" height="40" viewBox="0 0 41 40" fill="none" xmlns="http://www.w3.org/2000/svg">
<g id="coin-icon">
<g id="Vector">
<path d="M36.8344 24.0319C34.6082 32.9606 25.564 38.3944 16.6333 36.1679C7.70641 33.9419 2.27203 24.898 4.4992 15.9701C6.72441 7.04048 15.7687 1.60627 24.6966 3.83222C33.6266 6.05817 39.0609 15.1028 36.8344 24.0319Z" fill="#F3BA2F"/>
<path fill-rule="evenodd" clip-rule="evenodd" d="M20.6684 13.9113L16.3522 18.227L13.841 15.7157L20.6684 8.88905L27.4981 15.7178L24.9867 18.2289L20.6684 13.9113ZM12.0676 17.4886L9.55615 20.0002L12.0674 22.5108L14.5789 19.9996L12.0676 17.4886ZM16.3522 21.7736L20.6684 26.0891L24.9866 21.7715L27.4993 24.2813L27.4981 24.2827L20.6684 31.1113L13.8375 24.2811L16.3522 21.7736ZM29.2694 17.49L26.758 20.0012L29.2693 22.5123L31.7807 20.0011L29.2694 17.49Z" fill="white"/>
<path d="M23.2155 19.9988L20.6684 17.4507L18.1223 19.9963L18.1187 19.9997L18.1223 20.0034L20.6684 22.5496L23.2168 20.0015L23.218 20.0001L23.2155 19.9988Z" fill="white"/>
</g>
</g>
</svg>
