<svg width="20" height="20" viewBox="0 0 20 20" fill="none" xmlns="http://www.w3.org/2000/svg">
<g id="Group">
<path id="Vector" d="M17.895 5H6.105C5.49472 5 5 5.49472 5 6.105V17.895C5 18.5053 5.49472 19 6.105 19H17.895C18.5053 19 19 18.5053 19 17.895V6.105C19 5.49472 18.5053 5 17.895 5Z" stroke="#E6E6E6" stroke-width="1.5" stroke-linecap="round" stroke-linejoin="round"/>
<path id="Vector_2" d="M5 15H3C2.46957 15 1.96086 14.7893 1.58579 14.4142C1.21071 14.0391 1 13.5304 1 13V3C1 2.46957 1.21071 1.96086 1.58579 1.58579C1.96086 1.21071 2.46957 1 3 1H13C13.5304 1 14.0391 1.21071 14.4142 1.58579C14.7893 1.96086 15 2.46957 15 3V5" stroke="#E6E6E6" stroke-width="1.5" stroke-linecap="round" stroke-linejoin="round"/>
</g>
</svg>
