<svg width="18" height="18" viewBox="0 0 18 18" fill="none" xmlns="http://www.w3.org/2000/svg">
<g id="edit">
<path id="Vector" d="M2.25 12.9374V15.7499H5.0625L13.3575 7.45488L10.545 4.64238L2.25 12.9374ZM15.5325 5.27988C15.602 5.21049 15.6572 5.12808 15.6948 5.03735C15.7325 4.94662 15.7518 4.84936 15.7518 4.75113C15.7518 4.6529 15.7325 4.55564 15.6948 4.46491C15.6572 4.37418 15.602 4.29177 15.5325 4.22238L13.7775 2.46738C13.7081 2.39785 13.6257 2.34269 13.535 2.30506C13.4442 2.26742 13.347 2.24805 13.2488 2.24805C13.1505 2.24805 13.0533 2.26742 12.9625 2.30506C12.8718 2.34269 12.7894 2.39785 12.72 2.46738L11.3475 3.83988L14.16 6.65238L15.5325 5.27988Z" fill="#9E68FF"/>
</g>
</svg>
