<svg xmlns="http://www.w3.org/2000/svg" width="20" height="18" viewBox="0 0 20 18" fill="none">
  <path d="M19.7504 7.85134L18.5282 5.72984C18.5258 5.72544 18.5226 5.72156 18.5188 5.71842C18.5149 5.71528 18.5104 5.71296 18.5056 5.71159C18.5008 5.71022 18.4958 5.70983 18.4908 5.71044C18.4859 5.71106 18.4811 5.71266 18.4768 5.71516C18.1521 5.86237 17.783 5.87808 17.447 5.759C17.111 5.63992 16.8342 5.39531 16.6746 5.07651C16.4797 4.77891 16.4075 4.41742 16.4732 4.06779C16.5389 3.71815 16.7374 3.40751 17.027 3.20093C17.0343 3.19479 17.0392 3.18614 17.0405 3.17666C17.0419 3.16717 17.0397 3.15752 17.0343 3.14956L15.8121 1.0244C15.7186 0.839422 15.556 0.69872 15.3595 0.632765C15.1631 0.56681 14.9485 0.580913 14.7624 0.67202C14.6816 0.719735 13.8521 1.19689 12.6372 1.89794C12.6647 1.95387 12.6777 2.01588 12.6748 2.07817C12.6719 2.14047 12.6533 2.20101 12.6207 2.25416C12.5881 2.30731 12.5425 2.35132 12.4883 2.3821C12.434 2.41287 12.3729 2.4294 12.3105 2.43015C12.2503 2.42872 12.1913 2.413 12.1383 2.38428C12.0853 2.35557 12.0399 2.31467 12.0059 2.26498C9.56872 3.67074 6.03412 5.71149 3.57861 7.13194H14.8137L14.7477 7.01449C14.7232 6.97278 14.7073 6.92665 14.7007 6.87875C14.6942 6.83085 14.6972 6.78213 14.7095 6.73539C14.7219 6.68865 14.7433 6.64482 14.7727 6.60641C14.802 6.56799 14.8387 6.53576 14.8805 6.51157C14.9224 6.48738 14.9686 6.4717 15.0166 6.46544C15.0645 6.45917 15.1132 6.46245 15.1599 6.47508C15.2065 6.48771 15.2502 6.50944 15.2885 6.53902C15.3267 6.5686 15.3587 6.60545 15.3826 6.64745L15.5662 6.9631C15.5932 7.01543 15.6082 7.0731 15.6102 7.13194H17.0086C17.4099 7.1459 17.7893 7.31827 18.0638 7.61132C18.3382 7.90436 18.4854 8.29421 18.4731 8.69554V9.55074L19.5339 8.93778C19.7061 8.82199 19.8256 8.64276 19.8662 8.43921C19.9067 8.23566 19.8651 8.02433 19.7504 7.85134ZM13.0446 3.70011C12.9805 3.70007 12.9175 3.68308 12.8621 3.65084C12.8066 3.61861 12.7607 3.5723 12.7289 3.51659L12.5454 3.20091C12.521 3.15921 12.505 3.11308 12.4985 3.06518C12.4919 3.01728 12.4949 2.96856 12.5073 2.92182C12.5196 2.87508 12.5411 2.83124 12.5704 2.79283C12.5998 2.75442 12.6364 2.72219 12.6783 2.698C12.7201 2.6738 12.7664 2.65812 12.8143 2.65186C12.8622 2.6456 12.9109 2.64888 12.9576 2.6615C13.0043 2.67413 13.048 2.69586 13.0862 2.72544C13.1245 2.75503 13.1565 2.79187 13.1804 2.83387L13.3639 3.14953C13.3881 3.19144 13.4038 3.23771 13.4101 3.2857C13.4163 3.33368 13.4131 3.38244 13.4005 3.42916C13.3878 3.47588 13.3661 3.51964 13.3365 3.55795C13.307 3.59626 13.2701 3.62834 13.2281 3.65237C13.1723 3.68436 13.1089 3.70084 13.0446 3.70011ZM13.7787 4.97374C13.7146 4.9737 13.6516 4.95671 13.5961 4.92448C13.5407 4.89225 13.4948 4.84593 13.463 4.79022L13.2795 4.47089C13.2551 4.42919 13.2391 4.38306 13.2326 4.33516C13.226 4.28726 13.229 4.23854 13.2413 4.1918C13.2537 4.14506 13.2752 4.10122 13.3045 4.06281C13.3339 4.0244 13.3705 3.99217 13.4124 3.96798C13.4542 3.94378 13.5005 3.9281 13.5484 3.92184C13.5963 3.91558 13.645 3.91886 13.6917 3.93148C13.7384 3.94411 13.7821 3.96584 13.8203 3.99542C13.8585 4.02501 13.8905 4.06185 13.9145 4.10385L14.098 4.42318C14.1291 4.47926 14.1452 4.54244 14.1445 4.60657C14.1439 4.6707 14.1267 4.73357 14.0945 4.78904C14.0623 4.84452 14.0163 4.8907 13.961 4.92307C13.9056 4.95544 13.8428 4.9729 13.7787 4.97374ZM14.6963 6.19599C14.612 6.24374 14.5122 6.25626 14.4187 6.23083C14.3253 6.20539 14.2456 6.14406 14.1971 6.06018L14.0136 5.74086C13.965 5.65712 13.9516 5.55752 13.9764 5.46393C14.0012 5.37034 14.0621 5.2904 14.1457 5.24168C14.2301 5.19307 14.3302 5.17968 14.4243 5.20442C14.5184 5.22915 14.599 5.29002 14.6486 5.37381L14.8321 5.69314C14.8563 5.73505 14.872 5.78133 14.8782 5.82931C14.8845 5.8773 14.8812 5.92605 14.8686 5.97277C14.856 6.01949 14.8343 6.06326 14.8047 6.10156C14.7751 6.13987 14.7383 6.17196 14.6963 6.19599Z" fill="#E6E6E6"/>
  <path d="M17.7032 11.1851C17.713 11.1844 17.7221 11.1799 17.7286 11.1726C17.7351 11.1652 17.7385 11.1556 17.738 11.1458V8.69505C17.7504 8.48845 17.6807 8.28532 17.544 8.12989C17.4073 7.97447 17.2148 7.87934 17.0083 7.86523H14.501C14.4703 7.92083 14.4253 7.96717 14.3706 7.99945C14.316 8.03173 14.2536 8.04876 14.1901 8.04876C14.1266 8.04876 14.0643 8.03173 14.0096 7.99945C13.955 7.96717 13.9099 7.92083 13.8793 7.86523H0.849801C0.643308 7.87934 0.450754 7.97447 0.314075 8.1299C0.177395 8.28532 0.107663 8.48846 0.120065 8.69506V11.1458C0.11957 11.1556 0.122945 11.1652 0.129465 11.1726C0.135984 11.1799 0.145129 11.1844 0.154934 11.1851C0.509366 11.2199 0.836613 11.3904 1.06816 11.661C1.2997 11.9315 1.41758 12.2812 1.39713 12.6368C1.41759 12.9923 1.29971 13.342 1.06817 13.6126C0.836621 13.8832 0.509369 14.0537 0.154934 14.0884C0.145129 14.0891 0.135986 14.0936 0.129468 14.101C0.122949 14.1083 0.119574 14.1179 0.120065 14.1278V16.5785C0.107655 16.7851 0.177384 16.9882 0.314065 17.1436C0.450745 17.2991 0.643304 17.3942 0.849801 17.4083H13.8792C13.9099 17.3527 13.9549 17.3064 14.0096 17.2741C14.0643 17.2418 14.1266 17.2248 14.1901 17.2248C14.2536 17.2248 14.316 17.2418 14.3706 17.2741C14.4253 17.3064 14.4703 17.3527 14.501 17.4083H17.0083C17.2148 17.3942 17.4073 17.2991 17.544 17.1436C17.6807 16.9882 17.7504 16.7851 17.738 16.5785V14.1278C17.7385 14.118 17.7352 14.1083 17.7286 14.101C17.7221 14.0936 17.713 14.0891 17.7032 14.0884C17.3488 14.0537 17.0215 13.8832 16.79 13.6126C16.5584 13.342 16.4405 12.9923 16.461 12.6368C16.4405 12.2812 16.5584 11.9315 16.79 11.6609C17.0215 11.3904 17.3488 11.2199 17.7032 11.1851ZM11.2805 11.5356V15.5731C11.2803 15.7677 11.2028 15.9543 11.0652 16.0919C10.9276 16.2295 10.741 16.3069 10.5464 16.3072H4.67378C4.47916 16.3069 4.29259 16.2295 4.15498 16.0919C4.01737 15.9543 3.93995 15.7677 3.9397 15.5731V9.70044C3.93995 9.50583 4.01737 9.31926 4.15498 9.18164C4.29259 9.04403 4.47916 8.96661 4.67378 8.96636H10.5464C10.741 8.96661 10.9276 9.04403 11.0652 9.18164C11.2028 9.31926 11.2803 9.50583 11.2805 9.70044V11.5356ZM14.5572 16.4907C14.5572 16.588 14.5185 16.6814 14.4497 16.7502C14.3808 16.8191 14.2875 16.8577 14.1901 16.8577C14.0928 16.8577 13.9994 16.8191 13.9306 16.7502C13.8617 16.6814 13.8231 16.588 13.8231 16.4907V16.1237C13.8231 16.0263 13.8617 15.933 13.9306 15.8641C13.9994 15.7953 14.0928 15.7566 14.1901 15.7566C14.2875 15.7566 14.3808 15.7953 14.4497 15.8641C14.5185 15.933 14.5572 16.0263 14.5572 16.1237V16.4907ZM14.5572 15.0225C14.5572 15.1199 14.5185 15.2132 14.4497 15.2821C14.3808 15.3509 14.2875 15.3896 14.1901 15.3896C14.0928 15.3896 13.9994 15.3509 13.9306 15.2821C13.8617 15.2132 13.8231 15.1199 13.8231 15.0225V14.6555C13.8231 14.5581 13.8617 14.4648 13.9306 14.396C13.9994 14.3271 14.0928 14.2885 14.1901 14.2885C14.2875 14.2885 14.3808 14.3271 14.4497 14.396C14.5185 14.4648 14.5572 14.5581 14.5572 14.6555V15.0225ZM14.5572 13.5544C14.5572 13.6517 14.5185 13.7451 14.4497 13.8139C14.3808 13.8827 14.2875 13.9214 14.1901 13.9214C14.0928 13.9214 13.9994 13.8827 13.9306 13.8139C13.8617 13.7451 13.8231 13.6517 13.8231 13.5544V13.1873C13.8231 13.09 13.8617 12.9966 13.9306 12.9278C13.9994 12.859 14.0928 12.8203 14.1901 12.8203C14.2875 12.8203 14.3808 12.859 14.4497 12.9278C14.5185 12.9966 14.5572 13.09 14.5572 13.1873V13.5544ZM14.5572 12.0862C14.5572 12.1836 14.5185 12.2769 14.4497 12.3457C14.3808 12.4146 14.2875 12.4532 14.1901 12.4532C14.0928 12.4532 13.9994 12.4146 13.9306 12.3457C13.8617 12.2769 13.8231 12.1836 13.8231 12.0862V11.7192C13.8231 11.6218 13.8617 11.5285 13.9306 11.4596C13.9994 11.3908 14.0928 11.3521 14.1901 11.3521C14.2875 11.3521 14.3808 11.3908 14.4497 11.4596C14.5185 11.5285 14.5572 11.6218 14.5572 11.7192V12.0862ZM14.5572 10.618C14.5572 10.7154 14.5185 10.8087 14.4497 10.8776C14.3808 10.9464 14.2875 10.9851 14.1901 10.9851C14.0928 10.9851 13.9994 10.9464 13.9306 10.8776C13.8617 10.8087 13.8231 10.7154 13.8231 10.618V10.251C13.8231 10.1537 13.8617 10.0603 13.9306 9.99146C13.9994 9.92263 14.0928 9.88396 14.1901 9.88396C14.2875 9.88396 14.3808 9.92263 14.4497 9.99146C14.5185 10.0603 14.5572 10.1537 14.5572 10.251V10.618ZM14.5572 9.14988C14.5572 9.24722 14.5185 9.34058 14.4497 9.40942C14.3808 9.47825 14.2875 9.51692 14.1901 9.51692C14.0928 9.51692 13.9994 9.47825 13.9306 9.40942C13.8617 9.34058 13.8231 9.24722 13.8231 9.14988V8.78284C13.8231 8.68549 13.8617 8.59213 13.9306 8.5233C13.9994 8.45447 14.0928 8.4158 14.1901 8.4158C14.2875 8.4158 14.3808 8.45447 14.4497 8.5233C14.5185 8.59213 14.5572 8.68549 14.5572 8.78284V9.14988Z" fill="#E6E6E6"/>
  <path d="M7.76717 9.99992L6.59717 11.1699L7.76717 12.3399L8.93717 11.1699L7.76717 9.99992Z" fill="#E6E6E6"/>
  <path d="M9.36483 11.6918L8.19482 12.8618L9.36483 14.0318L10.5348 12.8618L9.36483 11.6918Z" fill="#E6E6E6"/>
  <path d="M6.17 11.6918L5 12.8618L6.17 14.0318L7.34 12.8618L6.17 11.6918Z" fill="#E6E6E6"/>
  <path d="M9.27506 14.8819H7.76718H6.25928L7.76718 13.374L9.27506 14.8819Z" fill="#E6E6E6"/>
</svg>