<svg xmlns="http://www.w3.org/2000/svg" width="20" height="14" viewBox="0 0 20 14" fill="none">
  <path d="M19.1594 7.59356H18.7969V2.89981C19.4375 2.75607 19.9156 2.18106 19.9156 1.49981C19.9156 0.70918 19.275 0.0654297 18.4813 0.0654297C17.6906 0.0654297 17.0469 0.70918 17.0469 1.49981C17.0469 2.18419 17.5281 2.75918 18.1719 2.89981V7.59356H17.5906V5.74357C17.5906 5.13419 17.0938 4.63731 16.4875 4.63731H1.10624C0.496866 4.63731 0 5.13419 0 5.74357V12.8279C0 13.4373 0.496866 13.9342 1.10624 13.9342H16.4875C17.0938 13.9342 17.5906 13.4373 17.5906 12.8279V10.9811H19.1594C19.625 10.9811 20 10.6029 20 10.1404V8.43419C20 7.97168 19.625 7.59356 19.1594 7.59356ZM5.32187 11.6467H2.29063V6.92481H5.32187V11.6467ZM10.3125 11.6467H7.27812V6.92481H10.3125V11.6467ZM15.3031 11.6467H12.2688V6.92481H15.3031V11.6467Z" fill="#E6E6E6"/>
</svg>