<svg width="25" height="24" viewBox="0 0 25 24" fill="none" xmlns="http://www.w3.org/2000/svg">
<g id="ic:baseline-telegram">
<path id="Vector" d="M12.6667 2C7.14669 2 2.66669 6.48 2.66669 12C2.66669 17.52 7.14669 22 12.6667 22C18.1867 22 22.6667 17.52 22.6667 12C22.6667 6.48 18.1867 2 12.6667 2ZM17.3067 8.8C17.1567 10.38 16.5067 14.22 16.1767 15.99C16.0367 16.74 15.7567 16.99 15.4967 17.02C14.9167 17.07 14.4767 16.64 13.9167 16.27C13.0367 15.69 12.5367 15.33 11.6867 14.77C10.6967 14.12 11.3367 13.76 11.9067 13.18C12.0567 13.03 14.6167 10.7 14.6667 10.49C14.6736 10.4582 14.6727 10.4252 14.664 10.3938C14.6553 10.3624 14.639 10.3337 14.6167 10.31C14.5567 10.26 14.4767 10.28 14.4067 10.29C14.3167 10.31 12.9167 11.24 10.1867 13.08C9.78669 13.35 9.42669 13.49 9.10669 13.48C8.74669 13.47 8.06669 13.28 7.55669 13.11C6.92669 12.91 6.43669 12.8 6.47669 12.45C6.49669 12.27 6.74669 12.09 7.21669 11.9C10.1367 10.63 12.0767 9.79 13.0467 9.39C15.8267 8.23 16.3967 8.03 16.7767 8.03C16.8567 8.03 17.0467 8.05 17.1667 8.15C17.2667 8.23 17.2967 8.34 17.3067 8.42C17.2967 8.48 17.3167 8.66 17.3067 8.8Z" fill="#9E68FF"/>
</g>
</svg>
